<svg width="16" height="16" viewBox="0 0 16 16" fill="none" xmlns="http://www.w3.org/2000/svg">
<path d="M8 9.96094C5.33 9.96094 0 11.2957 0 13.9453V15.9375H16V13.9453C16 11.2957 10.67 9.96094 8 9.96094ZM2 13.9453C2.22 13.2281 5.31 11.9531 8 11.9531C10.7 11.9531 13.8 13.2381 14 13.9453H2ZM8 7.96875C10.21 7.96875 12 6.18574 12 3.98438C12 1.78301 10.21 0 8 0C5.79 0 4 1.78301 4 3.98438C4 6.18574 5.79 7.96875 8 7.96875ZM8 1.99219C9.1 1.99219 10 2.88867 10 3.98438C10 5.08008 9.1 5.97656 8 5.97656C6.9 5.97656 6 5.08008 6 3.98438C6 2.88867 6.9 1.99219 8 1.99219Z" fill="black"/>
</svg>
