<svg width="16" height="21" viewBox="0 0 16 21" fill="none" xmlns="http://www.w3.org/2000/svg">
<path d="M14 6.97266H13V4.98047C13 2.23125 10.76 0 8 0C5.24 0 3 2.23125 3 4.98047H5C5 3.32695 6.34 1.99219 8 1.99219C9.66 1.99219 11 3.32695 11 4.98047V6.97266H2C0.9 6.97266 0 7.86914 0 8.96484V18.9258C0 20.0215 0.9 20.918 2 20.918H14C15.1 20.918 16 20.0215 16 18.9258V8.96484C16 7.86914 15.1 6.97266 14 6.97266ZM14 18.9258H2V8.96484H14V18.9258ZM8 15.9375C9.1 15.9375 10 15.041 10 13.9453C10 12.8496 9.1 11.9531 8 11.9531C6.9 11.9531 6 12.8496 6 13.9453C6 15.041 6.9 15.9375 8 15.9375Z" fill="black"/>
</svg>
