<svg width="24" height="24" viewBox="0 0 24 24" fill="none" xmlns="http://www.w3.org/2000/svg">
<path d="M15.9204 12.5014C17.0642 11.6015 17.899 10.3675 18.3088 8.97101C18.7186 7.57454 18.6829 6.08505 18.2068 4.70979C17.7306 3.33453 16.8377 2.14187 15.6521 1.29774C14.4666 0.453617 13.0474 0 11.592 0C10.1367 0 8.7175 0.453617 7.53196 1.29774C6.34641 2.14187 5.45344 3.33453 4.97728 4.70979C4.50113 6.08505 4.46547 7.57454 4.87526 8.97101C5.28505 10.3675 6.11991 11.6015 7.2637 12.5014C5.30379 13.2866 3.59371 14.589 2.31575 16.2696C1.03778 17.9503 0.239861 19.9463 0.00703715 22.0447C-0.00981583 22.198 0.00367311 22.353 0.0467335 22.501C0.0897938 22.649 0.161582 22.787 0.258001 22.9073C0.452726 23.1502 0.735951 23.3057 1.04537 23.3397C1.35479 23.3738 1.66506 23.2835 1.90792 23.0888C2.15078 22.8941 2.30633 22.6108 2.34037 22.3014C2.59655 20.0208 3.684 17.9145 5.39496 16.385C7.10591 14.8555 9.32042 14.0099 11.6154 14.0099C13.9103 14.0099 16.1248 14.8555 17.8358 16.385C19.5467 17.9145 20.6342 20.0208 20.8904 22.3014C20.9221 22.5881 21.0589 22.8528 21.2743 23.0446C21.4898 23.2363 21.7686 23.3415 22.057 23.3397H22.1854C22.4912 23.3046 22.7707 23.1499 22.963 22.9095C23.1553 22.6692 23.2448 22.3625 23.212 22.0564C22.9781 19.952 22.1759 17.9509 20.8914 16.2677C19.6068 14.5844 17.8884 13.2825 15.9204 12.5014ZM11.592 11.6731C10.6691 11.6731 9.76681 11.3994 8.99938 10.8866C8.23195 10.3738 7.63381 9.64499 7.2806 8.79227C6.92739 7.93955 6.83497 7.00124 7.01504 6.09599C7.1951 5.19075 7.63956 4.35923 8.2922 3.70658C8.94485 3.05394 9.77637 2.60948 10.6816 2.42941C11.5869 2.24935 12.5252 2.34177 13.3779 2.69497C14.2306 3.04818 14.9594 3.64632 15.4722 4.41375C15.985 5.18118 16.2587 6.08343 16.2587 7.00641C16.2587 8.24409 15.767 9.43108 14.8919 10.3062C14.0167 11.1814 12.8297 11.6731 11.592 11.6731Z" fill="#181B1A"/>
</svg>
