<svg width="27" height="6" viewBox="0 0 27 6" fill="none" xmlns="http://www.w3.org/2000/svg">
<path d="M13.5 0C12.9067 0 12.3266 0.175947 11.8333 0.505591C11.3399 0.835236 10.9554 1.30377 10.7284 1.85195C10.5013 2.40013 10.4419 3.00333 10.5576 3.58527C10.6734 4.16721 10.9591 4.70176 11.3787 5.12132C11.7982 5.54088 12.3328 5.8266 12.9147 5.94236C13.4967 6.05811 14.0999 5.9987 14.6481 5.77164C15.1962 5.54458 15.6648 5.16006 15.9944 4.66671C16.3241 4.17336 16.5 3.59334 16.5 3C16.5 2.20435 16.1839 1.44129 15.6213 0.87868C15.0587 0.316071 14.2957 0 13.5 0ZM3 0C2.40666 0 1.82664 0.175947 1.33329 0.505591C0.839943 0.835236 0.455426 1.30377 0.228363 1.85195C0.00129984 2.40013 -0.0581102 3.00333 0.0576455 3.58527C0.173401 4.16721 0.459123 4.70176 0.878681 5.12132C1.29824 5.54088 1.83279 5.8266 2.41473 5.94236C2.99667 6.05811 3.59987 5.9987 4.14805 5.77164C4.69623 5.54458 5.16477 5.16006 5.49441 4.66671C5.82405 4.17336 6 3.59334 6 3C6 2.20435 5.68393 1.44129 5.12132 0.87868C4.55871 0.316071 3.79565 0 3 0ZM24 0C23.4067 0 22.8266 0.175947 22.3333 0.505591C21.8399 0.835236 21.4554 1.30377 21.2284 1.85195C21.0013 2.40013 20.9419 3.00333 21.0576 3.58527C21.1734 4.16721 21.4591 4.70176 21.8787 5.12132C22.2982 5.54088 22.8328 5.8266 23.4147 5.94236C23.9967 6.05811 24.5999 5.9987 25.1481 5.77164C25.6962 5.54458 26.1648 5.16006 26.4944 4.66671C26.8241 4.17336 27 3.59334 27 3C27 2.20435 26.6839 1.44129 26.1213 0.87868C25.5587 0.316071 24.7957 0 24 0Z" fill="black"/>
</svg>
