<svg width="247" height="365" viewBox="0 0 247 365" fill="none" xmlns="http://www.w3.org/2000/svg">
<path d="M10.547 167.686C10.5471 168.379 10.4108 169.064 10.1459 169.704C9.88097 170.344 9.49259 170.925 9.00293 171.415C8.51327 171.905 7.93193 172.293 7.29211 172.558C6.6523 172.824 5.96653 172.96 5.27399 172.96C3.87524 172.96 2.53378 172.404 1.54471 171.415C0.555641 170.426 0 169.085 0 167.686C-1.24538e-08 166.993 0.136403 166.308 0.401459 165.668C0.666514 165.028 1.05502 164.447 1.54477 163.957C2.03452 163.467 2.61593 163.079 3.2558 162.814C3.89566 162.549 4.58144 162.413 5.27399 162.413C6.67247 162.413 8.01368 162.969 9.00256 163.957C9.99144 164.946 10.547 166.287 10.547 167.686V167.686Z" fill="#02B3E4"/>
<path d="M44.296 167.686C44.2962 168.379 44.1599 169.064 43.8949 169.704C43.63 170.344 43.2416 170.925 42.752 171.415C42.2623 171.905 41.681 172.293 41.0411 172.558C40.4013 172.824 39.7156 172.96 39.023 172.96C37.6243 172.96 36.2828 172.404 35.2937 171.415C34.3047 170.426 33.749 169.085 33.749 167.686C33.749 166.993 33.8855 166.308 34.1505 165.668C34.4156 165.028 34.804 164.447 35.2938 163.957C35.7835 163.467 36.365 163.079 37.0048 162.814C37.6447 162.549 38.3305 162.413 39.023 162.413C40.4215 162.413 41.7627 162.969 42.7516 163.957C43.7405 164.946 44.296 166.287 44.296 167.686V167.686Z" fill="#02B3E4"/>
<path d="M78.045 167.686C78.0451 168.379 77.9089 169.064 77.6439 169.704C77.379 170.344 76.9906 170.925 76.5009 171.415C76.0113 171.905 75.4299 172.293 74.7901 172.558C74.1503 172.824 73.4646 172.96 72.772 172.96C72.0795 172.96 71.3937 172.824 70.7539 172.558C70.1141 172.293 69.5327 171.905 69.0431 171.415C68.5534 170.925 68.1651 170.344 67.9001 169.704C67.6352 169.064 67.4989 168.379 67.499 167.686C67.499 166.287 68.0546 164.946 69.0435 163.957C70.0323 162.969 71.3735 162.413 72.772 162.413C74.1705 162.413 75.5117 162.969 76.5006 163.957C77.4895 164.946 78.045 166.287 78.045 167.686V167.686Z" fill="#02B3E4"/>
<path d="M111.795 167.686C111.795 169.085 111.239 170.426 110.25 171.415C109.261 172.404 107.92 172.96 106.521 172.96C105.829 172.96 105.143 172.824 104.503 172.558C103.863 172.293 103.282 171.905 102.792 171.415C102.302 170.925 101.914 170.344 101.649 169.704C101.384 169.064 101.248 168.379 101.248 167.686C101.248 166.287 101.804 164.946 102.792 163.957C103.781 162.969 105.123 162.413 106.521 162.413C107.214 162.413 107.899 162.549 108.539 162.814C109.179 163.079 109.761 163.467 110.25 163.957C110.74 164.447 111.129 165.028 111.394 165.668C111.659 166.308 111.795 166.993 111.795 167.686V167.686Z" fill="#02B3E4"/>
<path d="M145.539 167.686C145.539 168.379 145.403 169.064 145.138 169.704C144.873 170.344 144.485 170.925 143.995 171.415C143.505 171.905 142.924 172.293 142.284 172.558C141.644 172.824 140.959 172.96 140.266 172.96C138.867 172.96 137.526 172.404 136.537 171.415C135.548 170.426 134.992 169.085 134.992 167.686C134.992 166.993 135.129 166.308 135.394 165.668C135.659 165.028 136.047 164.447 136.537 163.957C137.027 163.467 137.608 163.079 138.248 162.814C138.888 162.549 139.574 162.413 140.266 162.413C141.665 162.413 143.006 162.969 143.995 163.957C144.984 164.946 145.539 166.287 145.539 167.686V167.686Z" fill="#02B3E4"/>
<path d="M179.293 167.686C179.293 168.379 179.157 169.064 178.892 169.704C178.627 170.344 178.239 170.925 177.749 171.415C177.259 171.905 176.678 172.293 176.038 172.558C175.398 172.824 174.713 172.96 174.02 172.96C172.621 172.96 171.28 172.404 170.291 171.415C169.302 170.426 168.746 169.085 168.746 167.686C168.746 166.993 168.882 166.308 169.148 165.668C169.413 165.028 169.801 164.447 170.291 163.957C170.781 163.467 171.362 163.079 172.002 162.814C172.642 162.549 173.328 162.413 174.02 162.413C175.419 162.413 176.76 162.969 177.749 163.957C178.738 164.946 179.293 166.287 179.293 167.686V167.686Z" fill="#02B3E4"/>
<path d="M213.039 167.686C213.039 168.379 212.903 169.064 212.638 169.704C212.373 170.344 211.985 170.925 211.495 171.415C211.005 171.905 210.424 172.293 209.784 172.558C209.144 172.824 208.459 172.96 207.766 172.96C207.074 172.96 206.388 172.824 205.748 172.558C205.108 172.293 204.527 171.905 204.037 171.415C203.548 170.925 203.159 170.344 202.894 169.704C202.629 169.064 202.493 168.379 202.493 167.686C202.493 166.994 202.63 166.308 202.895 165.668C203.16 165.028 203.548 164.447 204.038 163.957C204.527 163.468 205.109 163.079 205.748 162.814C206.388 162.549 207.074 162.413 207.766 162.413C209.165 162.413 210.506 162.969 211.495 163.957C212.484 164.946 213.039 166.287 213.039 167.686V167.686Z" fill="#02B3E4"/>
<path d="M241.518 172.958C244.43 172.958 246.791 170.597 246.791 167.685C246.791 164.773 244.43 162.412 241.518 162.412C238.606 162.412 236.245 164.773 236.245 167.685C236.245 170.597 238.606 172.958 241.518 172.958Z" fill="#02B3E4"/>
<path d="M10.547 135.832C10.5471 136.525 10.4108 137.21 10.1459 137.85C9.88097 138.49 9.49258 139.071 9.00293 139.561C8.51327 140.051 7.93194 140.439 7.29212 140.705C6.65231 140.97 5.96654 141.106 5.274 141.106C4.58141 141.106 3.8956 140.97 3.25573 140.705C2.61586 140.44 2.03446 140.051 1.54472 139.561C0.555652 138.572 0 137.231 0 135.832C-1.24538e-08 135.139 0.136423 134.454 0.401479 133.814C0.666534 133.174 1.05503 132.593 1.54478 132.103C2.03453 131.613 2.61594 131.225 3.2558 130.96C3.89567 130.695 4.58146 130.559 5.274 130.559C5.96646 130.559 6.65214 130.695 7.29189 130.96C7.93164 131.225 8.51293 131.614 9.00257 132.103C9.49222 132.593 9.88062 133.174 10.1456 133.814C10.4106 134.454 10.547 135.14 10.547 135.832V135.832Z" fill="#02B3E4"/>
<path d="M44.296 135.832C44.2962 136.525 44.1599 137.21 43.8949 137.85C43.63 138.49 43.2416 139.071 42.7519 139.561C42.2623 140.051 41.681 140.439 41.0411 140.705C40.4013 140.97 39.7156 141.106 39.023 141.106C37.6243 141.106 36.2828 140.55 35.2937 139.561C34.3047 138.572 33.749 137.231 33.749 135.832C33.749 135.139 33.8854 134.454 34.1505 133.814C34.4156 133.174 34.8041 132.593 35.2938 132.103C35.7836 131.613 36.365 131.225 37.0048 130.96C37.6447 130.695 38.3305 130.559 39.023 130.559C40.4215 130.559 41.7627 131.115 42.7516 132.103C43.7405 133.092 44.296 134.434 44.296 135.832V135.832Z" fill="#02B3E4"/>
<path d="M78.045 135.832C78.0452 136.525 77.9089 137.21 77.6439 137.85C77.379 138.49 76.9906 139.071 76.501 139.561C76.0113 140.051 75.43 140.439 74.7901 140.705C74.1503 140.97 73.4646 141.106 72.772 141.106C72.0795 141.106 71.3937 140.97 70.7539 140.705C70.1141 140.439 69.5328 140.051 69.0431 139.561C68.5534 139.071 68.1651 138.49 67.9001 137.85C67.6352 137.21 67.4989 136.525 67.499 135.832C67.499 134.434 68.0546 133.092 69.0434 132.103C70.0323 131.115 71.3735 130.559 72.772 130.559C74.1705 130.559 75.5117 131.115 76.5006 132.103C77.4895 133.092 78.045 134.434 78.045 135.832V135.832Z" fill="#02B3E4"/>
<path d="M111.795 135.832C111.795 137.231 111.239 138.572 110.25 139.561C109.261 140.55 107.92 141.106 106.521 141.106C105.829 141.106 105.143 140.97 104.503 140.705C103.863 140.439 103.282 140.051 102.792 139.561C102.302 139.071 101.914 138.49 101.649 137.85C101.384 137.21 101.248 136.525 101.248 135.832C101.248 134.434 101.804 133.092 102.792 132.103C103.781 131.115 105.123 130.559 106.521 130.559C107.214 130.559 107.899 130.695 108.539 130.96C109.179 131.225 109.761 131.613 110.25 132.103C110.74 132.593 111.129 133.174 111.394 133.814C111.659 134.454 111.795 135.139 111.795 135.832V135.832Z" fill="#02B3E4"/>
<path d="M145.539 135.832C145.539 136.525 145.403 137.21 145.138 137.85C144.873 138.49 144.485 139.071 143.995 139.561C143.505 140.051 142.924 140.439 142.284 140.705C141.644 140.97 140.959 141.106 140.266 141.106C138.867 141.106 137.526 140.55 136.537 139.561C135.548 138.572 134.992 137.231 134.992 135.832C134.992 135.139 135.129 134.454 135.394 133.814C135.659 133.174 136.047 132.593 136.537 132.103C137.027 131.613 137.608 131.225 138.248 130.96C138.888 130.695 139.574 130.559 140.266 130.559C141.665 130.559 143.006 131.115 143.995 132.103C144.984 133.092 145.539 134.434 145.539 135.832V135.832Z" fill="#02B3E4"/>
<path d="M179.293 135.832C179.293 136.525 179.157 137.21 178.892 137.85C178.627 138.49 178.239 139.071 177.749 139.561C177.259 140.051 176.678 140.439 176.038 140.705C175.398 140.97 174.713 141.106 174.02 141.106C172.621 141.106 171.28 140.55 170.291 139.561C169.302 138.572 168.746 137.231 168.746 135.832C168.746 135.139 168.883 134.454 169.148 133.814C169.413 133.174 169.801 132.593 170.291 132.103C170.781 131.613 171.362 131.225 172.002 130.96C172.642 130.695 173.328 130.559 174.02 130.559C175.419 130.559 176.76 131.115 177.749 132.103C178.738 133.092 179.293 134.434 179.293 135.832V135.832Z" fill="#02B3E4"/>
<path d="M213.039 135.832C213.039 136.525 212.903 137.21 212.638 137.85C212.373 138.49 211.985 139.071 211.495 139.561C211.005 140.051 210.424 140.439 209.784 140.705C209.144 140.97 208.459 141.106 207.766 141.106C207.074 141.106 206.388 140.97 205.748 140.705C205.108 140.439 204.527 140.051 204.037 139.561C203.548 139.071 203.159 138.49 202.894 137.85C202.629 137.21 202.493 136.525 202.493 135.832C202.493 134.434 203.049 133.092 204.038 132.103C205.026 131.115 206.368 130.559 207.766 130.559C209.165 130.559 210.506 131.115 211.495 132.103C212.484 133.092 213.039 134.434 213.039 135.832V135.832Z" fill="#02B3E4"/>
<path d="M246.792 135.832C246.792 137.231 246.236 138.572 245.247 139.561C244.258 140.55 242.917 141.106 241.518 141.106C240.826 141.106 240.14 140.97 239.5 140.705C238.86 140.439 238.279 140.051 237.789 139.561C237.3 139.071 236.911 138.49 236.646 137.85C236.381 137.21 236.245 136.525 236.245 135.832C236.245 134.434 236.801 133.092 237.79 132.103C238.778 131.115 240.12 130.559 241.518 130.559C242.211 130.559 242.896 130.695 243.536 130.96C244.176 131.225 244.758 131.613 245.247 132.103C245.737 132.593 246.126 133.174 246.391 133.814C246.656 134.454 246.792 135.139 246.792 135.832Z" fill="#02B3E4"/>
<path d="M10.547 199.686C10.5471 200.379 10.4108 201.064 10.1459 201.704C9.88097 202.344 9.49259 202.925 9.00293 203.415C8.51327 203.905 7.93193 204.293 7.29211 204.558C6.6523 204.824 5.96653 204.96 5.27399 204.96C3.87524 204.96 2.53378 204.404 1.54471 203.415C0.555641 202.426 0 201.085 0 199.686C-1.24538e-08 198.993 0.136403 198.308 0.401459 197.668C0.666514 197.028 1.05502 196.447 1.54477 195.957C2.03452 195.467 2.61593 195.079 3.2558 194.814C3.89566 194.549 4.58144 194.413 5.27399 194.413C6.67247 194.413 8.01368 194.969 9.00256 195.957C9.99144 196.946 10.547 198.287 10.547 199.686V199.686Z" fill="#02B3E4"/>
<path d="M44.296 199.686C44.2962 200.379 44.1599 201.064 43.8949 201.704C43.63 202.344 43.2416 202.925 42.752 203.415C42.2623 203.905 41.681 204.293 41.0411 204.558C40.4013 204.824 39.7156 204.96 39.023 204.96C37.6243 204.96 36.2828 204.404 35.2937 203.415C34.3047 202.426 33.749 201.085 33.749 199.686C33.749 198.993 33.8855 198.308 34.1505 197.668C34.4156 197.028 34.804 196.447 35.2938 195.957C35.7835 195.467 36.365 195.079 37.0048 194.814C37.6447 194.549 38.3305 194.413 39.023 194.413C40.4215 194.413 41.7627 194.969 42.7516 195.957C43.7405 196.946 44.296 198.287 44.296 199.686V199.686Z" fill="#02B3E4"/>
<path d="M78.045 199.686C78.0451 200.379 77.9089 201.064 77.6439 201.704C77.379 202.344 76.9906 202.925 76.5009 203.415C76.0113 203.905 75.4299 204.293 74.7901 204.558C74.1503 204.824 73.4646 204.96 72.772 204.96C72.0795 204.96 71.3937 204.824 70.7539 204.558C70.1141 204.293 69.5327 203.905 69.0431 203.415C68.5534 202.925 68.1651 202.344 67.9001 201.704C67.6352 201.064 67.4989 200.379 67.499 199.686C67.499 198.287 68.0546 196.946 69.0435 195.957C70.0323 194.969 71.3735 194.413 72.772 194.413C74.1705 194.413 75.5117 194.969 76.5006 195.957C77.4895 196.946 78.045 198.287 78.045 199.686V199.686Z" fill="#02B3E4"/>
<path d="M111.795 199.686C111.795 201.085 111.239 202.426 110.25 203.415C109.261 204.404 107.92 204.96 106.521 204.96C105.829 204.96 105.143 204.824 104.503 204.558C103.863 204.293 103.282 203.905 102.792 203.415C102.302 202.925 101.914 202.344 101.649 201.704C101.384 201.064 101.248 200.379 101.248 199.686C101.248 198.287 101.804 196.946 102.792 195.957C103.781 194.969 105.123 194.413 106.521 194.413C107.214 194.413 107.899 194.549 108.539 194.814C109.179 195.079 109.761 195.467 110.25 195.957C110.74 196.447 111.129 197.028 111.394 197.668C111.659 198.308 111.795 198.993 111.795 199.686V199.686Z" fill="#02B3E4"/>
<path d="M145.539 199.686C145.539 200.379 145.403 201.064 145.138 201.704C144.873 202.344 144.485 202.925 143.995 203.415C143.505 203.905 142.924 204.293 142.284 204.558C141.644 204.824 140.959 204.96 140.266 204.96C138.867 204.96 137.526 204.404 136.537 203.415C135.548 202.426 134.992 201.085 134.992 199.686C134.992 198.993 135.129 198.308 135.394 197.668C135.659 197.028 136.047 196.447 136.537 195.957C137.027 195.467 137.608 195.079 138.248 194.814C138.888 194.549 139.574 194.413 140.266 194.413C141.665 194.413 143.006 194.969 143.995 195.957C144.984 196.946 145.539 198.287 145.539 199.686V199.686Z" fill="#02B3E4"/>
<path d="M179.293 199.686C179.293 200.379 179.157 201.064 178.892 201.704C178.627 202.344 178.239 202.925 177.749 203.415C177.259 203.905 176.678 204.293 176.038 204.558C175.398 204.824 174.713 204.96 174.02 204.96C172.621 204.96 171.28 204.404 170.291 203.415C169.302 202.426 168.746 201.085 168.746 199.686C168.746 198.993 168.882 198.308 169.148 197.668C169.413 197.028 169.801 196.447 170.291 195.957C170.781 195.467 171.362 195.079 172.002 194.814C172.642 194.549 173.328 194.413 174.02 194.413C175.419 194.413 176.76 194.969 177.749 195.957C178.738 196.946 179.293 198.287 179.293 199.686V199.686Z" fill="#02B3E4"/>
<path d="M213.039 199.686C213.039 200.379 212.903 201.064 212.638 201.704C212.373 202.344 211.985 202.925 211.495 203.415C211.005 203.905 210.424 204.293 209.784 204.558C209.144 204.824 208.459 204.96 207.766 204.96C207.074 204.96 206.388 204.824 205.748 204.558C205.108 204.293 204.527 203.905 204.037 203.415C203.548 202.925 203.159 202.344 202.894 201.704C202.629 201.064 202.493 200.379 202.493 199.686C202.493 198.994 202.63 198.308 202.895 197.668C203.16 197.028 203.548 196.447 204.038 195.957C204.527 195.468 205.109 195.079 205.748 194.814C206.388 194.549 207.074 194.413 207.766 194.413C209.165 194.413 210.506 194.969 211.495 195.957C212.484 196.946 213.039 198.287 213.039 199.686V199.686Z" fill="#02B3E4"/>
<path d="M241.518 204.958C244.43 204.958 246.791 202.597 246.791 199.685C246.791 196.773 244.43 194.412 241.518 194.412C238.606 194.412 236.245 196.773 236.245 199.685C236.245 202.597 238.606 204.958 241.518 204.958Z" fill="#02B3E4"/>
<path d="M10.547 229.686C10.5471 230.379 10.4108 231.064 10.1459 231.704C9.88097 232.344 9.49259 232.925 9.00293 233.415C8.51327 233.905 7.93193 234.293 7.29211 234.558C6.6523 234.824 5.96653 234.96 5.27399 234.96C3.87524 234.96 2.53378 234.404 1.54471 233.415C0.555641 232.426 0 231.085 0 229.686C-1.24538e-08 228.993 0.136403 228.308 0.401459 227.668C0.666514 227.028 1.05502 226.447 1.54477 225.957C2.03452 225.467 2.61593 225.079 3.2558 224.814C3.89566 224.549 4.58144 224.413 5.27399 224.413C6.67247 224.413 8.01368 224.969 9.00256 225.957C9.99144 226.946 10.547 228.287 10.547 229.686V229.686Z" fill="#02B3E4"/>
<path d="M44.296 229.686C44.2962 230.379 44.1599 231.064 43.8949 231.704C43.63 232.344 43.2416 232.925 42.752 233.415C42.2623 233.905 41.681 234.293 41.0411 234.558C40.4013 234.824 39.7156 234.96 39.023 234.96C37.6243 234.96 36.2828 234.404 35.2937 233.415C34.3047 232.426 33.749 231.085 33.749 229.686C33.749 228.993 33.8855 228.308 34.1505 227.668C34.4156 227.028 34.804 226.447 35.2938 225.957C35.7835 225.467 36.365 225.079 37.0048 224.814C37.6447 224.549 38.3305 224.413 39.023 224.413C40.4215 224.413 41.7627 224.969 42.7516 225.957C43.7405 226.946 44.296 228.287 44.296 229.686V229.686Z" fill="#02B3E4"/>
<path d="M78.045 229.686C78.0451 230.379 77.9089 231.064 77.6439 231.704C77.379 232.344 76.9906 232.925 76.5009 233.415C76.0113 233.905 75.4299 234.293 74.7901 234.558C74.1503 234.824 73.4646 234.96 72.772 234.96C72.0795 234.96 71.3937 234.824 70.7539 234.558C70.1141 234.293 69.5327 233.905 69.0431 233.415C68.5534 232.925 68.1651 232.344 67.9001 231.704C67.6352 231.064 67.4989 230.379 67.499 229.686C67.499 228.287 68.0546 226.946 69.0435 225.957C70.0323 224.969 71.3735 224.413 72.772 224.413C74.1705 224.413 75.5117 224.969 76.5006 225.957C77.4895 226.946 78.045 228.287 78.045 229.686V229.686Z" fill="#02B3E4"/>
<path d="M111.795 229.686C111.795 231.085 111.239 232.426 110.25 233.415C109.261 234.404 107.92 234.96 106.521 234.96C105.829 234.96 105.143 234.824 104.503 234.558C103.863 234.293 103.282 233.905 102.792 233.415C102.302 232.925 101.914 232.344 101.649 231.704C101.384 231.064 101.248 230.379 101.248 229.686C101.248 228.287 101.804 226.946 102.792 225.957C103.781 224.969 105.123 224.413 106.521 224.413C107.214 224.413 107.899 224.549 108.539 224.814C109.179 225.079 109.761 225.467 110.25 225.957C110.74 226.447 111.129 227.028 111.394 227.668C111.659 228.308 111.795 228.993 111.795 229.686V229.686Z" fill="#02B3E4"/>
<path d="M145.539 229.686C145.539 230.379 145.403 231.064 145.138 231.704C144.873 232.344 144.485 232.925 143.995 233.415C143.505 233.905 142.924 234.293 142.284 234.558C141.644 234.824 140.959 234.96 140.266 234.96C138.867 234.96 137.526 234.404 136.537 233.415C135.548 232.426 134.992 231.085 134.992 229.686C134.992 228.993 135.129 228.308 135.394 227.668C135.659 227.028 136.047 226.447 136.537 225.957C137.027 225.467 137.608 225.079 138.248 224.814C138.888 224.549 139.574 224.413 140.266 224.413C141.665 224.413 143.006 224.969 143.995 225.957C144.984 226.946 145.539 228.287 145.539 229.686V229.686Z" fill="#02B3E4"/>
<path d="M179.293 229.686C179.293 230.379 179.157 231.064 178.892 231.704C178.627 232.344 178.239 232.925 177.749 233.415C177.259 233.905 176.678 234.293 176.038 234.558C175.398 234.824 174.713 234.96 174.02 234.96C172.621 234.96 171.28 234.404 170.291 233.415C169.302 232.426 168.746 231.085 168.746 229.686C168.746 228.993 168.882 228.308 169.148 227.668C169.413 227.028 169.801 226.447 170.291 225.957C170.781 225.467 171.362 225.079 172.002 224.814C172.642 224.549 173.328 224.413 174.02 224.413C175.419 224.413 176.76 224.969 177.749 225.957C178.738 226.946 179.293 228.287 179.293 229.686V229.686Z" fill="#02B3E4"/>
<path d="M213.039 229.686C213.039 230.379 212.903 231.064 212.638 231.704C212.373 232.344 211.985 232.925 211.495 233.415C211.005 233.905 210.424 234.293 209.784 234.558C209.144 234.824 208.459 234.96 207.766 234.96C207.074 234.96 206.388 234.824 205.748 234.558C205.108 234.293 204.527 233.905 204.037 233.415C203.548 232.925 203.159 232.344 202.894 231.704C202.629 231.064 202.493 230.379 202.493 229.686C202.493 228.994 202.63 228.308 202.895 227.668C203.16 227.028 203.548 226.447 204.038 225.957C204.527 225.468 205.109 225.079 205.748 224.814C206.388 224.549 207.074 224.413 207.766 224.413C209.165 224.413 210.506 224.969 211.495 225.957C212.484 226.946 213.039 228.287 213.039 229.686V229.686Z" fill="#02B3E4"/>
<path d="M241.518 234.958C244.43 234.958 246.791 232.597 246.791 229.685C246.791 226.773 244.43 224.412 241.518 224.412C238.606 224.412 236.245 226.773 236.245 229.685C236.245 232.597 238.606 234.958 241.518 234.958Z" fill="#02B3E4"/>
<path d="M10.547 297.686C10.5471 298.379 10.4108 299.064 10.1459 299.704C9.88097 300.344 9.49259 300.925 9.00293 301.415C8.51327 301.905 7.93193 302.293 7.29211 302.558C6.6523 302.824 5.96653 302.96 5.27399 302.96C3.87524 302.96 2.53378 302.404 1.54471 301.415C0.555641 300.426 0 299.085 0 297.686C-1.24538e-08 296.993 0.136403 296.308 0.401459 295.668C0.666514 295.028 1.05502 294.447 1.54477 293.957C2.03452 293.467 2.61593 293.079 3.2558 292.814C3.89566 292.549 4.58144 292.413 5.27399 292.413C6.67247 292.413 8.01368 292.969 9.00256 293.957C9.99144 294.946 10.547 296.287 10.547 297.686V297.686Z" fill="#02B3E4"/>
<path d="M44.296 297.686C44.2962 298.379 44.1599 299.064 43.8949 299.704C43.63 300.344 43.2416 300.925 42.752 301.415C42.2623 301.905 41.681 302.293 41.0411 302.558C40.4013 302.824 39.7156 302.96 39.023 302.96C37.6243 302.96 36.2828 302.404 35.2937 301.415C34.3047 300.426 33.749 299.085 33.749 297.686C33.749 296.993 33.8855 296.308 34.1505 295.668C34.4156 295.028 34.804 294.447 35.2938 293.957C35.7835 293.467 36.365 293.079 37.0048 292.814C37.6447 292.549 38.3305 292.413 39.023 292.413C40.4215 292.413 41.7627 292.969 42.7516 293.957C43.7405 294.946 44.296 296.287 44.296 297.686V297.686Z" fill="#02B3E4"/>
<path d="M78.045 297.686C78.0451 298.379 77.9089 299.064 77.6439 299.704C77.379 300.344 76.9906 300.925 76.5009 301.415C76.0113 301.905 75.4299 302.293 74.7901 302.558C74.1503 302.824 73.4646 302.96 72.772 302.96C72.0795 302.96 71.3937 302.824 70.7539 302.558C70.1141 302.293 69.5327 301.905 69.0431 301.415C68.5534 300.925 68.1651 300.344 67.9001 299.704C67.6352 299.064 67.4989 298.379 67.499 297.686C67.499 296.287 68.0546 294.946 69.0435 293.957C70.0323 292.969 71.3735 292.413 72.772 292.413C74.1705 292.413 75.5117 292.969 76.5006 293.957C77.4895 294.946 78.045 296.287 78.045 297.686V297.686Z" fill="#02B3E4"/>
<path d="M111.795 297.686C111.795 299.085 111.239 300.426 110.25 301.415C109.261 302.404 107.92 302.96 106.521 302.96C105.829 302.96 105.143 302.824 104.503 302.558C103.863 302.293 103.282 301.905 102.792 301.415C102.302 300.925 101.914 300.344 101.649 299.704C101.384 299.064 101.248 298.379 101.248 297.686C101.248 296.287 101.804 294.946 102.792 293.957C103.781 292.969 105.123 292.413 106.521 292.413C107.214 292.413 107.899 292.549 108.539 292.814C109.179 293.079 109.761 293.467 110.25 293.957C110.74 294.447 111.129 295.028 111.394 295.668C111.659 296.308 111.795 296.993 111.795 297.686V297.686Z" fill="#02B3E4"/>
<path d="M145.539 297.686C145.539 298.379 145.403 299.064 145.138 299.704C144.873 300.344 144.485 300.925 143.995 301.415C143.505 301.905 142.924 302.293 142.284 302.558C141.644 302.824 140.959 302.96 140.266 302.96C138.867 302.96 137.526 302.404 136.537 301.415C135.548 300.426 134.992 299.085 134.992 297.686C134.992 296.993 135.129 296.308 135.394 295.668C135.659 295.028 136.047 294.447 136.537 293.957C137.027 293.467 137.608 293.079 138.248 292.814C138.888 292.549 139.574 292.413 140.266 292.413C141.665 292.413 143.006 292.969 143.995 293.957C144.984 294.946 145.539 296.287 145.539 297.686V297.686Z" fill="#02B3E4"/>
<path d="M179.293 297.686C179.293 298.379 179.157 299.064 178.892 299.704C178.627 300.344 178.239 300.925 177.749 301.415C177.259 301.905 176.678 302.293 176.038 302.558C175.398 302.824 174.713 302.96 174.02 302.96C172.621 302.96 171.28 302.404 170.291 301.415C169.302 300.426 168.746 299.085 168.746 297.686C168.746 296.993 168.882 296.308 169.148 295.668C169.413 295.028 169.801 294.447 170.291 293.957C170.781 293.467 171.362 293.079 172.002 292.814C172.642 292.549 173.328 292.413 174.02 292.413C175.419 292.413 176.76 292.969 177.749 293.957C178.738 294.946 179.293 296.287 179.293 297.686V297.686Z" fill="#02B3E4"/>
<path d="M213.039 297.686C213.039 298.379 212.903 299.064 212.638 299.704C212.373 300.344 211.985 300.925 211.495 301.415C211.005 301.905 210.424 302.293 209.784 302.558C209.144 302.824 208.459 302.96 207.766 302.96C207.074 302.96 206.388 302.824 205.748 302.558C205.108 302.293 204.527 301.905 204.037 301.415C203.548 300.925 203.159 300.344 202.894 299.704C202.629 299.064 202.493 298.379 202.493 297.686C202.493 296.994 202.63 296.308 202.895 295.668C203.16 295.028 203.548 294.447 204.038 293.957C204.527 293.468 205.109 293.079 205.748 292.814C206.388 292.549 207.074 292.413 207.766 292.413C209.165 292.413 210.506 292.969 211.495 293.957C212.484 294.946 213.039 296.287 213.039 297.686V297.686Z" fill="#02B3E4"/>
<path d="M241.518 302.958C244.43 302.958 246.791 300.597 246.791 297.685C246.791 294.773 244.43 292.412 241.518 292.412C238.606 292.412 236.245 294.773 236.245 297.685C236.245 300.597 238.606 302.958 241.518 302.958Z" fill="#02B3E4"/>
<path d="M10.547 265.832C10.5471 266.525 10.4108 267.21 10.1459 267.85C9.88097 268.49 9.49258 269.071 9.00293 269.561C8.51327 270.051 7.93194 270.439 7.29212 270.705C6.65231 270.97 5.96654 271.106 5.274 271.106C4.58141 271.106 3.8956 270.97 3.25573 270.705C2.61586 270.44 2.03446 270.051 1.54472 269.561C0.555652 268.572 0 267.231 0 265.832C-1.24538e-08 265.139 0.136423 264.454 0.401479 263.814C0.666534 263.174 1.05503 262.593 1.54478 262.103C2.03453 261.613 2.61594 261.225 3.2558 260.96C3.89567 260.695 4.58146 260.559 5.274 260.559C5.96646 260.559 6.65214 260.695 7.29189 260.96C7.93164 261.225 8.51293 261.614 9.00257 262.103C9.49222 262.593 9.88062 263.174 10.1456 263.814C10.4106 264.454 10.547 265.14 10.547 265.832V265.832Z" fill="#02B3E4"/>
<path d="M44.296 265.832C44.2962 266.525 44.1599 267.21 43.8949 267.85C43.63 268.49 43.2416 269.071 42.7519 269.561C42.2623 270.051 41.681 270.439 41.0411 270.705C40.4013 270.97 39.7156 271.106 39.023 271.106C37.6243 271.106 36.2828 270.55 35.2937 269.561C34.3047 268.572 33.749 267.231 33.749 265.832C33.749 265.139 33.8854 264.454 34.1505 263.814C34.4156 263.174 34.8041 262.593 35.2938 262.103C35.7836 261.613 36.365 261.225 37.0048 260.96C37.6447 260.695 38.3305 260.559 39.023 260.559C40.4215 260.559 41.7627 261.115 42.7516 262.103C43.7405 263.092 44.296 264.434 44.296 265.832V265.832Z" fill="#02B3E4"/>
<path d="M78.045 265.832C78.0452 266.525 77.9089 267.21 77.6439 267.85C77.379 268.49 76.9906 269.071 76.501 269.561C76.0113 270.051 75.43 270.439 74.7901 270.705C74.1503 270.97 73.4646 271.106 72.772 271.106C72.0795 271.106 71.3937 270.97 70.7539 270.705C70.1141 270.439 69.5328 270.051 69.0431 269.561C68.5534 269.071 68.1651 268.49 67.9001 267.85C67.6352 267.21 67.4989 266.525 67.499 265.832C67.499 264.434 68.0546 263.092 69.0434 262.103C70.0323 261.115 71.3735 260.559 72.772 260.559C74.1705 260.559 75.5117 261.115 76.5006 262.103C77.4895 263.092 78.045 264.434 78.045 265.832V265.832Z" fill="#02B3E4"/>
<path d="M111.795 265.832C111.795 267.231 111.239 268.572 110.25 269.561C109.261 270.55 107.92 271.106 106.521 271.106C105.829 271.106 105.143 270.97 104.503 270.705C103.863 270.439 103.282 270.051 102.792 269.561C102.302 269.071 101.914 268.49 101.649 267.85C101.384 267.21 101.248 266.525 101.248 265.832C101.248 264.434 101.804 263.092 102.792 262.103C103.781 261.115 105.123 260.559 106.521 260.559C107.214 260.559 107.899 260.695 108.539 260.96C109.179 261.225 109.761 261.613 110.25 262.103C110.74 262.593 111.129 263.174 111.394 263.814C111.659 264.454 111.795 265.139 111.795 265.832V265.832Z" fill="#02B3E4"/>
<path d="M145.539 265.832C145.539 266.525 145.403 267.21 145.138 267.85C144.873 268.49 144.485 269.071 143.995 269.561C143.505 270.051 142.924 270.439 142.284 270.705C141.644 270.97 140.959 271.106 140.266 271.106C138.867 271.106 137.526 270.55 136.537 269.561C135.548 268.572 134.992 267.231 134.992 265.832C134.992 265.139 135.129 264.454 135.394 263.814C135.659 263.174 136.047 262.593 136.537 262.103C137.027 261.613 137.608 261.225 138.248 260.96C138.888 260.695 139.574 260.559 140.266 260.559C141.665 260.559 143.006 261.115 143.995 262.103C144.984 263.092 145.539 264.434 145.539 265.832V265.832Z" fill="#02B3E4"/>
<path d="M179.293 265.832C179.293 266.525 179.157 267.21 178.892 267.85C178.627 268.49 178.239 269.071 177.749 269.561C177.259 270.051 176.678 270.439 176.038 270.705C175.398 270.97 174.713 271.106 174.02 271.106C172.621 271.106 171.28 270.55 170.291 269.561C169.302 268.572 168.746 267.231 168.746 265.832C168.746 265.139 168.883 264.454 169.148 263.814C169.413 263.174 169.801 262.593 170.291 262.103C170.781 261.613 171.362 261.225 172.002 260.96C172.642 260.695 173.328 260.559 174.02 260.559C175.419 260.559 176.76 261.115 177.749 262.103C178.738 263.092 179.293 264.434 179.293 265.832V265.832Z" fill="#02B3E4"/>
<path d="M213.039 265.832C213.039 266.525 212.903 267.21 212.638 267.85C212.373 268.49 211.985 269.071 211.495 269.561C211.005 270.051 210.424 270.439 209.784 270.705C209.144 270.97 208.459 271.106 207.766 271.106C207.074 271.106 206.388 270.97 205.748 270.705C205.108 270.439 204.527 270.051 204.037 269.561C203.548 269.071 203.159 268.49 202.894 267.85C202.629 267.21 202.493 266.525 202.493 265.832C202.493 264.434 203.049 263.092 204.038 262.103C205.026 261.115 206.368 260.559 207.766 260.559C209.165 260.559 210.506 261.115 211.495 262.103C212.484 263.092 213.039 264.434 213.039 265.832V265.832Z" fill="#02B3E4"/>
<path d="M246.792 265.832C246.792 267.231 246.236 268.572 245.247 269.561C244.258 270.55 242.917 271.106 241.518 271.106C240.826 271.106 240.14 270.97 239.5 270.705C238.86 270.439 238.279 270.051 237.789 269.561C237.3 269.071 236.911 268.49 236.646 267.85C236.381 267.21 236.245 266.525 236.245 265.832C236.245 264.434 236.801 263.092 237.79 262.103C238.778 261.115 240.12 260.559 241.518 260.559C242.211 260.559 242.896 260.695 243.536 260.96C244.176 261.225 244.758 261.613 245.247 262.103C245.737 262.593 246.126 263.174 246.391 263.814C246.656 264.454 246.792 265.139 246.792 265.832Z" fill="#02B3E4"/>
<path d="M10.547 329.686C10.5471 330.379 10.4108 331.064 10.1459 331.704C9.88097 332.344 9.49259 332.925 9.00293 333.415C8.51327 333.905 7.93193 334.293 7.29211 334.558C6.6523 334.824 5.96653 334.96 5.27399 334.96C3.87524 334.96 2.53378 334.404 1.54471 333.415C0.555641 332.426 0 331.085 0 329.686C-1.24538e-08 328.993 0.136403 328.308 0.401459 327.668C0.666514 327.028 1.05502 326.447 1.54477 325.957C2.03452 325.467 2.61593 325.079 3.2558 324.814C3.89566 324.549 4.58144 324.413 5.27399 324.413C6.67247 324.413 8.01368 324.969 9.00256 325.957C9.99144 326.946 10.547 328.287 10.547 329.686V329.686Z" fill="#02B3E4"/>
<path d="M44.296 329.686C44.2962 330.379 44.1599 331.064 43.8949 331.704C43.63 332.344 43.2416 332.925 42.752 333.415C42.2623 333.905 41.681 334.293 41.0411 334.558C40.4013 334.824 39.7156 334.96 39.023 334.96C37.6243 334.96 36.2828 334.404 35.2937 333.415C34.3047 332.426 33.749 331.085 33.749 329.686C33.749 328.993 33.8855 328.308 34.1505 327.668C34.4156 327.028 34.804 326.447 35.2938 325.957C35.7835 325.467 36.365 325.079 37.0048 324.814C37.6447 324.549 38.3305 324.413 39.023 324.413C40.4215 324.413 41.7627 324.969 42.7516 325.957C43.7405 326.946 44.296 328.287 44.296 329.686V329.686Z" fill="#02B3E4"/>
<path d="M78.045 329.686C78.0451 330.379 77.9089 331.064 77.6439 331.704C77.379 332.344 76.9906 332.925 76.5009 333.415C76.0113 333.905 75.4299 334.293 74.7901 334.558C74.1503 334.824 73.4646 334.96 72.772 334.96C72.0795 334.96 71.3937 334.824 70.7539 334.558C70.1141 334.293 69.5327 333.905 69.0431 333.415C68.5534 332.925 68.1651 332.344 67.9001 331.704C67.6352 331.064 67.4989 330.379 67.499 329.686C67.499 328.287 68.0546 326.946 69.0435 325.957C70.0323 324.969 71.3735 324.413 72.772 324.413C74.1705 324.413 75.5117 324.969 76.5006 325.957C77.4895 326.946 78.045 328.287 78.045 329.686V329.686Z" fill="#02B3E4"/>
<path d="M111.795 329.686C111.795 331.085 111.239 332.426 110.25 333.415C109.261 334.404 107.92 334.96 106.521 334.96C105.829 334.96 105.143 334.824 104.503 334.558C103.863 334.293 103.282 333.905 102.792 333.415C102.302 332.925 101.914 332.344 101.649 331.704C101.384 331.064 101.248 330.379 101.248 329.686C101.248 328.287 101.804 326.946 102.792 325.957C103.781 324.969 105.123 324.413 106.521 324.413C107.214 324.413 107.899 324.549 108.539 324.814C109.179 325.079 109.761 325.467 110.25 325.957C110.74 326.447 111.129 327.028 111.394 327.668C111.659 328.308 111.795 328.993 111.795 329.686V329.686Z" fill="#02B3E4"/>
<path d="M145.539 329.686C145.539 330.379 145.403 331.064 145.138 331.704C144.873 332.344 144.485 332.925 143.995 333.415C143.505 333.905 142.924 334.293 142.284 334.558C141.644 334.824 140.959 334.96 140.266 334.96C138.867 334.96 137.526 334.404 136.537 333.415C135.548 332.426 134.992 331.085 134.992 329.686C134.992 328.993 135.129 328.308 135.394 327.668C135.659 327.028 136.047 326.447 136.537 325.957C137.027 325.467 137.608 325.079 138.248 324.814C138.888 324.549 139.574 324.413 140.266 324.413C141.665 324.413 143.006 324.969 143.995 325.957C144.984 326.946 145.539 328.287 145.539 329.686V329.686Z" fill="#02B3E4"/>
<path d="M179.293 329.686C179.293 330.379 179.157 331.064 178.892 331.704C178.627 332.344 178.239 332.925 177.749 333.415C177.259 333.905 176.678 334.293 176.038 334.558C175.398 334.824 174.713 334.96 174.02 334.96C172.621 334.96 171.28 334.404 170.291 333.415C169.302 332.426 168.746 331.085 168.746 329.686C168.746 328.993 168.882 328.308 169.148 327.668C169.413 327.028 169.801 326.447 170.291 325.957C170.781 325.467 171.362 325.079 172.002 324.814C172.642 324.549 173.328 324.413 174.02 324.413C175.419 324.413 176.76 324.969 177.749 325.957C178.738 326.946 179.293 328.287 179.293 329.686V329.686Z" fill="#02B3E4"/>
<path d="M213.039 329.686C213.039 330.379 212.903 331.064 212.638 331.704C212.373 332.344 211.985 332.925 211.495 333.415C211.005 333.905 210.424 334.293 209.784 334.558C209.144 334.824 208.459 334.96 207.766 334.96C207.074 334.96 206.388 334.824 205.748 334.558C205.108 334.293 204.527 333.905 204.037 333.415C203.548 332.925 203.159 332.344 202.894 331.704C202.629 331.064 202.493 330.379 202.493 329.686C202.493 328.994 202.63 328.308 202.895 327.668C203.16 327.028 203.548 326.447 204.038 325.957C204.527 325.468 205.109 325.079 205.748 324.814C206.388 324.549 207.074 324.413 207.766 324.413C209.165 324.413 210.506 324.969 211.495 325.957C212.484 326.946 213.039 328.287 213.039 329.686V329.686Z" fill="#02B3E4"/>
<path d="M241.518 334.958C244.43 334.958 246.791 332.597 246.791 329.685C246.791 326.773 244.43 324.412 241.518 324.412C238.606 324.412 236.245 326.773 236.245 329.685C236.245 332.597 238.606 334.958 241.518 334.958Z" fill="#02B3E4"/>
<path d="M10.547 359.686C10.5471 360.379 10.4108 361.064 10.1459 361.704C9.88097 362.344 9.49259 362.925 9.00293 363.415C8.51327 363.905 7.93193 364.293 7.29211 364.558C6.6523 364.824 5.96653 364.96 5.27399 364.96C3.87524 364.96 2.53378 364.404 1.54471 363.415C0.555641 362.426 0 361.085 0 359.686C-1.24538e-08 358.993 0.136403 358.308 0.401459 357.668C0.666514 357.028 1.05502 356.447 1.54477 355.957C2.03452 355.467 2.61593 355.079 3.2558 354.814C3.89566 354.549 4.58144 354.413 5.27399 354.413C6.67247 354.413 8.01368 354.969 9.00256 355.957C9.99144 356.946 10.547 358.287 10.547 359.686V359.686Z" fill="#02B3E4"/>
<path d="M44.296 359.686C44.2962 360.379 44.1599 361.064 43.8949 361.704C43.63 362.344 43.2416 362.925 42.752 363.415C42.2623 363.905 41.681 364.293 41.0411 364.558C40.4013 364.824 39.7156 364.96 39.023 364.96C37.6243 364.96 36.2828 364.404 35.2937 363.415C34.3047 362.426 33.749 361.085 33.749 359.686C33.749 358.993 33.8855 358.308 34.1505 357.668C34.4156 357.028 34.804 356.447 35.2938 355.957C35.7835 355.467 36.365 355.079 37.0048 354.814C37.6447 354.549 38.3305 354.413 39.023 354.413C40.4215 354.413 41.7627 354.969 42.7516 355.957C43.7405 356.946 44.296 358.287 44.296 359.686V359.686Z" fill="#02B3E4"/>
<path d="M78.045 359.686C78.0451 360.379 77.9089 361.064 77.6439 361.704C77.379 362.344 76.9906 362.925 76.5009 363.415C76.0113 363.905 75.4299 364.293 74.7901 364.558C74.1503 364.824 73.4646 364.96 72.772 364.96C72.0795 364.96 71.3937 364.824 70.7539 364.558C70.1141 364.293 69.5327 363.905 69.0431 363.415C68.5534 362.925 68.1651 362.344 67.9001 361.704C67.6352 361.064 67.4989 360.379 67.499 359.686C67.499 358.287 68.0546 356.946 69.0435 355.957C70.0323 354.969 71.3735 354.413 72.772 354.413C74.1705 354.413 75.5117 354.969 76.5006 355.957C77.4895 356.946 78.045 358.287 78.045 359.686V359.686Z" fill="#02B3E4"/>
<path d="M111.795 359.686C111.795 361.085 111.239 362.426 110.25 363.415C109.261 364.404 107.92 364.96 106.521 364.96C105.829 364.96 105.143 364.824 104.503 364.558C103.863 364.293 103.282 363.905 102.792 363.415C102.302 362.925 101.914 362.344 101.649 361.704C101.384 361.064 101.248 360.379 101.248 359.686C101.248 358.287 101.804 356.946 102.792 355.957C103.781 354.969 105.123 354.413 106.521 354.413C107.214 354.413 107.899 354.549 108.539 354.814C109.179 355.079 109.761 355.467 110.25 355.957C110.74 356.447 111.129 357.028 111.394 357.668C111.659 358.308 111.795 358.993 111.795 359.686V359.686Z" fill="#02B3E4"/>
<path d="M145.539 359.686C145.539 360.379 145.403 361.064 145.138 361.704C144.873 362.344 144.485 362.925 143.995 363.415C143.505 363.905 142.924 364.293 142.284 364.558C141.644 364.824 140.959 364.96 140.266 364.96C138.867 364.96 137.526 364.404 136.537 363.415C135.548 362.426 134.992 361.085 134.992 359.686C134.992 358.993 135.129 358.308 135.394 357.668C135.659 357.028 136.047 356.447 136.537 355.957C137.027 355.467 137.608 355.079 138.248 354.814C138.888 354.549 139.574 354.413 140.266 354.413C141.665 354.413 143.006 354.969 143.995 355.957C144.984 356.946 145.539 358.287 145.539 359.686V359.686Z" fill="#02B3E4"/>
<path d="M179.293 359.686C179.293 360.379 179.157 361.064 178.892 361.704C178.627 362.344 178.239 362.925 177.749 363.415C177.259 363.905 176.678 364.293 176.038 364.558C175.398 364.824 174.713 364.96 174.02 364.96C172.621 364.96 171.28 364.404 170.291 363.415C169.302 362.426 168.746 361.085 168.746 359.686C168.746 358.993 168.882 358.308 169.148 357.668C169.413 357.028 169.801 356.447 170.291 355.957C170.781 355.467 171.362 355.079 172.002 354.814C172.642 354.549 173.328 354.413 174.02 354.413C175.419 354.413 176.76 354.969 177.749 355.957C178.738 356.946 179.293 358.287 179.293 359.686V359.686Z" fill="#02B3E4"/>
<path d="M213.039 359.686C213.039 360.379 212.903 361.064 212.638 361.704C212.373 362.344 211.985 362.925 211.495 363.415C211.005 363.905 210.424 364.293 209.784 364.558C209.144 364.824 208.459 364.96 207.766 364.96C207.074 364.96 206.388 364.824 205.748 364.558C205.108 364.293 204.527 363.905 204.037 363.415C203.548 362.925 203.159 362.344 202.894 361.704C202.629 361.064 202.493 360.379 202.493 359.686C202.493 358.994 202.63 358.308 202.895 357.668C203.16 357.028 203.548 356.447 204.038 355.957C204.527 355.468 205.109 355.079 205.748 354.814C206.388 354.549 207.074 354.413 207.766 354.413C209.165 354.413 210.506 354.969 211.495 355.957C212.484 356.946 213.039 358.287 213.039 359.686V359.686Z" fill="#02B3E4"/>
<path d="M241.518 364.958C244.43 364.958 246.791 362.597 246.791 359.685C246.791 356.773 244.43 354.412 241.518 354.412C238.606 354.412 236.245 356.773 236.245 359.685C236.245 362.597 238.606 364.958 241.518 364.958Z" fill="#02B3E4"/>
<path d="M10.547 37.686C10.5471 38.3785 10.4108 39.0643 10.1459 39.7042C9.88097 40.344 9.49259 40.9254 9.00293 41.4152C8.51327 41.9049 7.93193 42.2934 7.29211 42.5585C6.6523 42.8235 5.96653 42.96 5.27399 42.96C3.87524 42.96 2.53378 42.4043 1.54471 41.4152C0.555641 40.4262 0 39.0847 0 37.686C-1.24538e-08 36.9934 0.136403 36.3077 0.401459 35.6678C0.666514 35.028 1.05502 34.4467 1.54477 33.957C2.03452 33.4674 2.61593 33.079 3.2558 32.8141C3.89566 32.5491 4.58144 32.4128 5.27399 32.413C6.67247 32.413 8.01368 32.9685 9.00256 33.9574C9.99144 34.9463 10.547 36.2875 10.547 37.686V37.686Z" fill="#02B3E4"/>
<path d="M44.296 37.686C44.2962 38.3785 44.1599 39.0643 43.8949 39.7042C43.63 40.344 43.2416 40.9254 42.752 41.4152C42.2623 41.9049 41.681 42.2934 41.0411 42.5585C40.4013 42.8235 39.7156 42.96 39.023 42.96C37.6243 42.96 36.2828 42.4043 35.2937 41.4152C34.3047 40.4262 33.749 39.0847 33.749 37.686C33.749 36.9934 33.8855 36.3077 34.1505 35.6678C34.4156 35.028 34.804 34.4467 35.2938 33.957C35.7835 33.4674 36.365 33.079 37.0048 32.8141C37.6447 32.5491 38.3305 32.4128 39.023 32.413C40.4215 32.413 41.7627 32.9685 42.7516 33.9574C43.7405 34.9463 44.296 36.2875 44.296 37.686V37.686Z" fill="#02B3E4"/>
<path d="M78.045 37.686C78.0451 38.3785 77.9089 39.0643 77.6439 39.7042C77.379 40.344 76.9906 40.9254 76.5009 41.4152C76.0113 41.9049 75.4299 42.2934 74.7901 42.5585C74.1503 42.8235 73.4646 42.96 72.772 42.96C72.0795 42.96 71.3937 42.8235 70.7539 42.5585C70.1141 42.2934 69.5327 41.9049 69.0431 41.4152C68.5534 40.9254 68.1651 40.344 67.9001 39.7042C67.6352 39.0643 67.4989 38.3785 67.499 37.686C67.499 36.2875 68.0546 34.9463 69.0435 33.9574C70.0323 32.9685 71.3735 32.413 72.772 32.413C74.1705 32.413 75.5117 32.9685 76.5006 33.9574C77.4895 34.9463 78.045 36.2875 78.045 37.686V37.686Z" fill="#02B3E4"/>
<path d="M111.795 37.686C111.795 39.0847 111.239 40.4262 110.25 41.4152C109.261 42.4043 107.92 42.96 106.521 42.96C105.829 42.96 105.143 42.8235 104.503 42.5585C103.863 42.2934 103.282 41.9049 102.792 41.4152C102.302 40.9254 101.914 40.344 101.649 39.7042C101.384 39.0643 101.248 38.3785 101.248 37.686C101.248 36.2875 101.804 34.9463 102.792 33.9574C103.781 32.9685 105.123 32.413 106.521 32.413C107.214 32.4128 107.899 32.5491 108.539 32.8141C109.179 33.079 109.761 33.4674 110.25 33.957C110.74 34.4467 111.129 35.028 111.394 35.6678C111.659 36.3077 111.795 36.9934 111.795 37.686V37.686Z" fill="#02B3E4"/>
<path d="M145.539 37.686C145.539 38.3785 145.403 39.0643 145.138 39.7042C144.873 40.344 144.485 40.9254 143.995 41.4152C143.505 41.9049 142.924 42.2934 142.284 42.5585C141.644 42.8235 140.959 42.96 140.266 42.96C138.867 42.96 137.526 42.4043 136.537 41.4152C135.548 40.4262 134.992 39.0847 134.992 37.686C134.992 36.9934 135.129 36.3077 135.394 35.6678C135.659 35.028 136.047 34.4467 136.537 33.957C137.027 33.4674 137.608 33.079 138.248 32.8141C138.888 32.5491 139.574 32.4128 140.266 32.413C141.665 32.413 143.006 32.9685 143.995 33.9574C144.984 34.9463 145.539 36.2875 145.539 37.686V37.686Z" fill="#02B3E4"/>
<path d="M179.293 37.686C179.293 38.3785 179.157 39.0643 178.892 39.7042C178.627 40.344 178.239 40.9254 177.749 41.4152C177.259 41.9049 176.678 42.2934 176.038 42.5585C175.398 42.8235 174.713 42.96 174.02 42.96C172.621 42.96 171.28 42.4043 170.291 41.4152C169.302 40.4262 168.746 39.0847 168.746 37.686C168.746 36.9934 168.882 36.3077 169.148 35.6678C169.413 35.028 169.801 34.4467 170.291 33.957C170.781 33.4674 171.362 33.079 172.002 32.8141C172.642 32.5491 173.328 32.4128 174.02 32.413C175.419 32.413 176.76 32.9685 177.749 33.9574C178.738 34.9463 179.293 36.2875 179.293 37.686V37.686Z" fill="#02B3E4"/>
<path d="M213.039 37.686C213.039 38.3785 212.903 39.0643 212.638 39.7042C212.373 40.344 211.985 40.9254 211.495 41.4152C211.005 41.9049 210.424 42.2934 209.784 42.5585C209.144 42.8235 208.459 42.96 207.766 42.96C207.074 42.96 206.388 42.8235 205.748 42.5585C205.108 42.2934 204.527 41.9049 204.037 41.4152C203.548 40.9254 203.159 40.344 202.894 39.7042C202.629 39.0643 202.493 38.3785 202.493 37.686C202.493 36.9935 202.63 36.3078 202.895 35.6681C203.16 35.0283 203.548 34.447 204.038 33.9574C204.527 33.4677 205.109 33.0793 205.748 32.8144C206.388 32.5494 207.074 32.413 207.766 32.413C209.165 32.413 210.506 32.9685 211.495 33.9574C212.484 34.9463 213.039 36.2875 213.039 37.686V37.686Z" fill="#02B3E4"/>
<path d="M241.518 42.958C244.43 42.958 246.791 40.5972 246.791 37.685C246.791 34.7728 244.43 32.412 241.518 32.412C238.606 32.412 236.245 34.7728 236.245 37.685C236.245 40.5972 238.606 42.958 241.518 42.958Z" fill="#02B3E4"/>
<path d="M10.547 5.83202C10.5471 6.52457 10.4108 7.21035 10.1459 7.85022C9.88097 8.49009 9.49258 9.07149 9.00293 9.56124C8.51327 10.051 7.93194 10.4395 7.29212 10.7045C6.65231 10.9696 5.96654 11.106 5.274 11.106C4.58141 11.106 3.8956 10.9696 3.25573 10.7046C2.61586 10.4395 2.03446 10.051 1.54472 9.5613C0.555652 8.57224 0 7.23078 0 5.83202C-1.24538e-08 5.13948 0.136423 4.45372 0.401479 3.8139C0.666534 3.17409 1.05503 2.59275 1.54478 2.1031C2.03453 1.61344 2.61594 1.22506 3.2558 0.960121C3.89567 0.695187 4.58146 0.55889 5.274 0.559021C5.96646 0.559021 6.65214 0.69541 7.29189 0.960404C7.93164 1.2254 8.51293 1.6138 9.00257 2.10345C9.49222 2.59309 9.88062 3.17438 10.1456 3.81413C10.4106 4.45388 10.547 5.13956 10.547 5.83202V5.83202Z" fill="#02B3E4"/>
<path d="M44.296 5.83202C44.2962 6.52457 44.1599 7.21035 43.8949 7.85022C43.63 8.49009 43.2416 9.07149 42.7519 9.56124C42.2623 10.051 41.681 10.4395 41.0411 10.7045C40.4013 10.9696 39.7156 11.106 39.023 11.106C37.6243 11.106 36.2828 10.5504 35.2937 9.5613C34.3047 8.57224 33.749 7.23078 33.749 5.83202C33.749 5.13948 33.8854 4.45372 34.1505 3.8139C34.4156 3.17409 34.8041 2.59275 35.2938 2.1031C35.7836 1.61344 36.365 1.22506 37.0048 0.960121C37.6447 0.695187 38.3305 0.55889 39.023 0.559021C40.4215 0.559021 41.7627 1.11457 42.7516 2.10345C43.7405 3.09233 44.296 4.43354 44.296 5.83202V5.83202Z" fill="#02B3E4"/>
<path d="M78.045 5.83202C78.0452 6.52457 77.9089 7.21035 77.6439 7.85022C77.379 8.49009 76.9906 9.07149 76.501 9.56124C76.0113 10.051 75.43 10.4395 74.7901 10.7045C74.1503 10.9696 73.4646 11.106 72.772 11.106C72.0795 11.106 71.3937 10.9696 70.7539 10.7045C70.1141 10.4395 69.5328 10.051 69.0431 9.56124C68.5534 9.07149 68.1651 8.49009 67.9001 7.85022C67.6352 7.21035 67.4989 6.52457 67.499 5.83202C67.499 4.43354 68.0546 3.09233 69.0434 2.10345C70.0323 1.11457 71.3735 0.559021 72.772 0.559021C74.1705 0.559021 75.5117 1.11457 76.5006 2.10345C77.4895 3.09233 78.045 4.43354 78.045 5.83202V5.83202Z" fill="#02B3E4"/>
<path d="M111.795 5.83202C111.795 7.23078 111.239 8.57224 110.25 9.5613C109.261 10.5504 107.92 11.106 106.521 11.106C105.829 11.106 105.143 10.9696 104.503 10.7045C103.863 10.4395 103.282 10.051 102.792 9.56124C102.302 9.07149 101.914 8.49009 101.649 7.85022C101.384 7.21035 101.248 6.52457 101.248 5.83202C101.248 4.43354 101.804 3.09233 102.792 2.10345C103.781 1.11457 105.123 0.559021 106.521 0.559021C107.214 0.55889 107.899 0.695187 108.539 0.960121C109.179 1.22506 109.761 1.61344 110.25 2.1031C110.74 2.59275 111.129 3.17409 111.394 3.8139C111.659 4.45372 111.795 5.13948 111.795 5.83202V5.83202Z" fill="#02B3E4"/>
<path d="M145.539 5.83202C145.539 6.52457 145.403 7.21035 145.138 7.85022C144.873 8.49009 144.485 9.07149 143.995 9.56124C143.505 10.051 142.924 10.4395 142.284 10.7045C141.644 10.9696 140.959 11.106 140.266 11.106C138.867 11.106 137.526 10.5504 136.537 9.5613C135.548 8.57224 134.992 7.23078 134.992 5.83202C134.992 5.13948 135.129 4.45372 135.394 3.8139C135.659 3.17409 136.047 2.59275 136.537 2.1031C137.027 1.61344 137.608 1.22506 138.248 0.960121C138.888 0.695187 139.574 0.55889 140.266 0.559021C141.665 0.559021 143.006 1.11457 143.995 2.10345C144.984 3.09233 145.539 4.43354 145.539 5.83202V5.83202Z" fill="#02B3E4"/>
<path d="M179.293 5.83202C179.293 6.52457 179.157 7.21035 178.892 7.85022C178.627 8.49009 178.239 9.07149 177.749 9.56124C177.259 10.051 176.678 10.4395 176.038 10.7045C175.398 10.9696 174.713 11.106 174.02 11.106C172.621 11.106 171.28 10.5504 170.291 9.5613C169.302 8.57224 168.746 7.23078 168.746 5.83202C168.746 5.13948 168.883 4.45372 169.148 3.8139C169.413 3.17409 169.801 2.59275 170.291 2.1031C170.781 1.61344 171.362 1.22506 172.002 0.960121C172.642 0.695187 173.328 0.55889 174.02 0.559021C175.419 0.559021 176.76 1.11457 177.749 2.10345C178.738 3.09233 179.293 4.43354 179.293 5.83202V5.83202Z" fill="#02B3E4"/>
<path d="M213.039 5.83202C213.039 6.52457 212.903 7.21035 212.638 7.85022C212.373 8.49009 211.985 9.07149 211.495 9.56124C211.005 10.051 210.424 10.4395 209.784 10.7045C209.144 10.9696 208.459 11.106 207.766 11.106C207.074 11.106 206.388 10.9696 205.748 10.7045C205.108 10.4395 204.527 10.051 204.037 9.56124C203.548 9.07149 203.159 8.49009 202.894 7.85022C202.629 7.21035 202.493 6.52457 202.493 5.83202C202.493 4.43354 203.049 3.09233 204.038 2.10345C205.026 1.11457 206.368 0.559021 207.766 0.559021C209.165 0.559021 210.506 1.11457 211.495 2.10345C212.484 3.09233 213.039 4.43354 213.039 5.83202V5.83202Z" fill="#02B3E4"/>
<path d="M246.792 5.83202C246.792 7.23078 246.236 8.57224 245.247 9.5613C244.258 10.5504 242.917 11.106 241.518 11.106C240.826 11.106 240.14 10.9696 239.5 10.7045C238.86 10.4395 238.279 10.051 237.789 9.56124C237.3 9.07149 236.911 8.49009 236.646 7.85022C236.381 7.21035 236.245 6.52457 236.245 5.83202C236.245 4.43354 236.801 3.09233 237.79 2.10345C238.778 1.11457 240.12 0.559021 241.518 0.559021C242.211 0.55889 242.896 0.695187 243.536 0.960121C244.176 1.22506 244.758 1.61344 245.247 2.1031C245.737 2.59275 246.126 3.17409 246.391 3.8139C246.656 4.45372 246.792 5.13948 246.792 5.83202Z" fill="#02B3E4"/>
<path d="M10.547 69.686C10.5471 70.3785 10.4108 71.0643 10.1459 71.7042C9.88097 72.344 9.49259 72.9254 9.00293 73.4152C8.51327 73.9049 7.93193 74.2934 7.29211 74.5585C6.6523 74.8235 5.96653 74.96 5.27399 74.96C3.87524 74.96 2.53378 74.4043 1.54471 73.4152C0.555641 72.4262 0 71.0847 0 69.686C-1.24538e-08 68.9934 0.136403 68.3077 0.401459 67.6678C0.666514 67.028 1.05502 66.4467 1.54477 65.957C2.03452 65.4674 2.61593 65.079 3.2558 64.8141C3.89566 64.5491 4.58144 64.4128 5.27399 64.413C6.67247 64.413 8.01368 64.9685 9.00256 65.9574C9.99144 66.9463 10.547 68.2875 10.547 69.686V69.686Z" fill="#02B3E4"/>
<path d="M44.296 69.686C44.2962 70.3785 44.1599 71.0643 43.8949 71.7042C43.63 72.344 43.2416 72.9254 42.752 73.4152C42.2623 73.9049 41.681 74.2934 41.0411 74.5585C40.4013 74.8235 39.7156 74.96 39.023 74.96C37.6243 74.96 36.2828 74.4043 35.2937 73.4152C34.3047 72.4262 33.749 71.0847 33.749 69.686C33.749 68.9934 33.8855 68.3077 34.1505 67.6678C34.4156 67.028 34.804 66.4467 35.2938 65.957C35.7835 65.4674 36.365 65.079 37.0048 64.8141C37.6447 64.5491 38.3305 64.4128 39.023 64.413C40.4215 64.413 41.7627 64.9685 42.7516 65.9574C43.7405 66.9463 44.296 68.2875 44.296 69.686V69.686Z" fill="#02B3E4"/>
<path d="M78.045 69.686C78.0451 70.3785 77.9089 71.0643 77.6439 71.7042C77.379 72.344 76.9906 72.9254 76.5009 73.4152C76.0113 73.9049 75.4299 74.2934 74.7901 74.5585C74.1503 74.8235 73.4646 74.96 72.772 74.96C72.0795 74.96 71.3937 74.8235 70.7539 74.5585C70.1141 74.2934 69.5327 73.9049 69.0431 73.4152C68.5534 72.9254 68.1651 72.344 67.9001 71.7042C67.6352 71.0643 67.4989 70.3785 67.499 69.686C67.499 68.2875 68.0546 66.9463 69.0435 65.9574C70.0323 64.9685 71.3735 64.413 72.772 64.413C74.1705 64.413 75.5117 64.9685 76.5006 65.9574C77.4895 66.9463 78.045 68.2875 78.045 69.686V69.686Z" fill="#02B3E4"/>
<path d="M111.795 69.686C111.795 71.0847 111.239 72.4262 110.25 73.4152C109.261 74.4043 107.92 74.96 106.521 74.96C105.829 74.96 105.143 74.8235 104.503 74.5585C103.863 74.2934 103.282 73.9049 102.792 73.4152C102.302 72.9254 101.914 72.344 101.649 71.7042C101.384 71.0643 101.248 70.3785 101.248 69.686C101.248 68.2875 101.804 66.9463 102.792 65.9574C103.781 64.9685 105.123 64.413 106.521 64.413C107.214 64.4128 107.899 64.5491 108.539 64.8141C109.179 65.079 109.761 65.4674 110.25 65.957C110.74 66.4467 111.129 67.028 111.394 67.6678C111.659 68.3077 111.795 68.9934 111.795 69.686V69.686Z" fill="#02B3E4"/>
<path d="M145.539 69.686C145.539 70.3785 145.403 71.0643 145.138 71.7042C144.873 72.344 144.485 72.9254 143.995 73.4152C143.505 73.9049 142.924 74.2934 142.284 74.5585C141.644 74.8235 140.959 74.96 140.266 74.96C138.867 74.96 137.526 74.4043 136.537 73.4152C135.548 72.4262 134.992 71.0847 134.992 69.686C134.992 68.9934 135.129 68.3077 135.394 67.6678C135.659 67.028 136.047 66.4467 136.537 65.957C137.027 65.4674 137.608 65.079 138.248 64.8141C138.888 64.5491 139.574 64.4128 140.266 64.413C141.665 64.413 143.006 64.9685 143.995 65.9574C144.984 66.9463 145.539 68.2875 145.539 69.686V69.686Z" fill="#02B3E4"/>
<path d="M179.293 69.686C179.293 70.3785 179.157 71.0643 178.892 71.7042C178.627 72.344 178.239 72.9254 177.749 73.4152C177.259 73.9049 176.678 74.2934 176.038 74.5585C175.398 74.8235 174.713 74.96 174.02 74.96C172.621 74.96 171.28 74.4043 170.291 73.4152C169.302 72.4262 168.746 71.0847 168.746 69.686C168.746 68.9934 168.882 68.3077 169.148 67.6678C169.413 67.028 169.801 66.4467 170.291 65.957C170.781 65.4674 171.362 65.079 172.002 64.8141C172.642 64.5491 173.328 64.4128 174.02 64.413C175.419 64.413 176.76 64.9685 177.749 65.9574C178.738 66.9463 179.293 68.2875 179.293 69.686V69.686Z" fill="#02B3E4"/>
<path d="M213.039 69.686C213.039 70.3785 212.903 71.0643 212.638 71.7042C212.373 72.344 211.985 72.9254 211.495 73.4152C211.005 73.9049 210.424 74.2934 209.784 74.5585C209.144 74.8235 208.459 74.96 207.766 74.96C207.074 74.96 206.388 74.8235 205.748 74.5585C205.108 74.2934 204.527 73.9049 204.037 73.4152C203.548 72.9254 203.159 72.344 202.894 71.7042C202.629 71.0643 202.493 70.3785 202.493 69.686C202.493 68.9935 202.63 68.3078 202.895 67.6681C203.16 67.0283 203.548 66.447 204.038 65.9574C204.527 65.4677 205.109 65.0793 205.748 64.8144C206.388 64.5494 207.074 64.413 207.766 64.413C209.165 64.413 210.506 64.9685 211.495 65.9574C212.484 66.9463 213.039 68.2875 213.039 69.686V69.686Z" fill="#02B3E4"/>
<path d="M241.518 74.958C244.43 74.958 246.791 72.5972 246.791 69.685C246.791 66.7728 244.43 64.412 241.518 64.412C238.606 64.412 236.245 66.7728 236.245 69.685C236.245 72.5972 238.606 74.958 241.518 74.958Z" fill="#02B3E4"/>
<path d="M10.547 99.686C10.5471 100.379 10.4108 101.064 10.1459 101.704C9.88097 102.344 9.49259 102.925 9.00293 103.415C8.51327 103.905 7.93193 104.293 7.29211 104.558C6.6523 104.824 5.96653 104.96 5.27399 104.96C3.87524 104.96 2.53378 104.404 1.54471 103.415C0.555641 102.426 0 101.085 0 99.686C-1.24538e-08 98.9934 0.136403 98.3077 0.401459 97.6678C0.666514 97.028 1.05502 96.4467 1.54477 95.957C2.03452 95.4674 2.61593 95.079 3.2558 94.8141C3.89566 94.5491 4.58144 94.4128 5.27399 94.413C6.67247 94.413 8.01368 94.9685 9.00256 95.9574C9.99144 96.9463 10.547 98.2875 10.547 99.686V99.686Z" fill="#02B3E4"/>
<path d="M44.296 99.686C44.2962 100.379 44.1599 101.064 43.8949 101.704C43.63 102.344 43.2416 102.925 42.752 103.415C42.2623 103.905 41.681 104.293 41.0411 104.558C40.4013 104.824 39.7156 104.96 39.023 104.96C37.6243 104.96 36.2828 104.404 35.2937 103.415C34.3047 102.426 33.749 101.085 33.749 99.686C33.749 98.9934 33.8855 98.3077 34.1505 97.6678C34.4156 97.028 34.804 96.4467 35.2938 95.957C35.7835 95.4674 36.365 95.079 37.0048 94.8141C37.6447 94.5491 38.3305 94.4128 39.023 94.413C40.4215 94.413 41.7627 94.9685 42.7516 95.9574C43.7405 96.9463 44.296 98.2875 44.296 99.686V99.686Z" fill="#02B3E4"/>
<path d="M78.045 99.686C78.0451 100.379 77.9089 101.064 77.6439 101.704C77.379 102.344 76.9906 102.925 76.5009 103.415C76.0113 103.905 75.4299 104.293 74.7901 104.558C74.1503 104.824 73.4646 104.96 72.772 104.96C72.0795 104.96 71.3937 104.824 70.7539 104.558C70.1141 104.293 69.5327 103.905 69.0431 103.415C68.5534 102.925 68.1651 102.344 67.9001 101.704C67.6352 101.064 67.4989 100.379 67.499 99.686C67.499 98.2875 68.0546 96.9463 69.0435 95.9574C70.0323 94.9685 71.3735 94.413 72.772 94.413C74.1705 94.413 75.5117 94.9685 76.5006 95.9574C77.4895 96.9463 78.045 98.2875 78.045 99.686V99.686Z" fill="#02B3E4"/>
<path d="M111.795 99.686C111.795 101.085 111.239 102.426 110.25 103.415C109.261 104.404 107.92 104.96 106.521 104.96C105.829 104.96 105.143 104.824 104.503 104.558C103.863 104.293 103.282 103.905 102.792 103.415C102.302 102.925 101.914 102.344 101.649 101.704C101.384 101.064 101.248 100.379 101.248 99.686C101.248 98.2875 101.804 96.9463 102.792 95.9574C103.781 94.9685 105.123 94.413 106.521 94.413C107.214 94.4128 107.899 94.5491 108.539 94.8141C109.179 95.079 109.761 95.4674 110.25 95.957C110.74 96.4467 111.129 97.028 111.394 97.6678C111.659 98.3077 111.795 98.9934 111.795 99.686V99.686Z" fill="#02B3E4"/>
<path d="M145.539 99.686C145.539 100.379 145.403 101.064 145.138 101.704C144.873 102.344 144.485 102.925 143.995 103.415C143.505 103.905 142.924 104.293 142.284 104.558C141.644 104.824 140.959 104.96 140.266 104.96C138.867 104.96 137.526 104.404 136.537 103.415C135.548 102.426 134.992 101.085 134.992 99.686C134.992 98.9934 135.129 98.3077 135.394 97.6678C135.659 97.028 136.047 96.4467 136.537 95.957C137.027 95.4674 137.608 95.079 138.248 94.8141C138.888 94.5491 139.574 94.4128 140.266 94.413C141.665 94.413 143.006 94.9685 143.995 95.9574C144.984 96.9463 145.539 98.2875 145.539 99.686V99.686Z" fill="#02B3E4"/>
<path d="M179.293 99.686C179.293 100.379 179.157 101.064 178.892 101.704C178.627 102.344 178.239 102.925 177.749 103.415C177.259 103.905 176.678 104.293 176.038 104.558C175.398 104.824 174.713 104.96 174.02 104.96C172.621 104.96 171.28 104.404 170.291 103.415C169.302 102.426 168.746 101.085 168.746 99.686C168.746 98.9934 168.882 98.3077 169.148 97.6678C169.413 97.028 169.801 96.4467 170.291 95.957C170.781 95.4674 171.362 95.079 172.002 94.8141C172.642 94.5491 173.328 94.4128 174.02 94.413C175.419 94.413 176.76 94.9685 177.749 95.9574C178.738 96.9463 179.293 98.2875 179.293 99.686V99.686Z" fill="#02B3E4"/>
<path d="M213.039 99.686C213.039 100.379 212.903 101.064 212.638 101.704C212.373 102.344 211.985 102.925 211.495 103.415C211.005 103.905 210.424 104.293 209.784 104.558C209.144 104.824 208.459 104.96 207.766 104.96C207.074 104.96 206.388 104.824 205.748 104.558C205.108 104.293 204.527 103.905 204.037 103.415C203.548 102.925 203.159 102.344 202.894 101.704C202.629 101.064 202.493 100.379 202.493 99.686C202.493 98.9935 202.63 98.3078 202.895 97.6681C203.16 97.0283 203.548 96.447 204.038 95.9574C204.527 95.4677 205.109 95.0793 205.748 94.8144C206.388 94.5494 207.074 94.413 207.766 94.413C209.165 94.413 210.506 94.9685 211.495 95.9574C212.484 96.9463 213.039 98.2875 213.039 99.686V99.686Z" fill="#02B3E4"/>
<path d="M241.518 104.958C244.43 104.958 246.791 102.597 246.791 99.685C246.791 96.7728 244.43 94.412 241.518 94.412C238.606 94.412 236.245 96.7728 236.245 99.685C236.245 102.597 238.606 104.958 241.518 104.958Z" fill="#02B3E4"/>
</svg>
