<svg width="56" height="56" viewBox="0 0 56 56" fill="none" xmlns="http://www.w3.org/2000/svg">
<rect width="56" height="56" rx="16" fill="#312C45"/>
<path d="M19.1526 38.196C17.79 38.196 16.558 37.9627 15.4566 37.496C14.374 37.0294 13.5153 36.3574 12.8806 35.48C12.246 34.6027 11.9193 33.5667 11.9006 32.372H16.1006C16.1566 33.1747 16.4366 33.8094 16.9406 34.276C17.4633 34.7427 18.1726 34.976 19.0686 34.976C19.9833 34.976 20.702 34.7614 21.2246 34.332C21.7473 33.884 22.0086 33.3054 22.0086 32.596C22.0086 32.0174 21.8313 31.5414 21.4766 31.168C21.122 30.7947 20.674 30.5054 20.1326 30.3C19.61 30.076 18.882 29.8334 17.9486 29.572C16.6793 29.1987 15.6433 28.8347 14.8406 28.48C14.0566 28.1067 13.3753 27.556 12.7966 26.828C12.2366 26.0814 11.9566 25.092 11.9566 23.86C11.9566 22.7027 12.246 21.6947 12.8246 20.836C13.4033 19.9774 14.2153 19.324 15.2606 18.876C16.306 18.4094 17.5006 18.176 18.8446 18.176C20.8606 18.176 22.494 18.6707 23.7446 19.66C25.014 20.6307 25.714 21.9934 25.8446 23.748H21.5326C21.4953 23.076 21.206 22.5254 20.6646 22.096C20.142 21.648 19.442 21.424 18.5646 21.424C17.7993 21.424 17.1833 21.62 16.7166 22.012C16.2686 22.404 16.0446 22.9734 16.0446 23.72C16.0446 24.2427 16.2126 24.6814 16.5486 25.036C16.9033 25.372 17.3326 25.652 17.8366 25.876C18.3593 26.0814 19.0873 26.324 20.0206 26.604C21.29 26.9774 22.326 27.3507 23.1286 27.724C23.9313 28.0974 24.622 28.6574 25.2006 29.404C25.7793 30.1507 26.0686 31.1307 26.0686 32.344C26.0686 33.3894 25.798 34.36 25.2566 35.256C24.7153 36.152 23.922 36.8707 22.8766 37.412C21.8313 37.9347 20.59 38.196 19.1526 38.196Z" fill="white"/>
<path d="M40.5551 27.976C41.6565 28.1814 42.5618 28.732 43.2711 29.628C43.9805 30.524 44.3351 31.5507 44.3351 32.708C44.3351 33.7534 44.0738 34.6774 43.5511 35.48C43.0471 36.264 42.3098 36.88 41.3391 37.328C40.3685 37.776 39.2205 38 37.8951 38H29.4671V18.456H37.5311C38.8565 18.456 39.9951 18.6707 40.9471 19.1C41.9178 19.5294 42.6458 20.1267 43.1311 20.892C43.6351 21.6574 43.8871 22.5254 43.8871 23.496C43.8871 24.6347 43.5791 25.5867 42.9631 26.352C42.3658 27.1174 41.5631 27.6587 40.5551 27.976ZM33.3871 26.52H36.9711C37.9045 26.52 38.6231 26.3147 39.1271 25.904C39.6311 25.4747 39.8831 24.868 39.8831 24.084C39.8831 23.3 39.6311 22.6934 39.1271 22.264C38.6231 21.8347 37.9045 21.62 36.9711 21.62H33.3871V26.52ZM37.3351 34.808C38.2871 34.808 39.0245 34.584 39.5471 34.136C40.0885 33.688 40.3591 33.0534 40.3591 32.232C40.3591 31.392 40.0791 30.7387 39.5191 30.272C38.9591 29.7867 38.2031 29.544 37.2511 29.544H33.3871V34.808H37.3351Z" fill="white"/>
</svg>
