<svg width="266" height="56" viewBox="0 0 266 56" fill="none" xmlns="http://www.w3.org/2000/svg">
<rect width="56" height="56" rx="16" fill="#312C45"/>
<path d="M19.1527 38.196C17.79 38.196 16.558 37.9627 15.4567 37.496C14.374 37.0294 13.5153 36.3574 12.8806 35.48C12.246 34.6027 11.9193 33.5667 11.9007 32.372H16.1007C16.1567 33.1747 16.4367 33.8094 16.9407 34.276C17.4633 34.7427 18.1727 34.976 19.0687 34.976C19.9833 34.976 20.702 34.7614 21.2246 34.332C21.7473 33.884 22.0087 33.3054 22.0087 32.596C22.0087 32.0174 21.8313 31.5414 21.4766 31.168C21.122 30.7947 20.674 30.5054 20.1327 30.3C19.61 30.076 18.882 29.8334 17.9487 29.572C16.6793 29.1987 15.6433 28.8347 14.8407 28.48C14.0567 28.1067 13.3753 27.556 12.7967 26.828C12.2367 26.0814 11.9567 25.092 11.9567 23.86C11.9567 22.7027 12.246 21.6947 12.8247 20.836C13.4033 19.9774 14.2153 19.324 15.2607 18.876C16.306 18.4094 17.5007 18.176 18.8447 18.176C20.8607 18.176 22.494 18.6707 23.7447 19.66C25.014 20.6307 25.714 21.9934 25.8447 23.748H21.5326C21.4953 23.076 21.206 22.5254 20.6646 22.096C20.142 21.648 19.442 21.424 18.5647 21.424C17.7993 21.424 17.1833 21.62 16.7167 22.012C16.2687 22.404 16.0447 22.9734 16.0447 23.72C16.0447 24.2427 16.2127 24.6814 16.5487 25.036C16.9033 25.372 17.3327 25.652 17.8367 25.876C18.3593 26.0814 19.0873 26.324 20.0206 26.604C21.29 26.9774 22.326 27.3507 23.1286 27.724C23.9313 28.0974 24.622 28.6574 25.2007 29.404C25.7793 30.1507 26.0687 31.1307 26.0687 32.344C26.0687 33.3894 25.798 34.36 25.2566 35.256C24.7153 36.152 23.922 36.8707 22.8766 37.412C21.8313 37.9347 20.59 38.196 19.1527 38.196Z" fill="white"/>
<path d="M40.5552 27.976C41.6565 28.1814 42.5618 28.732 43.2712 29.628C43.9805 30.524 44.3351 31.5507 44.3351 32.708C44.3351 33.7534 44.0738 34.6774 43.5511 35.48C43.0471 36.264 42.3098 36.88 41.3392 37.328C40.3685 37.776 39.2205 38 37.8952 38H29.4671V18.456H37.5312C38.8565 18.456 39.9952 18.6707 40.9472 19.1C41.9178 19.5294 42.6458 20.1267 43.1312 20.892C43.6352 21.6574 43.8872 22.5254 43.8872 23.496C43.8872 24.6347 43.5792 25.5867 42.9632 26.352C42.3658 27.1174 41.5632 27.6587 40.5552 27.976ZM33.3871 26.52H36.9712C37.9045 26.52 38.6232 26.3147 39.1272 25.904C39.6312 25.4747 39.8832 24.868 39.8832 24.084C39.8832 23.3 39.6312 22.6934 39.1272 22.264C38.6232 21.8347 37.9045 21.62 36.9712 21.62H33.3871V26.52ZM37.3352 34.808C38.2872 34.808 39.0245 34.584 39.5472 34.136C40.0885 33.688 40.3592 33.0534 40.3592 32.232C40.3592 31.392 40.0792 30.7387 39.5192 30.272C38.9592 29.7867 38.2032 29.544 37.2512 29.544H33.3871V34.808H37.3352Z" fill="white"/>
<path d="M80.848 38.196C79.4107 38.196 78.1227 37.9627 76.984 37.496C75.8453 37.0294 74.9307 36.3387 74.24 35.424C73.568 34.5094 73.2133 33.408 73.176 32.12H78.272C78.3467 32.848 78.5987 33.408 79.028 33.8C79.4573 34.1734 80.0173 34.36 80.708 34.36C81.4173 34.36 81.9773 34.2014 82.388 33.884C82.7987 33.548 83.004 33.0907 83.004 32.512C83.004 32.0267 82.836 31.6254 82.5 31.308C82.1827 30.9907 81.7813 30.7294 81.296 30.524C80.8293 30.3187 80.1573 30.0854 79.28 29.824C78.0107 29.432 76.9747 29.04 76.172 28.648C75.3693 28.256 74.6787 27.6774 74.1 26.912C73.5213 26.1467 73.232 25.148 73.232 23.916C73.232 22.0867 73.8947 20.6587 75.22 19.632C76.5453 18.5867 78.272 18.064 80.4 18.064C82.5653 18.064 84.3107 18.5867 85.636 19.632C86.9613 20.6587 87.6707 22.096 87.764 23.944H82.584C82.5467 23.3094 82.3133 22.8147 81.884 22.46C81.4547 22.0867 80.904 21.9 80.232 21.9C79.6533 21.9 79.1867 22.0587 78.832 22.376C78.4773 22.6747 78.3 23.1134 78.3 23.692C78.3 24.3267 78.5987 24.8214 79.196 25.176C79.7933 25.5307 80.7267 25.9134 81.996 26.324C83.2653 26.7534 84.292 27.164 85.076 27.556C85.8787 27.948 86.5693 28.5174 87.148 29.264C87.7267 30.0107 88.016 30.972 88.016 32.148C88.016 33.268 87.7267 34.2854 87.148 35.2C86.588 36.1147 85.7667 36.8427 84.684 37.384C83.6013 37.9254 82.3227 38.196 80.848 38.196Z" fill="#181B1A"/>
<path d="M100.567 22.208C102.359 22.208 103.796 22.8054 104.879 24C105.961 25.176 106.503 26.8 106.503 28.872V38H101.743V29.516C101.743 28.4707 101.472 27.6587 100.931 27.08C100.389 26.5014 99.6612 26.212 98.7466 26.212C97.8319 26.212 97.1039 26.5014 96.5626 27.08C96.0212 27.6587 95.7506 28.4707 95.7506 29.516V38H90.9626V17.28H95.7506V24.476C96.2359 23.7854 96.8986 23.2347 97.7386 22.824C98.5786 22.4134 99.5212 22.208 100.567 22.208Z" fill="#181B1A"/>
<path d="M124.558 29.936C124.558 30.384 124.53 30.8507 124.474 31.336H113.638C113.712 32.3067 114.02 33.0534 114.562 33.576C115.122 34.08 115.803 34.332 116.606 34.332C117.8 34.332 118.631 33.828 119.098 32.82H124.194C123.932 33.8467 123.456 34.7707 122.766 35.592C122.094 36.4134 121.244 37.0574 120.218 37.524C119.191 37.9907 118.043 38.224 116.774 38.224C115.243 38.224 113.88 37.8974 112.686 37.244C111.491 36.5907 110.558 35.6574 109.886 34.444C109.214 33.2307 108.878 31.812 108.878 30.188C108.878 28.564 109.204 27.1454 109.858 25.932C110.53 24.7187 111.463 23.7854 112.658 23.132C113.852 22.4787 115.224 22.152 116.774 22.152C118.286 22.152 119.63 22.4694 120.806 23.104C121.982 23.7387 122.896 24.644 123.55 25.82C124.222 26.996 124.558 28.368 124.558 29.936ZM119.658 28.676C119.658 27.8547 119.378 27.2014 118.818 26.716C118.258 26.2307 117.558 25.988 116.718 25.988C115.915 25.988 115.234 26.2214 114.674 26.688C114.132 27.1547 113.796 27.8174 113.666 28.676H119.658Z" fill="#181B1A"/>
<path d="M131.872 24.98C132.432 24.1214 133.132 23.4494 133.972 22.964C134.812 22.46 135.745 22.208 136.772 22.208V27.276H135.456C134.261 27.276 133.365 27.5374 132.768 28.06C132.17 28.564 131.872 29.46 131.872 30.748V38H127.084V22.376H131.872V24.98Z" fill="#181B1A"/>
<path d="M143.848 17.28V38H139.06V17.28H143.848Z" fill="#181B1A"/>
<path d="M163.278 22.376L153.478 45.42H148.326L151.91 37.468L145.554 22.376H150.902L154.514 32.148L158.098 22.376H163.278Z" fill="#181B1A"/>
<path d="M181.135 27.948C181.844 28.06 182.488 28.3494 183.067 28.816C183.664 29.2827 184.131 29.8614 184.467 30.552C184.822 31.2427 184.999 31.98 184.999 32.764C184.999 33.7534 184.747 34.6494 184.243 35.452C183.739 36.236 183.002 36.8614 182.031 37.328C181.079 37.776 179.95 38 178.643 38H171.363V18.484H178.363C179.688 18.484 180.818 18.708 181.751 19.156C182.684 19.5854 183.384 20.1734 183.851 20.92C184.318 21.6667 184.551 22.5067 184.551 23.44C184.551 24.5974 184.234 25.5587 183.599 26.324C182.983 27.0707 182.162 27.612 181.135 27.948ZM173.911 26.912H178.195C179.39 26.912 180.314 26.632 180.967 26.072C181.62 25.512 181.947 24.7374 181.947 23.748C181.947 22.7587 181.62 21.984 180.967 21.424C180.314 20.864 179.371 20.584 178.139 20.584H173.911V26.912ZM178.419 35.9C179.688 35.9 180.678 35.6014 181.387 35.004C182.096 34.4067 182.451 33.576 182.451 32.512C182.451 31.4294 182.078 30.58 181.331 29.964C180.584 29.3294 179.586 29.012 178.335 29.012H173.911V35.9H178.419Z" fill="#181B1A"/>
<path d="M187.583 30.272C187.583 28.704 187.9 27.332 188.535 26.156C189.17 24.9614 190.038 24.0374 191.139 23.384C192.259 22.7307 193.5 22.404 194.863 22.404C196.207 22.404 197.374 22.6934 198.363 23.272C199.352 23.8507 200.09 24.5787 200.575 25.456V22.656H203.151V38H200.575V35.144C200.071 36.04 199.315 36.7867 198.307 37.384C197.318 37.9627 196.16 38.252 194.835 38.252C193.472 38.252 192.24 37.916 191.139 37.244C190.038 36.572 189.17 35.6294 188.535 34.416C187.9 33.2027 187.583 31.8214 187.583 30.272ZM200.575 30.3C200.575 29.1427 200.342 28.1347 199.875 27.276C199.408 26.4174 198.774 25.764 197.971 25.316C197.187 24.8494 196.319 24.616 195.367 24.616C194.415 24.616 193.547 24.84 192.763 25.288C191.979 25.736 191.354 26.3894 190.887 27.248C190.42 28.1067 190.187 29.1147 190.187 30.272C190.187 31.448 190.42 32.4747 190.887 33.352C191.354 34.2107 191.979 34.8734 192.763 35.34C193.547 35.788 194.415 36.012 195.367 36.012C196.319 36.012 197.187 35.788 197.971 35.34C198.774 34.8734 199.408 34.2107 199.875 33.352C200.342 32.4747 200.575 31.4574 200.575 30.3Z" fill="#181B1A"/>
<path d="M213.785 22.404C215.11 22.404 216.267 22.6934 217.257 23.272C218.265 23.8507 219.011 24.5787 219.497 25.456V22.656H222.073V38.336C222.073 39.736 221.774 40.9774 221.177 42.06C220.579 43.1614 219.721 44.02 218.601 44.636C217.499 45.252 216.211 45.56 214.737 45.56C212.721 45.56 211.041 45.084 209.697 44.132C208.353 43.18 207.559 41.8827 207.317 40.24H209.837C210.117 41.1734 210.695 41.92 211.573 42.48C212.45 43.0587 213.505 43.348 214.737 43.348C216.137 43.348 217.275 42.9094 218.153 42.032C219.049 41.1547 219.497 39.9227 219.497 38.336V35.116C218.993 36.012 218.246 36.7587 217.257 37.356C216.267 37.9534 215.11 38.252 213.785 38.252C212.422 38.252 211.181 37.916 210.061 37.244C208.959 36.572 208.091 35.6294 207.457 34.416C206.822 33.2027 206.505 31.8214 206.505 30.272C206.505 28.704 206.822 27.332 207.457 26.156C208.091 24.9614 208.959 24.0374 210.061 23.384C211.181 22.7307 212.422 22.404 213.785 22.404ZM219.497 30.3C219.497 29.1427 219.263 28.1347 218.797 27.276C218.33 26.4174 217.695 25.764 216.893 25.316C216.109 24.8494 215.241 24.616 214.289 24.616C213.337 24.616 212.469 24.84 211.685 25.288C210.901 25.736 210.275 26.3894 209.809 27.248C209.342 28.1067 209.109 29.1147 209.109 30.272C209.109 31.448 209.342 32.4747 209.809 33.352C210.275 34.2107 210.901 34.8734 211.685 35.34C212.469 35.788 213.337 36.012 214.289 36.012C215.241 36.012 216.109 35.788 216.893 35.34C217.695 34.8734 218.33 34.2107 218.797 33.352C219.263 32.4747 219.497 31.4574 219.497 30.3Z" fill="#181B1A"/>
<path d="M233.995 22.376C235.152 22.376 236.197 22.628 237.131 23.132C238.064 23.6174 238.792 24.3547 239.315 25.344C239.856 26.3334 240.127 27.5374 240.127 28.956V38H237.607V29.32C237.607 27.7894 237.224 26.6227 236.459 25.82C235.693 24.9987 234.648 24.588 233.323 24.588C231.979 24.588 230.905 25.008 230.103 25.848C229.319 26.688 228.927 27.9107 228.927 29.516V38H226.379V17.28H228.927V24.84C229.431 24.056 230.121 23.4494 230.999 23.02C231.895 22.5907 232.893 22.376 233.995 22.376Z" fill="#181B1A"/>
<path d="M246.837 17.28V38H244.289V17.28H246.837Z" fill="#181B1A"/>
<path d="M250.227 30.272C250.227 28.704 250.545 27.332 251.179 26.156C251.814 24.9614 252.682 24.0374 253.783 23.384C254.903 22.7307 256.145 22.404 257.507 22.404C258.851 22.404 260.018 22.6934 261.007 23.272C261.997 23.8507 262.734 24.5787 263.219 25.456V22.656H265.795V38H263.219V35.144C262.715 36.04 261.959 36.7867 260.951 37.384C259.962 37.9627 258.805 38.252 257.479 38.252C256.117 38.252 254.885 37.916 253.783 37.244C252.682 36.572 251.814 35.6294 251.179 34.416C250.545 33.2027 250.227 31.8214 250.227 30.272ZM263.219 30.3C263.219 29.1427 262.986 28.1347 262.519 27.276C262.053 26.4174 261.418 25.764 260.615 25.316C259.831 24.8494 258.963 24.616 258.011 24.616C257.059 24.616 256.191 24.84 255.407 25.288C254.623 25.736 253.998 26.3894 253.531 27.248C253.065 28.1067 252.831 29.1147 252.831 30.272C252.831 31.448 253.065 32.4747 253.531 33.352C253.998 34.2107 254.623 34.8734 255.407 35.34C256.191 35.788 257.059 36.012 258.011 36.012C258.963 36.012 259.831 35.788 260.615 35.34C261.418 34.8734 262.053 34.2107 262.519 33.352C262.986 32.4747 263.219 31.4574 263.219 30.3Z" fill="#181B1A"/>
</svg>
