<svg width="20" height="19" viewBox="0 0 20 19" fill="none" xmlns="http://www.w3.org/2000/svg">
<path d="M4.5 8.96484C3.90905 8.96484 3.32389 8.8489 2.77792 8.62364C2.23196 8.39838 1.73588 8.0682 1.31802 7.65197C0.900156 7.23574 0.568688 6.7416 0.342542 6.19777C0.116396 5.65394 0 5.07106 0 4.48242C0 3.89378 0.116396 3.31091 0.342542 2.76707C0.568688 2.22324 0.900156 1.7291 1.31802 1.31287C1.73588 0.89664 2.23196 0.566467 2.77792 0.341204C3.32389 0.115941 3.90905 -8.77142e-09 4.5 0C5.69347 1.77147e-08 6.83807 0.472254 7.68198 1.31287C8.52589 2.15349 9 3.29361 9 4.48242C9 5.67123 8.52589 6.81136 7.68198 7.65197C6.83807 8.49259 5.69347 8.96484 4.5 8.96484ZM5 18.9258C3.80653 18.9258 2.66193 18.4535 1.81802 17.6129C0.974106 16.7723 0.5 15.6322 0.5 14.4434C0.5 13.2545 0.974106 12.1144 1.81802 11.2738C2.66193 10.4332 3.80653 9.96094 5 9.96094C6.19347 9.96094 7.33807 10.4332 8.18198 11.2738C9.02589 12.1144 9.5 13.2545 9.5 14.4434C9.5 15.6322 9.02589 16.7723 8.18198 17.6129C7.33807 18.4535 6.19347 18.9258 5 18.9258ZM15 8.96484C14.4091 8.96484 13.8239 8.8489 13.2779 8.62364C12.732 8.39838 12.2359 8.0682 11.818 7.65197C11.4002 7.23574 11.0687 6.7416 10.8425 6.19777C10.6164 5.65394 10.5 5.07106 10.5 4.48242C10.5 3.89378 10.6164 3.31091 10.8425 2.76707C11.0687 2.22324 11.4002 1.7291 11.818 1.31287C12.2359 0.89664 12.732 0.566467 13.2779 0.341204C13.8239 0.115941 14.4091 -8.77142e-09 15 0C16.1935 1.77147e-08 17.3381 0.472254 18.182 1.31287C19.0259 2.15349 19.5 3.29361 19.5 4.48242C19.5 5.67123 19.0259 6.81136 18.182 7.65197C17.3381 8.49259 16.1935 8.96484 15 8.96484ZM15 18.9258C13.8065 18.9258 12.6619 18.4535 11.818 17.6129C10.9741 16.7723 10.5 15.6322 10.5 14.4434C10.5 13.2545 10.9741 12.1144 11.818 11.2738C12.6619 10.4332 13.8065 9.96094 15 9.96094C16.1935 9.96094 17.3381 10.4332 18.182 11.2738C19.0259 12.1144 19.5 13.2545 19.5 14.4434C19.5 15.6322 19.0259 16.7723 18.182 17.6129C17.3381 18.4535 16.1935 18.9258 15 18.9258ZM4.5 6.97266C5.16304 6.97266 5.79893 6.71029 6.26777 6.24328C6.73661 5.77627 7 5.14287 7 4.48242C7 3.82197 6.73661 3.18857 6.26777 2.72156C5.79893 2.25455 5.16304 1.99219 4.5 1.99219C3.83696 1.99219 3.20107 2.25455 2.73223 2.72156C2.26339 3.18857 2 3.82197 2 4.48242C2 5.14287 2.26339 5.77627 2.73223 6.24328C3.20107 6.71029 3.83696 6.97266 4.5 6.97266ZM5 16.9336C5.66304 16.9336 6.29893 16.6712 6.76777 16.2042C7.23661 15.7372 7.5 15.1038 7.5 14.4434C7.5 13.7829 7.23661 13.1495 6.76777 12.6825C6.29893 12.2155 5.66304 11.9531 5 11.9531C4.33696 11.9531 3.70107 12.2155 3.23223 12.6825C2.76339 13.1495 2.5 13.7829 2.5 14.4434C2.5 15.1038 2.76339 15.7372 3.23223 16.2042C3.70107 16.6712 4.33696 16.9336 5 16.9336ZM15 6.97266C15.663 6.97266 16.2989 6.71029 16.7678 6.24328C17.2366 5.77627 17.5 5.14287 17.5 4.48242C17.5 3.82197 17.2366 3.18857 16.7678 2.72156C16.2989 2.25455 15.663 1.99219 15 1.99219C14.337 1.99219 13.7011 2.25455 13.2322 2.72156C12.7634 3.18857 12.5 3.82197 12.5 4.48242C12.5 5.14287 12.7634 5.77627 13.2322 6.24328C13.7011 6.71029 14.337 6.97266 15 6.97266ZM15 16.9336C15.663 16.9336 16.2989 16.6712 16.7678 16.2042C17.2366 15.7372 17.5 15.1038 17.5 14.4434C17.5 13.7829 17.2366 13.1495 16.7678 12.6825C16.2989 12.2155 15.663 11.9531 15 11.9531C14.337 11.9531 13.7011 12.2155 13.2322 12.6825C12.7634 13.1495 12.5 13.7829 12.5 14.4434C12.5 15.1038 12.7634 15.7372 13.2322 16.2042C13.7011 16.6712 14.337 16.9336 15 16.9336Z" fill="black"/>
</svg>
