<svg width="161" height="67" viewBox="0 0 161 67" fill="none" xmlns="http://www.w3.org/2000/svg">
<rect width="161" height="67" rx="10" fill="#0087E0"/>
<path d="M35 22.6176L35.361 22.1257H51.2746L51.2994 22.0223C48.8798 19.8879 46.9741 17.6736 46.9741 15.0473C46.9741 12.2143 49.136 10 52.6125 10C53.8611 10.0176 55.0845 10.3544 56.1662 10.9783C56.9654 12.2184 55.9374 11.5791 56.4528 12.7696L56.1428 13.1554C55.1396 12.6153 55.7542 14.0993 54.802 14.0993C52.4334 14.0938 51.1216 15.5117 51.1216 17.5193C51.1216 19.2183 52.3838 21.2011 53.9284 22.1284H58.2289L59.9802 25.6559L59.6192 26.145H54.8792L54.9302 32.0701L54.492 32.6116H49.5232C46.7164 32.6116 44.5269 32.8431 43.4714 33.3832C42.6447 33.8986 42.3126 34.4649 42.3126 35.0367C42.3126 35.6554 42.6736 35.8869 43.4466 35.8869C44.8879 35.8869 48.5187 34.6468 50.7331 34.6468C52.793 34.6468 53.978 35.7285 55.214 37.6603C56.2199 39.2518 56.6333 40.4878 56.6333 41.75C56.6333 44.3501 54.0828 46.9778 49.9118 48.0071L49.8856 48.1104C51.7403 49.8356 54.7786 50.4281 58.3323 50.4529L56.7105 55.2687H56.3494C52.5643 55.2687 49.4227 53.3121 47.2855 48.4191C46.5458 48.548 45.7958 48.6084 45.045 48.5996C43.6547 48.5996 42.5468 48.1352 41.5685 46.7973C40.8479 45.7928 40.4097 44.7883 40.4097 43.9133C40.4097 43.1665 40.8231 42.0586 43.4232 42.0586C45.2517 42.0586 46.868 42.7283 48.0833 44.0153C51.0706 43.0631 53.1306 40.846 53.1306 39.278C53.1306 38.917 52.9501 38.7626 52.41 38.7626C51.2773 38.7626 47.5432 40.1281 45.1993 40.1281C43.1146 40.1281 41.9034 38.866 40.3077 37.0637C39.2054 35.6733 38.4021 34.1797 38.4021 32.7921C38.4021 29.058 41.8 28.5426 46.2562 28.5426H50.6655V26.145H36.7513L35 22.6176Z" fill="#D1FF43"/>
<path d="M57.4035 22.6176L57.7645 22.1257H65.773C66.5987 21.8293 67.4683 21.6737 68.3456 21.6654C69.4365 21.6479 70.5234 21.8032 71.5658 22.1257H88.3557L90.1056 25.6531L89.746 26.1423H85.265L85.3684 48.9826L85.0073 49.2403L80.8626 48.0305L80.9645 26.1423H75.3729C76.6079 27.5432 77.2791 29.3525 77.2566 31.2199C77.2566 34.3092 74.7074 37.2455 70.7679 39.6913C72.1844 41.6204 74.7336 43.4503 77.9 45.1245L76.1749 49.6055H75.8924C73.3433 48.2399 70.5874 45.6095 67.421 40.9535C66.1326 41.3669 64.8966 41.6742 64.0727 41.6742C63.3768 41.6742 62.3475 41.0045 61.0853 39.2794C60.4942 38.4526 60.1842 37.7636 60.1842 37.2965C60.1842 36.1942 61.343 35.107 63.5835 35.107C64.9738 35.107 66.2622 35.4942 67.6525 36.0605C68.4503 35.7519 68.9904 35.4419 69.3776 35.0822C65.5401 32.5331 62.7857 29.9839 62.7857 27.2281C62.7881 26.8652 62.8226 26.5032 62.889 26.1464H59.1549L57.4035 22.6176ZM70.7418 25.6049C68.4503 25.6049 67.009 27.0986 67.009 29.029C67.009 30.9085 68.9133 32.3512 71.5148 33.025C72.8018 31.7118 73.6781 30.2953 73.6781 28.544C73.6781 26.6907 72.4931 25.609 70.7418 25.609" fill="#D1FF43"/>
<path d="M87.5331 22.6176L87.8927 22.1284H99.3776L101.129 25.6559L100.768 26.145H96.287L96.3903 48.9854L96.0307 49.2431L91.8845 48.0333L91.9879 26.145H89.283L87.5331 22.6176Z" fill="#D1FF43"/>
<path d="M98.5536 22.6176L98.9147 22.1257H123.249L125 25.6531L124.639 26.1423H120.155L120.259 48.9826L119.899 49.2403L115.804 48.0553L115.933 35.8497C114.722 35.7478 113.821 35.7216 112.611 35.7216C111.144 35.7216 109.701 35.8497 108.852 36.1074C108.984 37.0464 109.062 37.9924 109.084 38.9404C109.084 39.8154 108.98 40.485 108.362 41.0004C107.938 41.3607 107.402 41.5611 106.846 41.5667C105.945 41.5667 104.786 40.8199 103.318 39.3014C101.876 37.7857 101.155 36.4422 101.155 35.3606C101.155 34.6909 101.541 31.2668 108.313 31.2668C110.477 31.2668 112.949 31.4735 115.91 31.8855V26.1451H100.305L98.5536 22.6176Z" fill="#D1FF43"/>
<path fill-rule="evenodd" clip-rule="evenodd" d="M54.6325 10.7799C54.6325 10.8033 54.6201 10.8061 54.6325 10.8143C54.6449 10.8226 54.6394 10.7951 54.6408 10.784C54.7014 10.8667 54.8158 10.8102 54.8737 10.9039C54.9054 10.8626 54.926 10.9232 54.9467 10.9328C54.9674 10.9425 55.0308 10.9136 55.028 10.9563C55.0735 10.9411 55.1052 10.9563 55.1148 11.0017C55.1396 11.0017 55.1217 10.97 55.1451 10.9645C55.1686 10.959 55.1562 10.9976 55.1451 10.999C55.1837 10.9728 55.1865 11.0141 55.2182 10.999C55.2182 11.0128 55.2182 11.0197 55.203 11.0265C55.2485 11.0031 55.2609 11.0389 55.2981 11.0265C55.2733 11.0789 55.2981 11.0265 55.305 11.0651C55.3146 11.0472 55.3325 11.0362 55.3422 11.0403C55.3385 11.0534 55.3385 11.0672 55.3422 11.0803C55.3863 11.0362 55.3863 11.123 55.451 11.0803C55.4513 11.0869 55.4502 11.0935 55.4479 11.0996C55.4455 11.1058 55.4419 11.1114 55.4372 11.1161C55.4896 11.1161 55.5847 11.1809 55.6122 11.1533C55.6384 11.1533 55.637 11.2126 55.6853 11.174C55.6853 11.2153 55.717 11.2511 55.7445 11.2208C55.8727 11.3104 56.0201 11.3297 56.1579 11.422C56.1703 11.422 56.1717 11.4055 56.1799 11.3986C56.1799 11.4234 56.1896 11.4179 56.1951 11.4496C56.2971 11.4413 56.3646 11.5722 56.4914 11.5488C56.4914 11.5639 56.4831 11.5736 56.4914 11.5887C56.5313 11.5984 56.5754 11.5956 56.603 11.6273C56.6112 11.608 56.6347 11.5446 56.6774 11.5433C56.6774 11.5763 56.6553 11.5874 56.6691 11.6094C56.6829 11.6314 56.6236 11.648 56.6319 11.6177C56.6016 11.6439 56.6319 11.6769 56.6471 11.6425C56.6663 11.7169 56.7559 11.6645 56.7738 11.7403C56.8097 11.699 56.8331 11.7293 56.8331 11.7803C56.8455 11.7803 56.8469 11.7637 56.8482 11.7527C56.8785 11.7968 56.9295 11.7996 56.9598 11.845C56.9695 11.8354 56.9709 11.8216 56.9819 11.812C57.0301 11.8657 57.1404 11.8574 57.1528 11.9429C57.1596 11.9429 57.1528 11.9291 57.1596 11.9208C57.2203 11.9663 57.2974 11.9759 57.3457 12.0503C57.409 12.0434 57.4724 12.111 57.5303 12.1454C57.5537 12.1371 57.5441 12.1123 57.5675 12.1041C57.5909 12.0958 57.5813 12.1041 57.5827 12.111C57.5275 12.1799 57.6102 12.1688 57.6199 12.1992C57.646 12.1661 57.6061 12.184 57.6116 12.1606C57.6171 12.1371 57.6405 12.1482 57.6488 12.1454C57.6254 12.246 57.7053 12.2157 57.7232 12.2694C57.7453 12.2612 57.737 12.2364 57.7604 12.2281C57.7838 12.2198 57.7604 12.2419 57.7756 12.2281C57.7756 12.2419 57.7563 12.2488 57.7453 12.257C57.7342 12.2653 57.7577 12.286 57.7825 12.2667C57.8073 12.2474 57.7825 12.2336 57.8045 12.2267C57.8266 12.2198 57.7852 12.2267 57.7907 12.2019C57.8183 12.1799 57.81 12.224 57.8417 12.1936C57.8321 12.2391 57.8555 12.2267 57.8638 12.2391C57.8486 12.2749 57.8445 12.2198 57.8197 12.2391C57.8197 12.2956 57.8004 12.2515 57.7825 12.2625C57.7921 12.3301 57.8183 12.2722 57.8334 12.3245C57.8472 12.3135 57.8334 12.2915 57.8486 12.2804C57.8638 12.2694 57.8555 12.2873 57.8569 12.2928C57.8582 12.2984 57.872 12.268 57.8638 12.2612C57.9037 12.2322 57.9147 12.2612 57.9533 12.2295C57.9533 12.2488 57.963 12.2529 57.9533 12.2777C57.9699 12.2846 58.0167 12.2364 58.0195 12.268C58.0222 12.2997 57.9933 12.2887 57.9823 12.3011C57.9712 12.3135 58.0139 12.3011 58.0195 12.2763C58.025 12.2515 58.0264 12.3149 58.0498 12.3011C58.0498 12.3163 58.0264 12.3232 58.0346 12.3452C58.0801 12.3011 58.1435 12.3177 58.1159 12.37C58.1338 12.37 58.1366 12.4058 58.1752 12.37C58.1655 12.4362 58.2303 12.3865 58.2124 12.4417C58.2771 12.37 58.2565 12.5188 58.3226 12.4734C58.3446 12.5064 58.3874 12.5009 58.4053 12.5409C58.4232 12.5808 58.3846 12.5326 58.3887 12.5671C58.4742 12.5285 58.4742 12.6415 58.5444 12.6291C58.5444 12.6139 58.5362 12.6167 58.5376 12.6001C58.5389 12.5836 58.5527 12.5836 58.5527 12.5726C58.572 12.5905 58.5761 12.6346 58.5968 12.647C58.6106 12.6318 58.5968 12.6304 58.5968 12.6222C58.5968 12.6139 58.6106 12.636 58.6354 12.6056C58.6257 12.6235 58.6257 12.6332 58.6354 12.6401C58.6988 12.5726 58.6795 12.6966 58.7401 12.658C58.7422 12.6693 58.7403 12.6809 58.7348 12.691C58.7293 12.701 58.7204 12.7088 58.7098 12.7131C58.7098 12.742 58.7291 12.7228 58.7318 12.742C58.7415 12.7324 58.7318 12.7159 58.7387 12.7021C58.7649 12.6787 58.7704 12.6911 58.7842 12.6897C58.7826 12.6979 58.779 12.7056 58.7737 12.7121C58.7684 12.7186 58.7616 12.7237 58.7539 12.7269C58.7952 12.7145 58.8076 12.7503 58.8352 12.76C58.8352 12.7751 58.8118 12.782 58.82 12.8041C58.8738 12.7407 58.9261 12.8302 58.9688 12.8109C58.9592 12.8481 58.9936 12.855 58.9537 12.873C58.9647 12.8881 58.9771 12.873 58.9909 12.8481C59.0088 12.8481 58.9744 12.9226 59.0129 12.9033C59.0129 12.8757 58.9978 12.895 58.9978 12.8785C59.0017 12.8767 59.0051 12.8741 59.0078 12.8707C59.0104 12.8673 59.0122 12.8634 59.0129 12.8592C59.0488 12.8812 59.0639 12.9391 59.1314 12.9033C59.1162 12.9251 59.108 12.9511 59.108 12.9777C59.1314 12.9639 59.1273 12.935 59.1314 12.9115C59.1824 12.8661 59.1521 12.9653 59.199 12.9281C59.2072 12.9653 59.1618 12.9735 59.1604 13.0039C59.1879 12.9859 59.1934 12.9584 59.2127 12.9363C59.232 12.9143 59.2127 12.9694 59.2279 12.9611C59.2431 12.9529 59.2086 12.9804 59.1976 12.9887C59.1866 12.997 59.2362 12.9956 59.2431 12.968C59.2431 13.0273 59.2651 12.9859 59.2568 13.0452C59.2954 13.03 59.2927 13.0452 59.3078 13.0714C59.3216 13.0548 59.3188 13.03 59.3464 13.0218V13.0039C59.334 12.9956 59.3202 13.0355 59.3243 12.9928C59.3197 12.9954 59.3158 12.9992 59.3131 13.0038C59.3104 13.0084 59.3091 13.0137 59.3092 13.019C59.2871 13.0066 59.2072 12.9846 59.2582 12.9239C59.2582 12.9046 59.232 12.9377 59.221 12.9391C59.2214 12.9263 59.2261 12.914 59.2343 12.9043C59.2426 12.8945 59.2539 12.8878 59.2665 12.8854C59.264 12.8807 59.2601 12.8771 59.2553 12.875C59.2505 12.8728 59.2452 12.8724 59.2401 12.8737C59.2351 12.8749 59.2306 12.8778 59.2273 12.882C59.2241 12.8861 59.2224 12.8912 59.2224 12.8964C59.2003 12.8964 59.2003 12.8606 59.1618 12.8964C59.1618 12.8771 59.1948 12.873 59.2003 12.855C59.2058 12.8371 59.1342 12.855 59.1783 12.7999C59.1783 12.7793 59.1535 12.8137 59.1562 12.8233C59.1474 12.8207 59.1397 12.8152 59.1342 12.8077C59.1287 12.8003 59.1258 12.7913 59.1259 12.782C59.1163 12.7917 59.1135 12.8054 59.1039 12.8137C59.0942 12.822 59.0887 12.7999 59.0736 12.8068C59.0797 12.7951 59.0876 12.7844 59.097 12.7751C59.0781 12.7806 59.058 12.7802 59.0393 12.7741C59.0206 12.7679 59.0042 12.7563 58.9923 12.7407C58.9923 12.7159 59.006 12.7407 59.0226 12.72C59.0391 12.6993 58.995 12.72 59.0005 12.6828C59.024 12.6759 59.0391 12.6828 59.0377 12.7186C59.0805 12.6676 59.0832 12.7545 59.1273 12.7296C59.0873 12.6869 59.035 12.6814 59.0005 12.6484C58.9785 12.669 59.0088 12.6621 59.0005 12.6828C58.9551 12.709 59.0088 12.6125 58.9647 12.6373C58.9647 12.6484 58.9744 12.6525 58.9785 12.6635C58.9482 12.6938 58.9633 12.6442 58.9344 12.6745C58.9344 12.658 58.9454 12.6511 58.9564 12.6428C58.9675 12.6346 58.9399 12.6428 58.9413 12.6263C58.9096 12.6704 58.8614 12.6098 58.8379 12.5822C58.849 12.5464 58.8462 12.6056 58.8683 12.5822C58.8108 12.5703 58.7587 12.5404 58.7194 12.4968C58.7194 12.4844 58.7387 12.4775 58.7498 12.4692C58.7498 12.4265 58.7153 12.4692 58.7043 12.4899C58.6781 12.4899 58.7277 12.4499 58.7126 12.4238C58.6836 12.4238 58.7126 12.4623 58.6905 12.4734C58.6602 12.4554 58.6065 12.4816 58.6009 12.4182C58.5637 12.461 58.5624 12.432 58.5334 12.4362C58.5334 12.4169 58.5444 12.4072 58.5417 12.3893C58.5017 12.4058 58.4824 12.3893 58.4604 12.3728C58.4687 12.3452 58.4893 12.3659 58.4976 12.3659C58.4976 12.3301 58.4576 12.3356 58.4232 12.3535C58.4232 12.3314 58.4439 12.3232 58.4383 12.3011C58.4604 12.2832 58.4673 12.3094 58.4838 12.2804C58.4607 12.2686 58.4354 12.2618 58.4095 12.2606C58.3836 12.2594 58.3577 12.2638 58.3336 12.2736C58.324 12.2432 58.3695 12.2405 58.3653 12.2102C58.3226 12.195 58.2785 12.1826 58.2606 12.1234C58.2165 12.1578 58.2234 12.1137 58.2165 12.0999C58.2013 12.1096 58.2069 12.1303 58.1862 12.1371C58.1862 12.0779 58.0746 12.1179 58.1049 12.0517C58.0539 12.0366 58.0112 11.9621 57.9561 11.9842C57.9561 11.9346 57.9079 11.9635 57.912 11.9015C57.8748 11.9318 57.8775 11.8891 57.8376 11.9236C57.8307 11.9029 57.8486 11.8946 57.8376 11.8753C57.7443 11.8424 57.6602 11.7876 57.5923 11.7155C57.5813 11.732 57.5634 11.7431 57.5785 11.7513C57.5263 11.6857 57.4518 11.6415 57.3691 11.6273C57.3429 11.6356 57.3526 11.5763 57.3319 11.5736C57.3112 11.5708 57.3319 11.5942 57.3181 11.6011C57.3029 11.5763 57.2837 11.5446 57.2354 11.5584V11.5019C57.1484 11.4892 57.069 11.4451 57.0122 11.3779C57.0122 11.3848 57.0053 11.3917 56.9984 11.3972C56.8813 11.3007 56.7325 11.2594 56.6112 11.1822C56.5671 11.2153 56.4969 11.1313 56.439 11.1037C56.4073 11.0885 56.3701 11.1037 56.366 11.0569L56.3356 11.0761C56.348 11.0183 56.2778 11.0761 56.2778 11.0114C56.1896 11.0307 56.1317 10.9273 56.0366 10.9328V10.897C55.9154 10.897 55.852 10.7951 55.7294 10.8019C55.7101 10.7386 55.6315 10.7854 55.6122 10.7248C55.5668 10.7523 55.5681 10.6917 55.5241 10.7138C55.4668 10.6593 55.3921 10.6271 55.3132 10.6228C55.1672 10.536 54.9853 10.5167 54.8392 10.4313L54.8089 10.4506C54.7993 10.4506 54.8089 10.4354 54.8172 10.4285L54.6325 10.7799ZM51.7279 12.4265C51.71 12.4665 51.7403 12.4665 51.7568 12.4417C51.7486 12.483 51.772 12.4651 51.772 12.4926C51.7803 12.4692 51.772 12.4665 51.7871 12.4306C51.8037 12.4306 51.8064 12.4692 51.8009 12.4913C51.8175 12.5078 51.8326 12.4554 51.8381 12.5106C51.8381 12.4995 51.8464 12.4858 51.8602 12.4789C51.8395 12.4789 51.8285 12.461 51.8243 12.4334C51.8504 12.4495 51.8776 12.4638 51.9056 12.4761C51.9015 12.4828 51.8987 12.4903 51.8974 12.4982C51.8781 12.505 51.8698 12.4651 51.845 12.505C51.8533 12.5367 51.9001 12.4899 51.9043 12.545C51.9153 12.545 51.9249 12.5299 51.9263 12.545C51.9315 12.5407 51.9356 12.5351 51.9382 12.5289C51.9408 12.5227 51.942 12.5159 51.9415 12.5092C51.9718 12.494 51.9732 12.5271 52.0007 12.5092C52.0076 12.5299 51.9911 12.5395 52.0007 12.5574C52.0241 12.5478 52.0104 12.5202 52.0297 12.5299C52.0489 12.5395 52.0035 12.5588 52.0228 12.5698C52.0421 12.5808 52.0324 12.5464 52.0448 12.5381C52.0586 12.647 52.173 12.5987 52.1991 12.6621C52.1991 12.6787 52.1743 12.6828 52.1688 12.698C52.1633 12.7131 52.2391 12.6704 52.2281 12.7379C52.233 12.7333 52.2368 12.7278 52.2394 12.7216C52.242 12.7154 52.2433 12.7088 52.2432 12.7021C52.2653 12.6814 52.2625 12.7021 52.2804 12.6869C52.2804 12.7035 52.2694 12.7104 52.2584 12.7186C52.2474 12.7269 52.2818 12.7269 52.2873 12.742C52.297 12.7352 52.2873 12.7228 52.2956 12.7117C52.3039 12.7007 52.3108 12.7117 52.3245 12.7117C52.3245 12.7241 52.308 12.7324 52.3094 12.7476L52.3397 12.7283C52.3397 12.7476 52.3259 12.7558 52.3314 12.7765C52.3728 12.7809 52.413 12.793 52.4499 12.8123V12.7861C52.4582 12.7861 52.4857 12.7655 52.4857 12.7861C52.4857 12.8068 52.4747 12.8096 52.4637 12.8192C52.4775 12.8454 52.5354 12.8289 52.5533 12.8192C52.5436 12.8509 52.5533 12.8619 52.5753 12.8481C52.5753 12.8123 52.5877 12.8206 52.6042 12.8123C52.5629 12.8123 52.5698 12.7613 52.523 12.7613C52.5133 12.7724 52.523 12.7613 52.523 12.7779C52.4995 12.8041 52.523 12.7545 52.494 12.7779C52.4981 12.7546 52.4981 12.7308 52.494 12.7076C52.523 12.7586 52.6125 12.7296 52.6194 12.7903C52.6194 12.7903 52.6277 12.7765 52.6346 12.7724C52.6415 12.7682 52.6167 12.7972 52.6346 12.8123C52.6869 12.7669 52.6911 12.8123 52.7076 12.833C52.7338 12.7985 52.7489 12.8082 52.76 12.8247C52.7393 12.8495 52.7117 12.8688 52.7076 12.9019C52.6911 12.9019 52.6787 12.8854 52.6621 12.9143C52.68 12.9143 52.6773 12.9226 52.6704 12.9529C52.6924 12.9253 52.6993 12.9363 52.7145 12.9143C52.7296 12.8922 52.731 12.9418 52.7586 12.9143C52.7476 12.9722 52.7958 12.9611 52.833 12.9529C52.8109 12.9942 52.8261 12.997 52.8633 12.9763C52.8598 12.9898 52.8515 13.0016 52.8399 13.0094C52.855 13.0397 52.9046 13.0094 52.9212 13.0328C52.9349 13.0231 52.9212 13.0011 52.9432 12.9928C52.9653 12.9846 52.9432 13.0355 52.9666 13.0039C52.9667 13.0106 52.9654 13.0172 52.9628 13.0234C52.9602 13.0295 52.9564 13.0351 52.9515 13.0397C52.9598 13.0521 52.9708 13.0025 52.9804 13.0287C52.9824 13.0369 52.982 13.0455 52.9793 13.0536C52.9766 13.0616 52.9718 13.0687 52.9653 13.0741C52.9956 13.0631 53.0094 13.1168 53.0397 13.0741C53.0397 13.0934 53.0259 13.1017 53.0328 13.1224C53.0548 13.0796 53.0548 13.1224 53.0548 13.1224C53.0838 13.1292 53.121 13.0796 53.1279 13.1348C53.1554 13.0976 53.1761 13.1348 53.1954 13.1348C53.1954 13.1458 53.1788 13.154 53.1802 13.1706C53.216 13.1306 53.2105 13.183 53.2546 13.1472C53.2753 13.121 53.2546 13.1017 53.2395 13.1141C53.2395 13.1044 53.2739 13.0907 53.2767 13.0976C53.3015 13.0686 53.2643 13.081 53.2615 13.0727C53.2588 13.0645 53.2808 13.0535 53.2918 13.0438C53.3029 13.0342 53.2918 13.0976 53.329 13.0631C53.3314 13.0726 53.3312 13.0826 53.3286 13.092C53.3259 13.1014 53.3208 13.11 53.3139 13.1168C53.3139 13.1485 53.3469 13.1168 53.3428 13.1582C53.3566 13.1416 53.3649 13.1168 53.38 13.1251C53.3482 13.1654 53.3042 13.1944 53.2546 13.2078C53.2631 13.2229 53.2704 13.2385 53.2767 13.2546C53.2891 13.2436 53.3056 13.2161 53.3056 13.2436C53.3153 13.234 53.318 13.2202 53.329 13.2119C53.3401 13.2037 53.329 13.2326 53.3359 13.2588C53.3635 13.1995 53.4338 13.2243 53.409 13.2877C53.4282 13.2546 53.4255 13.296 53.4544 13.267C53.4544 13.2367 53.4241 13.267 53.4241 13.234C53.4241 13.2009 53.4572 13.2491 53.4696 13.2574C53.4784 13.2434 53.4908 13.232 53.5054 13.2243C53.5233 13.2133 53.5054 13.2505 53.4916 13.2519C53.4778 13.2533 53.5247 13.2229 53.5206 13.2064C53.5068 13.2064 53.5082 13.1899 53.4834 13.2133C53.4834 13.1981 53.4944 13.183 53.4985 13.1678C53.5275 13.1568 53.5219 13.2078 53.5509 13.1954C53.5399 13.2229 53.4834 13.2588 53.5054 13.2767C53.5219 13.2367 53.5219 13.2601 53.5426 13.2519C53.5233 13.2932 53.5206 13.2643 53.5357 13.3001C53.5509 13.2739 53.5578 13.267 53.5798 13.2615C53.5578 13.3166 53.617 13.2615 53.6101 13.3125C53.5605 13.2974 53.5027 13.3222 53.4723 13.2657C53.4654 13.3222 53.4269 13.2657 53.4048 13.3277C53.4048 13.3442 53.4131 13.3401 53.4117 13.358C53.4434 13.3166 53.4572 13.3649 53.4489 13.3938C53.4599 13.3497 53.4861 13.3662 53.493 13.3208C53.5027 13.329 53.5247 13.3111 53.5233 13.3359C53.5219 13.3607 53.4944 13.3194 53.5013 13.369C53.4765 13.3952 53.5013 13.3442 53.471 13.369C53.471 13.3842 53.4627 13.3938 53.4641 13.409C53.5095 13.3745 53.4971 13.409 53.4861 13.4462C53.5164 13.3897 53.544 13.4462 53.5743 13.4462C53.6046 13.4462 53.5839 13.4269 53.5826 13.4062C53.6322 13.3718 53.6501 13.4351 53.6859 13.3979C53.6859 13.4214 53.6666 13.4296 53.6639 13.4475C53.6432 13.4393 53.6184 13.4393 53.6046 13.4172C53.5886 13.4316 53.5779 13.4511 53.5743 13.4723C53.5867 13.4599 53.5895 13.4723 53.5895 13.4792C53.5971 13.4717 53.6023 13.4621 53.6046 13.4517C53.6046 13.504 53.6818 13.4903 53.7162 13.4517C53.6694 13.5164 53.7245 13.4985 53.708 13.5523C53.7204 13.5426 53.7273 13.5454 53.73 13.5523C53.7576 13.5192 53.7176 13.5371 53.7231 13.5137C53.7286 13.4903 53.7631 13.4737 53.8044 13.442C53.8044 13.4875 53.7672 13.4737 53.7521 13.5027C53.7369 13.5316 53.7686 13.5027 53.7975 13.5027C53.802 13.4854 53.8095 13.4691 53.8196 13.4544C53.8334 13.4544 53.8196 13.4834 53.8485 13.4544C53.8485 13.4186 53.8003 13.4682 53.8127 13.409C53.7782 13.4283 53.7465 13.4434 53.73 13.4283C53.7135 13.4131 53.7534 13.4283 53.7603 13.4283C53.781 13.4062 53.7534 13.3938 53.7452 13.42C53.8113 13.2822 53.8637 13.4503 53.945 13.4351C53.945 13.4241 53.945 13.4117 53.9532 13.4048C53.9615 13.3979 53.9243 13.4172 53.9312 13.3842C53.9381 13.3511 53.9822 13.3538 53.9753 13.3842C53.9849 13.3483 54.04 13.3208 54.0345 13.3621C54.0345 13.3718 53.9959 13.3814 53.9973 13.3621C53.9808 13.4048 53.9684 13.3979 53.945 13.431C53.9532 13.4558 53.945 13.4627 53.9532 13.4875C53.9174 13.4875 53.9174 13.4544 53.8568 13.4875C53.8568 13.5275 53.8375 13.5192 53.8485 13.5536C53.8609 13.5302 53.8595 13.4999 53.894 13.4889C53.9188 13.5013 53.9353 13.5275 53.967 13.5275C53.9656 13.5192 53.9663 13.5108 53.9689 13.5028C53.9716 13.4949 53.9761 13.4877 53.9822 13.482C53.9753 13.4713 53.9651 13.4631 53.9532 13.4586C53.9641 13.444 53.9797 13.4338 53.9973 13.4296C53.9973 13.442 53.9973 13.4489 53.9822 13.4558C53.9932 13.4847 54.0083 13.42 54.0263 13.4448C54.018 13.4655 53.9973 13.482 53.9891 13.504C54.0442 13.4655 54.0662 13.5412 54.1268 13.504C54.1268 13.522 54.1062 13.533 54.1117 13.5578C54.1351 13.5481 54.1379 13.5729 54.1709 13.544C54.1692 13.5275 54.172 13.5108 54.1792 13.4958C54.2054 13.4889 54.215 13.5095 54.2453 13.4958C54.2453 13.5275 54.1902 13.5688 54.1944 13.522C54.1944 13.5468 54.1668 13.5605 54.1641 13.5853C54.2054 13.544 54.2123 13.5716 54.2605 13.5564C54.2674 13.5233 54.2357 13.5564 54.2385 13.5357C54.2412 13.5151 54.2633 13.5357 54.2894 13.5192C54.2894 13.533 54.2812 13.5426 54.2826 13.5592C54.3308 13.4889 54.3253 13.5826 54.3638 13.5592C54.3473 13.6156 54.3156 13.5812 54.2977 13.6129C54.2977 13.6212 54.306 13.6129 54.3115 13.6129C54.3211 13.6349 54.2881 13.6349 54.2977 13.657C54.3211 13.6432 54.3294 13.6749 54.3418 13.6363C54.3542 13.5977 54.3597 13.6625 54.379 13.6556C54.3721 13.6749 54.3514 13.6969 54.3487 13.6749C54.3266 13.7231 54.4176 13.6597 54.3859 13.7286L54.4314 13.6983C54.4314 13.6832 54.4314 13.6721 54.4314 13.6597C54.4548 13.6501 54.441 13.6763 54.4383 13.6969C54.4906 13.6542 54.4851 13.7176 54.5127 13.7617C54.5554 13.7341 54.5747 13.8141 54.6243 13.8003C54.6422 13.7686 54.6119 13.7851 54.6091 13.7672C54.6339 13.7328 54.6656 13.7603 54.6821 13.7672C54.6711 13.8044 54.6601 13.7562 54.6463 13.792C54.6511 13.8091 54.6511 13.8273 54.6463 13.8444C54.6629 13.8347 54.7014 13.8017 54.7276 13.781C54.7538 13.7603 54.7207 13.8237 54.7276 13.8416C54.7345 13.8595 54.7841 13.8237 54.7566 13.8664C54.7726 13.8579 54.7912 13.8555 54.8089 13.8595C54.8266 13.8636 54.8422 13.8739 54.853 13.8885C54.8599 13.9188 54.8172 13.9229 54.8241 13.9519C54.8558 13.9422 54.8392 13.9078 54.8682 13.8967C54.8971 13.8857 54.8682 13.9408 54.8682 13.9656C54.8861 13.9574 54.8847 13.9822 54.8985 13.9808C54.8918 13.9895 54.8871 13.9996 54.8844 14.0102C54.8818 14.0209 54.8815 14.032 54.8833 14.0428C54.8833 14.0332 54.904 14.0166 54.9054 14.029C54.9247 14.0139 54.8957 14.0208 54.9054 13.9932C54.915 13.9656 54.926 14.0015 54.9343 14.0084C54.9375 14.0069 54.9401 14.0044 54.9416 14.0012C54.9432 13.9981 54.9436 13.9945 54.9428 13.9911C54.9419 13.9876 54.94 13.9846 54.9372 13.9825C54.9344 13.9804 54.9309 13.9793 54.9274 13.9794C54.9354 13.9625 54.9456 13.9468 54.9577 13.9326C54.9729 13.9326 54.9577 13.9643 54.9867 13.9326C54.9867 13.9712 54.9701 13.9546 54.9564 13.978C54.9426 14.0015 54.9784 13.9684 54.9936 13.9532C55.0087 13.9381 55.0252 13.9767 55.0445 13.9794C55.0349 14.0001 55.0115 14.0152 55.0004 14.0359C55.0115 14.0538 55.0004 14.1158 55.0294 14.1021C55.0294 14.1517 55.0128 14.1751 55.0432 14.1971C55.0432 14.1778 55.0294 14.1696 55.0432 14.1448C55.0569 14.12 55.0693 14.1448 55.079 14.1544C55.0886 14.1641 55.0886 14.1241 55.1079 14.1172C55.0928 14.1172 55.0859 14.0621 55.0652 14.0952C55.0685 14.0764 55.0789 14.0597 55.0941 14.0483C55.1093 14.0483 55.0831 14.0924 55.1231 14.0552C55.1327 14.0773 55.0997 14.0773 55.1079 14.0993C55.1272 14.0566 55.1465 14.069 55.152 14.0993C55.1754 14.0773 55.1644 14.0648 55.152 14.0648C55.1658 14.0538 55.1686 14.0648 55.1823 14.0538C55.1823 14.0717 55.1906 14.0979 55.1741 14.1103C55.1741 14.1172 55.2264 14.0883 55.1961 14.1296C55.1961 14.1489 55.2471 14.0786 55.2554 14.1076C55.2636 14.1365 55.2361 14.1282 55.225 14.1365C55.2416 14.1503 55.254 14.2054 55.2829 14.1668C55.2926 14.1668 55.3119 14.1889 55.2829 14.2013C55.3187 14.2123 55.3835 14.1889 55.4372 14.1145C55.4469 14.1145 55.4524 14.1282 55.4662 14.1145C55.4662 14.1448 55.429 14.153 55.4372 14.1861C55.4056 14.204 55.4152 14.1861 55.4083 14.1709C55.3949 14.1754 55.3833 14.1842 55.3754 14.1959C55.3674 14.2076 55.3635 14.2216 55.3642 14.2357C55.3711 14.2357 55.3642 14.2206 55.3711 14.2123C55.378 14.204 55.4083 14.1944 55.4069 14.2233C55.4056 14.2522 55.3945 14.2233 55.378 14.2426C55.3615 14.2619 55.4083 14.2343 55.4 14.2715C55.4428 14.2082 55.4579 14.2715 55.4648 14.3225C55.4896 14.3046 55.5254 14.2619 55.502 14.2454C55.4896 14.2839 55.4813 14.2646 55.4731 14.2454C55.4648 14.2261 55.4869 14.2357 55.4882 14.2454C55.4979 14.2109 55.4483 14.215 55.4372 14.193C55.5213 14.1751 55.5916 14.2564 55.6784 14.2646C55.6784 14.2757 55.6646 14.2812 55.6563 14.2881C55.6481 14.295 55.6674 14.3129 55.6922 14.2881C55.6742 14.3349 55.7032 14.3019 55.7073 14.3294C55.7115 14.357 55.666 14.3501 55.677 14.3763C55.7142 14.3377 55.7087 14.368 55.728 14.3942C55.7583 14.3639 55.7845 14.3487 55.779 14.4024C55.8079 14.3776 55.8079 14.4024 55.8382 14.3804C55.8258 14.4948 55.9333 14.4589 55.976 14.5375C55.9898 14.5072 56.0201 14.4906 56.0049 14.5375C56.0284 14.5292 56.0325 14.5113 56.0422 14.4948C56.0518 14.4782 56.0546 14.4948 56.0559 14.503C56.0573 14.5113 56.0366 14.5444 56.0118 14.5581C56.0118 14.5953 56.0477 14.5044 56.049 14.5581C56.0807 14.5127 56.078 14.5333 56.1 14.5402C56.1 14.5609 56.0807 14.5719 56.0628 14.5829C56.1179 14.5637 56.1538 14.6229 56.224 14.5526C56.2502 14.5457 56.2378 14.5678 56.2461 14.5802C56.2544 14.5926 56.2144 14.6174 56.2158 14.6436C56.2254 14.6384 56.2337 14.6311 56.2402 14.6223C56.2466 14.6135 56.251 14.6033 56.253 14.5926C56.2668 14.6105 56.2736 14.5926 56.2971 14.5816C56.2888 14.6229 56.2392 14.6574 56.2227 14.6477C56.2227 14.6615 56.2158 14.6698 56.2158 14.6615C56.2158 14.7125 56.2309 14.7731 56.3108 14.718C56.3108 14.7428 56.2736 14.7455 56.2805 14.7731C56.3136 14.7414 56.326 14.8034 56.3536 14.8103C56.3811 14.8172 56.3687 14.7896 56.3825 14.7814C56.3825 14.7938 56.366 14.802 56.3673 14.8172C56.3687 14.8323 56.377 14.8103 56.3977 14.7979C56.3977 14.8089 56.3825 14.8131 56.3825 14.8255C56.3825 14.8613 56.4114 14.8448 56.4266 14.8131C56.4266 14.8241 56.4266 14.8268 56.4335 14.8255C56.4404 14.8241 56.4197 14.842 56.4114 14.8489C56.4445 14.8682 56.4693 14.944 56.5203 14.904C56.5327 14.9591 56.552 14.904 56.5561 14.9412C56.6043 14.8971 56.6112 14.9109 56.6526 14.8944C56.6526 14.8723 56.6415 14.8751 56.6374 14.8599C56.6622 14.842 56.6526 14.8833 56.6746 14.8709C56.6746 14.882 56.6608 14.8875 56.6526 14.8944C56.6732 14.9081 56.6815 14.9481 56.7022 14.9633C56.7022 14.9743 56.6884 14.9798 56.6801 14.9867C56.6719 14.9936 56.6953 15.0101 56.7173 14.9963C56.7697 14.9288 56.7848 15.068 56.8551 15.0377C56.8162 15.0076 56.7798 14.9744 56.7463 14.9384C56.7711 14.9288 56.7766 14.9509 56.7904 14.9605C56.8138 14.9316 56.7752 14.944 56.7752 14.9274L56.8207 14.8985C56.8207 14.9136 56.811 14.9219 56.8124 14.9371C56.8524 14.9371 56.8854 14.8723 56.9075 14.9164C56.8978 14.9426 56.8675 14.9329 56.8496 14.9481C56.8317 14.9633 56.8413 14.9839 56.8262 14.9963C56.8386 14.9963 56.9033 14.9164 56.9144 14.9633C56.9133 14.9717 56.9099 14.9796 56.9045 14.9862C56.8992 14.9928 56.8921 14.9977 56.8841 15.0005C56.8841 15.0321 56.9461 14.9577 56.9585 14.9867C56.9709 15.0156 56.9282 15.017 56.935 15.0445C56.9419 15.0445 56.9419 15.0363 56.9433 15.0308C56.9447 15.0253 56.964 15.0308 56.9805 14.9977C56.9805 15.006 57.0026 15.028 57.0163 14.9977C57.0163 15.0073 57.0398 14.9977 57.0384 15.017C57.037 15.0363 56.986 15.0542 56.9791 15.0831C56.9966 15.0786 57.0136 15.0726 57.0301 15.0652C57.0301 15.0845 57.0163 15.0928 57.0219 15.1134C57.0494 15.1134 57.0659 15.1355 57.088 15.1465C57.088 15.1672 57.0687 15.1465 57.0508 15.1713C57.0673 15.2071 57.1252 15.1162 57.1238 15.1823C57.1348 15.1823 57.1624 15.1479 57.161 15.1672C57.1803 15.152 57.1514 15.1589 57.161 15.1327L57.1831 15.1176C57.1913 15.1548 57.2272 15.1382 57.234 15.1782C57.2148 15.214 57.1831 15.203 57.19 15.1644C57.1707 15.1768 57.1541 15.1837 57.1459 15.1768C57.1583 15.1768 57.1596 15.2457 57.2037 15.2071C57.2037 15.2347 57.1776 15.2457 57.1803 15.2733C57.2216 15.2319 57.263 15.2581 57.2974 15.2733C57.2974 15.3036 57.2823 15.2733 57.2685 15.294C57.2837 15.294 57.2685 15.3201 57.2685 15.3449C57.2988 15.3353 57.3085 15.3628 57.3415 15.3449C57.3415 15.4001 57.3732 15.3449 57.438 15.3243C57.4201 15.3243 57.3953 15.3243 57.387 15.3077C57.3746 15.3077 57.3732 15.3229 57.3718 15.3339C57.369 15.3356 57.3658 15.3365 57.3626 15.3365C57.3593 15.3366 57.3561 15.3358 57.3532 15.3343C57.3503 15.3328 57.3478 15.3306 57.346 15.3279C57.3442 15.3251 57.3432 15.322 57.3429 15.3188C57.3429 15.3036 57.3636 15.3077 57.365 15.3188C57.3718 15.294 57.365 15.214 57.3291 15.2485C57.3401 15.2016 57.2974 15.1837 57.2644 15.1892C57.2644 15.1644 57.2809 15.1506 57.2506 15.1727C57.2368 15.1093 57.2051 15.079 57.1569 15.0804C57.1803 15.0335 57.1224 15.0501 57.1569 15.0115C57.1445 15.0225 57.1321 15.0115 57.1128 15.0115C57.0935 15.0115 57.1224 15.0239 57.1197 15.0404C57.1169 15.0569 57.1018 15.0404 57.0907 15.0404C57.0941 15.0276 57.1019 15.0164 57.1128 15.0087C57.1128 14.9825 57.0976 14.9922 57.099 14.966C57.088 14.966 57.0866 14.9825 57.077 14.9894C57.077 14.966 57.077 14.9453 57.0549 14.9701C57.0549 14.9564 57.0549 14.9343 57.048 14.9398C57.048 14.9219 57.0825 14.9233 57.0715 14.8999C57.0274 14.9453 56.9778 14.8888 56.9833 14.8461C56.9888 14.8034 56.9681 14.864 56.9543 14.8654C56.9406 14.8668 56.9474 14.8654 56.9392 14.8654C56.9392 14.842 56.953 14.8323 56.9474 14.8089C56.9006 14.8392 56.8744 14.7786 56.8455 14.7483C56.8234 14.769 56.8193 14.7566 56.8014 14.769C56.8014 14.8075 56.8303 14.7511 56.8386 14.7786C56.8179 14.7951 56.8234 14.791 56.8152 14.8282C56.7683 14.8599 56.76 14.8282 56.7724 14.7883C56.7848 14.7483 56.7724 14.8296 56.8014 14.8034C56.7848 14.7938 56.8014 14.7511 56.8248 14.7359C56.8014 14.7249 56.789 14.6932 56.7669 14.6808C56.7931 14.6463 56.7821 14.6601 56.7738 14.6326C56.7917 14.6326 56.7972 14.6463 56.7959 14.678C56.8096 14.6684 56.7959 14.6463 56.8179 14.6381C56.8 14.6381 56.7972 14.6133 56.7821 14.6105C56.7669 14.6077 56.7669 14.6491 56.7669 14.6725C56.7408 14.6725 56.7311 14.6394 56.6925 14.6601C56.6801 14.6766 56.6774 14.6987 56.6636 14.7152C56.6498 14.7318 56.6829 14.6794 56.6719 14.6574C56.6608 14.6353 56.6801 14.6574 56.6939 14.6436C56.6939 14.5857 56.6333 14.5912 56.636 14.5265C56.5837 14.5554 56.5699 14.5113 56.541 14.4948C56.5506 14.4548 56.5782 14.4755 56.6002 14.4383C56.6002 14.3997 56.5478 14.47 56.5795 14.4011C56.5607 14.4201 56.5474 14.4439 56.541 14.47C56.5256 14.4709 56.5103 14.4669 56.4974 14.4584C56.4845 14.45 56.4746 14.4376 56.4693 14.4231C56.4321 14.4713 56.4183 14.4396 56.4032 14.4231C56.388 14.4066 56.4169 14.4066 56.4252 14.3997C56.4335 14.3928 56.4252 14.4176 56.4252 14.4286C56.429 14.4271 56.4324 14.4247 56.435 14.4216C56.4377 14.4184 56.4395 14.4147 56.4404 14.4107L56.4555 14.4011C56.4555 14.3763 56.4156 14.4093 56.4252 14.3597C56.4445 14.3459 56.4431 14.3666 56.4555 14.3666C56.4803 14.3322 56.4431 14.3377 56.4404 14.3239C56.4969 14.2784 56.4183 14.2991 56.4128 14.266C56.4018 14.2881 56.3756 14.3239 56.3605 14.317C56.3894 14.2881 56.3701 14.2784 56.3908 14.2371C56.3825 14.244 56.377 14.244 56.3756 14.2371C56.3618 14.2784 56.3398 14.2605 56.3164 14.2936C56.3095 14.2839 56.2998 14.2288 56.2585 14.255C56.2585 14.2302 56.2764 14.2178 56.2888 14.2013C56.2778 14.1723 56.2599 14.1613 56.2599 14.1337L56.2295 14.153V14.1875C56.264 14.1558 56.253 14.2082 56.2654 14.215C56.2323 14.2357 56.2392 14.1847 56.2075 14.2026C56.253 14.12 56.1868 14.1475 56.1786 14.0924C56.1855 14.1076 56.2061 14.0924 56.2089 14.1158C56.2282 14.0828 56.191 14.08 56.1799 14.0745C56.1686 14.0926 56.1557 14.1097 56.1414 14.1255C56.1166 14.1255 56.151 14.0855 56.1496 14.069C56.1372 14.08 56.1358 14.069 56.1358 14.0607C56.111 14.1034 56.0945 14.0952 56.0986 14.0428C56.0849 14.0938 56.0849 14.0552 56.0477 14.0855C56.0477 14.0373 56.0918 14.0662 56.0849 14.018C56.0504 14.0648 56.0449 14.0442 56.0187 14.0704C56.0187 14.029 56.0559 14.0497 56.0614 14.0235C56.0449 14.0139 56.0408 14.0125 56.0105 14.0414C56.0105 14.0028 56.0311 14.0318 56.0408 14.0042C56.0408 13.9395 55.9939 13.9918 55.9526 13.9932C55.9526 13.9739 55.965 13.9601 55.9609 13.9367C55.9278 13.9601 55.9278 13.9215 55.9016 13.9367C55.9016 13.916 55.9236 13.9023 55.9305 13.883C55.9374 13.8637 55.9443 13.883 55.954 13.8761C55.954 13.8967 55.9388 13.9036 55.9305 13.9174C55.9567 13.9174 55.9774 13.9009 55.9967 13.9243C55.987 13.905 55.9843 13.8733 55.9609 13.8802C55.9609 13.854 55.9815 13.8885 55.9829 13.8568C55.9925 13.8788 56.0132 13.8802 56.027 13.8967C56.0353 13.8885 56.027 13.8761 56.0422 13.8692C56.0573 13.8623 56.0311 13.8967 56.0422 13.9119C56.0546 13.9036 56.0614 13.9119 56.0642 13.9119C56.1124 13.8278 56.089 13.9505 56.1386 13.9119C56.1386 13.9367 56.1124 13.9519 56.1303 13.9601C56.1551 13.9381 56.1565 13.9036 56.1827 13.8816C56.1827 13.8568 56.1607 13.8816 56.1607 13.854C56.1524 13.8609 56.1538 13.8733 56.1524 13.8843C56.1276 13.9023 56.1248 13.8775 56.1166 13.8664C56.1083 13.8554 56.1345 13.8664 56.1538 13.832C56.1703 13.832 56.1786 13.854 56.2047 13.8416C56.2047 13.8664 56.1786 13.8816 56.1965 13.8899C56.275 13.8017 56.3164 13.9147 56.366 13.9326C56.3577 13.9519 56.3315 13.9615 56.3288 13.9836C56.2957 13.9451 56.2561 13.9129 56.2116 13.8885C56.1923 13.9091 56.2116 13.9215 56.2337 13.8995C56.2337 13.9298 56.2502 13.9298 56.2185 13.9532C56.2331 13.9504 56.2481 13.9504 56.2626 13.9532C56.2626 13.9725 56.2323 13.9836 56.2406 14.0111C56.2723 13.978 56.2695 13.9918 56.2847 14.0111C56.2998 14.0304 56.264 14.0414 56.2695 14.0648C56.275 14.0883 56.3343 14.08 56.3646 14.0648C56.3577 14.0759 56.3646 14.091 56.3494 14.1007C56.3343 14.1103 56.3673 14.0648 56.3343 14.0924C56.3425 14.1296 56.377 14.1186 56.3853 14.153L56.4376 14.1186C56.4313 14.14 56.4285 14.1624 56.4293 14.1847C56.4693 14.1461 56.4445 14.1351 56.4514 14.1089C56.4583 14.0828 56.4514 14.1696 56.4886 14.1365C56.4886 14.1723 56.4445 14.1834 56.4514 14.2219C56.4583 14.2219 56.4514 14.2068 56.4583 14.1999C56.4996 14.1902 56.5162 14.2261 56.5382 14.2495C56.5699 14.2274 56.563 14.1861 56.5465 14.1834C56.5671 14.1834 56.6167 14.12 56.6126 14.1572C56.6085 14.1944 56.5933 14.1572 56.5837 14.1861C56.574 14.215 56.6071 14.1765 56.5975 14.2095C56.6209 14.1889 56.6167 14.1737 56.6429 14.1723C56.6435 14.1806 56.6415 14.1888 56.6373 14.1959C56.6332 14.203 56.6269 14.2087 56.6195 14.2123C56.6195 14.2509 56.6677 14.1668 56.6719 14.204C56.676 14.2412 56.6291 14.2357 56.6347 14.2633C56.6567 14.255 56.6608 14.2371 56.6787 14.2247C56.6967 14.2123 56.6912 14.2247 56.6939 14.233C56.6967 14.2412 56.6608 14.2454 56.6484 14.2798C56.6691 14.2867 56.6484 14.306 56.6484 14.3446C56.6484 14.3831 56.7242 14.3694 56.7504 14.379C56.7022 14.4176 56.7945 14.4369 56.8083 14.47C56.7862 14.5058 56.7766 14.4479 56.7421 14.4796C56.7532 14.5278 56.8179 14.47 56.8152 14.5251C56.8234 14.5182 56.8152 14.5058 56.8221 14.4948C56.851 14.4672 56.8441 14.5016 56.8675 14.4824C56.8565 14.5637 56.9282 14.5182 56.9171 14.5774C56.9681 14.5637 56.9667 14.6105 57.0191 14.5774C57.0081 14.5678 57.0191 14.565 57.0191 14.543C57.0839 14.5196 57.0535 14.6009 57.0191 14.6587C57.0425 14.6353 57.0508 14.605 57.0715 14.5816C57.0825 14.5967 57.1018 14.6009 57.1073 14.6257C57.1128 14.6505 57.0797 14.6257 57.0632 14.6463C57.0632 14.6284 57.1045 14.6987 57.1211 14.6932C57.1376 14.6877 57.1059 14.7414 57.1059 14.7207C57.0894 14.7538 57.1211 14.729 57.1279 14.7318C57.1348 14.7345 57.1348 14.7125 57.1362 14.7014C57.1665 14.7138 57.1679 14.8186 57.2299 14.802V14.8448C57.2451 14.8351 57.2396 14.8627 57.2602 14.8448C57.252 14.9329 57.3236 14.8778 57.3167 14.9619C57.3691 14.944 57.387 14.9867 57.3953 15.0459C57.3636 15.0569 57.3539 15.0721 57.3291 15.0818C57.3663 15.0983 57.4297 15.0694 57.4242 15.1217C57.4545 15.0638 57.4959 15.0501 57.522 14.9839C57.5358 15.0005 57.5441 15.028 57.5579 15.0459C57.5896 14.9839 57.5027 14.9894 57.5455 14.9178C57.562 14.9054 57.5455 14.9453 57.5523 14.9564C57.5785 14.915 57.5827 14.9688 57.6185 14.9371C57.6094 14.9473 57.6027 14.9594 57.5986 14.9724C57.5946 14.9855 57.5934 14.9993 57.5951 15.0129C57.6116 14.9798 57.6281 14.977 57.6543 14.9646C57.6543 14.9963 57.6543 15.0418 57.6764 15.0018C57.6764 15.0266 57.6598 15.0459 57.6764 15.0542C57.6764 15.0831 57.6653 15.0707 57.646 15.0818C57.6598 15.0955 57.6708 15.1107 57.6984 15.0997C57.6984 15.1286 57.6598 15.1382 57.6598 15.1672C57.6722 15.1672 57.7081 15.1079 57.7039 15.1465C57.7149 15.1314 57.7329 15.1203 57.7273 15.0969C57.7563 15.0969 57.7494 15.0969 57.7797 15.0625C57.81 15.028 57.7797 15.1079 57.7935 15.0873C57.8073 15.0666 57.8004 15.0556 57.8018 15.039C57.8031 15.0225 57.8142 15.0638 57.8307 15.0542C57.8307 15.0762 57.7962 15.0831 57.8004 15.1079C57.821 15.0818 57.8334 15.1079 57.8155 15.1245C57.8665 15.0831 57.8899 15.1245 57.8941 15.192C57.9051 15.1768 57.9216 15.1658 57.9327 15.1506C57.9437 15.1355 57.9327 15.1314 57.9327 15.0983C57.9175 15.0983 57.9189 15.1203 57.9175 15.1341C57.8817 15.1341 57.8748 15.0721 57.8527 15.0404C57.8927 15.028 57.8872 15.0955 57.9258 15.0859C57.9152 15.0696 57.9081 15.0513 57.9051 15.0321C57.9285 15.0225 57.923 15.0666 57.9643 15.0321C57.9643 15.0542 57.9382 15.0652 57.9409 15.09C57.9547 15.0804 57.9561 15.09 57.9699 15.079C57.9699 15.0955 57.9588 15.1024 57.9478 15.1107C57.9368 15.119 57.9685 15.1107 57.9616 15.1355C57.9878 15.0983 57.9974 15.1355 58.0222 15.0969C58.0291 15.13 57.996 15.141 57.9974 15.1713C58.025 15.1589 58.0443 15.2003 58.0332 15.2251C58.0704 15.2113 58.0456 15.254 58.0773 15.2471C58.0773 15.276 58.0622 15.2471 58.047 15.2678C58.047 15.3064 58.0897 15.2871 58.098 15.3188C58.1164 15.3033 58.1318 15.2846 58.1435 15.2636C58.1517 15.2774 58.1821 15.276 58.2027 15.2416C58.211 15.2636 58.1779 15.2636 58.1876 15.2857C58.1972 15.3077 58.2179 15.2857 58.2165 15.3105C58.2399 15.2995 58.2399 15.2788 58.2537 15.2857C58.2537 15.3146 58.211 15.3215 58.2 15.3449C58.1889 15.3684 58.2082 15.2926 58.1779 15.3256C58.1476 15.3587 58.1958 15.3697 58.222 15.3573C58.222 15.3766 58.211 15.3863 58.2137 15.4042C58.2454 15.3904 58.2978 15.3821 58.2868 15.4166C58.2868 15.4262 58.3006 15.4083 58.3019 15.3973C58.3033 15.3863 58.3364 15.3973 58.3309 15.4386C58.3543 15.418 58.3529 15.4386 58.375 15.418C58.3474 15.4317 58.375 15.3546 58.3322 15.3863C58.3405 15.3477 58.3626 15.3422 58.3488 15.3077C58.3956 15.2733 58.3736 15.3256 58.3777 15.3312C58.4108 15.3064 58.3777 15.2995 58.3943 15.2705C58.3736 15.2884 58.3667 15.2843 58.3722 15.2595C58.3474 15.2802 58.3488 15.2595 58.335 15.2829C58.3212 15.3064 58.3584 15.2912 58.335 15.327C58.3198 15.3339 58.335 15.2898 58.313 15.3064C58.3212 15.2774 58.3433 15.276 58.3295 15.254C58.3102 15.3036 58.313 15.2443 58.3006 15.2388C58.2882 15.2333 58.3281 15.192 58.3295 15.2113C58.3198 15.2113 58.3212 15.1493 58.2937 15.1575C58.313 15.0928 58.2689 15.119 58.2937 15.0583C58.2675 15.0583 58.2537 15.0914 58.2344 15.0804C58.2344 15.068 58.2523 15.0611 58.2634 15.0528C58.273 15.0018 58.2427 15.0197 58.2358 14.9949C58.2206 15.0087 58.2193 15.0184 58.2275 15.0253C58.1986 15.0542 58.2013 15.0115 58.1834 15.0459C58.1834 15.0459 58.2027 15.0005 58.1834 15.0115C58.1917 14.9812 58.1945 14.9949 58.2137 14.9825C58.2137 14.9481 58.1697 14.9715 58.1779 14.9123C58.1311 14.9812 58.1697 14.8654 58.12 14.9123C58.1476 14.8709 58.1132 14.8875 58.1283 14.8544C58.1449 14.8544 58.1628 14.8544 58.1573 14.8957C58.2 14.8448 58.2096 14.9081 58.2151 14.9522C58.2262 14.9294 58.2446 14.9109 58.2675 14.8999C58.1958 14.9467 58.2165 14.7511 58.1132 14.8558C58.0939 14.8379 58.0649 14.8351 58.0553 14.8007C58.0401 14.8158 58.0388 14.8241 58.047 14.831L58.0029 14.8613C57.9933 14.8613 57.9891 14.8516 57.9878 14.8351C58.0112 14.8199 58.0084 14.8489 58.0401 14.8186C58.0401 14.7951 58.0277 14.791 58.0264 14.7676L57.996 14.7869C57.9928 14.7855 57.9899 14.7834 57.9875 14.7808C57.9851 14.7782 57.9833 14.7751 57.9823 14.7717C57.9823 14.7524 58.0015 14.74 58.0195 14.729C57.9988 14.7042 57.9685 14.7883 57.9533 14.7469C57.9436 14.7569 57.9382 14.7702 57.9382 14.7841C57.9244 14.7841 57.9134 14.7938 57.9079 14.7841C57.9561 14.7318 57.9079 14.6877 57.9079 14.6463C57.9382 14.6463 57.9685 14.7097 57.996 14.6574C58.0181 14.667 58.0264 14.7028 58.0539 14.7042C58.0773 14.667 58.0332 14.6794 58.0332 14.6587C58.0608 14.6491 58.0512 14.6587 58.0842 14.6339C58.0608 14.6973 58.1021 14.6505 58.076 14.7152C58.1076 14.7001 58.1132 14.6711 58.1214 14.6436C58.1421 14.6436 58.1214 14.6808 58.1214 14.6946C58.1393 14.6835 58.1435 14.6946 58.1669 14.6739C58.1669 14.6946 58.1559 14.7042 58.1586 14.7221C58.1931 14.6973 58.1683 14.7221 58.1793 14.7428C58.2082 14.7304 58.2165 14.7566 58.2468 14.7428C58.2468 14.7662 58.2261 14.7731 58.2234 14.7924C58.1986 14.7924 58.1834 14.7455 58.1559 14.802C58.1641 14.8103 58.1889 14.7896 58.2013 14.7896C58.1965 14.799 58.1937 14.8094 58.1931 14.8199C58.2262 14.7979 58.2303 14.7979 58.2303 14.831C58.2647 14.8158 58.2551 14.78 58.2895 14.7648C58.2964 14.7648 58.2978 14.7648 58.3047 14.7648C58.3047 14.791 58.2854 14.802 58.2744 14.8199C58.2634 14.8379 58.2923 14.8323 58.2882 14.8613C58.3006 14.8613 58.3019 14.8461 58.3033 14.8351C58.335 14.8351 58.3212 14.904 58.3763 14.8544C58.4039 14.8985 58.4507 14.8847 58.4563 14.9481C58.488 14.9205 58.4852 14.9481 58.5004 14.9481C58.5238 14.9164 58.5224 14.9068 58.5458 14.8916C58.5424 14.8688 58.5424 14.8455 58.5458 14.8227C58.5196 14.853 58.5307 14.8475 58.5004 14.8696C58.47 14.8916 58.4769 14.8392 58.4411 14.8696C58.4411 14.8406 58.4852 14.8282 58.5017 14.8048C58.5183 14.7814 58.4618 14.7924 58.488 14.7538C58.47 14.7318 58.4177 14.7676 58.4232 14.7028C58.4494 14.6904 58.4576 14.7097 58.4824 14.7028C58.4756 14.6918 58.4618 14.6946 58.4687 14.6601C58.448 14.6877 58.4452 14.6863 58.4535 14.6532C58.3984 14.6877 58.4122 14.5995 58.3736 14.6036C58.3667 14.5829 58.3901 14.5774 58.4039 14.5664C58.4177 14.5554 58.3832 14.5568 58.3819 14.5375C58.3704 14.5654 58.3648 14.5955 58.3653 14.6257C58.3592 14.6371 58.3518 14.6477 58.3433 14.6574C58.3322 14.6574 58.3281 14.645 58.3212 14.6381C58.3143 14.6312 58.3447 14.6146 58.3364 14.594C58.3212 14.594 58.3171 14.6119 58.3061 14.6215C58.295 14.6312 58.3061 14.6077 58.2923 14.6215C58.2992 14.5871 58.3088 14.6091 58.3226 14.5843C58.3364 14.5595 58.3309 14.6188 58.3584 14.594C58.253 14.5191 58.1535 14.4362 58.0608 14.3459C58.0222 14.3969 58.0015 14.3459 58.0167 14.306C57.9933 14.3308 57.9878 14.3666 57.9643 14.3914C57.9354 14.3914 57.9643 14.3418 57.9354 14.3501C57.9354 14.3404 57.9492 14.3349 57.9575 14.3267C57.9437 14.3101 57.9079 14.3267 57.8996 14.306C57.9616 14.244 57.8775 14.2426 57.8789 14.1682C57.8569 14.1682 57.8651 14.1958 57.8638 14.2123C57.8348 14.1944 57.8527 14.1944 57.8348 14.1627C57.8238 14.1723 57.8348 14.1902 57.8197 14.1985C57.8045 14.2068 57.8059 14.1889 57.8045 14.1737C57.7955 14.1881 57.7826 14.1996 57.7673 14.2068C57.7397 14.2206 57.7756 14.1654 57.7384 14.1916C57.7397 14.1833 57.7432 14.1755 57.7486 14.169C57.7539 14.1625 57.7608 14.1574 57.7687 14.1544C57.7356 14.1131 57.7535 14.0952 57.6888 14.0883C57.69 14.0815 57.6925 14.0751 57.6963 14.0694C57.7001 14.0637 57.7051 14.0589 57.7108 14.0552C57.6543 14.0773 57.6419 14.0221 57.5937 14.0304C57.5957 14.0198 57.601 14.0102 57.6088 14.0028C57.5951 13.9946 57.5703 14.0097 57.5413 14.0304C57.5392 14.0218 57.5404 14.0127 57.5448 14.005C57.5491 13.9974 57.5563 13.9916 57.5647 13.9891C57.511 13.9891 57.5096 13.8843 57.427 13.9353C57.427 13.9119 57.4476 13.905 57.4435 13.8816C57.4394 13.8582 57.4518 13.8995 57.4724 13.8816C57.4311 13.8747 57.3663 13.894 57.3346 13.8402C57.3126 13.8664 57.3512 13.8747 57.3112 13.8981C57.3112 13.8595 57.3112 13.8278 57.2837 13.8306C57.2478 13.8678 57.2961 13.8416 57.2974 13.8637C57.2671 13.8871 57.263 13.8637 57.2451 13.8637C57.2582 13.8412 57.2734 13.8199 57.2905 13.8003C57.2478 13.7906 57.1941 13.8278 57.1652 13.7796C57.1652 13.7686 57.1803 13.7631 57.1803 13.7521C57.1803 13.741 57.172 13.7397 57.1803 13.7217C57.1528 13.741 57.1596 13.7466 57.1362 13.7521C57.1425 13.7368 57.1453 13.7203 57.1445 13.7038C57.1169 13.7038 57.1031 13.6914 57.0852 13.6818C57.0673 13.6721 57.11 13.6639 57.1073 13.6818C57.1155 13.6322 57.0577 13.6666 57.026 13.7011C57.0163 13.6735 57.0439 13.6639 57.0632 13.6501C57.037 13.6377 56.9805 13.6804 56.9667 13.6501C56.953 13.6198 57.0012 13.6156 56.9902 13.6501C57.0012 13.6184 56.9902 13.6005 56.975 13.5908C56.9819 13.5908 57.0026 13.5908 56.9984 13.5674C56.9943 13.544 56.9984 13.5895 57.0274 13.5674C57.0274 13.5357 57.0026 13.555 56.9984 13.5344C56.9984 13.555 56.964 13.584 56.9612 13.5592C56.9502 13.5702 56.9612 13.5688 56.9612 13.5853C56.9335 13.5872 56.9073 13.5984 56.8868 13.617C56.8799 13.5895 56.9144 13.5853 56.9089 13.5592C56.8868 13.5757 56.8675 13.566 56.8496 13.5991C56.8234 13.5743 56.7973 13.5371 56.7697 13.5399C56.7421 13.5426 56.7559 13.5729 56.7325 13.5812C56.7421 13.5371 56.7738 13.5261 56.7476 13.5027C56.7724 13.4792 56.7711 13.5027 56.7848 13.5027C56.8028 13.4668 56.7476 13.4903 56.7408 13.471C56.7325 13.482 56.7325 13.4958 56.7173 13.5027C56.7173 13.4834 56.7008 13.4889 56.7173 13.4475C56.6939 13.4558 56.6953 13.4765 56.6719 13.4861C56.6484 13.4958 56.6843 13.4145 56.636 13.4586C56.636 13.4393 56.6498 13.431 56.6429 13.4103C56.6622 13.3966 56.6663 13.4103 56.6732 13.4103C56.6553 13.3153 56.5354 13.3359 56.4748 13.2836C56.485 13.2642 56.5002 13.248 56.5189 13.2367C56.5106 13.2202 56.4845 13.2367 56.4817 13.2092C56.4638 13.2188 56.4597 13.2367 56.4528 13.2546C56.4197 13.2395 56.3949 13.143 56.315 13.2174C56.315 13.1816 56.3398 13.1995 56.3508 13.1761C56.3344 13.1682 56.3195 13.1574 56.3067 13.1444C56.2971 13.154 56.2957 13.1678 56.2847 13.1761C56.2736 13.1844 56.2557 13.0783 56.2116 13.1306C56.2116 13.11 56.224 13.0962 56.2185 13.0727C56.2034 13.0727 56.1744 13.1017 56.1827 13.0631C56.1262 13.1265 56.1276 13.0149 56.0725 13.0493C56.0821 13.0383 56.0725 13.0149 56.0862 13.0052C56.0601 13.0052 56.0284 13.0259 56.0353 12.9708C56.0305 12.9758 56.0247 12.9798 56.0183 12.9824C56.0119 12.985 56.005 12.9862 55.9981 12.9859C56.0029 12.9765 56.0057 12.9662 56.0063 12.9556C55.9912 12.9749 55.9705 12.9653 55.9912 12.9474C55.9691 12.9611 55.9526 12.9474 55.9402 12.9212C55.9292 12.9529 55.9168 12.9501 55.903 12.946C55.8892 12.9418 55.9168 12.9294 55.925 12.9226C55.9126 12.9019 55.8864 12.9074 55.8727 12.8867C55.9057 12.8619 55.8892 12.9033 55.9181 12.8661C55.9099 12.8537 55.9057 12.8385 55.8878 12.8426C55.8878 12.8289 55.9071 12.8233 55.9181 12.8137C55.9292 12.8041 55.9181 12.873 55.954 12.8413C55.9333 12.8413 55.9705 12.7903 55.954 12.7944C55.9664 12.7613 55.9815 12.7655 55.9981 12.7655C56.0146 12.7655 55.9788 12.7958 55.9691 12.8109C55.9595 12.8261 55.9967 12.8041 56.0132 12.7903C56.0297 12.7765 56.0435 12.7903 56.0422 12.822C56.0187 12.8013 55.9994 12.855 55.9829 12.8357C55.9636 12.8564 56.0008 12.8592 55.9609 12.8757C55.9209 12.8922 55.987 12.8357 55.9609 12.8509C55.9347 12.8661 55.9498 12.8647 55.9471 12.895C55.9471 12.895 55.9333 12.895 55.9319 12.8881C55.9319 12.9212 56.0036 12.9046 56.0201 12.9418C56.0339 12.8978 56.038 12.9418 56.0573 12.9088C56.0471 12.9036 56.0357 12.9009 56.0242 12.9009C56.0127 12.9009 56.0014 12.9036 55.9912 12.9088C56.0311 12.8137 56.0766 12.873 56.1083 12.8564C56.1179 12.9046 56.0738 12.9253 56.0711 12.968C56.0973 12.9239 56.089 12.9928 56.1234 12.9598C56.1083 12.9598 56.0835 12.9281 56.1166 12.895C56.1166 12.9501 56.1483 12.8812 56.1607 12.9267C56.1731 12.9722 56.1345 12.9653 56.1372 12.9928L56.1744 12.968C56.1744 12.957 56.1744 12.9446 56.1827 12.9377C56.2351 12.9212 56.2626 12.9515 56.3081 12.9487C56.3081 12.9115 56.2902 12.9308 56.286 12.9115C56.3191 12.8991 56.366 12.9005 56.3439 12.9598C56.3439 12.9501 56.3246 12.9501 56.2998 12.9722C56.275 12.9942 56.3136 12.9887 56.2929 13.0107C56.3191 13.0107 56.3687 12.9708 56.3508 13.0411C56.3756 13.0176 56.3742 13.0411 56.3811 13.0411C56.388 13.0411 56.4018 13.0218 56.4032 13.008C56.4169 13.0452 56.4914 13.0204 56.4762 13.081C56.4959 13.0824 56.5157 13.0824 56.5354 13.081C56.5297 13.0926 56.5223 13.1033 56.5134 13.1127C56.5134 13.1348 56.5368 13.092 56.5506 13.0893C56.5506 13.1196 56.5313 13.1375 56.5134 13.1568C56.523 13.1775 56.552 13.1733 56.5354 13.2202C56.5547 13.1954 56.5547 13.1609 56.5864 13.1416C56.5754 13.11 56.5451 13.1968 56.5354 13.1513C56.5375 13.1401 56.5428 13.1297 56.5506 13.1214C56.5584 13.113 56.5685 13.1072 56.5795 13.1044C56.6154 13.1044 56.6071 13.1857 56.6457 13.1816C56.636 13.2243 56.6209 13.1968 56.6016 13.2105C56.6016 13.2367 56.6278 13.2202 56.6457 13.2105C56.6502 13.2006 56.6525 13.1898 56.6526 13.1788C56.6663 13.1788 56.6526 13.2023 56.6746 13.1788C56.6746 13.2174 56.7408 13.1554 56.727 13.2312C56.7463 13.2009 56.7793 13.2133 56.7628 13.2505C56.8069 13.1968 56.8413 13.2174 56.8524 13.2505C56.8634 13.2505 56.8648 13.234 56.8744 13.2271C56.8744 13.2601 56.913 13.2505 56.8882 13.2946L56.9406 13.2601C56.953 13.296 56.9075 13.3029 56.9102 13.3332C56.9419 13.3125 56.9543 13.3332 56.9612 13.3497C56.9764 13.329 57.0039 13.3139 57.0219 13.2932C57.0219 13.3263 56.9736 13.3387 56.9764 13.3759C57.0122 13.3098 57.0577 13.3359 57.0646 13.3759C57.0907 13.3759 57.1114 13.3304 57.1238 13.3538C57.11 13.3773 57.0811 13.3979 57.1087 13.3979C57.1018 13.4214 57.0797 13.4351 57.0563 13.4503C57.0563 13.4586 57.0563 13.4503 57.0646 13.4503V13.4682C57.0866 13.4558 57.088 13.4338 57.11 13.4214C57.1321 13.409 57.11 13.4641 57.11 13.4944C57.1376 13.4751 57.1307 13.5206 57.1541 13.5082C57.1541 13.4627 57.1404 13.4641 57.1169 13.4723C57.1254 13.4548 57.1283 13.4351 57.1252 13.4159C57.1376 13.431 57.1528 13.3993 57.1555 13.4393C57.1789 13.4393 57.1555 13.4076 57.1844 13.4021C57.1844 13.4434 57.2216 13.4531 57.2423 13.4751C57.2575 13.4599 57.2327 13.4434 57.2216 13.4475C57.2451 13.391 57.2781 13.4172 57.2878 13.4379C57.2974 13.4586 57.2602 13.4269 57.2575 13.4572C57.2547 13.4875 57.2864 13.4407 57.2947 13.4668C57.2368 13.522 57.3567 13.4861 57.3457 13.5633C57.3691 13.5385 57.4063 13.5371 57.4421 13.5164C57.4063 13.5757 57.4959 13.5536 57.5151 13.5371C57.5151 13.5495 57.5151 13.5605 57.5083 13.5674C57.5248 13.5495 57.5275 13.5812 57.5592 13.5592C57.5441 13.6156 57.5854 13.5729 57.6185 13.5729C57.6185 13.5908 57.5978 13.6019 57.6033 13.6253C57.6695 13.6129 57.6764 13.657 57.7411 13.6584C57.7411 13.679 57.7191 13.6901 57.7342 13.6983C57.7645 13.6432 57.7714 13.6887 57.7632 13.73C57.7783 13.6845 57.8183 13.668 57.8293 13.6956C57.8169 13.7328 57.8073 13.6832 57.7921 13.719C57.7769 13.7548 57.8018 13.7314 57.7921 13.7493C57.8073 13.7341 57.8073 13.7135 57.8224 13.7204C57.8376 13.7273 57.8004 13.7383 57.8004 13.7534C57.8004 13.7686 57.8321 13.7658 57.8445 13.741C57.8693 13.741 57.821 13.7838 57.8445 13.7838C57.8487 13.7717 57.8568 13.7613 57.8675 13.7544C57.8782 13.7474 57.891 13.7442 57.9037 13.7452C57.8872 13.7893 57.9147 13.7521 57.9106 13.792C57.9271 13.7631 57.9437 13.7755 57.9478 13.792C57.9519 13.8086 57.9354 13.792 57.9244 13.8237C57.9547 13.7851 57.985 13.8609 58.014 13.792C58.014 13.8168 58.0636 13.7645 58.0663 13.792C58.0691 13.8196 58.0415 13.8058 58.014 13.8347C58.014 13.8527 58.0429 13.8444 58.0498 13.8623C58.1035 13.7796 58.1311 13.8458 58.1545 13.8375C58.138 13.8623 58.1145 13.8637 58.1021 13.8706C58.0897 13.8775 58.1021 13.8513 58.1159 13.8444C58.1297 13.8375 58.0939 13.8582 58.0718 13.8568C58.0925 13.8775 58.1035 13.8706 58.0939 13.9367C58.1173 13.9284 58.109 13.9036 58.1228 13.8912C58.1228 13.9519 58.233 13.9422 58.2606 13.9767C58.2606 13.9767 58.3061 13.9656 58.3061 13.9381C58.3419 13.9174 58.3267 13.9849 58.3584 13.9298C58.3584 13.9532 58.3364 13.9656 58.3267 13.9836C58.3171 14.0015 58.3267 13.967 58.3198 13.9546C58.2937 13.9753 58.3047 14.0015 58.2744 14.0015C58.2937 14.0111 58.3074 13.9932 58.3419 13.9836C58.3367 13.9928 58.3339 14.0032 58.3336 14.0139C58.3598 13.9973 58.3336 13.9932 58.3571 13.9643C58.375 13.9574 58.3722 13.9877 58.4011 13.9643C58.3636 13.9103 58.3135 13.8663 58.2551 13.8361C58.2468 13.8154 58.2799 13.8141 58.2716 13.792C58.2634 13.77 58.2523 13.803 58.233 13.8168C58.233 13.7824 58.273 13.7672 58.3019 13.7466C58.3322 13.7645 58.3322 13.8444 58.397 13.821C58.408 13.821 58.4039 13.8595 58.4177 13.8595C58.4246 13.8237 58.4259 13.8292 58.4411 13.8595C58.4604 13.8527 58.4563 13.8334 58.4714 13.8223C58.4714 13.8885 58.4976 13.8527 58.5224 13.8664C58.5224 13.8857 58.5086 13.894 58.5141 13.9147C58.5293 13.8843 58.5513 13.8706 58.5582 13.894C58.5651 13.9174 58.5238 13.9119 58.5362 13.9353C58.5486 13.9229 58.55 13.9353 58.55 13.9422C58.5576 13.9307 58.5681 13.9212 58.5803 13.9147C58.6038 13.9396 58.6188 13.9715 58.623 14.0056C58.6616 13.9519 58.6395 14.0318 58.6754 14.0056C58.6685 14.0359 58.6561 14.0056 58.6381 14.0304C58.6519 14.0304 58.6698 14.0304 58.674 14.058C58.685 14.058 58.7139 14.0221 58.7112 14.0428C58.7263 14.0042 58.7291 14.0111 58.7649 13.9904C58.7318 13.9836 58.7442 13.9353 58.7057 13.9519C58.7057 13.9147 58.7277 13.9326 58.7291 13.9023C58.7181 13.9078 58.7084 13.9155 58.7005 13.925C58.6927 13.9345 58.6869 13.9455 58.6836 13.9574C58.6698 13.9574 58.6643 13.9574 58.6464 13.9643C58.6698 13.9202 58.634 13.9298 58.6175 13.9326C58.6175 13.8981 58.6478 13.9147 58.6698 13.8816C58.6588 13.8678 58.6519 13.8816 58.6326 13.8967C58.6326 13.8843 58.6326 13.8513 58.6189 13.8375C58.6049 13.8556 58.587 13.8702 58.5665 13.8802C58.5748 13.8554 58.5927 13.8361 58.5899 13.8058C58.5679 13.821 58.572 13.7934 58.5596 13.7906C58.5734 13.7769 58.5734 13.7562 58.583 13.741C58.5384 13.7305 58.4992 13.7041 58.4728 13.6666C58.4273 13.6997 58.4383 13.6281 58.3998 13.6473C58.3998 13.5564 58.2813 13.6473 58.3047 13.5371C58.284 13.5578 58.2854 13.5371 58.2675 13.5523C58.2716 13.5341 58.2716 13.5153 58.2675 13.4971C58.2923 13.4889 58.2882 13.522 58.3198 13.4806C58.2937 13.5137 58.3198 13.5027 58.3198 13.5192C58.3447 13.4944 58.3267 13.4958 58.3198 13.4847C58.3557 13.4599 58.3626 13.4847 58.3791 13.4971C58.3956 13.5095 58.3502 13.5109 58.3502 13.4971C58.3364 13.5357 58.3943 13.5192 58.408 13.5371C58.4149 13.5068 58.3887 13.5371 58.3943 13.5027C58.4232 13.5288 58.4549 13.5027 58.4907 13.5095C58.4907 13.5302 58.4494 13.5275 58.4604 13.555L58.4907 13.5344C58.5072 13.5784 58.5582 13.5743 58.5941 13.5619C58.5513 13.5895 58.5941 13.595 58.6078 13.6129C58.6202 13.5964 58.6381 13.5853 58.623 13.5771C58.6781 13.5385 58.6368 13.6184 58.6822 13.5895C58.6782 13.613 58.6677 13.6349 58.6519 13.6529C58.6519 13.668 58.6974 13.6308 58.7043 13.6184C58.7112 13.606 58.7236 13.6845 58.7553 13.6363C58.7553 13.6363 58.7759 13.6708 58.7553 13.6832C58.7632 13.6772 58.7725 13.6733 58.7824 13.6716C58.7922 13.67 58.8023 13.6708 58.8117 13.6739C58.8212 13.677 58.8298 13.6824 58.8367 13.6895C58.8437 13.6966 58.8488 13.7053 58.8517 13.7149C58.8228 13.7149 58.8297 13.7149 58.7911 13.7452C58.7911 13.7672 58.8021 13.7824 58.8049 13.8044C58.82 13.8044 58.8214 13.7507 58.8283 13.7727C58.8545 13.741 58.8104 13.7645 58.8063 13.7617C58.8283 13.7149 58.8875 13.7066 58.8807 13.7617C58.9027 13.7769 58.9785 13.7011 58.9771 13.7617L59.0074 13.7424C59.0074 13.7617 58.9909 13.7686 58.984 13.7824C58.9771 13.7962 59.0377 13.7548 59.0364 13.792C59.035 13.8292 59.0116 13.8017 58.9978 13.8154C59.0501 13.8154 59.1039 13.8154 59.1011 13.8775C59.1149 13.8775 59.1232 13.894 59.1535 13.8692C59.1517 13.8624 59.1522 13.8552 59.1549 13.8487C59.1577 13.8422 59.1625 13.8368 59.1686 13.8334C59.1686 13.8747 59.2293 13.8499 59.2348 13.9023C59.2155 13.916 59.1976 13.9271 59.1976 13.9023C59.1907 13.9284 59.2293 13.9491 59.2472 13.9629C59.2844 13.9381 59.2348 13.956 59.2472 13.9202C59.2596 13.8843 59.272 13.9312 59.2995 13.9119C59.3008 13.9052 59.3036 13.8989 59.3076 13.8934C59.3117 13.8879 59.3169 13.8834 59.323 13.8802C59.323 13.8554 59.3106 13.8706 59.323 13.8458C59.3264 13.8473 59.3302 13.8481 59.334 13.8481C59.3378 13.8481 59.3415 13.8473 59.345 13.8458C59.3354 13.9078 59.345 13.8967 59.3588 13.9312C59.3271 13.9588 59.345 13.8995 59.3147 13.9312C59.3147 13.9615 59.3271 13.9491 59.3147 13.978C59.3204 13.9658 59.3306 13.9563 59.3432 13.9514C59.3558 13.9465 59.3698 13.9467 59.3822 13.9519C59.3822 13.9629 59.3684 13.9684 59.3602 13.9753C59.3505 14.0125 59.3781 13.9877 59.374 14.018C59.3877 14.007 59.374 13.9849 59.3891 13.9725C59.4291 13.9629 59.4346 14.0097 59.4704 14.0056C59.4911 13.9698 59.4484 14.0056 59.4484 13.9767C59.4528 13.97 59.4556 13.9625 59.4566 13.9546C59.4677 13.978 59.4883 13.9546 59.5159 13.9546C59.5365 13.916 59.5159 13.9188 59.4869 13.9546C59.4801 13.9271 59.5269 13.9215 59.5021 13.9091C59.5255 13.894 59.5558 13.9009 59.5558 13.8582C59.5448 13.8582 59.5324 13.8678 59.5324 13.8899C59.5324 13.9119 59.5324 13.8788 59.5324 13.8692C59.5104 13.8775 59.5049 13.8954 59.4869 13.9064C59.4663 13.8954 59.4511 13.8719 59.4139 13.8871C59.4249 13.8044 59.3643 13.8513 59.3478 13.8182C59.3795 13.7645 59.4001 13.8182 59.4304 13.7727C59.3767 13.7727 59.3795 13.7135 59.3051 13.7438C59.3051 13.708 59.3175 13.679 59.2761 13.7107C59.2776 13.6957 59.2833 13.6813 59.2925 13.6694C59.3018 13.6574 59.3143 13.6484 59.3285 13.6432C59.3285 13.6212 59.3147 13.6432 59.3147 13.6267C59.3147 13.6529 59.272 13.6639 59.2761 13.6942C59.2761 13.646 59.2155 13.6832 59.1948 13.6611C59.2444 13.6501 59.283 13.6308 59.2913 13.6322C59.3092 13.5771 59.2265 13.6253 59.1948 13.6322C59.2127 13.5964 59.1824 13.5936 59.1659 13.5908C59.1494 13.5881 59.1659 13.6115 59.1507 13.6184C59.1356 13.6253 59.1438 13.6184 59.1356 13.6184C59.1273 13.6184 59.1535 13.5977 59.1507 13.5826C59.1218 13.566 59.0749 13.5826 59.0405 13.5688C59.0405 13.5605 59.0474 13.555 59.0474 13.5468C59.0826 13.5435 59.1176 13.538 59.1521 13.5302C59.1438 13.4861 59.1025 13.4999 59.086 13.471C59.0639 13.4903 59.0929 13.4847 59.086 13.5054C59.0791 13.5261 59.0667 13.5123 59.0557 13.5164C59.0557 13.4875 59.0818 13.4586 59.0639 13.4503C59.046 13.442 59.0488 13.471 59.0336 13.4779C59.0185 13.4847 59.0433 13.4779 59.0488 13.4779C59.0488 13.4971 59.0157 13.5495 59.0488 13.5123C59.0488 13.5605 59.0143 13.5633 59.0033 13.5495C59.0336 13.5385 58.995 13.5151 59.0267 13.4916C59.0267 13.4751 58.9868 13.5178 58.9812 13.504C58.9757 13.4903 59.0226 13.4682 59.0336 13.4696C59.0446 13.471 59.046 13.4296 59.0653 13.4159C59.0653 13.3924 59.0295 13.4159 59.0281 13.3883C59.0267 13.3607 59.0543 13.3745 59.0805 13.3456C59.1066 13.3166 59.046 13.3456 59.0515 13.3042C59.0309 13.3263 59.0625 13.3249 59.0515 13.3566C59.0405 13.3497 59.0267 13.3497 59.0212 13.3332C59.0212 13.369 59.0047 13.38 58.9826 13.409C58.9826 13.409 58.9757 13.409 58.9688 13.409C58.9592 13.3869 58.9923 13.3869 58.984 13.3649C58.9427 13.4007 58.8751 13.3235 58.911 13.2739C58.8875 13.2946 58.882 13.2739 58.8655 13.3042C58.8572 13.2739 58.882 13.2601 58.882 13.234C58.8958 13.2505 58.9303 13.234 58.9413 13.2546C58.9413 13.2188 58.9055 13.194 58.8751 13.1954C58.8751 13.1775 58.8958 13.1706 58.8903 13.1513C58.8627 13.1637 58.8338 13.1788 58.8311 13.1292C58.8104 13.1623 58.7966 13.1499 58.7856 13.1926C58.7856 13.1582 58.7525 13.1926 58.7484 13.1568C58.7318 13.2119 58.707 13.1568 58.6891 13.1954C58.674 13.1623 58.7277 13.1637 58.7194 13.1334C58.6933 13.1554 58.6809 13.1513 58.6754 13.1334C58.6837 13.1171 58.6938 13.1018 58.7057 13.0879C58.7539 13.0879 58.7759 13.1334 58.8242 13.1141C58.8242 13.0838 58.798 13.1141 58.809 13.081C58.7181 13.1334 58.7374 12.9887 58.6547 13.0273C58.645 12.935 58.5169 12.9639 58.5376 12.8798C58.5238 12.8693 58.5114 12.8573 58.5004 12.844C58.4632 12.8909 58.459 12.844 58.4328 12.844C58.4328 12.8316 58.4507 12.8247 58.448 12.8082C58.4273 12.8426 58.3998 12.8316 58.4191 12.8013C58.3557 12.822 58.3474 12.742 58.2923 12.7462C58.2923 12.771 58.2661 12.7737 58.2551 12.7793C58.2551 12.76 58.2882 12.7558 58.2923 12.7379C58.2771 12.6869 58.2179 12.7131 58.1821 12.698C58.211 12.647 58.171 12.6235 58.1449 12.6525C58.1517 12.6249 58.1352 12.6373 58.1449 12.6153C58.0842 12.68 58.0677 12.5354 57.9891 12.5781C57.9974 12.4858 57.8693 12.5781 57.8858 12.4913C57.8858 12.5037 57.9092 12.4995 57.923 12.5009C57.9354 12.4596 57.8693 12.494 57.8486 12.4637C57.8279 12.4334 57.821 12.3879 57.7976 12.4279C57.7811 12.4403 57.7976 12.4003 57.7893 12.3893C57.7494 12.4031 57.7356 12.3659 57.6929 12.3893C57.6764 12.348 57.6075 12.3218 57.5551 12.2956C56.9594 11.9024 56.3278 11.5665 55.6687 11.2925L51.7279 12.4265ZM58.3088 12.8082C58.2785 12.8302 58.2813 12.7944 58.2716 12.7806C58.2978 12.7669 58.3033 12.7806 58.3088 12.8082ZM57.3098 11.9814C57.3388 11.9566 57.3512 11.9952 57.3553 11.9442C57.387 11.936 57.4022 11.9566 57.4146 11.9828C57.3884 12.0062 57.3966 11.9828 57.3622 12.0255C57.3622 12.0145 57.3622 11.9925 57.3553 11.9966C57.3484 12.0007 57.3553 12.0159 57.3401 12.0228C57.3333 12.0049 57.3002 12.0338 57.3098 11.9814V11.9814ZM51.907 12.5133C51.907 12.5023 51.8767 12.5216 51.8864 12.4844C51.896 12.4472 51.9277 12.4844 51.907 12.5133ZM57.0467 15.1217C57.0632 15.1217 57.0811 15.1341 57.0825 15.1658C57.0715 15.1562 57.0301 15.1548 57.0467 15.1217ZM56.9833 14.5209C57.0012 14.492 57.0618 14.532 57.0274 14.5705C57.0274 14.5265 56.9805 14.5705 56.9833 14.5209ZM58.2137 15.2747C58.2027 15.2843 58.1986 15.2967 58.1834 15.3022C58.1834 15.2857 58.1752 15.2898 58.1765 15.2733C58.1779 15.2567 58.2165 15.2457 58.2137 15.2733V15.2747ZM57.0894 13.3621C57.1168 13.3716 57.1418 13.3872 57.1624 13.4076C57.1238 13.4186 57.1018 13.3979 57.0894 13.3621ZM57.8018 13.7204C57.8114 13.7314 57.8472 13.7369 57.8307 13.7617C57.8197 13.7617 57.7825 13.7548 57.8018 13.7204ZM58.1393 13.9546C58.1393 13.945 58.1848 13.9036 58.1765 13.9381C58.1683 13.9725 58.1352 13.9739 58.1393 13.9546ZM59.334 13.9036C59.334 13.916 59.3436 13.8954 59.3574 13.8899C59.3436 13.9381 59.3919 13.8775 59.3781 13.9257C59.3643 13.9739 59.3216 13.9257 59.334 13.9036ZM58.911 13.4696C58.922 13.4696 58.944 13.4544 58.9413 13.4847C58.9041 13.5109 58.9124 13.4723 58.911 13.4696ZM58.5238 12.9915C58.5403 12.9653 58.5637 12.9777 58.561 13.0107C58.5334 13.0314 58.5293 13.0107 58.5238 12.9915ZM58.4204 12.9294C58.4425 12.9198 58.4673 12.9474 58.4494 12.9804C58.4494 12.9542 58.4149 12.9735 58.4204 12.9294ZM58.3915 14.7207C58.3695 14.7042 58.3336 14.7125 58.3185 14.6835C58.3253 14.6783 58.3334 14.6752 58.3419 14.6744C58.3505 14.6736 58.359 14.6753 58.3667 14.6792C58.3743 14.6831 58.3807 14.689 58.3851 14.6964C58.3895 14.7037 58.3917 14.7122 58.3915 14.7207V14.7207ZM58.3529 12.3025C58.3708 12.2736 58.397 12.286 58.397 12.3163C58.3639 12.3452 58.3557 12.3287 58.3529 12.3025ZM58.3391 13.4723C58.3502 13.4806 58.3763 13.4641 58.3763 13.4916C58.3543 13.5054 58.3171 13.5054 58.3391 13.4723ZM58.3226 14.842C58.3226 14.8654 58.3571 14.842 58.3295 14.8806C58.3226 14.8696 58.2895 14.8806 58.3226 14.842ZM58.2854 14.8489C58.3006 14.8075 58.2785 14.8351 58.2716 14.8158C58.2647 14.7965 58.2716 14.7896 58.2868 14.78C58.3033 14.7938 58.2868 14.8158 58.3157 14.7951V14.8227C58.3061 14.8323 58.3006 14.8448 58.2854 14.8503V14.8489ZM58.2661 14.7276C58.2799 14.7276 58.3061 14.7111 58.3019 14.7455C58.2716 14.7731 58.2647 14.7579 58.2661 14.7276ZM58.1779 13.8099C58.1641 13.8182 58.1531 13.821 58.149 13.8099C58.1779 13.7962 58.2027 13.7259 58.2165 13.7576C58.2055 13.792 58.1779 13.7796 58.1779 13.8072V13.8099ZM58.1407 14.6849L58.171 14.6642V14.6904C58.1462 14.7138 58.1476 14.6904 58.1407 14.6904V14.6849ZM58.1297 15.2168C58.109 15.2664 58.1476 15.2168 58.1517 15.2443C58.1297 15.2898 58.0842 15.2443 58.1297 15.2168ZM58.0897 13.7824C58.0897 13.741 58.0167 13.792 58.0388 13.7217C58.0139 13.7617 57.9891 13.7479 57.9878 13.7217C58.0277 13.73 58.0484 13.679 58.0994 13.6653C58.0828 13.7273 58.1159 13.6653 58.0994 13.7176C58.1242 13.7176 58.1793 13.7052 58.1655 13.7424C58.1655 13.7355 58.1421 13.7328 58.1435 13.7424C58.1449 13.7521 58.171 13.7521 58.1724 13.7755C58.149 13.7948 58.149 13.7755 58.1517 13.7466C58.1283 13.7617 58.1132 13.7397 58.0911 13.7769L58.0897 13.7824ZM58.1407 12.7558C58.16 12.7228 58.1765 12.742 58.1862 12.7558C58.1697 12.7834 58.1449 12.7793 58.1407 12.7558ZM58.1187 13.9133V13.8788C58.1352 13.8651 58.1462 13.8623 58.1476 13.8788C58.1242 13.8788 58.1476 13.9105 58.1173 13.916L58.1187 13.9133ZM58.0374 15.0873C58.0649 15.0625 58.0374 15.13 58.0732 15.0983C58.0732 15.1217 58.0456 15.1451 58.0649 15.1548C58.0126 15.1892 58.0553 15.1038 58.0374 15.0873V15.0873ZM58.0374 14.5912C58.0594 14.5761 58.0856 14.554 58.0815 14.5912C58.0691 14.5912 58.0332 14.6243 58.0374 14.5912ZM58.0374 14.9233C58.0291 14.9688 57.9657 14.9977 57.963 14.9633C57.9602 14.9288 57.9974 14.9247 58.0084 14.926C57.9891 14.9605 58.0153 14.9453 58.0374 14.926V14.9233ZM57.9203 13.5578C57.901 13.5922 57.9203 13.5771 57.9506 13.5578C57.9588 13.5647 57.9588 13.5743 57.9506 13.5922C57.9947 13.5729 57.9933 13.6336 58.0388 13.6115C58.0388 13.6336 58.0057 13.6708 58.047 13.6418C58.047 13.668 58.0181 13.7231 58.0084 13.6914C58.0181 13.6914 58.0264 13.6777 58.0236 13.6653C57.9781 13.741 57.9478 13.6956 57.912 13.7038V13.6597C57.8954 13.6597 57.8582 13.6887 57.8596 13.6515C57.8899 13.6115 57.9285 13.6212 57.9409 13.6405C57.9409 13.6294 57.9492 13.6294 57.9561 13.6308C57.963 13.6322 57.9492 13.5867 57.934 13.5853C57.8941 13.6143 57.8596 13.6349 57.861 13.5853C57.8899 13.6005 57.8982 13.566 57.9203 13.555V13.5578ZM58.0002 14.5981C57.9864 14.6091 58.0002 14.6312 57.9767 14.6394C57.9864 14.605 57.9533 14.6477 57.963 14.6146C57.9726 14.5816 57.996 14.5733 58.0222 14.5581V14.5843L58.0002 14.5981ZM58.0112 12.0669C58.0112 12.0434 58.058 12.0283 58.0484 12.0669C58.0346 12.0669 58.0029 12.1082 58.0112 12.0669ZM57.9395 12.607C57.974 12.5643 57.9809 12.6456 57.9699 12.6304C57.9588 12.6153 57.9368 12.6387 57.9395 12.607ZM57.9079 14.8751L57.9382 14.8558C57.9382 14.8668 57.9382 14.8792 57.9299 14.8861C57.9216 14.893 57.9037 14.915 57.9079 14.8751ZM57.8541 14.6546C57.8603 14.6512 57.8651 14.6458 57.8678 14.6393C57.8706 14.6328 57.8711 14.6256 57.8693 14.6188L57.9065 14.5953C57.9147 14.6064 57.9147 14.6298 57.9203 14.645C57.898 14.6463 57.8759 14.6496 57.8541 14.6546V14.6546ZM57.8927 14.8847C57.877 14.9022 57.8644 14.9222 57.8555 14.944C57.8555 14.9274 57.8348 14.944 57.8417 14.9192C57.8982 14.8861 57.8279 14.882 57.8569 14.8489C57.8569 14.8764 57.9189 14.8489 57.8927 14.9026V14.8847ZM57.8417 14.5265C57.8197 14.5788 57.8638 14.5416 57.8693 14.5678C57.8266 14.6243 57.8018 14.5678 57.8417 14.5265ZM57.8197 14.4975C57.81 14.4851 57.839 14.4534 57.8197 14.4631C57.8004 14.4727 57.8031 14.4961 57.788 14.5085V14.4741C57.799 14.4658 57.8142 14.4589 57.81 14.4424C57.8293 14.4286 57.8458 14.4176 57.8472 14.4424C57.8486 14.4672 57.8293 14.4562 57.8321 14.4686C57.8348 14.481 57.8514 14.4438 57.8693 14.4355C57.8693 14.47 57.8348 14.4824 57.8169 14.5044L57.8197 14.4975ZM57.8169 14.2757C57.8486 14.2564 57.8638 14.266 57.861 14.3074C57.8334 14.3198 57.8224 14.3074 57.8169 14.2757ZM57.8362 14.8709C57.8086 14.8709 57.8142 14.8255 57.7852 14.8351C57.8169 14.8144 57.8238 14.8268 57.8445 14.8351C57.841 14.8395 57.8385 14.8446 57.8371 14.8501C57.8356 14.8555 57.8353 14.8612 57.8362 14.8668V14.8709ZM57.7893 13.5826L57.8197 13.5647C57.8128 13.5977 57.8197 13.6019 57.8486 13.5784V13.6046C57.8169 13.6198 57.8059 13.5964 57.7893 13.5826V13.5826ZM57.7783 14.7648C57.7783 14.7841 57.8004 14.7759 57.8004 14.8007C57.7769 14.8213 57.7577 14.7924 57.7783 14.7648ZM57.7701 12.4665C57.8004 12.4582 57.8031 12.4995 57.8307 12.4968C57.799 12.5381 57.7811 12.4968 57.7701 12.4665ZM57.7521 14.9949C57.7423 15.0112 57.7291 15.0253 57.7136 15.0363C57.7078 15.037 57.7019 15.0359 57.6968 15.0332C57.6916 15.0305 57.6874 15.0263 57.6846 15.0211C57.6946 15 57.7076 14.9805 57.7232 14.9633C57.6791 15.0018 57.6695 14.9784 57.6488 14.977C57.6598 14.9219 57.6419 14.9219 57.6281 14.8875C57.6598 14.8585 57.6832 14.9054 57.7012 14.926C57.7016 14.9126 57.707 14.8999 57.7163 14.8902C57.7384 14.9012 57.7384 14.9164 57.7163 14.9329C57.737 14.9329 57.8031 14.9329 57.7811 15.0101C57.7742 14.9812 57.7645 15.0101 57.7521 14.9949V14.9949ZM57.737 14.5816C57.7618 14.5499 57.7797 14.5347 57.7893 14.565C57.7659 14.5513 57.759 14.5995 57.737 14.5816ZM57.7466 14.8916C57.7466 14.8778 57.7315 14.8806 57.7329 14.8585C57.7563 14.8392 57.7742 14.8668 57.7466 14.8916ZM57.7356 13.555C57.7356 13.5454 57.726 13.5426 57.7136 13.555V13.5109C57.6708 13.5316 57.6805 13.4985 57.6392 13.5109C57.6543 13.5013 57.6488 13.4806 57.6695 13.4737C57.6695 13.5082 57.6929 13.5013 57.7136 13.4971C57.7074 13.4926 57.7027 13.4864 57.7 13.4793C57.6973 13.4722 57.6966 13.4644 57.6982 13.4569C57.6997 13.4494 57.7034 13.4426 57.7087 13.4371C57.714 13.4316 57.7208 13.4278 57.7283 13.4261C57.7357 13.4244 57.7435 13.4248 57.7507 13.4274C57.7579 13.4299 57.7642 13.4345 57.7689 13.4405C57.7735 13.4465 57.7764 13.4537 57.7771 13.4613C57.7778 13.4689 57.7763 13.4766 57.7728 13.4834C57.7494 13.4999 57.748 13.4834 57.7205 13.4999C57.6929 13.5164 57.748 13.5302 57.7356 13.5605V13.555ZM57.7356 13.5206C57.7604 13.5068 57.7687 13.5206 57.7659 13.5523C57.7439 13.5619 57.7439 13.5344 57.7356 13.5206ZM57.6722 14.7869C57.664 14.7648 57.697 14.7648 57.6888 14.7428C57.7067 14.7318 57.7163 14.7428 57.7177 14.7579C57.7191 14.7731 57.6819 14.7924 57.6722 14.7869ZM57.7136 12.2047C57.7315 12.1936 57.7521 12.1812 57.7508 12.2047C57.726 12.224 57.7191 12.2143 57.7136 12.2047ZM57.6736 14.853C57.6736 14.8379 57.6819 14.8282 57.6819 14.8131C57.6819 14.7979 57.7053 14.8131 57.7039 14.8337L57.6736 14.853ZM57.6336 14.1778C57.6328 14.164 57.6356 14.1502 57.6419 14.1379C57.6612 14.1379 57.6874 14.1296 57.6846 14.1696C57.6557 14.1944 57.664 14.1503 57.6336 14.1778ZM57.646 14.7607C57.646 14.7235 57.6006 14.7511 57.5951 14.7166C57.6116 14.7331 57.6584 14.6932 57.6612 14.7331C57.6516 14.7331 57.6543 14.7524 57.646 14.7607V14.7607ZM57.646 14.5664L57.6157 14.5857C57.6181 14.5674 57.6237 14.5497 57.6323 14.5333C57.6254 14.5623 57.6516 14.5333 57.646 14.5664ZM57.6268 14.842C57.6116 14.8585 57.6268 14.8916 57.6033 14.8999C57.5799 14.9081 57.6199 14.8723 57.6116 14.8434L57.6488 14.8186C57.6488 14.8379 57.6695 14.8406 57.6488 14.8627C57.6281 14.8847 57.6378 14.8448 57.6281 14.842H57.6268ZM57.6281 13.4544C57.635 13.4792 57.6571 13.4338 57.664 13.4655C57.6405 13.4889 57.6033 13.4903 57.6281 13.4544ZM57.562 14.4934C57.5772 14.4934 57.5978 14.4934 57.6061 14.5072C57.5744 14.5333 57.5716 14.5072 57.562 14.4934ZM57.5785 12.0875C57.5937 12.0875 57.6116 12.0696 57.6088 12.0944C57.6061 12.1192 57.573 12.1234 57.5785 12.0875ZM57.5275 14.3019C57.5358 14.3184 57.5565 14.3115 57.5565 14.3432C57.5303 14.3639 57.5138 14.3239 57.5275 14.3019ZM57.5468 13.4131C57.5262 13.4131 57.5165 13.3897 57.5027 13.3731C57.5344 13.3525 57.5827 13.3662 57.5468 13.4131ZM57.3925 14.9384C57.4201 14.9219 57.3925 14.9302 57.3925 14.9081C57.4173 14.8847 57.4022 14.9302 57.4228 14.9081C57.4311 14.864 57.4104 14.8723 57.409 14.8489C57.4077 14.8255 57.4242 14.7814 57.4394 14.802C57.4173 14.8241 57.4476 14.8186 57.4394 14.8461C57.4766 14.8131 57.4655 14.8668 57.4903 14.8544C57.4835 14.893 57.4903 14.9054 57.5041 14.9136C57.5179 14.9219 57.5041 14.8875 57.5193 14.8778C57.5317 14.9316 57.4972 14.9509 57.4518 15.0005C57.4518 14.9853 57.4614 14.977 57.4669 14.9646C57.4545 14.9729 57.4669 14.944 57.4518 14.9481C57.4531 14.9618 57.4507 14.9756 57.4449 14.9881C57.4187 15.0032 57.4228 14.9743 57.4077 15.0129C57.3994 15.0129 57.3856 15.0129 57.3925 14.9798C57.3994 14.9467 57.4118 14.9798 57.4159 14.9646C57.4023 14.9578 57.3919 14.946 57.387 14.9316L57.3925 14.9384ZM57.4063 14.6463C57.3925 14.6698 57.3842 14.656 57.3691 14.6615C57.3856 14.6174 57.3484 14.6353 57.3401 14.6119C57.3801 14.5802 57.325 14.6036 57.3401 14.5595C57.3636 14.5595 57.3636 14.5912 57.3829 14.5912C57.4338 14.5664 57.4697 14.4837 57.4876 14.5223C57.4531 14.5361 57.3829 14.605 57.4049 14.6463H57.4063ZM57.4242 12.0669C57.4242 12.0503 57.46 12.0448 57.4531 12.0214C57.4228 12.031 57.4201 12.0572 57.4008 12.0738C57.4008 12.0558 57.3925 12.0586 57.4008 12.0434C57.4407 11.9966 57.4614 11.9938 57.4972 11.9539C57.492 11.9881 57.4999 12.023 57.5193 12.0517C57.4903 12.0682 57.4531 12.0862 57.4311 12.0669H57.4242ZM57.4587 13.3718C57.4793 13.3456 57.4959 13.3456 57.5027 13.3718C57.4883 13.3757 57.4731 13.3757 57.4587 13.3718V13.3718ZM57.4338 15.0597C57.4476 15.0487 57.4338 15.028 57.4573 15.0184C57.4807 15.0087 57.4449 15.079 57.4338 15.0597ZM57.3911 14.532L57.4518 14.492C57.4518 14.503 57.46 14.492 57.4587 14.5127C57.4573 14.5333 57.398 14.5595 57.3911 14.532ZM57.4366 13.3428C57.4366 13.3208 57.4228 13.3249 57.4449 13.3029C57.4449 13.3194 57.4642 13.3029 57.4587 13.3277L57.4366 13.3428ZM57.3842 14.0221C57.3842 13.9794 57.427 13.9767 57.4283 14.0015C57.4063 14.0221 57.4077 14.0015 57.3842 14.0221ZM57.3939 14.8723C57.3856 14.8723 57.387 14.8323 57.409 14.8199C57.409 14.8406 57.409 14.8613 57.3939 14.8723ZM57.3939 13.3718C57.3967 13.3708 57.399 13.3689 57.4006 13.3664C57.4021 13.3639 57.4026 13.3609 57.4022 13.358C57.3898 13.3676 57.3829 13.358 57.3801 13.358C57.4035 13.3428 57.4201 13.3428 57.4242 13.358C57.4283 13.3731 57.3966 13.3786 57.3939 13.369V13.3718ZM57.3346 13.5068C57.3346 13.5357 57.3718 13.4944 57.3705 13.5261C57.3484 13.544 57.3126 13.5399 57.3346 13.5068ZM57.285 15.3477C57.3071 15.3215 57.2768 15.327 57.2699 15.3477C57.2713 15.3288 57.2797 15.3112 57.2933 15.2981C57.3043 15.3132 57.3126 15.2981 57.3291 15.3174C57.3126 15.3353 57.2961 15.3491 57.285 15.3463V15.3477ZM57.2037 11.9015C57.2272 11.8822 57.2244 11.9098 57.2327 11.9167C57.2092 11.936 57.1996 11.9305 57.2037 11.9015ZM57.1679 13.8954C57.1872 13.8802 57.1913 13.8954 57.19 13.916C57.1886 13.9367 57.1652 13.916 57.1679 13.8954ZM57.1679 13.1375C57.1679 13.1086 57.2037 13.081 57.1968 13.1182C57.1776 13.1306 57.1817 13.143 57.1679 13.1375ZM57.1238 13.8265C57.0921 13.8458 57.0618 13.8182 57.0797 13.7769C57.0797 13.8237 57.1155 13.7879 57.1321 13.7948C57.1142 13.8113 57.1404 13.803 57.1238 13.8265ZM57.0329 11.7665C57.0535 11.7665 57.0756 11.7665 57.077 11.7982C57.0522 11.8078 57.0163 11.8051 57.0329 11.7665ZM57.026 15.0735C57.026 15.0873 57.0508 15.1038 57.026 15.1286C57.0012 15.1534 57.0026 15.0942 57.026 15.0735ZM56.9309 14.5361C56.9309 14.4961 56.9171 14.5044 56.9171 14.4768C56.9447 14.4589 56.9364 14.5044 56.9764 14.4631C56.9764 14.4865 56.9888 14.4727 56.9833 14.5016C56.9638 14.5097 56.946 14.5214 56.9309 14.5361V14.5361ZM56.9089 13.307C56.9058 13.2947 56.9072 13.2818 56.9127 13.2705C56.9183 13.2591 56.9276 13.2501 56.9392 13.245C56.9474 13.256 56.9309 13.2932 56.953 13.296C56.9254 13.3235 56.9323 13.2877 56.9089 13.307ZM56.7793 14.8723C56.8069 14.8558 56.8303 14.842 56.8386 14.8585C56.8124 14.8751 56.7793 14.904 56.7793 14.8723ZM56.8124 14.0869C56.8317 14.0704 56.8372 14.0869 56.8345 14.1062C56.8317 14.1255 56.8097 14.1062 56.8124 14.0869ZM56.7793 14.4011C56.8041 14.3859 56.8248 14.3804 56.8234 14.4148C56.7986 14.4272 56.7917 14.4148 56.7793 14.4011V14.4011ZM56.7518 14.2302C56.7518 14.193 56.7077 14.2206 56.6939 14.1999C56.7325 14.1572 56.7449 14.1875 56.7738 14.1999C56.8028 14.2123 56.7904 14.1765 56.789 14.1999C56.7796 14.2139 56.7668 14.2253 56.7518 14.233V14.2302ZM56.7118 13.5826C56.7218 13.5752 56.7342 13.5719 56.7465 13.5734C56.7589 13.575 56.7701 13.5812 56.778 13.5908C56.7732 13.5949 56.7676 13.5979 56.7616 13.5996C56.7556 13.6014 56.7493 13.6019 56.7431 13.6011C56.7369 13.6004 56.7309 13.5983 56.7255 13.5951C56.7201 13.5919 56.7155 13.5877 56.7118 13.5826V13.5826ZM56.6663 14.8944C56.6856 14.8833 56.6925 14.8944 56.7036 14.8944C56.6843 14.9136 56.6801 14.9412 56.6581 14.9577C56.6581 14.9329 56.6691 14.9178 56.6663 14.893V14.8944ZM56.7394 14.893C56.727 14.9302 56.7394 14.9192 56.7394 14.9481C56.7104 14.9481 56.6498 15.0073 56.6663 14.9481C56.6925 14.9481 56.7077 14.9192 56.7325 14.8957L56.7394 14.893ZM56.6898 14.8296C56.6815 14.8613 56.7284 14.8379 56.7036 14.8723C56.6898 14.8723 56.6719 14.8723 56.6746 14.831C56.6809 14.8277 56.6859 14.8224 56.6887 14.8158C56.6915 14.8093 56.6918 14.8019 56.6898 14.7951C56.7118 14.7841 56.727 14.7855 56.7339 14.7951C56.7408 14.8048 56.698 14.7951 56.6898 14.8241V14.8296ZM56.6526 14.2991C56.6526 14.3184 56.6787 14.2991 56.6746 14.328C56.6705 14.357 56.6374 14.317 56.6526 14.2991ZM56.6967 14.3225C56.6774 14.3322 56.6967 14.3597 56.6663 14.368C56.6567 14.3473 56.6884 14.3046 56.6967 14.3225ZM56.6843 14.1503C56.6608 14.1696 56.6553 14.1572 56.6402 14.1627C56.6402 14.1282 56.6319 14.131 56.625 14.12C56.6484 14.12 56.6415 14.1089 56.6691 14.0897C56.6622 14.12 56.6608 14.1324 56.6911 14.1103C56.6925 14.124 56.6901 14.1378 56.6843 14.1503V14.1503ZM56.6429 12.8564C56.6691 12.8316 56.6787 12.8564 56.6939 12.822V12.8399C56.6939 12.8399 56.7036 12.8399 56.7022 12.8399C56.6787 12.8688 56.6484 12.8798 56.6429 12.8537V12.8564ZM56.6898 11.6411C56.6898 11.6259 56.6663 11.6411 56.6815 11.6108C56.6967 11.5805 56.7104 11.6246 56.6898 11.6411ZM56.6388 14.8392C56.6516 14.8392 56.6585 14.8516 56.6595 14.8764C56.6305 14.9081 56.6291 14.8489 56.6388 14.8392ZM56.5975 13.1265C56.6017 13.1239 56.6064 13.1224 56.6114 13.1222C56.6163 13.1219 56.6212 13.123 56.6257 13.1252C56.6301 13.1274 56.6339 13.1307 56.6366 13.1348C56.6394 13.1389 56.6411 13.1436 56.6415 13.1485C56.6167 13.1582 56.603 13.1485 56.5975 13.1265ZM56.523 14.718C56.523 14.7318 56.5327 14.7097 56.5451 14.7042C56.5575 14.6987 56.5354 14.7579 56.574 14.7359C56.5878 14.7138 56.5616 14.7083 56.5892 14.6835C56.603 14.6835 56.6057 14.7056 56.5961 14.7387C56.5547 14.7676 56.5065 14.7648 56.523 14.718V14.718ZM56.5726 13.4283C56.5616 13.4103 56.5244 13.442 56.5286 13.3966C56.5575 13.3759 56.5644 13.3966 56.5878 13.3828C56.5892 13.391 56.5885 13.3995 56.5859 13.4074C56.5833 13.4153 56.5787 13.4225 56.5726 13.4283V13.4283ZM56.5286 14.1806C56.5286 14.1806 56.5203 14.1641 56.5286 14.1434C56.5561 14.1158 56.5575 14.1654 56.5286 14.1806ZM56.479 14.6849C56.4877 14.6785 56.4951 14.6706 56.501 14.6615C56.501 14.6615 56.5106 14.678 56.5079 14.7001C56.5051 14.7221 56.479 14.7001 56.479 14.6849ZM56.4707 14.1337C56.4831 14.1337 56.5175 14.0993 56.5148 14.1337C56.512 14.1682 56.4776 14.1503 56.4707 14.1337ZM56.428 13.9643C56.461 13.9381 56.4431 13.9808 56.4721 13.9436C56.4734 13.9573 56.471 13.9711 56.4652 13.9836C56.4376 14.0028 56.4266 13.996 56.428 13.9643V13.9643ZM56.501 14.0194C56.501 13.9836 56.4569 14.0318 56.4652 13.9836C56.4982 13.9505 56.5203 13.9836 56.501 14.0194ZM56.4721 14.5802C56.5024 14.5499 56.4941 14.5802 56.4941 14.6091C56.4721 14.627 56.479 14.5912 56.4721 14.5802ZM56.4349 14.0814C56.4597 14.058 56.4583 14.0814 56.4707 14.0814C56.4541 14.1117 56.4321 14.1089 56.4349 14.0814ZM56.3605 14.1131C56.3949 14.0938 56.4045 14.0952 56.4266 14.0593C56.4404 14.0662 56.4266 14.0869 56.4197 14.1076C56.4128 14.1282 56.3908 14.1145 56.3756 14.12C56.3605 14.1255 56.388 14.131 56.3756 14.1461C56.3632 14.1613 56.3494 14.1186 56.348 14.0883C56.3467 14.058 56.3618 14.0662 56.377 14.0593C56.377 14.0828 56.366 14.0938 56.3618 14.1131H56.3605ZM56.348 14.0097C56.362 14.0036 56.3777 14.0026 56.3923 14.0069C56.4069 14.0112 56.4195 14.0205 56.428 14.0332C56.3908 14.0965 56.3618 14.0442 56.348 14.0097ZM56.3687 14.7965C56.3935 14.7965 56.4032 14.8186 56.4197 14.831C56.3935 14.831 56.3715 14.831 56.3687 14.7965ZM56.3687 14.5361C56.3797 14.5196 56.4004 14.4851 56.4059 14.5113C56.4114 14.5375 56.3715 14.5554 56.3687 14.5361ZM56.3081 14.7056C56.2971 14.6794 56.3398 14.6822 56.3384 14.6601C56.337 14.6381 56.304 14.678 56.3095 14.645C56.3453 14.6229 56.3577 14.645 56.3742 14.6615C56.3536 14.689 56.3412 14.6615 56.3081 14.7056ZM56.3577 13.9133C56.3108 13.9436 56.3191 13.8678 56.3508 13.832C56.3508 13.8637 56.3384 13.8761 56.3577 13.9133ZM56.3067 14.0001L56.3425 13.9753C56.3425 13.9863 56.3425 13.9987 56.3425 14.0056C56.3425 13.9822 56.3012 14.0414 56.3136 14.0056L56.3067 14.0001ZM56.2792 14.4066C56.2792 14.3859 56.2957 14.3735 56.3095 14.3611C56.3095 14.3721 56.3191 14.3611 56.3164 14.3818L56.2792 14.4066ZM56.2557 14.5953C56.2579 14.5809 56.2629 14.5669 56.2704 14.5544C56.278 14.5419 56.288 14.531 56.2998 14.5223C56.2998 14.5554 56.2709 14.5981 56.2557 14.5953ZM56.2902 14.0897C56.2626 14.1158 56.264 14.0676 56.275 14.0469C56.3108 14.0249 56.2847 14.0607 56.2902 14.0897ZM56.1896 14.5692C56.1896 14.554 56.1896 14.5444 56.1896 14.5402C56.2158 14.5402 56.2047 14.5623 56.2406 14.5223C56.224 14.5692 56.2543 14.5402 56.2557 14.5733C56.2254 14.5912 56.2282 14.5499 56.1965 14.5733L56.1896 14.5692ZM56.1317 14.4534C56.1317 14.5127 56.2061 14.4713 56.1896 14.5265C56.1703 14.5127 56.089 14.5265 56.1317 14.4534ZM56.1538 14.4644C56.1689 14.4548 56.1634 14.4341 56.1841 14.4272C56.2047 14.4204 56.1937 14.4369 56.191 14.4576C56.1882 14.4782 56.1634 14.4851 56.1538 14.4576V14.4644ZM56.016 14.4121C56.0229 14.3831 55.9967 14.4121 56.0022 14.379C56.0187 14.3707 56.0339 14.3666 56.0394 14.379C56.0449 14.3914 56.0256 14.4024 56.016 14.4107V14.4121ZM55.9333 13.7934C55.9485 13.7934 56.0022 13.7851 55.9622 13.8347C55.9622 13.8003 55.9168 13.8223 55.9333 13.7934ZM55.9443 12.8936C55.9443 12.8661 55.9815 12.8344 55.9815 12.8606C55.9815 12.8867 55.9664 12.8867 55.9443 12.8936ZM55.9264 13.8334C55.9457 13.8182 55.9443 13.8334 55.9485 13.8527C55.9526 13.8719 55.9071 13.9064 55.903 13.8912C55.8988 13.8761 55.9168 13.8527 55.9264 13.8334V13.8334ZM55.8823 13.8885C55.8727 13.8609 55.9168 13.8196 55.9181 13.8471C55.9195 13.8747 55.9044 13.8802 55.8823 13.8885ZM55.8561 14.2853C55.8672 14.2412 55.8286 14.2853 55.8355 14.2481C55.846 14.2436 55.8576 14.242 55.869 14.2435C55.8803 14.2449 55.8911 14.2494 55.9002 14.2564L55.8561 14.2853ZM55.8561 13.9436L55.8851 13.9243V13.9505C55.8616 13.9725 55.8616 13.9505 55.8561 13.9436ZM55.8644 13.7741C55.8272 13.7989 55.8644 13.7424 55.8424 13.7273C55.8616 13.7273 55.8782 13.7466 55.8644 13.7741ZM55.8203 13.7204V13.679C55.841 13.6584 55.8727 13.6625 55.8492 13.6942C55.8492 13.6735 55.8244 13.708 55.8203 13.7135V13.7204ZM55.8093 12.8454C55.8189 12.8454 55.8189 12.8661 55.8231 12.8785C55.7638 12.8679 55.711 12.8348 55.6756 12.7861C55.7183 12.7434 55.6922 12.8247 55.728 12.7958C55.728 12.7737 55.7142 12.7779 55.728 12.7558C55.7445 12.7627 55.728 12.7889 55.728 12.8165C55.7624 12.7903 55.75 12.8509 55.7872 12.8165C55.7872 12.8054 55.7666 12.8082 55.7721 12.7737C55.7776 12.7393 55.7886 12.7737 55.8093 12.7572C55.8176 12.7751 55.7776 12.8096 55.8093 12.8068C55.841 12.8041 55.8093 12.7682 55.8382 12.76C55.8672 12.7517 55.852 12.7696 55.8534 12.7861C55.8548 12.8027 55.8148 12.8178 55.8093 12.8413V12.8454ZM55.7969 13.8637C55.7969 13.8168 55.7666 13.8402 55.7611 13.8099C55.7859 13.7879 55.7845 13.7576 55.812 13.7576C55.8203 13.7851 55.7969 13.7962 55.79 13.8154C55.8052 13.8154 55.812 13.8278 55.8341 13.8154C55.8341 13.8402 55.8189 13.854 55.7969 13.8664V13.8637ZM55.7735 14.2192C55.7969 14.204 55.8244 14.1806 55.8244 14.2109C55.8065 14.2109 55.7735 14.2481 55.7735 14.2192ZM55.7996 13.5302L55.8286 13.5109V13.5371C55.8093 13.5523 55.7969 13.555 55.7996 13.5302ZM55.6012 13.6377C55.5916 13.6377 55.5861 13.6377 55.5861 13.6212C55.6315 13.5991 55.5998 13.6928 55.6081 13.7107L55.6439 13.6859C55.6508 13.741 55.6825 13.7479 55.717 13.7493C55.7315 13.7257 55.7519 13.7062 55.7762 13.6928C55.75 13.7466 55.7996 13.6818 55.7983 13.7217C55.7578 13.7399 55.7205 13.7645 55.688 13.7948C55.6963 13.7231 55.6191 13.7686 55.5847 13.7603C55.5957 13.7479 55.6233 13.7452 55.6219 13.7273C55.5985 13.7397 55.5888 13.7273 55.5626 13.7397C55.5626 13.7493 55.5764 13.7507 55.5626 13.7658C55.5626 13.7369 55.5048 13.7658 55.5268 13.7217C55.5351 13.7493 55.5902 13.7107 55.5929 13.668C55.564 13.7162 55.5309 13.668 55.542 13.6418C55.5544 13.6501 55.5833 13.6901 55.6012 13.6418V13.6377ZM55.5489 13.7025C55.5441 13.7096 55.5375 13.7153 55.5297 13.719C55.5219 13.7226 55.5133 13.7241 55.5048 13.7231C55.5227 13.7052 55.491 13.7093 55.4979 13.6845C55.5268 13.668 55.5351 13.6845 55.5489 13.7025V13.7025ZM55.7803 14.2123C55.7695 14.2119 55.7589 14.2085 55.7499 14.2024C55.7409 14.1963 55.7338 14.1878 55.7294 14.1778C55.7542 14.1778 55.7955 14.1778 55.7803 14.2123ZM55.7597 13.8981C55.7597 13.9091 55.7831 13.8899 55.7748 13.9229C55.7666 13.956 55.7445 13.9119 55.7597 13.8981ZM55.7018 13.8416C55.7211 13.8278 55.7542 13.8306 55.7321 13.8651C55.7321 13.8485 55.7073 13.8582 55.7018 13.8416ZM55.6922 14.1682C55.7032 14.1475 55.7307 14.142 55.7294 14.1682C55.7059 14.1875 55.699 14.1778 55.6922 14.1682ZM55.6467 12.7503C55.666 12.7214 55.6715 12.7503 55.6908 12.7117C55.6991 12.7407 55.6467 12.7765 55.6467 12.7503ZM55.6026 12.7365C55.6191 12.7062 55.6329 12.7255 55.6618 12.6966V12.7228C55.6357 12.7393 55.6054 12.7641 55.6026 12.7365V12.7365ZM55.6026 13.7838C55.615 13.7838 55.6563 13.7714 55.6315 13.8072C55.6315 13.7948 55.604 13.8072 55.6026 13.7838ZM55.5571 14.0318C55.5764 14.0152 55.5888 14.0125 55.5874 14.0318C55.5861 14.0511 55.5557 14.0497 55.5571 14.0318ZM55.4937 13.6322C55.4855 13.6239 55.4731 13.6253 55.4648 13.617C55.4896 13.5991 55.5034 13.5743 55.5158 13.5908C55.502 13.6019 55.5158 13.6239 55.4937 13.6322ZM55.4496 13.5316C55.4508 13.5264 55.4509 13.5209 55.4497 13.5157C55.4485 13.5104 55.4461 13.5055 55.4428 13.5013L55.4579 13.4916C55.4576 13.4889 55.458 13.4861 55.4593 13.4837C55.4605 13.4812 55.4624 13.4792 55.4648 13.4779C55.4648 13.5192 55.4855 13.4517 55.502 13.4448C55.502 13.4599 55.5227 13.4448 55.5172 13.4779C55.4868 13.4916 55.4745 13.5151 55.4496 13.5316V13.5316ZM55.4276 13.6763C55.4276 13.6625 55.4276 13.646 55.4345 13.6377C55.4455 13.6584 55.4841 13.6281 55.4786 13.6763C55.4483 13.6887 55.4538 13.6529 55.4276 13.6763ZM55.4276 11.0761C55.4276 11.0513 55.4441 11.0389 55.4648 11.0265C55.4633 11.0298 55.4625 11.0333 55.4625 11.0369C55.4625 11.0404 55.4633 11.044 55.4648 11.0472C55.4552 11.0651 55.4304 11.0817 55.4207 11.0761H55.4276ZM55.4097 12.6718C55.389 12.68 55.3808 12.6718 55.3794 12.6401C55.4042 12.6208 55.4331 12.5698 55.4386 12.6098C55.4124 12.6318 55.3932 12.6497 55.4097 12.6718ZM55.3642 13.4682C55.3794 13.4751 55.3642 13.4999 55.3642 13.5164C55.4069 13.4971 55.4441 13.5344 55.4304 13.5936C55.4152 13.5468 55.3697 13.5468 55.3339 13.5619C55.348 13.5458 55.3563 13.5254 55.3573 13.504C55.3394 13.533 55.3367 13.5344 55.3201 13.5288C55.3036 13.5233 55.3298 13.504 55.3353 13.493C55.3077 13.5261 55.3201 13.4999 55.305 13.493C55.305 13.5261 55.2747 13.5206 55.276 13.493C55.2774 13.4655 55.3008 13.4847 55.327 13.4586C55.3491 13.4792 55.3394 13.4999 55.3711 13.4586L55.3642 13.4682ZM55.3311 14.1875C55.3311 14.1489 55.2788 14.2082 55.265 14.2054C55.265 14.1627 55.2884 14.1792 55.3174 14.1448C55.3091 14.1765 55.3339 14.1448 55.3463 14.1448C55.3477 14.153 55.347 14.1615 55.3444 14.1694C55.3418 14.1773 55.3372 14.1845 55.3311 14.1902V14.1875ZM55.3119 13.5881C55.3036 13.5674 55.2871 13.5592 55.276 13.5426C55.2953 13.5344 55.3091 13.5316 55.3201 13.5426C55.3077 13.5495 55.3463 13.5619 55.3119 13.5908V13.5881ZM55.2595 14.0166C55.2691 13.9973 55.3036 13.9712 55.3036 13.9946C55.3036 14.018 55.2595 14.0345 55.2595 14.0166ZM55.2071 14.1641C55.2306 14.142 55.2292 14.1641 55.2512 14.1434C55.2512 14.1213 55.2374 14.1255 55.2595 14.1034C55.2595 14.1172 55.3022 14.1186 55.2802 14.1585C55.254 14.1696 55.2182 14.1985 55.2071 14.1585V14.1641ZM55.2609 13.4696C55.2719 13.4351 55.2209 13.4696 55.2471 13.4365C55.2609 13.4365 55.2953 13.4365 55.2609 13.4696ZM55.2016 13.7617C55.2223 13.7617 55.2347 13.7714 55.2526 13.7714C55.2416 13.7893 55.1851 13.7962 55.2016 13.7617ZM55.2016 14.0841C55.2107 14.0776 55.2182 14.0691 55.2237 14.0593C55.2237 14.0786 55.2567 14.0841 55.2388 14.1103C55.2388 14.0841 55.1989 14.12 55.2016 14.0841ZM55.101 13.4048C55.1364 13.4027 55.1718 13.4088 55.2044 13.4227C55.2044 13.4034 55.2044 13.3828 55.2264 13.3731C55.2002 13.4338 55.2347 13.3952 55.2402 13.4324C55.2126 13.4531 55.2016 13.4475 55.1823 13.4985C55.1989 13.4103 55.1203 13.4517 55.101 13.4048ZM55.1878 10.9508C55.1947 10.9673 55.2292 10.9328 55.225 10.97C55.2085 10.97 55.1686 10.9825 55.1878 10.9508ZM55.152 12.5354C55.152 12.5092 55.152 12.505 55.13 12.523C55.1382 12.4747 55.203 12.4444 55.2113 12.4775C55.1741 12.4954 55.1741 12.4982 55.152 12.5354V12.5354ZM55.1355 14.0332C55.1672 14.0332 55.1796 14.0566 55.2016 14.0662L55.1796 14.0814C55.1713 14.0538 55.1451 14.0593 55.1355 14.0332V14.0332ZM55.1603 13.1472C55.1727 13.1582 55.214 13.1623 55.1961 13.2009C55.1961 13.1775 55.1369 13.2009 55.1603 13.1472ZM55.1313 13.307C55.1313 13.267 55.0941 13.2836 55.0873 13.2491C55.0944 13.2455 55.1023 13.2438 55.1103 13.2442C55.1182 13.2446 55.1259 13.2471 55.1326 13.2514C55.1394 13.2557 55.1448 13.2617 55.1484 13.2688C55.1521 13.2759 55.1538 13.2839 55.1534 13.2918C55.1534 13.2808 55.1369 13.2918 55.1313 13.307V13.307ZM55.1079 14.0359C55.1203 14.0276 55.1079 14.0084 55.1231 14.0001C55.1231 14.018 55.1479 14.0001 55.1437 14.0276C55.1396 14.0552 55.1093 14.0538 55.1079 14.0359V14.0359ZM55.0501 13.9794C55.0762 13.9588 55.0873 13.967 55.0941 13.9794C55.0776 13.9794 55.0528 13.996 55.0501 13.9794ZM55.079 13.3938C55.0418 13.4145 55.0556 13.3786 55.0569 13.3387C55.0694 13.3325 55.0799 13.323 55.0873 13.3111V13.3277C55.0625 13.358 55.0666 13.3745 55.079 13.3938V13.3938ZM55.0349 14.0938C55.0197 14.0759 54.9839 14.0938 54.9839 14.0497C55.006 14.0497 55.0239 14.0056 55.0418 14.0097C55.0597 14.0139 55.0087 14.0731 55.028 14.0731C55.0473 14.0731 55.0404 14.0387 55.0638 14.0304C55.0606 14.0539 55.0505 14.0759 55.0349 14.0938V14.0938ZM54.9991 13.956C55.0075 13.9417 55.0199 13.9302 55.0349 13.9229C55.028 13.9601 55.0528 13.9353 55.0501 13.9643L55.0349 13.9753C55.0349 13.9422 55.0128 13.9753 54.9991 13.956ZM54.9619 13.3194C54.9784 13.329 55.0611 13.2877 55.0197 13.3497C55.0197 13.3098 54.9632 13.3621 54.9619 13.3194ZM54.9095 13.154C54.926 13.1444 54.9412 13.1416 54.9467 13.154C54.9522 13.1664 54.9081 13.1816 54.9095 13.154ZM54.8654 13.2271C54.8792 13.2533 54.9646 13.2271 54.9247 13.3001C54.9247 13.2533 54.8544 13.2725 54.8654 13.2271ZM54.8282 12.9901C54.8516 12.9708 54.8585 12.9804 54.8654 12.9901C54.8723 12.9997 54.831 13.0094 54.8282 12.9901ZM54.7993 13.1058C54.8089 13.0369 54.7621 13.0741 54.7538 13.0397C54.7896 13.0039 54.8117 13.059 54.8351 13.0727C54.8186 13.081 54.8199 13.0989 54.7993 13.1058V13.1058ZM54.7772 13.1292C54.7772 13.081 54.7249 13.1692 54.718 13.1292C54.7497 13.1155 54.7373 13.1182 54.7621 13.0907C54.7745 13.0907 54.8089 13.1003 54.7772 13.1334V13.1292ZM54.6587 13.0562C54.6849 13.0328 54.6959 13.0383 54.7028 13.0562C54.689 13.081 54.6505 13.1003 54.6587 13.0562ZM54.6284 13.6928C54.6615 13.6625 54.6615 13.6928 54.6739 13.6928C54.6573 13.6928 54.6325 13.7107 54.6284 13.6928ZM54.6284 13.7245C54.6477 13.7066 54.6711 13.7245 54.6505 13.7534C54.6505 13.7314 54.6188 13.7645 54.6284 13.7245ZM54.6133 13.6212C54.627 13.6101 54.6133 13.5881 54.6284 13.5757C54.6436 13.5633 54.6601 13.5578 54.6573 13.5826C54.6546 13.6074 54.627 13.6418 54.6133 13.6212V13.6212ZM54.5402 13.7658C54.5587 13.7508 54.5737 13.732 54.5843 13.7107C54.5678 13.7204 54.5678 13.6997 54.5692 13.6763C54.5981 13.668 54.6381 13.6363 54.6436 13.6763C54.5967 13.6956 54.5581 13.8141 54.5402 13.7714V13.7658ZM54.5912 12.8757C54.6146 12.8495 54.6339 12.8757 54.6133 12.8964C54.6133 12.8812 54.5857 12.9074 54.5912 12.8757ZM54.5388 13.6405C54.5595 13.6253 54.5719 13.6225 54.5692 13.6473C54.5664 13.6721 54.5375 13.6653 54.5388 13.6405ZM54.554 13.0479C54.5333 13.0479 54.4961 13.0397 54.5099 12.9997C54.4851 13.0149 54.4796 12.9653 54.4507 13.0121V12.9777C54.4741 12.957 54.4741 12.9777 54.4879 12.9529C54.5003 12.9818 54.5113 12.9873 54.5402 12.9446C54.5485 12.9667 54.5278 12.9735 54.5251 12.9901L54.5623 12.9653C54.5623 13.0135 54.5292 13.0245 54.554 13.0479ZM54.4438 12.9391C54.4438 12.8881 54.5058 12.8826 54.503 12.917C54.492 12.9267 54.4906 12.9405 54.481 12.9501C54.4713 12.9598 54.4906 12.8922 54.4438 12.9391ZM54.3776 12.9667C54.3776 12.9322 54.4052 12.917 54.4286 12.8978C54.4286 12.9102 54.4479 12.8909 54.4438 12.9129C54.4052 12.9515 54.4135 12.9212 54.3776 12.9667V12.9667ZM54.3638 12.7558C54.3818 12.7558 54.4011 12.7379 54.4011 12.7655C54.3763 12.7848 54.3652 12.7793 54.3638 12.7558ZM54.1048 12.7627C54.1048 12.7117 54.1902 12.6883 54.1572 12.7462C54.1503 12.72 54.1268 12.7669 54.1048 12.7627ZM53.8154 13.3139C53.8361 13.3042 53.8485 13.3139 53.8513 13.3332C53.8223 13.358 53.8196 13.3332 53.8154 13.3139ZM53.7259 13.3208C53.6873 13.369 53.708 13.3139 53.6969 13.3056C53.6859 13.347 53.6542 13.3621 53.6363 13.38C53.6363 13.3414 53.6914 13.3318 53.6887 13.2932C53.679 13.3029 53.6749 13.3153 53.6597 13.3222C53.6446 13.329 53.6432 13.2836 53.6597 13.2698C53.668 13.3029 53.8141 13.2161 53.741 13.3111C53.7548 13.3194 53.8072 13.3111 53.7851 13.3511C53.7617 13.3731 53.7162 13.3594 53.7259 13.3208V13.3208ZM53.6666 13.3773C53.6772 13.372 53.6892 13.37 53.7009 13.3715C53.7127 13.373 53.7238 13.3778 53.7328 13.3855C53.7038 13.3966 53.6735 13.409 53.6666 13.3773ZM53.5853 13.3704C53.5853 13.3566 53.5853 13.3401 53.5922 13.3304C53.5922 13.3607 53.6115 13.358 53.6363 13.3304C53.628 13.3745 53.606 13.3676 53.5853 13.3731V13.3704ZM53.5564 13.2629C53.5564 13.2312 53.5302 13.2629 53.5412 13.2285C53.5591 13.2188 53.5826 13.2395 53.5564 13.2629ZM53.5027 13.4269C53.5014 13.4188 53.5021 13.4106 53.5047 13.4029C53.5074 13.3952 53.5119 13.3883 53.5178 13.3828C53.5178 13.3924 53.5178 13.409 53.5261 13.4034C53.5343 13.3979 53.5399 13.3938 53.5412 13.4034L53.5027 13.4269ZM53.4158 13.2078C53.4255 13.1954 53.4076 13.1844 53.4076 13.1775C53.4076 13.1706 53.3952 13.2009 53.3855 13.2105C53.3759 13.2202 53.3773 13.1651 53.4076 13.143C53.4241 13.1596 53.4489 13.1609 53.4599 13.1871C53.4379 13.1954 53.4214 13.2105 53.4158 13.2078ZM53.3332 13.1306C53.3166 13.1306 53.3029 13.1306 53.3042 13.1072C53.3277 13.0907 53.3359 13.1003 53.3414 13.1168C53.3392 13.1185 53.3373 13.1205 53.3359 13.1229C53.3345 13.1253 53.3336 13.1279 53.3332 13.1306V13.1306ZM53.1857 13.1416C53.1775 13.1196 53.1265 13.1279 53.1416 13.0934C53.1416 13.1086 53.1678 13.0934 53.1788 13.1031C53.1788 13.0852 53.1706 13.0893 53.1706 13.0727C53.1706 13.0562 53.2092 13.0659 53.2229 13.0383C53.2143 13.074 53.2018 13.1086 53.1857 13.1416V13.1416ZM53.1265 13.0672C53.127 13.0322 53.1408 12.9987 53.1651 12.9735C53.1634 12.977 53.1625 12.9807 53.1625 12.9846C53.1625 12.9884 53.1634 12.9922 53.1651 12.9956C53.143 13.0163 53.1527 13.0521 53.1196 13.0672H53.1265ZM53.0603 13.0672C53.0851 13.0672 53.1099 13.0672 53.1196 13.0976C53.0948 13.0976 53.0838 13.1058 53.0686 13.0976C53.0703 13.0941 53.0712 13.0904 53.0712 13.0865C53.0712 13.0827 53.0703 13.0789 53.0686 13.0755C53.059 13.0755 53.0507 13.0838 53.0535 13.0672H53.0603ZM53.0397 13.0245C53.0493 13.0163 53.0479 13.0011 53.0548 12.9887C53.0907 12.9708 53.1086 12.9887 53.121 13.0149C53.0989 13.0273 53.0975 13.0493 53.0755 13.0617C53.0672 13.0424 53.0466 13.0466 53.0397 13.0245ZM52.9722 13.0865C52.9722 13.0714 52.9804 13.0617 52.9804 13.0466C52.9804 13.0314 52.9708 13.0603 52.9653 13.0659C52.957 13.0411 52.9749 13.03 52.9942 13.0204C53.0135 13.0107 52.9942 13.0452 53.0025 13.0411C53.0107 13.0369 53.0135 13.0231 53.0245 13.0176V13.0438C53.0025 13.0513 52.9839 13.0664 52.9722 13.0865V13.0865ZM52.9722 12.9653C52.9501 12.9749 52.9474 12.9515 52.9349 12.946C52.9653 12.9184 52.9928 12.9239 52.9722 12.9653ZM52.8605 12.9777C52.8468 12.9777 52.8261 12.9873 52.8233 12.9667C52.8509 12.9391 52.8468 12.9667 52.8605 12.9667C52.8743 12.9667 52.8605 12.9501 52.8674 12.9446C52.8674 12.9555 52.8651 12.9663 52.8605 12.9763V12.9777ZM52.8013 12.884C52.8013 12.9046 52.833 12.884 52.8316 12.917C52.8302 12.9501 52.7806 12.917 52.8013 12.884ZM52.8164 12.8743C52.8164 12.8743 52.8164 12.8743 52.8013 12.8743C52.8 12.8663 52.8007 12.8581 52.8034 12.8504C52.806 12.8427 52.8105 12.8358 52.8164 12.8302C52.8164 12.8413 52.8289 12.8371 52.8316 12.8468C52.8344 12.8564 52.8247 12.8661 52.8164 12.873V12.8743ZM52.7352 12.8233C52.7737 12.7999 52.7916 12.8137 52.8013 12.8399C52.7655 12.8592 52.7627 12.8192 52.7352 12.8233ZM52.6828 12.8909C52.7159 12.8481 52.7365 12.8661 52.7489 12.8826C52.7172 12.9046 52.6883 12.9184 52.6828 12.8909ZM52.6401 12.7531C52.6401 12.7393 52.6497 12.7296 52.647 12.7131C52.6773 12.6966 52.7007 12.6911 52.6993 12.731C52.6884 12.728 52.6768 12.7285 52.6661 12.7324C52.6555 12.7364 52.6464 12.7436 52.6401 12.7531V12.7531ZM52.3645 12.742C52.3838 12.7269 52.3548 12.7338 52.3645 12.7062C52.3741 12.6787 52.3948 12.7228 52.3783 12.7407C52.3783 12.7255 52.3659 12.7531 52.3631 12.7407" fill="#D1FF43"/>
</svg>
