<svg width="1920" height="240" viewBox="0 0 1920 240" fill="none" xmlns="http://www.w3.org/2000/svg">
<path fill-rule="evenodd" clip-rule="evenodd" d="M0 0C0 0 283.094 121.249 620.846 121.249C958.598 121.249 1252.9 37.4989 1478.54 37.4989C1636.9 37.4989 1837.31 59.9991 1920 91.2492C1920 237.499 1920 240 1920 240H0V0Z" fill="#F7F9FA"/>
<path d="M0 0C0 0 283.094 121.249 620.846 121.249C958.598 121.249 1252.9 37.4989 1478.54 37.4989C1636.9 37.4989 1837.31 59.9991 1920 91.2492C1920 237.499 1920 240 1920 240H0V0Z" fill="url(#paint0_linear_781_9)"/>
<defs>
<linearGradient id="paint0_linear_781_9" x1="0" y1="527.501" x2="0" y2="0" gradientUnits="userSpaceOnUse">
<stop stop-color="white" stop-opacity="0.04"/>
<stop offset="1" stop-color="#0699D6" stop-opacity="0.04"/>
</linearGradient>
</defs>
</svg>
