<?xml version="1.0" encoding="UTF-8"?>
<svg width="57px" height="22px" viewBox="0 0 57 22" version="1.1" xmlns="http://www.w3.org/2000/svg" xmlns:xlink="http://www.w3.org/1999/xlink">
    <title>google-pay-brands</title>
    <g id="Page-1" stroke="none" stroke-width="1" fill="none" fill-rule="evenodd">
        <g id="UI" transform="translate(-933.000000, -5165.000000)" fill="#FFFFFF" fill-rule="nonzero">
            <g id="Group-15" transform="translate(798.000000, 5162.000000)">
                <g id="Group-14" transform="translate(135.000000, 0.000000)">
                    <g id="google-pay-brands" transform="translate(0.000000, 3.000000)">
                        <path d="M9.41567534,7.49894893 L9.41567534,11.0202791 L14.5011454,11.0202791 C14.2939225,12.1545119 13.6142362,13.1591484 12.6183637,13.803197 C11.7687072,14.3623416 10.6839257,14.6807552 9.41211284,14.6807552 C6.95398721,14.6807552 4.87615855,13.0664921 4.13070524,10.9058892 C3.74062708,9.76918159 3.74062708,8.54260809 4.13070524,7.40590045 L4.13070524,7.40590045 C4.87615855,5.23249278 6.95398721,3.61822967 9.41211284,3.61822967 C10.758016,3.59419866 12.0577206,4.08868723 13.0200356,4.99090819 L15.7168488,2.37701413 C14.0183591,0.830247421 11.7584326,-0.0221161907 9.41567534,0.000436387973 C5.84067044,0.0135853621 2.58287412,1.9692425 1.00995444,5.04639582 C-0.336651481,7.63103885 -0.336651481,10.6722143 1.00995444,13.2568573 L1.00995444,13.2696621 C2.58336025,16.3451308 5.84201955,18.2976657 9.41567534,18.3062314 C11.9512854,18.3062314 14.0959109,17.4926974 15.6500519,16.0944092 C17.4313024,14.5057557 18.4475209,12.1547877 18.4475209,9.35821126 C18.4485397,8.73542019 18.3964127,8.11359193 18.2916464,7.49894893 L9.41567534,7.49894893 Z M44.0975123,7.15748661 C43.195309,6.35675747 41.9662462,5.95041731 40.4112145,5.95041731 C38.4108702,5.95041731 36.9074949,6.66236625 35.9135571,8.07260563 L37.7705107,9.20455322 C38.4503546,8.23707665 39.3783861,7.75333836 40.5546052,7.75333836 C41.3034907,7.75508535 42.0252173,8.02236629 42.5807776,8.50370181 C43.1285523,8.95961033 43.4433416,9.62065984 43.4437934,10.3160131 L43.4437934,10.7863774 C42.6333245,10.3535739 41.6135586,10.1247942 40.3586676,10.1247942 C38.8944797,10.1247942 37.7179638,10.4560126 36.8415886,11.129547 C35.9652134,11.8030815 35.521682,12.6925908 35.521682,13.8236848 C35.4939266,14.8474882 35.9502025,15.8285141 36.7632136,16.4930664 C37.5870419,17.2050154 38.6335266,17.5609898 39.8616987,17.5609898 C41.3125272,17.5609898 42.463215,16.9378211 43.3351371,15.6923373 L43.4241997,15.6923373 L43.4241997,17.2050154 L45.437968,17.2050154 L45.437968,10.4867442 C45.4441377,9.07394388 44.9997157,7.95480113 44.0975123,7.15748661 Z M42.38484,14.7806329 C41.7609394,15.3890718 40.9085091,15.7322497 40.0184488,15.7333128 C39.4261143,15.742774 38.8488507,15.5541141 38.3859327,15.1997779 C37.9478664,14.8851298 37.6911723,14.3902021 37.6938952,13.8655139 C37.6938952,13.2679548 37.9806983,12.7719808 38.5435734,12.3784455 C39.1064486,11.9849102 39.8376519,11.7808864 40.6873083,11.7808864 C41.8593711,11.7672279 42.7767151,12.0233247 43.430434,12.5303962 C43.430434,13.3951495 43.0777464,14.1446593 42.38484,14.7806329 Z M34.0441348,2.65872055 C33.089149,1.74364363 31.7862939,1.24117464 30.436212,1.26726159 L24.8546637,1.26726159 L24.8546637,17.20843 L26.9592111,17.20843 L26.9592111,10.7513775 L30.4326495,10.7513775 C31.8576498,10.7513775 33.0599939,10.293818 34.0405723,9.39150384 C34.1189473,9.31552847 34.1973223,9.23869945 34.2765879,9.16272409 C36.0618985,7.29520586 35.9585285,4.40140997 34.0441348,2.65530592 L34.0441348,2.65872055 Z M32.5674781,7.97102059 C32.0307723,8.52014716 31.2733967,8.82122138 30.4887589,8.7973594 L26.9592111,8.7973594 L26.9592111,3.230652 L30.4887589,3.230652 C31.2419634,3.22805609 31.9656212,3.51133504 32.5015719,4.01859424 C33.635301,5.10076145 33.6645152,6.85123545 32.5674781,7.96760597 L32.5674781,7.97102059 Z M54.7119838,6.30383081 L51.4576392,14.1318545 L51.4175611,14.1318545 L48.0848415,6.30383081 L45.7968253,6.30383081 L50.4093733,16.5092859 L47.7953883,22 L49.9640607,22 L57,6.30383081 L54.7119838,6.30383081 Z" id="Shape"></path>
                    </g>
                </g>
            </g>
        </g>
    </g>
</svg>