<?xml version="1.0" encoding="UTF-8"?>
<svg width="60px" height="19px" viewBox="0 0 60 19" version="1.1" xmlns="http://www.w3.org/2000/svg" xmlns:xlink="http://www.w3.org/1999/xlink">
    <title>Paytm-Logo.wine</title>
    <g id="Page-1" stroke="none" stroke-width="1" fill="none" fill-rule="evenodd">
        <g id="UI" transform="translate(-1025.000000, -5166.000000)" fill="#FFFFFF" fill-rule="nonzero">
            <g id="Group-15" transform="translate(798.000000, 5162.000000)">
                <g id="Group-14" transform="translate(135.000000, 0.000000)">
                    <g id="Paytm-Logo.wine" transform="translate(92.000000, 4.000000)">
                        <path d="M59.802466,5.54730427 C59.2577981,3.98999983 57.7734488,2.87171018 56.0299767,2.87171018 L55.9934991,2.87171018 C54.8601264,2.87171018 53.8387181,3.34342288 53.1116266,4.10068062 C52.383287,3.34342288 51.3618431,2.87171018 50.2297184,2.87171018 L50.1932408,2.87171018 C49.196971,2.87171018 48.2862791,3.23648612 47.5868578,3.84030976 L47.5868578,3.53337024 C47.5629673,3.22767873 47.3113682,2.98745434 47.000649,2.98745434 L44.3263386,2.98745434 C43.9992882,2.98745434 43.7351377,3.25160489 43.7351377,3.57990324 L43.7351377,18.1025498 C43.7351377,18.4308482 43.9992882,18.6950344 44.3263386,18.6950344 L47.000649,18.6950344 C47.2987811,18.6950344 47.5440689,18.4723891 47.5830781,18.1843124 L47.5818301,7.75870938 C47.6246191,7.29327239 47.9655045,6.91088166 48.5039324,6.86306499 L48.9969682,6.86306499 C49.2221452,6.88317581 49.4120925,6.96244237 49.5617826,7.08193056 C49.7944832,7.26685021 49.9240625,7.55114723 49.9240625,7.86311446 L49.9341179,18.2371568 C49.9341179,18.5654551 50.1995165,18.8308537 50.5253188,18.8308537 L53.1996292,18.8308537 C53.5154118,18.8308537 53.772003,18.5792902 53.7871217,18.266075 L53.7858737,7.84927936 C53.78459,7.50711025 53.9431232,7.19767471 54.2211088,7.01400307 C54.3582118,6.92592912 54.5230206,6.86684468 54.7129323,6.84922989 L55.2060395,6.84922989 C55.784689,6.89954259 56.1343818,7.33855738 56.1331338,7.84927936 L56.1431892,18.2094866 C56.1431892,18.5377849 56.4086234,18.8019355 56.7343901,18.8019355 L59.4087362,18.8019355 C59.7345385,18.8019355 59.9999371,18.5377849 59.9999371,18.2094866 L59.9999371,6.96244237 C59.9999371,6.20265295 59.9144304,5.87938231 59.7974383,5.54730427 M41.6977767,3.02528691 L40.1681781,3.02528691 L40.1681781,0.539640184 C40.1681424,0.241508059 39.9266344,0 39.6285023,0 C39.5932727,0 39.5593268,0.00499204611 39.5266289,0.0113034187 C37.8309378,0.476740403 38.1705752,2.82528415 35.0748648,3.02528691 L34.774201,3.02528691 C34.728916,3.02528691 34.6861627,3.03156263 34.6446574,3.04037003 L34.6421613,3.04037003 L34.6446574,3.04161804 C34.3804712,3.10077378 34.1817521,3.33472246 34.1817521,3.61652346 L34.1817521,6.29083388 C34.1817521,6.6166362 34.4471506,6.88203477 34.774201,6.88203477 L36.3881295,6.88203477 L36.3856335,18.2221807 C36.3856335,18.5454513 36.6472523,18.8071058 36.970523,18.8071058 L39.6146672,18.8071058 C39.9366898,18.8071058 40.19838,18.5454513 40.19838,18.2221807 L40.1995923,6.88203477 L41.6977767,6.88203477 C42.023579,6.88203477 42.2889776,6.6166362 42.2889776,6.29083388 L42.2889776,3.61652346 C42.2889776,3.29072114 42.023579,3.02532257 41.6977767,3.02532257" id="Shape"></path>
                        <path d="M32.0758574,3.02528691 L29.401547,3.02528691 C29.0757447,3.02528691 28.8115585,3.29072114 28.8115585,3.6164878 L28.8115585,9.14631991 C28.8052828,9.48845336 28.5285451,9.76269497 28.185128,9.76269497 L27.0655903,9.76269497 C26.7183935,9.76269497 26.4378762,9.48342565 26.4378762,9.13622885 L26.4278208,3.61652346 C26.4278208,3.29072114 26.1623866,3.02528691 25.8366199,3.02528691 L23.1622738,3.02528691 C22.8352235,3.02528691 22.5710729,3.29072114 22.5710729,3.61652346 L22.5710729,9.6771527 C22.5710729,11.9791278 24.212636,13.6207265 26.5158591,13.6207265 C26.5158591,13.6207265 28.2442481,13.6207265 28.2970925,13.6307819 C28.6090597,13.6660115 28.8518158,13.9276304 28.8518158,14.249653 C28.8518158,14.5679316 28.6140874,14.8283024 28.3058999,14.8673117 C28.2908167,14.8698077 28.2769816,14.8735874 28.2606149,14.8761191 L24.349739,14.8899542 C24.0226886,14.8899542 23.7585381,15.1553528 23.7585381,15.4811551 L23.7585381,18.1542532 C23.7585381,18.4813035 24.0226886,18.7454541 24.349739,18.7454541 L28.7222722,18.7454541 C31.0267433,18.7454541 32.6670583,17.105139 32.6670583,14.8019159 L32.6670583,3.61652346 C32.6670583,3.29072114 32.4029078,3.02528691 32.0758574,3.02528691 M6.19020849,7.92551503 L6.19020849,9.57592114 C6.19020849,9.92179862 5.90969116,10.2035996 5.56377802,10.2035996 L3.86683892,10.2048476 L3.86683892,6.89779537 L5.56377802,6.89779537 C5.90969116,6.89779537 6.19020849,7.17702903 6.19020849,7.52422584 L6.19020849,7.92551503 Z M6.42544084,3.02464508 L0.579897471,3.02464508 C0.259122851,3.02464508 0,3.2850516 0,3.60454255 L0,6.22479624 C0,6.22982394 0.00124801153,6.23485165 0.00124801153,6.23987935 C0.00124801153,6.25246644 0,6.26505353 0,6.27635694 L0,18.1359965 C0,18.4580192 0.241508059,18.7209574 0.540923853,18.7284811 L3.26551131,18.7284811 C3.59131363,18.7284811 3.85671219,18.4643305 3.85671219,18.1372802 L3.86680326,14.0729346 L6.42540518,14.0729346 C8.56635112,14.0729346 10.0582598,12.5873373 10.0582598,10.4375483 L10.0582598,6.66509471 C10.0582598,4.51530571 8.56635112,3.02464508 6.42540518,3.02464508 L6.42544084,3.02464508 Z M17.286386,14.2040114 L17.286386,14.6216317 C17.286386,14.6556133 17.2813939,14.6883112 17.2763662,14.7197611 C16.9410407,14.6963823 16.6845083,14.4115627 16.6962047,14.0756268 C16.7079012,13.739691 16.9836219,13.4734031 17.3197613,13.4734031 C17.6559008,13.4734031 17.9316215,13.739691 17.943318,14.0756268 C17.9550144,14.4115627 17.6984819,14.6963823 17.3631565,14.7197611 C17.2801102,14.9537454 17.0461616,15.1235463 16.7681403,15.1235463 L15.654914,15.1235463 C15.3077172,15.1235463 15.0247038,14.8593958 15.0247038,14.5348415 L15.0247038,14.0304309 C15.0247038,14.0241551 15.0234201,14.0178438 15.0234201,14.011568 L15.0247038,12.6693851 L15.0247038,12.2491975 L15.0259518,12.2454534 C15.0271998,11.9221471 15.3077172,11.6605283 15.654914,11.6605283 L16.7681403,11.6605283 C17.1165851,11.6605283 17.3983861,11.9234308 17.3983861,12.2492331 L17.286386,14.2040114 Z M16.8612776,3.04001345 L13.1504044,3.04001345 C12.8221061,3.04001345 12.5567075,3.28908089 12.5567075,3.59473675 L12.5567075,4.6350435 C12.5567075,4.64131921 12.5579555,4.6488786 12.5579555,4.65515431 C12.5579555,4.6627137 12.5566719,4.67023742 12.5566719,4.67779681 L12.5566719,6.10302597 C12.5566719,6.42633227 12.8384729,6.69048283 13.1856697,6.69048283 L16.7191112,6.69048283 C16.9983806,6.7345198 17.2197778,6.93830226 17.2512277,7.2565452 L17.2512277,7.60121032 C17.2197778,7.90437015 17.0009122,8.12573174 16.7341943,8.15090592 L14.9844822,8.15090592 C12.6573329,8.15090592 10.9994031,9.69690694 10.9994031,11.8680548 L10.9994031,14.9776359 C10.9994031,17.1362323 12.4246322,18.6721066 14.7353791,18.6721066 L19.5846527,18.6721066 C20.4551229,18.6721066 21.1608199,18.0129783 21.1608199,17.2016281 L21.1608199,7.05401076 C21.1608199,4.5935382 19.8928402,3.04001345 16.8612419,3.04001345 L16.8612776,3.04001345 Z" id="Shape"></path>
                    </g>
                </g>
            </g>
        </g>
    </g>
</svg>