<?xml version="1.0" encoding="UTF-8"?>
<svg width="90px" height="30px" viewBox="0 0 90 30" version="1.1" xmlns="http://www.w3.org/2000/svg" xmlns:xlink="http://www.w3.org/1999/xlink">
    <title>PhonePe-Logo.wine</title>
    <g id="Page-1" stroke="none" stroke-width="1" fill="none" fill-rule="evenodd">
        <g id="UI" transform="translate(-1120.000000, -5162.000000)" fill-rule="nonzero">
            <g id="Group-15" transform="translate(798.000000, 5162.000000)">
                <g id="Group-14" transform="translate(135.000000, 0.000000)">
                    <g id="PhonePe-Logo.wine" transform="translate(187.000000, 0.000000)">
                        <g id="g34" transform="translate(0.016209, 0.047148)" fill="#FFFFFF">
                            <circle id="ellipse30" transform="translate(14.109907, 14.079182) rotate(-76.714204) translate(-14.109907, -14.079182) " cx="14.1099067" cy="14.0791821" r="11.6985129"></circle>
                            <path d="M61.5759084,20.7650175 L61.5759084,16.5167976 C61.5759084,15.471082 61.183765,14.9482241 60.2034065,14.9482241 C59.8112632,14.9482241 59.3537626,15.0135813 59.0923336,15.0789386 L59.0923336,21.2878754 C59.0923336,21.4839471 58.8962619,21.6800188 58.7001903,21.6800188 L57.196974,21.6800188 C57.0009023,21.6800188 56.8048306,21.4839471 56.8048306,21.2878754 L56.8048306,14.0332229 C56.8048306,13.771794 57.0009023,13.5757223 57.196974,13.5103651 C58.1773324,13.1835789 59.1576909,12.9875072 60.2034065,12.9875072 C62.5562668,12.9875072 63.8634114,14.2292946 63.8634114,16.5167976 L63.8634114,21.3532326 C63.8634114,21.5493043 63.6673397,21.745376 63.471268,21.745376 L62.5562668,21.745376 C61.9680517,21.745376 61.5759084,21.2878754 61.5759084,20.7650175 L61.5759084,20.7650175 Z M67.458059,18.2160856 L67.3927018,18.8043007 C67.3927018,19.5885874 67.9155596,20.046088 68.7652036,20.046088 C69.4187759,20.046088 70.006991,19.8500163 70.6605633,19.5232302 C70.7259205,19.5232302 70.7912777,19.457873 70.856635,19.457873 C70.9873494,19.457873 71.0527066,19.5232302 71.1180639,19.5885874 C71.1834211,19.6539446 71.3141356,19.8500163 71.3141356,19.8500163 C71.44485,20.046088 71.5755645,20.3075169 71.5755645,20.5035886 C71.5755645,20.8303748 71.3794928,21.1571609 71.1180639,21.2878754 C70.3991343,21.6800188 69.5494904,21.8760905 68.6344891,21.8760905 C67.5887735,21.8760905 66.7391295,21.6146615 66.0855572,21.0918037 C65.4319849,20.5035886 65.0398415,19.7193019 65.0398415,18.7389434 L65.0398415,16.1900115 C65.0398415,14.1639374 66.3469861,12.92215 68.5691319,12.92215 C70.7259205,12.92215 71.9677079,14.0985801 71.9677079,16.1900115 L71.9677079,17.758585 C71.9677079,17.9546567 71.7716362,18.1507284 71.5755645,18.1507284 L67.458059,18.1507284 L67.458059,18.2160856 Z M67.3927018,16.7782265 L69.8762765,16.7782265 L69.8762765,16.1246542 C69.8762765,15.3403675 69.4187759,14.8175097 68.6344891,14.8175097 C67.8502024,14.8175097 67.3927018,15.2750103 67.3927018,16.1246542 L67.3927018,16.7782265 Z M84.0587953,18.2160856 L83.9934381,18.8043007 C83.9934381,19.5885874 84.5162959,20.046088 85.3659399,20.046088 C86.0195122,20.046088 86.6077273,19.8500163 87.2612996,19.5232302 C87.3266568,19.5232302 87.392014,19.457873 87.4573713,19.457873 C87.5880857,19.457873 87.653443,19.5232302 87.7188002,19.5885874 C87.7841574,19.6539446 87.9148719,19.8500163 87.9148719,19.8500163 C88.0455863,20.046088 88.1763008,20.3075169 88.1763008,20.5035886 C88.1763008,20.8303748 87.9802291,21.1571609 87.7188002,21.2878754 C86.9998707,21.6800188 86.1502267,21.8760905 85.2352255,21.8760905 C84.1895098,21.8760905 83.3398658,21.6146615 82.6862935,21.0918037 C82.0327212,20.5035886 81.6405778,19.7193019 81.6405778,18.7389434 L81.6405778,16.1900115 C81.6405778,14.1639374 82.9477224,12.92215 85.1698682,12.92215 C87.3266568,12.92215 88.5684442,14.0985801 88.5684442,16.1900115 L88.5684442,17.758585 C88.5684442,17.9546567 88.3723725,18.1507284 88.1763008,18.1507284 L84.0587953,18.1507284 L84.0587953,18.2160856 Z M83.9934381,16.7782265 L86.4770128,16.7782265 L86.4770128,16.1246542 C86.4770128,15.3403675 86.0195122,14.8175097 85.2352255,14.8175097 C84.4509387,14.8175097 83.9934381,15.2750103 83.9934381,16.1246542 L83.9934381,16.7782265 Z M45.5633871,21.745376 L46.4783883,21.745376 C46.67446,21.745376 46.8705317,21.5493043 46.8705317,21.3532326 L46.8705317,16.5167976 C46.8705317,14.2946518 45.6941016,12.9875072 43.7333847,12.9875072 C43.1451696,12.9875072 42.4915973,13.1182217 42.0994539,13.2489361 L42.0994539,10.8307187 C42.0994539,10.3078608 41.6419533,9.85036021 41.1190955,9.85036021 L40.2040943,9.85036021 C40.0080226,9.85036021 39.8119509,10.0464319 39.8119509,10.2425036 L39.8119509,21.3532326 C39.8119509,21.5493043 40.0080226,21.745376 40.2040943,21.745376 L41.7073106,21.745376 C41.9033823,21.745376 42.0994539,21.5493043 42.0994539,21.3532326 L42.0994539,15.209653 C42.4262401,15.0789386 42.8837407,15.0135813 43.2105268,15.0135813 C44.1908853,15.0135813 44.5830287,15.471082 44.5830287,16.5821549 L44.5830287,20.8303748 C44.6483859,21.2878754 45.0405293,21.745376 45.5633871,21.745376 L45.5633871,21.745376 Z M55.4323288,16.2553687 L55.4323288,18.6735862 C55.4323288,20.6996603 54.059827,21.9414477 51.7723239,21.9414477 C49.5501781,21.9414477 48.1123191,20.6996603 48.1123191,18.6735862 L48.1123191,16.2553687 C48.1123191,14.2292946 49.4848209,12.9875072 51.7723239,12.9875072 C54.059827,12.9875072 55.4323288,14.2292946 55.4323288,16.2553687 L55.4323288,16.2553687 Z M53.1448257,16.2553687 C53.1448257,15.471082 52.6873251,14.9482241 51.8376812,14.9482241 C50.9880372,14.9482241 50.5305366,15.4057247 50.5305366,16.2553687 L50.5305366,18.6735862 C50.5305366,19.457873 50.9880372,19.9153736 51.8376812,19.9153736 C52.6873251,19.9153736 53.1448257,19.457873 53.1448257,18.6735862 L53.1448257,16.2553687 Z M38.5701635,15.1442958 C38.5701635,17.2357272 37.00159,18.6735862 34.9101587,18.6735862 C34.3873009,18.6735862 33.9298003,18.608229 33.4722996,18.4121573 L33.4722996,21.3532326 C33.4722996,21.5493043 33.276228,21.745376 33.0801563,21.745376 L31.57694,21.745376 C31.3808683,21.745376 31.1847966,21.5493043 31.1847966,21.3532326 L31.1847966,10.9614331 C31.1847966,10.7000042 31.3808683,10.5039325 31.57694,10.4385753 C32.5572984,10.1117891 33.5376569,9.91571744 34.5833725,9.91571744 C36.9362328,9.91571744 38.5701635,11.3535765 38.5701635,13.5757223 L38.5701635,15.1442958 Z M36.2173033,13.4450078 C36.2173033,12.3992922 35.4983738,11.8764343 34.5180153,11.8764343 C33.9298003,11.8764343 33.5376569,12.072506 33.5376569,12.072506 L33.5376569,16.3860832 C33.9298003,16.5821549 34.1258719,16.6475121 34.5833725,16.6475121 C35.563731,16.6475121 36.2826605,16.059297 36.2826605,15.0789386 L36.2826605,13.4450078 L36.2173033,13.4450078 Z M80.7909338,15.1442958 C80.7909338,17.2357272 79.2223603,18.6735862 77.130929,18.6735862 C76.6080712,18.6735862 76.1505705,18.608229 75.6930699,18.4121573 L75.6930699,21.3532326 C75.6930699,21.5493043 75.4969983,21.745376 75.3009266,21.745376 L73.7977103,21.745376 C73.6016386,21.745376 73.4055669,21.5493043 73.4055669,21.3532326 L73.4055669,10.9614331 C73.4055669,10.7000042 73.6016386,10.5039325 73.7977103,10.4385753 C74.7780687,10.1117891 75.7584272,9.91571744 76.8041428,9.91571744 C79.1570031,9.91571744 80.7909338,11.3535765 80.7909338,13.5757223 L80.7909338,15.1442958 Z M78.4380736,13.4450078 C78.4380736,12.3992922 77.7191441,11.8764343 76.7387856,11.8764343 C76.1505705,11.8764343 75.7584272,12.072506 75.7584272,12.072506 L75.7584272,16.3860832 C76.1505705,16.5821549 76.3466422,16.6475121 76.8041428,16.6475121 C77.7845013,16.6475121 78.5034308,16.059297 78.5034308,15.0789386 L78.5034308,13.4450078 L78.4380736,13.4450078 Z" id="path32"></path>
                        </g>
                        <path d="M19.4367039,11.0739383 C19.4367039,10.6164377 19.0445605,10.2242943 18.5870599,10.2242943 L17.0184864,10.2242943 L13.4238388,6.10678882 C13.0970526,5.71464544 12.5741948,5.58393098 12.0513369,5.71464544 L10.8095496,6.10678882 C10.6134779,6.17214605 10.5481207,6.43357497 10.6788351,6.56428942 L14.6002689,10.2896515 L8.652761,10.2896515 C8.45668931,10.2896515 8.32597486,10.420366 8.32597486,10.6164377 L8.32597486,11.27001 C8.32597486,11.7275106 8.71811823,12.1196539 9.17561884,12.1196539 L10.0906201,12.1196539 L10.0906201,15.256801 C10.0906201,17.6096612 11.3324074,18.982163 13.4238388,18.982163 C14.0774111,18.982163 14.6002689,18.9168058 15.2538412,18.6553769 L15.2538412,20.7468082 C15.2538412,21.3350233 15.7113418,21.7925239 16.2995569,21.7925239 L17.2145581,21.7925239 C17.4106298,21.7925239 17.6067015,21.5964522 17.6067015,21.4003805 L17.6067015,12.0542967 L19.1099177,12.0542967 C19.3059894,12.0542967 19.4367039,11.9235822 19.4367039,11.7275106 L19.4367039,11.0739383 Z M15.2538412,16.69466 C14.8616978,16.8907317 14.33884,16.9560889 13.9466966,16.9560889 C12.9009809,16.9560889 12.3781231,16.4332311 12.3781231,15.256801 L12.3781231,12.1196539 L15.2538412,12.1196539 L15.2538412,16.69466 Z" id="path36" fill="#000000"></path>
                    </g>
                </g>
            </g>
        </g>
    </g>
</svg>