<svg width="128" height="128" viewBox="0 0 128 128" fill="none" xmlns="http://www.w3.org/2000/svg">
<path fill-rule="evenodd" clip-rule="evenodd" d="M122.305 114.597L103.807 96.1049C122.14 73.8832 120.741 41.0964 100.14 20.495C78.1466 -1.49834 42.4884 -1.49834 20.495 20.495C-1.49834 42.4884 -1.49834 78.1466 20.495 100.14C41.0944 120.739 73.8773 122.14 96.0992 103.812L114.598 122.306C119.738 127.444 127.444 119.735 122.305 114.597ZM28.2026 28.2026C45.9391 10.466 74.6958 10.466 92.4324 28.2026C110.169 45.9392 110.169 74.6958 92.4324 92.4324C74.6958 110.169 45.9391 110.169 28.2026 92.4324C10.466 74.6958 10.466 45.9392 28.2026 28.2026Z" fill="black"/>
</svg>
