<svg width="128" height="128" viewBox="0 0 128 128" fill="none" xmlns="http://www.w3.org/2000/svg">
<path fill-rule="evenodd" clip-rule="evenodd" d="M15.983 28.1497C19.1611 28.1497 22.2091 29.411 24.4567 31.6561L63.9251 71.0927L103.393 31.6561C104.499 30.5123 105.822 29.5999 107.284 28.9723C108.746 28.3446 110.319 28.0143 111.91 28.0005C113.502 27.9866 115.08 28.2896 116.553 28.8918C118.026 29.494 119.364 30.3832 120.49 31.5077C121.615 32.6321 122.505 33.9692 123.107 35.441C123.71 36.9128 124.013 38.4898 124 40.08C123.986 41.6701 123.655 43.2416 123.027 44.7027C122.399 46.1638 121.486 47.4853 120.341 48.59L72.3988 96.4936C70.1512 98.7388 67.1032 100 63.9251 100C60.7469 100 57.6989 98.7388 55.4513 96.4936L7.5092 48.59C5.26226 46.3442 4 43.2986 4 40.1231C4 36.9475 5.26226 33.9019 7.5092 31.6561V31.6561C9.75682 29.411 12.8048 28.1497 15.983 28.1497Z" fill="black"/>
</svg>
