<svg width="128" height="128" viewBox="0 0 128 128" fill="none" xmlns="http://www.w3.org/2000/svg">
<path fill-rule="evenodd" clip-rule="evenodd" d="M63.5402 43.0279C56.0787 43.0279 50.0299 49.0766 50.0299 56.5382C50.0299 63.9998 56.0787 70.0486 63.5402 70.0486C71.0018 70.0486 77.0505 63.9998 77.0505 56.5382C77.0505 49.0766 71.0018 43.0279 63.5402 43.0279ZM41.0229 56.5382C41.0229 44.1023 51.1043 34.021 63.5402 34.021C75.9761 34.021 86.0574 44.1023 86.0574 56.5382C86.0574 68.9741 75.9761 79.0555 63.5402 79.0555C51.1043 79.0555 41.0229 68.9741 41.0229 56.5382Z" fill="black"/>
<path fill-rule="evenodd" clip-rule="evenodd" d="M63.5402 13.0069C54.9302 13.0069 46.5136 15.56 39.3546 20.3434C32.1957 25.1268 26.6159 31.9256 23.3209 39.8802C20.0259 47.8347 19.1637 56.5876 20.8432 65.0322C22.5228 73.4766 26.6685 81.2333 32.7563 87.3215C32.7565 87.3217 32.7561 87.3214 32.7563 87.3215L58.2385 112.798C59.6459 114.204 61.5538 114.994 63.5432 114.994C65.5325 114.994 67.4405 114.204 68.8479 112.798L94.3236 87.3221C100.412 81.2337 104.557 73.4768 106.237 65.0322C107.916 56.5876 107.055 47.8347 103.76 39.8802C100.465 31.9256 94.8847 25.1268 87.7257 20.3434C80.5668 15.56 72.1501 13.0069 63.5402 13.0069ZM34.3507 12.8544C42.9908 7.08136 53.1489 4 63.5402 4C73.9315 4 84.0895 7.08136 92.7297 12.8544C101.37 18.6274 108.104 26.833 112.08 36.4333C116.058 46.0335 117.098 56.5975 115.071 66.7892C113.044 76.9809 108.04 86.3427 100.692 93.6905L75.215 119.168C72.1188 122.261 67.9198 124 63.5432 124C59.1666 124 54.9691 122.263 51.8729 119.17L26.3881 93.6913C19.0406 86.3431 14.0364 76.9809 12.0094 66.7892C9.98232 56.5975 11.0229 46.0335 14.9997 36.4333C18.9764 26.833 25.7105 18.6274 34.3507 12.8544Z" fill="black"/>
</svg>
