<svg width="128" height="128" viewBox="0 0 128 128" fill="none" xmlns="http://www.w3.org/2000/svg">
<path fill-rule="evenodd" clip-rule="evenodd" d="M20.9231 19.3846C18.8829 19.3846 16.9264 20.195 15.4838 21.6376C14.0708 23.0506 13.2643 24.9567 13.2318 26.9515C14.6564 49.7734 24.3649 71.2922 40.5364 87.4636C56.7078 103.635 78.2266 113.344 101.048 114.768C103.043 114.736 104.949 113.929 106.362 112.516C107.805 111.074 108.615 109.117 108.615 107.077V85.5863L84.3969 75.8989L77.1884 87.913C75.9526 89.9727 73.3436 90.7402 71.1893 89.6778C56.9149 82.6379 45.362 71.0851 38.3222 56.8107C37.2597 54.6564 38.0272 52.0474 40.0869 50.8116L52.1011 43.6031L42.4137 19.3846H20.9231ZM8.95665 15.1105C12.1303 11.9368 16.4348 10.1538 20.9231 10.1538H45.5385C47.4257 10.1538 49.1228 11.3028 49.8237 13.0551L62.1314 43.8243C62.9727 45.9276 62.1632 48.3306 60.2207 49.4961L48.6036 56.4664C54.1175 65.9767 62.0233 73.8825 71.5336 79.3963L78.5039 67.7792C79.6694 65.8367 82.0723 65.0272 84.1756 65.8686L114.945 78.1762C116.697 78.8771 117.846 80.5743 117.846 82.4615V107.077C117.846 111.565 116.063 115.87 112.889 119.043C109.716 122.217 105.411 124 100.923 124C100.83 124 100.736 123.997 100.643 123.992C75.5134 122.464 51.8114 111.793 34.0092 93.9908C16.207 76.1886 5.53565 52.4866 4.0085 27.3569C4.00283 27.2637 4 27.1703 4 27.0769C4 22.5886 5.78296 18.2842 8.95665 15.1105Z" fill="black"/>
<path fill-rule="evenodd" clip-rule="evenodd" d="M77.8462 33.2311C77.8462 30.6821 79.9126 28.6157 82.4616 28.6157C86.9499 28.6157 91.2543 30.3986 94.428 33.5723C97.6017 36.746 99.3847 41.0505 99.3847 45.5388C99.3847 48.0878 97.3183 50.1541 94.7693 50.1541C92.2203 50.1541 90.1539 48.0878 90.1539 45.5388C90.1539 43.4986 89.3434 41.5421 87.9009 40.0995C86.4583 38.6569 84.5017 37.8464 82.4616 37.8464C79.9126 37.8464 77.8462 35.7801 77.8462 33.2311Z" fill="black"/>
<path fill-rule="evenodd" clip-rule="evenodd" d="M77.8462 8.61538C77.8462 6.06638 79.9126 4 82.4616 4C93.4783 4 104.044 8.37636 111.834 16.1663C119.624 23.9563 124 34.5218 124 45.5385C124 48.0875 121.934 50.1538 119.385 50.1538C116.836 50.1538 114.769 48.0875 114.769 45.5385C114.769 36.9699 111.365 28.7523 105.307 22.6935C99.2477 16.6346 91.0301 13.2308 82.4616 13.2308C79.9126 13.2308 77.8462 11.1644 77.8462 8.61538Z" fill="black"/>
</svg>
