<svg width="128" height="128" viewBox="0 0 128 128" fill="none" xmlns="http://www.w3.org/2000/svg">
<path fill-rule="evenodd" clip-rule="evenodd" d="M20.9234 25.2307C16.6751 25.2307 13.2312 28.6746 13.2312 32.9229V94.4609C13.2312 98.7092 16.6751 102.153 20.9234 102.153H107.077C111.325 102.153 114.769 98.7092 114.769 94.4609V32.9229C114.769 28.6746 111.325 25.2307 107.077 25.2307H20.9234ZM4.00049 32.9229C4.00049 23.5767 11.5772 16 20.9234 16H107.077C116.423 16 124 23.5767 124 32.9229V94.4609C124 103.807 116.423 111.384 107.077 111.384H20.9234C11.5772 111.384 4.00049 103.807 4.00049 94.4609V32.9229Z" fill="black"/>
<path fill-rule="evenodd" clip-rule="evenodd" d="M4.77564 30.3624C6.18956 28.2415 9.05509 27.6684 11.176 29.0823L64 64.2983L116.824 29.0823C118.945 27.6684 121.81 28.2415 123.224 30.3624C124.638 32.4833 124.065 35.3488 121.944 36.7627L66.5601 73.6855C65.0098 74.719 62.9902 74.719 61.4399 73.6855L6.0557 36.7627C3.93482 35.3488 3.36171 32.4833 4.77564 30.3624Z" fill="black"/>
</svg>
