<svg width="128" height="128" viewBox="0 0 128 128" fill="none" xmlns="http://www.w3.org/2000/svg">
<path d="M64 119.394L57.3498 113.483C46.8079 103.828 38.1133 95.5025 31.266 88.5074C24.4187 81.5123 18.9754 75.2562 14.936 69.7389C10.8966 64.2217 8.06404 59.2217 6.43842 54.7389C4.81281 50.2562 4 45.6995 4 41.069C4 31.9064 7.05419 24.2709 13.1626 18.1626C19.2709 12.0542 26.8571 9 35.9212 9C41.5369 9 46.7094 10.2808 51.4384 12.8424C56.1675 15.4039 60.3547 19.1478 64 24.0739C68.1379 18.8522 72.5222 15.0345 77.1527 12.6207C81.7833 10.2069 86.7586 9 92.0788 9C101.143 9 108.729 12.0542 114.837 18.1626C120.946 24.2709 124 31.9064 124 41.069C124 45.6995 123.187 50.2562 121.562 54.7389C119.936 59.2217 117.103 64.2217 113.064 69.7389C109.025 75.2562 103.581 81.5123 96.734 88.5074C89.8867 95.5025 81.1921 103.828 70.6502 113.483L64 119.394Z" fill="black"/>
</svg>
