<svg width="128" height="128" viewBox="0 0 128 128" fill="none" xmlns="http://www.w3.org/2000/svg">
<path fill-rule="evenodd" clip-rule="evenodd" d="M113.453 16H14.5467C8.7372 16 4 20.6769 4 26.8149V101.047C4 107.151 8.71646 112.923 14.5467 112.923H113.453C119.245 112.923 124 107.193 124 101.047V26.8149C124 20.6983 119.284 16 113.453 16ZM111.996 23.0989L64.2209 74.4881L16.0369 23.0989H111.996ZM11.0311 99.4912V28.3157L44.8936 63.7588L11.0311 99.4912ZM16.0027 104.747L49.8869 68.981L61.76 81.3995C63.1341 82.8467 65.3513 82.8467 66.7202 81.392L78.2966 69.1695L111.996 104.747H16.0027ZM117.678 99.4912L83.2692 64.2794L117.678 28.35V99.4912Z" fill="#333333"/>
</svg>
