<svg width="128" height="128" viewBox="0 0 128 128" fill="none" xmlns="http://www.w3.org/2000/svg">
<path d="M117.729 84.0173C109.893 84.0173 102.198 82.7917 94.9063 80.382C91.3333 79.1633 86.941 80.2813 84.7603 82.521L70.368 93.3857C53.677 84.476 43.3957 74.198 34.6077 57.6323L45.1527 43.615C47.8923 40.879 48.875 36.8823 47.6977 33.1323C45.2777 25.8023 44.0483 18.1113 44.0483 10.2713C44.0487 4.60767 39.441 0 33.7777 0H10.271C4.60767 0 0 4.60767 0 10.271C0 75.1877 52.8127 128 117.729 128C123.393 128 128 123.392 128 117.729V94.288C128 88.625 123.392 84.0173 117.729 84.0173Z" fill="black"/>
</svg>
