<svg width="169" height="128" viewBox="0 0 169 128" fill="none" xmlns="http://www.w3.org/2000/svg">
<path d="M153.272 0H14.7692C12.4958 0 10.3674 0.558934 8.44177 1.48021L83.6923 76.7308L100.558 60.5217C100.558 60.5217 100.56 60.52 100.56 60.5194C100.56 60.5187 100.562 60.5181 100.562 60.5181L159.602 1.48152C157.676 0.55959 155.546 0 153.272 0Z" fill="black"/>
<path d="M166.563 8.44406L111.003 64.0007L166.561 119.558C167.482 117.633 168.041 115.504 168.041 113.231V14.7692C168.041 12.4971 167.483 10.369 166.563 8.44406Z" fill="black"/>
<path d="M1.48021 8.44176C0.558933 10.3673 0 12.4958 0 14.7692V113.231C0 115.503 0.558277 117.632 1.47889 119.557L57.0384 64L1.48021 8.44176Z" fill="black"/>
<path d="M104.042 70.9622L87.1732 87.1732C86.2116 88.1349 84.9519 88.6157 83.6926 88.6157C82.4333 88.6157 81.1733 88.1349 80.212 87.1732L64 70.9616L8.43945 126.518C10.3654 127.44 12.4951 128 14.7692 128H153.272C155.545 128 157.674 127.441 159.599 126.52L104.042 70.9622Z" fill="black"/>
</svg>
