<?xml version="1.0" encoding="UTF-8"?>
<svg width="700px" height="500px" viewBox="0 0 700 500" version="1.1" xmlns="http://www.w3.org/2000/svg" xmlns:xlink="http://www.w3.org/1999/xlink">
    <title>app-ui-design</title>
    <g id="Page-1" stroke="none" stroke-width="1" fill="none" fill-rule="evenodd">
        <g id="app-ui-design">
            <rect id="Rectangle" fill="#090909" x="0" y="0" width="700" height="500"></rect>
            <g id="undraw_Mobile_application_mr4r" transform="translate(100.000000, 85.000000)" fill-rule="nonzero">
                <path d="M365.340909,330.312818 C351.524148,328.149811 338.239511,326.310006 325.487,324.793403 L330.397727,314.971909 C328.693182,314.403727 321.306818,320.085545 321.306818,320.085545 L327.556818,291.676455 C319.034091,292.812818 315.056818,321.790091 315.056818,321.790091 L305.397727,312.131 L310.152472,323.066869 C271.129017,318.966489 237.455437,317.686864 209.14917,317.980352 L213.352273,309.574182 C211.647727,309.006 204.261364,314.687818 204.261364,314.687818 L210.511364,286.278727 C201.988636,287.415091 198.011364,316.392364 198.011364,316.392364 L188.352273,306.733273 L193.388295,318.316148 C173.998704,318.879521 154.6508,320.437605 135.42092,322.98425 C139.614972,309.918466 154.261364,297.358261 154.261364,297.358261 C142.999682,300.861886 137.14083,306.569852 134.108352,311.860875 C133.494946,285.017811 137.624452,258.277172 146.306818,232.869636 C146.306818,232.869636 123.579545,284.006 126.988636,318.096909 L127.421187,324.152636 C107.648812,327.237165 97.7272727,330.312818 97.7272727,330.312818 L365.340909,330.312818 Z" id="Path" fill="#3F3D56"></path>
                <path d="M417.427477,259.935386 C413.661899,259.935386 410.609295,256.882782 410.609295,253.117205 C410.609295,249.351627 413.661899,246.299023 417.427477,246.299023 C421.193055,246.299023 424.245659,249.351627 424.245659,253.117205 C424.241354,256.880998 421.19127,259.931081 417.427477,259.935386 L417.427477,259.935386 Z M417.427477,247.435386 C414.289496,247.435386 411.745659,249.979223 411.745659,253.117205 C411.745659,256.255186 414.289496,258.799023 417.427477,258.799023 C420.565459,258.799023 423.109295,256.255186 423.109295,253.117205 C423.105807,249.980669 420.564013,247.438875 417.427477,247.435386 Z" id="Shape" fill="#3F3D56"></path>
                <path d="M471.875,329.418267 L460.658438,329.418267 L460.658438,318.201705 L471.875,318.201705 L471.875,329.418267 Z M461.52125,328.555455 L471.012188,328.555455 L471.012188,319.064545 L461.52125,319.064545 L461.52125,328.555455 Z" id="Shape" fill="#3F3D56"></path>
                <path d="M92.1271989,330.031977 L84.4765739,321.829585 L92.6789773,314.178937 L100.329597,322.38133 L92.1271989,330.031977 Z M85.6960227,321.872 L92.169625,328.812489 L99.110108,322.338886 L92.6365227,315.398398 L85.6960227,321.872 Z" id="Shape" fill="#3F3D56"></path>
                <rect id="Rectangle" fill="#3F3D56" x="12.3138409" y="328.784983" width="487.402068" height="1.13636364"></rect>
                <path d="M314.474432,76.0000057 L314.474432,113.318187 C314.472515,114.03599 313.891098,114.617407 313.173295,114.619324 L312.247222,114.619324 L312.247222,309.022733 C312.246594,320.225083 303.165441,329.306824 291.963091,329.306824 L170.491528,329.306824 C165.112529,329.306824 159.95407,327.168899 156.151073,323.364843 C152.348076,319.560787 150.2121,314.401732 150.213085,309.022733 L150.213085,121.437506 L149.542631,121.437506 C149.03618,121.438263 148.624555,121.029178 148.622176,120.522733 L148.622176,99.2840966 C148.622132,99.0399635 148.719095,98.8058169 148.891723,98.6331887 C149.064351,98.4605605 149.298498,98.3635983 149.542631,98.363642 L150.213085,98.363642 L150.213085,90.363642 L149.536932,90.363642 C149.005249,90.3615967 148.576736,89.929419 148.576736,89.397733 L148.576736,68.4488693 C148.576736,67.9191235 149.007186,67.4900098 149.536932,67.488642 L150.213068,67.488642 L150.213068,56.5681875 L149.525568,56.5681875 C149.299439,56.5684896 149.082484,56.4787939 148.922587,56.3188962 C148.762689,56.1589985 148.672993,55.942044 148.673295,55.7159148 L148.673295,44.2840966 C148.672229,43.8120366 149.053512,43.4282119 149.525568,43.426142 L150.213068,43.426142 L150.213068,20.2784148 C150.213495,9.07912213 159.292219,5.68181814e-06 170.491511,5.68181814e-06 L291.963068,5.68181814e-06 C303.163471,5.68181814e-06 312.24409,9.07801242 312.247199,20.2784148 L312.247199,74.6988693 L313.173295,74.6988693 C313.891104,74.7007707 314.47253,75.282197 314.474432,76.0000057 Z" id="Path" fill="#3F3D56"></path>
                <rect id="Rectangle" fill="#E6E8EC" x="215.896955" y="10.4015909" width="22.6269489" height="4.59455682" rx="1.44425568"></rect>
                <circle id="Oval" fill="#E6E8EC" cx="244.55117" cy="12.6988636" r="2.60605114"></circle>
                <path d="M302.534097,24.2900682 L302.534097,310.704841 C302.537778,314.474031 300.883814,318.054156 298.011364,320.494614 C295.683138,322.479037 292.723951,323.568492 289.664773,323.568492 L173.386364,323.568492 C171.317477,323.571639 169.278494,323.074564 167.443182,322.119614 C167.012012,321.898814 166.594584,321.652152 166.193182,321.380977 C162.644482,318.986699 160.517045,314.985709 160.517045,310.704841 L160.517045,24.2900682 C160.517045,20.8768666 161.872717,17.6034176 164.286215,15.1899196 C166.699713,12.7764216 169.973162,11.4207493 173.386364,11.4207493 L190.789773,11.4207493 L190.789773,13.6537045 C190.78982,19.5060206 195.534048,24.2502484 201.386364,24.2502955 L260.522727,24.2502955 C266.375051,24.2502672 271.11929,19.5060284 271.119318,13.6537045 L271.119318,11.4207493 L289.664773,11.4207493 C293.078268,11.4207493 296.352274,12.7751546 298.76598,15.1888605 C301.179686,17.6025664 302.534097,20.8765727 302.534097,24.2900682 Z" id="Path" fill="#57A386"></path>
                <path d="M302.534097,269.704841 L302.534097,310.704841 C302.537778,314.474031 300.883814,318.054156 298.011364,320.494614 C295.683138,322.479037 292.723951,323.568492 289.664773,323.568492 L173.386364,323.568492 C171.317477,323.571639 169.278494,323.074564 167.443182,322.119614 C167.012012,321.898814 166.594584,321.652152 166.193182,321.380977 C162.644482,318.986699 160.517045,314.985709 160.517045,310.704841 L160.517045,269.721886 C200.896114,233.425399 262.14631,233.418047 302.534097,269.704841 Z" id="Path" fill="#FFFFFF" opacity="0.3"></path>
                <path d="M295.619318,322.108273 C293.783033,323.072748 291.738929,323.574021 289.664773,323.568545 L173.386364,323.568545 C171.317477,323.571662 169.278494,323.074587 167.443182,322.119636 C178.207535,296.231007 203.49012,279.360756 231.527459,279.35827 C259.564799,279.355784 284.850375,296.221553 295.619318,322.108273 L295.619318,322.108273 Z" id="Path" fill="#FFFFFF" opacity="0.3"></path>
                <path d="M270.3125,322.795517 C269.201321,323.379144 267.964387,323.682477 266.709267,323.679164 L196.346347,323.679164 C195.094415,323.681044 193.860581,323.380246 192.749994,322.802375 C199.263776,307.136542 214.562886,296.927952 231.52896,296.926452 C248.495033,296.924952 263.795948,307.130837 270.3125,322.795517 L270.3125,322.795517 Z" id="Path" fill="#FFFFFF" opacity="0.3"></path>
                <path d="M261.105625,122.301409 C249.441528,122.301409 236.64079,120.080284 226.64767,112.585443 C212.734432,102.150648 195.592705,102.707455 183.66283,105.012642 C175.738505,106.556626 168.047033,109.118578 160.779642,112.634801 L160.254182,111.627165 C167.610308,108.065208 175.39592,105.468855 183.41758,103.902614 C195.581886,101.548318 213.074841,100.985688 227.329602,111.676551 C254.033869,131.704682 301.851028,113.716511 302.330432,113.533131 L302.737705,114.594028 C293.770738,117.790197 284.496508,120.047904 275.063807,121.330926 C270.437592,121.962071 265.77467,122.286275 261.105625,122.301409 Z" id="Path" fill="#FFFFFF"></path>
                <path d="M160.511364,112.131 C160.511364,112.131 199.715909,102.635381 226.988636,115.636585 C254.261364,128.63779 302.556818,115.540091 302.556818,115.540091" id="Path" fill="#FFFFFF" opacity="0.3"></path>
                <path d="M197.523358,126.88154 C192.78741,126.860304 188.064216,126.388673 183.41758,125.473017 C175.39592,123.906771 167.610308,121.310414 160.254182,117.748455 L160.779642,116.740818 C168.047032,120.257044 175.738505,122.818996 183.66283,124.362977 C195.592153,126.667886 212.734153,127.224972 226.64767,116.790182 C240.889949,106.108472 260.83929,106.138437 275.063807,108.044676 C284.496507,109.327698 293.770737,111.585403 302.737705,114.781568 L302.330432,115.842472 C301.850477,115.658534 254.034409,97.6700852 227.329602,117.699051 C217.981818,124.710074 207.240432,126.88154 197.523358,126.88154 Z" id="Path" fill="#FFFFFF" opacity="0.3"></path>
                <path d="M197.716477,122.306125 C178.037909,122.306125 160.56271,115.246295 160.300568,115.138375 L160.733364,114.08746 C161.122324,114.247818 199.988119,129.939403 226.699324,114.124085 C253.872455,98.0332727 302.21396,112.396244 302.698915,112.543273 L302.369324,113.630807 C301.889369,113.485432 254.021159,99.2664602 227.278051,115.101756 C218.15158,120.505841 207.652699,122.306125 197.716477,122.306125 Z" id="Path" fill="#FFFFFF" opacity="0.3"></path>
                <path d="M160.517045,113.739051 C160.517045,113.739051 199.715909,126.740256 226.988636,113.739051 C254.261364,100.737847 302.534091,112.510591 302.534091,112.510591" id="Path" fill="#FFFFFF" opacity="0.3"></path>
                <path d="M312.652915,148.52271 L312.652915,165.08679 C312.652915,165.08679 313.978045,183.638568 321.266239,192.914455 C321.266239,192.914455 333.192375,209.809818 334.84879,206.165722 L332.808761,194.168438 L325.904187,187.613949 L322.260085,167.074483 L321.266239,148.52271 L312.652915,148.52271 Z" id="Path" fill="#FFB8B8"></path>
                <polygon id="Path" fill="#FFB8B8" points="385.865909 298.261932 385.865909 310.519318 375.927841 314.163636 375.927841 299.918182"></polygon>
                <polygon id="Path" fill="#FFB8B8" points="365.657955 296.936932 372.283523 311.844318 363.007955 315.819886 361.019886 301.24375"></polygon>
                <path d="M382.222074,182.644722 C382.222074,182.644722 395.473341,302.237409 390.504114,302.568693 C385.534886,302.899977 375.927722,309.19433 375.927722,304.887665 C375.927722,300.581 368.308239,244.594398 368.308239,244.594398 L361.020045,215.772886 L361.020045,255.526693 L368.639523,300.581006 C368.639523,300.581006 361.351324,310.18817 356.050818,304.556386 L344.787239,260.49592 C344.787239,260.49592 329.879545,193.577017 330.542131,188.276511 C330.542131,188.276511 364.664142,159.123722 382.222074,182.644722 Z" id="Path" fill="#2F2E41"></path>
                <path d="M379.571818,311.182017 C379.571818,311.182017 382.222074,305.550199 388.185142,309.19433 L393.154369,315.157398 C393.154369,315.157398 405.965909,325.767364 396.875,328.040091 C387.504938,330.382608 381.89079,327.890511 381.89079,327.890511 C381.89079,327.890511 380.234381,326.89667 378.909256,326.89667 C377.584131,326.89667 374.602591,324.577699 374.602591,323.915131 C374.602591,323.252563 375.596438,311.513301 375.596438,311.513301 C376.36445,311.139174 377.282871,311.270376 377.915409,311.84458 C378.909256,312.838426 379.571818,311.182017 379.571818,311.182017 Z" id="Path" fill="#2F2E41"></path>
                <path d="M360.026199,309.19433 C360.026199,309.19433 366.320551,304.225102 369.302085,309.856892 C369.302085,309.856892 371.179358,310.519455 371.400205,309.856892 C371.621051,309.19433 373.277477,308.863045 373.277477,312.507142 C373.277477,316.151239 375.076403,325.240261 373.419994,325.57154 C371.763585,325.902818 370.107182,326.89667 370.43846,328.221795 C370.769739,329.54692 368.639534,329.73379 361.020057,329.402511 C353.40058,329.071233 353.069295,326.089693 353.069295,326.089693 C353.069295,326.089693 353.069295,321.783034 355.056983,319.464063 C357.04467,317.145091 360.026199,309.19433 360.026199,309.19433 Z" id="Path" fill="#2F2E41"></path>
                <path d="M347.768778,92.2048182 C347.768778,92.2048182 346.112369,104.462244 356.713381,108.768903 C367.314392,113.075562 333.192358,127.320682 329.879562,119.038636 C326.566767,110.756591 330.542131,108.106341 330.542131,108.106341 C330.542131,108.106341 333.854943,104.793523 330.873409,95.8489205 L347.768778,92.2048182 Z" id="Path" fill="#FFB8B8"></path>
                <circle id="Oval" fill="#FFB8B8" cx="337.167761" cy="86.24175" r="14.576392"></circle>
                <path d="M354.063131,112.744284 C354.063131,112.744284 344.124676,118.04479 334.517511,114.069415 C324.910347,110.09404 325.241619,127.320682 325.241619,127.320682 L330.210847,140.240665 L364.664142,136.927847 L362.34517,117.050949 L354.063131,112.744284 Z" id="Path" fill="#F2F2F2"></path>
                <path d="M349.125392,101.408864 C352.699923,102.167298 355.735746,104.509762 357.37596,107.775063 L373.277483,112.744284 L377.252864,118.376074 L372.61492,159.123722 C372.61492,159.123722 381.228244,167.405761 381.228244,172.04371 C381.228244,176.681659 391.829256,192.58317 386.52875,190.595483 C381.228244,188.607795 371.621074,181.650875 371.621074,181.650875 C371.621074,181.650875 347.437511,182.644722 339.818034,189.270358 C332.198557,195.895994 329.217017,193.908301 329.217017,193.908301 C329.217017,193.908301 321.266256,159.455006 320.934977,154.154494 C320.603699,148.853983 311.327807,117.050949 311.327807,117.050949 L327.891892,107.775063 L332.110858,102.98808 L343.793415,121.688892 L354.394409,108.768909 C354.394409,108.768909 349.156875,104.649835 349.125392,101.408864 Z" id="Path" fill="#3F3D56"></path>
                <path d="M382.222074,143.884761 L384.209761,154.485778 C384.209761,154.485778 393.154369,187.613949 391.829239,198.877523 C391.829239,198.877523 392.823085,224.054932 387.191295,221.073398 C381.559506,218.091864 384.541045,199.871369 384.541045,199.871369 L376.590284,167.074483 L372.283619,147.860142 L382.222074,143.884761 Z" id="Path" fill="#FFB8B8"></path>
                <path d="M373.940028,116.388386 L377.252847,118.376074 C377.252847,118.376074 389.841551,144.54733 386.860017,146.535017 C383.878483,148.522705 370.958523,152.829369 370.958523,152.829369 L373.940028,116.388386 Z" id="Path" fill="#3F3D56"></path>
                <polygon id="Path" fill="#3F3D56" points="319.278409 117.051136 311.493182 116.885227 309.671591 120.032386 311.990341 152.167045 323.916477 154.817045"></polygon>
                <path d="M349.037545,73.9138977 L351.664869,72.9585057 C351.664869,72.9585057 346.171403,67.4650341 338.52825,67.94275 L340.677932,65.7931023 C340.677932,65.7931023 335.423284,63.8823523 330.646352,68.898108 C328.135216,71.5347841 325.22979,74.6340511 323.418563,78.1253466 L320.604881,78.1253466 L321.779205,80.474 L317.669068,82.8226477 L321.887722,82.4007727 C321.488086,84.4284625 321.625642,86.5254094 322.286739,88.483517 L323.242097,91.1107898 C323.242097,91.1107898 327.063687,83.4677102 327.063687,82.5123182 L327.063687,84.9007841 C327.063687,84.9007841 329.691011,82.7511705 329.691011,81.3181023 L331.124085,82.9900284 L331.840619,80.3627045 L340.677949,82.9900284 L339.244875,80.8404205 L344.738347,81.5569602 L342.588665,78.9296364 C342.588665,78.9296364 348.79867,82.0346364 349.037562,84.6619602 C349.276455,87.2892841 350.915972,90.7140341 350.915972,90.7140341 L352.903659,88.3950625 C352.903659,88.3950625 355.964091,77.4965795 349.037545,73.9138977 Z" id="Path" fill="#2F2E41"></path>
                <ellipse id="Oval" fill="#FFB8B8" cx="349.425187" cy="86.407392" rx="1.15948864" ry="2.98153409"></ellipse>
                <path d="M23.6556818,310.804761 C30.7172841,323.900784 45.7045455,329.522665 45.7045455,329.522665 C45.7045455,329.522665 49.2426818,313.911625 42.1810795,300.815574 C35.1194773,287.719523 20.1322159,282.097676 20.1322159,282.097676 C20.1322159,282.097676 16.5940852,297.708716 23.6556818,310.804761 Z" id="Path" fill="#3F3D56"></path>
                <path d="M28.509392,306.496256 C41.2584886,314.166534 46.1685739,329.401824 46.1685739,329.401824 C46.1685739,329.401824 30.4082784,332.201136 17.6591818,324.530852 C4.91008523,316.860568 0,301.625284 0,301.625284 C0,301.625284 15.7602898,298.825977 28.509392,306.496256 Z" id="Path" fill="#57A386"></path>
                <path d="M160.517045,112.131 C160.517045,112.131 199.715909,91.6764545 226.988636,112.131 C254.261364,132.585545 302.534091,114.06371 302.534091,114.06371" id="Path" fill="#FFFFFF" opacity="0.3"></path>
                <circle id="Oval" fill="#FFFFFF" cx="231.676136" cy="314.020045" r="6.25"></circle>
            </g>
        </g>
    </g>
</svg>