<?xml version="1.0" encoding="UTF-8"?>
<svg width="446px" height="445px" viewBox="0 0 446 445" version="1.1" xmlns="http://www.w3.org/2000/svg" xmlns:xlink="http://www.w3.org/1999/xlink">
    <title>character-img01</title>
    <defs>
        <polygon id="path-1" points="5.41463415 17 6.58536585 10.3728814 11.7317073 10.3728814 10.5609756 17 15.9756098 17 19 0 13.5853659 0 12.4878049 6.12288136 7.34146341 6.12288136 8.43902439 0 3.02439024 0 0 17"></polygon>
        <ellipse id="path-3" cx="17.0811258" cy="16.8759124" rx="17.0811258" ry="16.8759124"></ellipse>
    </defs>
    <g id="Page-1" stroke="none" stroke-width="1" fill="none" fill-rule="evenodd">
        <g id="character-img01">
            <g id="freepik--Floor--inject-2" transform="translate(0.000000, 188.000000)" fill="#11141B" fill-rule="nonzero">
                <ellipse id="Oval" cx="223" cy="128.49" rx="222.5" ry="128.46"></ellipse>
            </g>
            <g id="freepik--Shadows--inject-2" transform="translate(43.000000, 249.000000)" fill-rule="nonzero">
                <ellipse id="Oval" fill="#E6E6E6" cx="25.58" cy="78.76" rx="24.63" ry="14.22"></ellipse>
                <path d="M215.26,2.53 L53.38,96 C52.1067367,96.7044754 51.3164917,98.044842 51.3164917,99.5 C51.3164917,100.955158 52.1067367,102.295525 53.38,103 L148.52,157.93 C153.386879,160.739894 159.383121,160.739894 164.25,157.93 L326.13,64.47 C327.403263,63.7655246 328.193508,62.425158 328.193508,60.97 C328.193508,59.514842 327.403263,58.1744754 326.13,57.47 L231,2.53 C226.13058,-0.283744498 220.12942,-0.283744498 215.26,2.53 Z" id="Path" fill="#1D2332"></path>
                <path d="M166.65,3.44 L101.85,40.86 C99.1992626,42.3858694 97.5654894,45.2114569 97.5654894,48.27 C97.5654894,51.3285431 99.1992626,54.1541306 101.85,55.68 L134.48,74.52 C138.875147,77.0504139 144.284853,77.0504139 148.68,74.52 L213.49,37.1 C216.135374,35.5700746 217.764501,32.7459246 217.764501,29.69 C217.764501,26.6340754 216.135374,23.8099254 213.49,22.28 L180.85,3.44 C176.457613,0.899281722 171.042387,0.899281722 166.65,3.44 Z" id="Path" fill="#1D1B1B"></path>
            </g>
            <g id="freepik--Plant--inject-2" transform="translate(31.000000, 226.000000)" fill-rule="nonzero">
                <path d="M38.88,65 C38.88,65 23.66,50.13 32.32,25.23 C37.17,11.28 53.26,1.03 62.42,0.07 C59.3872719,3.67324652 56.9682755,7.75107989 55.26,12.14 L43.72,19.81 L54.33,16.49 L52.07,25.57 C52.07,25.57 42.21,31.57 40.75,32.83 L51.38,30 C51.38,30 50.56,55.72 38.88,65 Z" id="Path" fill="#BA68C8"></path>
                <path d="M38.88,65 C38.88,65 23.66,50.13 32.32,25.23 C37.17,11.28 53.26,1.03 62.42,0.07 C59.3872719,3.67324652 56.9682755,7.75107989 55.26,12.14 L43.72,19.81 L54.33,16.49 L52.07,25.57 C52.07,25.57 42.21,31.57 40.75,32.83 L51.38,30 C51.38,30 50.56,55.72 38.88,65 Z" id="Path" fill="#000000" opacity="0.4"></path>
                <path d="M38.88,65 C38.88,65 31,33.89 42.66,15.7499252 C42.66,15.71 29,31.72 38.88,65 Z" id="Path" fill="#FFFFFF"></path>
                <path d="M56.3,69.17 L37.67,68.93 L37.48,68.93 L18.86,69.17 C18.86,69.17 18.65,92.11 25.72,101.44 L25.72,101.44 C27.72,103.93 32.25,105.67 37.58,105.67 C42.91,105.67 47.5,103.92 49.45,101.43 C56.5,92.09 56.3,69.17 56.3,69.17 Z" id="Path" fill="#37474F"></path>
                <ellipse id="Oval" fill="#455A64" cx="37.58" cy="69.17" rx="18.72" ry="10.05"></ellipse>
                <path d="M37.58,66.5 C44.02,66.5 49.47,68.57 51.39,71.43 C51.8636318,70.7702728 52.1252258,69.982003 52.14,69.17 C52.14,65.17 45.62,61.98 37.58,61.98 C29.54,61.98 23,65.2 23,69.17 C23.0167799,69.9801012 23.2743914,70.7668605 23.74,71.43 C25.68,68.57 31.14,66.5 37.58,66.5 Z" id="Path" fill="#263238"></path>
                <ellipse id="Oval" fill="#E0E0E0" cx="37.58" cy="71.43" rx="13.81" ry="4.93"></ellipse>
                <path d="M37.81,72.67 C37.81,72.67 30.59,72.39 24.41,62.81 C21.85,58.86 20.62,56.81 20.62,56.81 L30.62,56.06 L19.36,53.25 L14.04,45.11 L23.39,44.41 C23.39,44.41 16.39,41.97 11.46,41.94 C11.46,41.94 2.83,26.71 0.31,24.54 C13.4851394,25.3493982 25.7731492,31.4519261 34.38,41.46 C48.6,58.19 39.91,73.1 37.81,72.67 Z" id="Path" fill="#BA68C8"></path>
                <path d="M37.81,72.67 C37.81,72.67 42.32,45.49 13.53,29.15 C13.53,29.15 43.41,43.5 37.81,72.67 Z" id="Path" fill="#FFFFFF"></path>
                <path d="M37.81,72.67 C37.81,72.67 44.34,73.09 50.81,65.03 C53.48,61.71 54.81,59.95 54.81,59.95 L45.81,58.33 L56.23,56.85 L61.8,50 L53.43,48.49 C53.43,48.49 59.94,46.95 64.43,47.39 C64.43,47.39 73.65,34.45 76.13,32.73 C64.1659488,32.224776 52.5058276,36.577936 43.8,44.8 C29.43,58.59 35.87,72.86 37.81,72.67 Z" id="Path" fill="#BA68C8"></path>
                <path d="M37.81,72.67 C37.81,72.67 44.34,73.09 50.81,65.03 C53.48,61.71 54.81,59.95 54.81,59.95 L45.81,58.33 L56.23,56.85 L61.8,50 L53.43,48.49 C53.43,48.49 59.94,46.95 64.43,47.39 C64.43,47.39 73.65,34.45 76.13,32.73 C64.1659488,32.224776 52.5058276,36.577936 43.8,44.8 C29.43,58.59 35.87,72.86 37.81,72.67 Z" id="Path" fill="#000000" opacity="0.2"></path>
                <path d="M37.81,72.67 C37.81,72.67 36.29,47.73 63.81,35.67 C63.81,35.69 35.5,45.83 37.81,72.67 Z" id="Path" fill="#FFFFFF"></path>
            </g>
            <g id="freepik--Pictures--inject-2" transform="translate(56.000000, 14.000000)" fill-rule="nonzero">
                <polygon id="Path" fill="#FAFAFA" points="45.91 63.4 45.91 113.08 2.88 137.92 2.88 88.24 45.91 63.4"></polygon>
                <path d="M41.25,66.09 L41.25,110.39 L2.88,132.54 L2.88,88.24 L41.25,66.09 M43.58,62.09 L0.58,86.93 L0.58,136.61 L2.91,137.96 L45.91,113.12 L45.91,63.4 L43.58,62.05 L43.58,62.09 Z" id="Shape" fill="#E0E0E0"></path>
                <path d="M43.58,67.43 L43.58,111.73 L5.21,133.88 L5.21,89.58 L43.58,67.43 M45.91,63.43 L2.91,88.27 L2.91,137.95 L45.91,113.11 L45.91,63.4 L45.91,63.43 Z" id="Shape" fill="#EBEBEB"></path>
                <polygon id="Path" fill="#E0E0E0" points="39.59 101.71 7.04 120.5 16.66 95.49 23.32 103.39 30.13 93.7"></polygon>
                <path d="M28.3,86.1 C28.180961,88.1975946 27.0659177,90.1117523 25.3,91.25 C23.66,92.19 22.3,91.43 22.3,89.53 C22.422161,87.4360067 23.5368305,85.5262063 25.3,84.39 C27,83.44 28.3,84.21 28.3,86.1 Z" id="Path" fill="#E0E0E0"></path>
                <polygon id="Path" fill="#FAFAFA" points="60.26 1.55 60.26 41.12 25.99 60.91 25.99 21.33 60.26 1.55"></polygon>
                <path d="M56.55,3.69 L56.55,39 L26,56.63 L26,21.33 L56.56,3.69 M58.42,0.47 L24.13,20.26 L24.13,59.84 L25.99,60.91 L60.26,41.12 L60.26,1.54 L58.41,0.47 L58.42,0.47 Z" id="Shape" fill="#E0E0E0"></path>
                <path d="M58.41,4.76 L58.41,40.05 L27.84,57.7 L27.84,22.4 L58.41,4.76 M60.26,1.54 L26,21.33 L26,60.91 L60.27,41.12 L60.27,1.54 L60.26,1.54 Z" id="Shape" fill="#EBEBEB"></path>
                <polygon id="Path" fill="#E0E0E0" points="55.23 32.07 29.3 47.04 36.96 27.11 42.27 33.41 47.69 25.68"></polygon>
                <path d="M46.24,19.63 C46.1510493,21.2970116 45.270152,22.8209267 43.87,23.73 C42.56,24.49 41.51,23.87 41.51,22.37 C41.5950871,20.7043744 42.4724427,19.1801549 43.87,18.27 C45.18,17.51 46.24,18.13 46.24,19.63 Z" id="Path" fill="#E0E0E0"></path>
            </g>
            <g id="freepik--Character--inject-2" transform="translate(113.000000, 74.000000)" fill-rule="nonzero">
                <path d="M76.15,170.33 L90.06,255.22 C90.2708649,256.502309 91.3804713,257.44251 92.68,257.440005 L92.68,257.440005 C93.4325991,257.43884 94.1492072,257.117732 94.6509812,256.556813 C95.1527553,255.995895 95.3923609,255.24808 95.31,254.5 L85.55,166.92 L76.15,170.33 Z" id="Path" fill="#263238"></path>
                <path d="M124.17,141.78 L138.09,226.67 C138.296384,227.950758 139.402721,228.89178 140.7,228.890003 L140.7,228.890003 C141.454548,228.890003 142.172955,228.566696 142.675079,228.003477 C143.177203,227.440259 143.415421,226.689698 143.33,225.94 L133.57,138.37 L124.17,141.78 Z" id="Path" fill="#263238"></path>
                <path d="M54.8,150.48 L41.07,223.63 C40.8802001,224.68879 39.9556433,225.457143 38.88,225.450049 C38.2313034,225.447966 37.6153453,225.164812 37.1914421,224.673775 C36.7675389,224.182737 36.5773254,223.532046 36.67,222.89 L46.81,155.09 L54.8,150.48 Z" id="Path" fill="#263238"></path>
                <path d="M103.36,123.19 L89.71,195.89 C89.5202001,196.94879 88.5956433,197.717143 87.52,197.710049 C86.8733142,197.707562 86.2592369,197.425757 85.8356996,196.93706 C85.4121624,196.448363 85.2204981,195.800467 85.31,195.16 L95.37,127.79 L103.36,123.19 Z" id="Path" fill="#263238"></path>
                <path d="M99.4,117.65 C92.9920637,114.814512 88.6033857,108.752866 87.91,101.78 C85.7,79.5 77.85,33.6 51.27,48.88 C18.45,67.74 30.2,122.51 34.97,140.07 C36.0303651,144.026215 38.0975092,147.640272 40.97,150.56 C46.9,156.56 59.17,166.82 80.05,175.56 C82.6113263,176.630115 85.459993,176.799343 88.13,176.04 C98.5,173.09 125.59,164.04 139.13,146.74 C140.725377,144.698761 140.377255,141.75311 138.35,140.14 C132.88,135.8 120.51,127.07 99.4,117.65 Z" id="Path" fill="#BA68C8"></path>
                <path d="M99.4,117.65 C92.9920637,114.814512 88.6033857,108.752866 87.91,101.78 C85.7,79.5 77.85,33.6 51.27,48.88 C18.45,67.74 30.2,122.51 34.97,140.07 C36.0303651,144.026215 38.0975092,147.640272 40.97,150.56 C46.9,156.56 59.17,166.82 80.05,175.56 C82.6113263,176.630115 85.459993,176.799343 88.13,176.04 C98.5,173.09 125.59,164.04 139.13,146.74 C140.725377,144.698761 140.377255,141.75311 138.35,140.14 C132.88,135.8 120.51,127.07 99.4,117.65 Z" id="Path" fill="#000000" opacity="0.5"></path>
                <path d="M140.11,143.61 C140.16838,144.74329 139.812998,145.859187 139.11,146.75 C138.39,147.68 137.62,148.57 136.83,149.45 L136.83,149.45 C136.39,149.93 135.95,150.4 135.49,150.86 L135.49,150.86 C135.04,151.32 134.58,151.77 134.11,152.22 L134.11,152.22 L132.69,153.54 L132.69,153.54 C132.2,153.97 131.69,154.4 131.2,154.82 L131.2,154.82 C123.53,161.25 114.2,166.15 105.93,169.68 L105.93,169.68 L104.39,170.33 L104.23,170.39 L102.81,170.97 L102.56,171.06 L101.24,171.58 L100.94,171.7 L99.71,172.16 L99.35,172.29 L98.21,172.71 L97.8,172.86 L96.75,173.23 L96.32,173.38 L95.32,173.71 L94.85,173.87 L93.97,174.16 L93.47,174.33 L92.68,174.58 L92.14,174.75 L91.46,174.97 L90.88,175.14 L90.31,175.32 L89.6,175.53 L89.24,175.63 C88.9,175.74 88.56,175.83 88.24,175.92 C85.569993,176.679343 82.7213263,176.510115 80.16,175.44 C59.28,166.69 47.01,156.44 41.08,150.44 C38.2075092,147.520272 36.1403651,143.906215 35.08,139.95 C30.31,122.39 18.56,67.62 51.38,48.76 C51.96,48.4333333 52.53,48.1333333 53.09,47.86 L53.46,47.68 C54.02,47.42 54.56,47.18 55.1,46.97 L55.26,46.91 C55.77,46.72 56.26,46.55 56.78,46.41 L57.01,46.34 C57.55,46.19 58.08,46.07 58.6,45.97 L58.74,45.97 C59.7758138,45.7847997 60.8284811,45.711046 61.88,45.75 L61.94,45.75 C62.9543267,45.7878303 63.9609388,45.9421775 64.94,46.21 L64.94,46.21 C59.7,43.9 53.3,44 46.94,47.65 C14.12,66.51 25.87,121.28 30.64,138.84 L31.45,141.84 C33.0775053,147.934784 36.6784476,153.318615 41.69,157.15 L50.21,163.66 L50.21,163.66 C59.3612045,170.636578 69.3737474,176.404126 80,180.82 C82.5682748,181.902117 85.4282506,182.078441 88.11,181.32 C98.47,178.37 125.58,169.32 139.11,152.02 C139.694437,151.283527 140.04297,150.387798 140.11,149.45 L140.11,149.45 L140.11,143.6 L140.11,143.61 Z" id="Path" fill="#BA68C8"></path>
                <path d="M140.11,143.61 C140.16838,144.74329 139.812998,145.859187 139.11,146.75 C138.39,147.68 137.62,148.57 136.83,149.45 L136.83,149.45 C136.39,149.93 135.95,150.4 135.49,150.86 L135.49,150.86 C135.04,151.32 134.58,151.77 134.11,152.22 L134.11,152.22 L132.69,153.54 L132.69,153.54 C132.2,153.97 131.69,154.4 131.2,154.82 L131.2,154.82 C123.53,161.25 114.2,166.15 105.93,169.68 L105.93,169.68 L104.39,170.33 L104.23,170.39 L102.81,170.97 L102.56,171.06 L101.24,171.58 L100.94,171.7 L99.71,172.16 L99.35,172.29 L98.21,172.71 L97.8,172.86 L96.75,173.23 L96.32,173.38 L95.32,173.71 L94.85,173.87 L93.97,174.16 L93.47,174.33 L92.68,174.58 L92.14,174.75 L91.46,174.97 L90.88,175.14 L90.31,175.32 L89.6,175.53 L89.24,175.63 C88.9,175.74 88.56,175.83 88.24,175.92 C85.569993,176.679343 82.7213263,176.510115 80.16,175.44 C59.28,166.69 47.01,156.44 41.08,150.44 C38.2075092,147.520272 36.1403651,143.906215 35.08,139.95 C30.31,122.39 18.56,67.62 51.38,48.76 C51.96,48.4333333 52.53,48.1333333 53.09,47.86 L53.46,47.68 C54.02,47.42 54.56,47.18 55.1,46.97 L55.26,46.91 C55.77,46.72 56.26,46.55 56.78,46.41 L57.01,46.34 C57.55,46.19 58.08,46.07 58.6,45.97 L58.74,45.97 C59.7758138,45.7847997 60.8284811,45.711046 61.88,45.75 L61.94,45.75 C62.9543267,45.7878303 63.9609388,45.9421775 64.94,46.21 L64.94,46.21 C59.7,43.9 53.3,44 46.94,47.65 C14.12,66.51 25.87,121.28 30.64,138.84 L31.45,141.84 C33.0775053,147.934784 36.6784476,153.318615 41.69,157.15 L50.21,163.66 L50.21,163.66 C59.3612045,170.636578 69.3737474,176.404126 80,180.82 C82.5682748,181.902117 85.4282506,182.078441 88.11,181.32 C98.47,178.37 125.58,169.32 139.11,152.02 C139.694437,151.283527 140.04297,150.387798 140.11,149.45 L140.11,149.45 L140.11,143.6 L140.11,143.61 Z" id="Path" fill="#000000" opacity="0.6"></path>
                <path d="M158.21,206.28 C155.97,191.99 153.1,169.15 151.46,155.65 C151.353333,154.763333 151.203333,153.883333 151.01,153.01 C149.265171,145.478746 144.484214,139.004005 137.8,135.12 L104.14,115.12 L81.29,103.12 C81.29,103.12 75.21,120.74 82.29,131.52 C88.17,140.52 114.13,151.6 121.85,155.35 C129.57,159.1 129.73,160.11 129.57,165.12 C129.41,170.13 129.4,176.51 138.88,196.49 C141.61,202.23 143.51,206.49 144.83,209.82 C149.561883,210.185843 154.278158,208.93804 158.21,206.28 L158.21,206.28 Z" id="Path" fill="#BA68C8"></path>
                <path d="M158.21,206.28 C155.97,191.99 153.1,169.15 151.46,155.65 C151.299317,154.323771 151.045354,153.010517 150.7,151.72 C148.731265,144.737389 144.122808,138.794811 137.85,135.15 L104.14,115.08 L81.29,103.08 C81.29,103.08 75.21,120.7 82.29,131.48 C88.17,140.48 114.13,151.56 121.85,155.31 C129.57,159.06 129.73,160.07 129.57,165.08 C129.41,170.09 129.4,176.47 138.88,196.45 C141.61,202.19 143.51,206.45 144.83,209.78 C149.557255,210.157564 154.27313,208.923964 158.21,206.28 Z" id="Path" fill="#000000" opacity="0.7"></path>
                <path d="M147.8,221.41 C147.785641,222.002772 147.927012,222.588942 148.21,223.11 C149.551774,225.377113 151.261847,227.404867 153.27,229.11 C157.81,233.2 172.84,249.21 178.12,239.27 C178.12,239.27 162.59,224.4 160.54,218.27 C159.523729,214.320268 158.745661,210.31305 158.21,206.27 C154.265108,208.911332 149.541622,210.138029 144.81,209.75 C147.72,217 147.85,219.35 147.8,221.41 Z" id="Path" fill="#FFA8A7"></path>
                <path d="M164,220.43 L163.57,219.14 C163.211599,218.157528 162.156799,217.617051 161.15,217.9 L154.86,219.84 C154.049253,220.090618 153.497323,220.841405 153.5,221.69 L153.5,222.32 C153.494512,222.940173 152.990197,223.440024 152.37,223.44 L152.37,223.44 C151.038057,223.440828 149.747432,222.977617 148.72,222.13 L147.84,221.41 L147.84,219.21 L147.84,219.21 C146.685706,219.963219 146.019131,221.273515 146.09,222.65 C146.17,224.14 146.24,225.96 146.18,226.65 C146.08,227.97 144.85,233.47 146.32,235.1 C147.79,236.73 151.09,236.92 155.17,236.48 C159.25,236.04 163.71,240.05 167.49,241.54 C171.27,243.03 186.93,246.23 186.890076,236.22 C186.890076,233.67 184.36,232.63 181.89,231.73 C179.42,230.83 170.48,227.68 168.19,225.79 C167.269721,225.024224 166.416613,224.181152 165.64,223.27 C164.910976,222.441049 164.35356,221.475768 164,220.43 L164,220.43 Z" id="Path" fill="#455A64"></path>
                <path d="M167.45,241.57 C163.67,240.08 159.21,236.07 155.13,236.51 C151.05,236.95 147.75,236.76 146.28,235.13 C145.808889,234.453093 145.563877,233.644554 145.58,232.82 C145.51,234.36 145.63,235.82 146.28,236.56 C147.75,238.19 151.05,238.38 155.13,237.94 C159.21,237.5 163.67,241.52 167.45,243 C171.23,244.48 186.89,247.69 186.850076,237.68 C186.839819,237.535467 186.819773,237.391799 186.79,237.25 C185.81,246 171.1,243 167.45,241.57 Z" id="Path" fill="#263238"></path>
                <path d="M127.64,223.62 C125.39,209.34 122.53,186.5 120.88,172.99 C120.018025,165.891072 116.511541,159.37801 111.06,154.75 L70.67,120.41 L49.08,120 C49.08,120 44.63,138 51.69,148.77 C57.58,157.77 83.53,168.86 91.25,172.6 C98.97,176.34 99.13,177.37 98.97,182.37 C98.81,187.37 98.8,193.76 108.29,213.74 C111.01,219.49 112.91,223.74 114.23,227.07 C118.961088,227.464361 123.686636,226.248616 127.64,223.62 Z" id="Path" fill="#BA68C8"></path>
                <path d="M127.64,223.62 C125.39,209.34 122.53,186.5 120.88,172.99 C120.018025,165.891072 116.511541,159.37801 111.06,154.75 L70.67,120.41 L49.08,120 C49.08,120 44.63,138 51.69,148.77 C57.58,157.77 83.53,168.86 91.25,172.6 C98.97,176.34 99.13,177.37 98.97,182.37 C98.81,187.37 98.8,193.76 108.29,213.74 C111.01,219.49 112.91,223.74 114.23,227.07 C118.961088,227.464361 123.686636,226.248616 127.64,223.62 Z" id="Path" fill="#000000" opacity="0.7"></path>
                <path d="M117.21,237.46 C117.21,238.06 116.8,239.83 117.63,240.46 C118.69,241.25 119.7,243.78 122.7,246.46 C127.23,250.55 132.02,241.74 129.96,235.63 C128.94947,231.679527 128.174769,227.672454 127.64,223.63 C123.690389,226.26916 118.964548,227.495553 114.23,227.11 C117.15,234.33 117.27,235.41 117.21,237.46 Z" id="Path" fill="#FFA8A7"></path>
                <path d="M90.52,45.52 L90.52,45.52 C96.9007125,44.5065757 103.079221,48.2534328 105.13,54.38 C106.556351,58.6640729 107.472675,63.1013629 107.86,67.6 C109.03,81.45 109.35,88.37 109.35,88.37 L123.26,94.68 C123.26,94.68 115.75,95.04 116.26,105.68 L98.93,101.31 L90.52,45.52 Z" id="Path" fill="#FFA8A7"></path>
                <path d="M109.86,80 C107.81,65 107,57.15 105.24,53.43 C102.753713,47.7058366 96.6656476,44.4343284 90.52,45.52 L95.76,86.72 L96.43,86.66 C101.07039,86.2022985 105.441393,84.2674199 108.9,81.14 L109.86,80 Z" id="Path" fill="#BA68C8"></path>
                <path d="M109.86,80 C107.81,65 107,57.15 105.24,53.43 C102.753713,47.7058366 96.6656476,44.4343284 90.52,45.52 L95.76,86.72 L96.43,86.66 C101.07039,86.2022985 105.441393,84.2674199 108.9,81.14 L109.86,80 Z" id="Path" fill="#000000" opacity="0.2"></path>
                <path d="M109.35,88.37 C107.787274,88.8503898 106.372759,89.7211251 105.24,90.9 C105.24,90.9 106.92,87.71 109.24,86.72 L109.35,88.37 Z" id="Path" fill="#F28F8F"></path>
                <path d="M57.1,57.67 L72.66,50.13 L85.48,45.7 C85.48,45.7 95.76,42.43 98.38,56.12 C100.55,67.37 100.83,110.12 100.83,110.12 L100.6,114.79 C100.6,114.79 94.67,131.41 73.48,132.79 C52.29,134.17 48.16,125.23 48.16,125.23 C48.16,125.23 46,68.66 57.1,57.67 Z" id="Path" fill="#BA68C8"></path>
                <path d="M106.13,12 C106.13,12 110.94,24.33 104.3,29.76 C97.66,35.19 100,13.33 100,13.33 L106.13,12 Z" id="Path" fill="#263238"></path>
                <path d="M147.81,82.49 L0,167.83 L0,186.32 L0,186.32 L0,276.17 L0,276.17 C0.01433139,276.897886 0.452010204,277.550496 1.12,277.84 C2.83457472,278.716069 4.86542528,278.716069 6.58,277.84 C7.24408066,277.547512 7.67743403,276.89553 7.69,276.17 L7.69,276.17 L7.69,190.77 L87.83,237 L87.83,327.73 L87.83,327.73 C87.8481943,328.454232 88.2852443,329.102002 88.95,329.39 C90.6645747,330.266069 92.6954253,330.266069 94.41,329.39 C95.0747557,329.102002 95.5118057,328.454232 95.53,327.73 L95.53,327.73 L95.53,237 L231.76,158.35 L231.76,244.35 L231.76,244.35 C231.783059,245.076129 232.228985,245.721549 232.9,246 C234.614575,246.876069 236.645425,246.876069 238.36,246 C239.026422,245.714012 239.464293,245.065024 239.48,244.34 L239.48,244.34 L239.48,135.43 L147.81,82.49 Z" id="Path" fill="#455A64"></path>
                <path d="M94.41,329.41 C92.6954253,330.286069 90.6645747,330.286069 88.95,329.41 C87.44,328.54 87.44,327.13 88.95,326.26 C90.6645747,325.383931 92.6954253,325.383931 94.41,326.26 C95.92,327.13 95.92,328.54 94.41,329.41 Z" id="Path" fill="#455A64"></path>
                <rect id="Rectangle" fill="#37474F" x="87.83" y="234.79" width="7.72" height="92.96"></rect>
                <ellipse id="Oval" fill="#455A64" cx="3.87" cy="276.27" rx="3.86" ry="2.23"></ellipse>
                <rect id="Rectangle" fill="#263238" x="0.01" y="183.23" width="7.72" height="92.96"></rect>
                <path d="M238.36,246 C236.645425,246.876069 234.614575,246.876069 232.9,246 C231.39,245.13 231.39,243.72 232.9,242.85 C234.614575,241.973931 236.645425,241.973931 238.36,242.85 C239.87,243.73 239.87,245.14 238.36,246 Z" id="Path" fill="#455A64"></path>
                <rect id="Rectangle" fill="#37474F" x="231.78" y="151.39" width="7.72" height="92.96"></rect>
                <path d="M144,175.66 C142.459899,176.440458 140.640101,176.440458 139.1,175.66 C137.75,174.88 137.75,173.66 139.1,172.84 C140.637742,172.049726 142.462258,172.049726 144,172.84 C145.31,173.62 145.31,174.88 144,175.66 Z" id="Path" fill="#455A64"></path>
                <rect id="Rectangle" fill="#455A64" x="138.05" y="96.6" width="6.93" height="77.58"></rect>
                <polygon id="Path" fill="#263238" points="0 167.83 0 186.32 91.69 239.26 91.69 220.76"></polygon>
                <polygon id="Path" fill="#37474F" points="239.5 135.43 91.69 220.76 91.69 239.26 239.5 153.92"></polygon>
                <polygon id="Path" fill="#455A64" points="147.81 82.49 0 167.83 91.69 220.76 239.5 135.43"></polygon>
                <polygon id="Path" fill="#EBEBEB" points="73.66 140.08 107.28 159.49 163.17 127.16 129.56 107.36"></polygon>
                <polygon id="Path" fill="#E0E0E0" points="103.66 134.55 116.27 127.27 108.37 122.71 95.76 129.99"></polygon>
                <polygon id="Path" fill="#E0E0E0" points="108.71 154.64 91.72 144.64 124.92 124.54"></polygon>
                <path d="M118.22,92.28 L131.67,98.59 C135.688434,99.6038061 139.650604,100.828841 143.54,102.26 C143.54,102.26 152.9,106.08 153.33,108.59 C153.76,111.1 146.33,117.15 139.76,114.21 C138.043113,113.289877 136.204999,112.616576 134.3,112.21 C132.55,112.02 127.3,111.21 123.55,107.6 L107.86,103.52 C107.86,103.52 107.08,93.84 118.22,92.28 Z" id="Path" fill="#FFA8A7"></path>
                <path d="M126.93,111 C128.48,112.67 132.93,116.88 133.93,118.1 C134.93,119.32 137.19,116.19 133.18,111.52 C129.708674,110.24884 126.443605,108.4731 123.49,106.25 C124.513511,107.918972 125.663552,109.506965 126.93,111 L126.93,111 Z" id="Path" fill="#FFA8A7"></path>
                <rect id="Rectangle" fill="#FFA8A7" x="72.66" y="30.81" width="15.96" height="19.32"></rect>
                <path d="M88.63,50.13 C82.0518866,47.6746718 76.765397,42.6338974 74,36.18 L74,30.81 L88.67,30.81 L88.63,50.13 Z" id="Path" fill="#F28F8F"></path>
                <path d="M94,5.3 C94,5.3 108.52,7.05 105.19,31.86 C103.65,43.33 100.58,49.13 91.74,48.15 C81.74,47.03 67.87,39.25 70.02,19.59 C72.17,-0.07 94,5.3 94,5.3 Z" id="Path" fill="#FFA8A7"></path>
                <polygon id="Path" fill="#F28F8F" points="94.81 27.42 94.29 35.99 99.4 34.76"></polygon>
                <path d="M87.21,26.65 C87.1667222,27.3568207 87.553685,28.020056 88.1903038,28.3301929 C88.8269226,28.6403298 89.5877017,28.5362314 90.1176071,28.0664775 C90.6475124,27.5967236 90.8420845,26.853916 90.6105221,26.1847021 C90.3789597,25.5154882 89.7669102,25.0517891 89.06,25.01 C88.0966226,24.9530498 87.268979,25.6867447 87.21,26.65 L87.21,26.65 Z" id="Path" fill="#263238"></path>
                <path d="M98.76,26.14 C98.7013287,27.1038142 99.4343972,27.9330172 100.398133,27.9929578 C101.361869,28.0528984 102.192037,27.3209226 102.253247,26.3572662 C102.314457,25.3936099 101.583575,24.5624789 100.62,24.5 C100.155648,24.4698911 99.6984248,24.6259585 99.3493956,24.9337047 C99.0003663,25.241451 98.788274,25.6755328 98.76,26.14 L98.76,26.14 Z" id="Path" fill="#263238"></path>
                <path d="M102.86,22.74 L99.57,20.5 C99.57,20.5 100.96,19.22 102.22,20.12 C102.952789,20.778044 103.206878,21.8182207 102.86,22.74 Z" id="Path" fill="#263238"></path>
                <path d="M88.42,22.35 L84.87,24.13 C84.87,24.13 84.43,22.29 85.82,21.64 C86.7500887,21.315869 87.7837408,21.5981356 88.42,22.35 L88.42,22.35 Z" id="Path" fill="#263238"></path>
                <path d="M94.54,39.47 C92.5415863,39.4895058 90.5943889,38.8380926 89.01,37.62 C89.01,37.62 88.45,40.56 90.89,41.27 C93.33,41.98 94.54,39.47 94.54,39.47 Z" id="Path" fill="#F28F8F"></path>
                <path d="M72.49,27.22 C72.49,27.22 74.72,31.87 76.1,31.71 C77.48,31.55 76.1,13.9 78.96,13.79 C81.82,13.68 95.32,20.38 107.25,11.73 C111.84,8.41 112.75,-0.07 110,0.73 C107.25,1.53 103.54,3.94 98.53,3.6 C93.52,3.26 75.98,-4.88 71.63,6.6 C71.63,6.6 61.93,5.81 65.57,25.07 C66.48,29.86 69.34,41.72 72.66,42.89 L72.49,27.22 Z" id="Path" fill="#263238"></path>
                <path d="M73.28,31.46 C73.3351326,30.0055129 73.0652509,28.5570336 72.49,27.22 C71.9016679,25.5380201 70.3762698,24.3616206 68.6,24.22 C64.12,24.1 63.51,28.42 63.6,29.95 C63.76,33.95 67.03,38.35 73.11,38.52 L73.28,31.46 Z" id="Path" fill="#FFA8A7"></path>
                <path d="M74.66,117.91 L86.1,127 C88.0560586,127.184541 89.9950799,127.518855 91.9,128 C94.09,128.65 99.83,130.76 101.35,131.09 C102.87,131.42 100.91,134.09 96.93,133.09 C96.93,133.09 105.27,138.8 105.16,141.34 C105.05,143.88 96.49,148.22 90.71,143.96 C89.2205837,142.715417 87.5687702,141.679249 85.8,140.88 C84.12,140.33 79.19,138.42 76.26,134.1 L66.26,128.89 C66.26,128.89 63.44,117.08 74.66,117.91 Z" id="Path" fill="#FFA8A7"></path>
                <path d="M62.18,55.21 C62.18,55.21 68.85,60.38 64.75,76.45 C60.65,92.52 58.46,106.37 58.46,106.37 L74.66,117.91 C70.1514527,119.884074 66.9772565,124.040759 66.26,128.91 C66.26,128.91 40.72,118.91 40.2,112.42 C39.68,105.93 45.53,78.07 46.42,72.94 C47.31,67.81 51.85,57.64 62.18,55.21 Z" id="Path" fill="#FFA8A7"></path>
                <path d="M58.46,106.37 C56.4404739,105.973974 54.3613594,105.994391 52.35,106.43 C54.2672104,105.389179 56.4186218,104.855629 58.6,104.88 L58.46,106.37 Z" id="Path" fill="#F28F8F"></path>
                <path d="M171,90.13 L165.15,128.38 C165.158433,128.402571 165.158433,128.427429 165.15,128.45 L107,162.12 C106.97056,162.134843 106.935361,162.1324 106.908254,162.113633 C106.881146,162.094867 106.86647,162.06278 106.869481,162.03 L112.54,124.93 C112.783543,123.329231 113.72008,121.91711 115.1,121.07 L168.36,88.41 C168.931169,88.035435 169.669851,88.0343294 170.242138,88.4071832 C170.814425,88.7800369 171.111863,89.4561907 171,90.13 Z" id="Path" fill="#FAFAFA"></path>
                <path d="M107,162.12 L76,144.12 C74.5458362,143.275685 73.6506592,141.721505 73.65,140.04 L73.65,140.04 L107.27,159.45 L107,162.12 Z" id="Path" fill="#E0E0E0"></path>
                <path d="M137.37,127 C137.37,129.74 139.29,130.84 141.65,129.48 C144.181475,127.832344 145.775131,125.07595 145.94,122.06 C145.94,119.32 144.02,118.22 141.65,119.58 C139.124743,121.232161 137.535785,123.98685 137.37,127 Z" id="Path" fill="#E0E0E0"></path>
                <path d="M73.17,12.21 C73.17,12.21 70.53,8.31 72.17,7.05 C73.81,5.79 75,9.8 73.17,12.21 Z" id="Path" fill="#263238"></path>
                <path d="M73.61,13 C73.61,13 68.95,12.42 69.06,10.38 C69.17,8.34 73,10.06 73.61,13 Z" id="Path" fill="#263238"></path>
                <path d="M72.66,50.13 C72.66,50.13 76.09,59.13 83.99,58.01 C91.89,56.89 88.63,50.13 88.63,50.13 L72.66,50.13 Z" id="Path" fill="#FFA8A7"></path>
                <path d="M62.18,55.21 C62.18,55.21 67.38,57.7 66.58,68.16 C65.78,78.62 61.65,99.7 61.65,99.7 C61.65,99.7 43.04,107.24 41.26,96.61 C40.81,93.86 45.5,68.43 49.51,63.05 C52.4848975,58.8154727 57.062945,55.9826477 62.18,55.21 Z" id="Path" fill="#BA68C8"></path>
                <path d="M62.18,55.21 C62.18,55.21 67.38,57.7 66.58,68.16 C65.78,78.62 61.65,99.7 61.65,99.7 C61.65,99.7 43.04,107.24 41.26,96.61 C40.81,93.86 45.5,68.43 49.51,63.05 C52.4848975,58.8154727 57.062945,55.9826477 62.18,55.21 Z" id="Path" fill="#000000" opacity="0.2"></path>
                <path d="M117.63,238 C118.328407,239.058216 119.399323,239.814997 120.63,240.12 C121.76,240.3 119.48,237.37 122.2,236.19 C124.92,235.01 131.15,233.4 131.71,235.74 L132.4,238.66 C133.050388,241.420402 134.36904,243.978725 136.24,246.11 C138.055742,248.307649 140.123228,250.284515 142.4,252 C145.96,254.29 151.81,259.84 144.3,264.57 C136.79,269.3 127.57,265.3 125.76,259.93 C123.95,254.56 122.04,253 121.08,252.11 C119.057322,250.690564 117.615503,248.588208 117.02,246.19 C116.532163,243.814005 116.198136,241.409009 116.02,238.99 C115.943336,237.994998 116.419727,237.038375 117.26,236.5 L117.26,236.5 L117.63,238 Z" id="Path" fill="#455A64"></path>
                <path d="M144.34,264.55 C136.83,269.27 127.61,265.28 125.8,259.91 C123.99,254.54 122.08,252.98 121.12,252.09 C119.424698,250.864138 118.12193,249.172277 117.37,247.22 C117.37,247.36 117.37,247.52 117.37,247.66 C117.66,252.31 120.51,253.4 121.47,254.3 C122.43,255.2 124.01,256.66 125.82,262.04 C127.63,267.42 137.15,270.76 144.65,266.04 C148.3,263.75 148.79,261.26 147.93,259.04 C148.11,260.85 147.19,262.76 144.34,264.55 Z" id="Path" fill="#263238"></path>
                <path d="M108.26,193.16 L84.34,207 L54.14,189.56 L78.14,175.72 C78.7795013,175.360073 79.5604987,175.360073 80.2,175.72 L108.29,191.94 C108.501939,192.073247 108.628041,192.30826 108.622102,192.55853 C108.615733,192.8088 108.478232,193.037331 108.26,193.16 Z" id="Path" fill="#BA68C8"></path>
                <path d="M108.26,193.16 L84.34,207 L54.14,189.56 L78.14,175.72 C78.7795013,175.360073 79.5604987,175.360073 80.2,175.72 L108.29,191.94 C108.501939,192.073247 108.628041,192.30826 108.622102,192.55853 C108.615733,192.8088 108.478232,193.037331 108.26,193.16 Z" id="Path" fill="#000000" opacity="0.7"></path>
                <path d="M106.6,192.66 L84.34,205.51 L56.23,189.29 L78.54,176.41 C79.1286579,176.06034 79.8613421,176.06034 80.45,176.41 L106.6,191.5 C106.807068,191.619746 106.93459,191.840801 106.93459,192.08 C106.93459,192.319199 106.807068,192.540254 106.6,192.66 Z" id="Path" fill="#FFFFFF"></path>
                <polygon id="Path" fill="#FFFFFF" points="84.34 205.51 84.34 203 106.94 189.96 106.94 192.09"></polygon>
                <polygon id="Path" fill="#E0E0E0" points="84.34 205.51 84.34 203 56.23 186.78 56.23 189.29"></polygon>
                <path d="M108.26,189.19 L84.34,203 L54.14,185.57 L78.14,171.73 C78.7795013,171.370073 79.5604987,171.370073 80.2,171.73 L108.26,188 C108.461232,188.131019 108.582605,188.354874 108.582605,188.595 C108.582605,188.835126 108.461232,189.058981 108.26,189.19 Z" id="Path" fill="#BA68C8"></path>
                <path d="M108.26,189.19 L84.34,203 L54.14,185.57 L78.14,171.73 C78.7795013,171.370073 79.5604987,171.370073 80.2,171.73 L108.26,188 C108.461232,188.131019 108.582605,188.354874 108.582605,188.595 C108.582605,188.835126 108.461232,189.058981 108.26,189.19 Z" id="Path" fill="#000000" opacity="0.5"></path>
                <path d="M81.21,205.17 C81.0715792,205.239553 80.9084208,205.239553 80.77,205.17 C80.5928957,205.075001 80.4817085,204.890967 80.48,204.69 L80.48,202.4 C80.4899383,201.359112 81.038736,200.397769 81.93,199.86 L82.02,199.8 C82.1041731,199.75375 82.2065789,199.755695 82.2889349,199.805109 C82.3712908,199.854522 82.4211982,199.943965 82.42,200.04 C82.42,200.299574 82.6304262,200.51 82.89,200.51 C83.1495738,200.51 83.36,200.299574 83.36,200.04 C83.3639815,199.604784 83.1300487,199.202113 82.75,198.99 C82.3779765,198.765249 81.9120235,198.765249 81.54,198.99 L81.45,199.04 C80.2671825,199.741772 79.5414417,201.014668 79.54,202.39 L79.54,204.66 C79.54,205.206695 79.839363,205.709495 80.32,205.97 C80.5353188,206.084646 80.7760815,206.143117 81.02,206.14 C81.3155061,206.141988 81.6047512,206.054866 81.85,205.89 C81.9401466,205.828634 82.0042929,205.735978 82.03,205.63 L81.21,205.17 Z" id="Path" fill="#FFFFFF"></path>
                <path d="M76.74,202.59 C76.6015792,202.659553 76.4384208,202.659553 76.3,202.59 C76.1228957,202.495001 76.0117085,202.310967 76.01,202.11 L76.01,199.84 C76.0164739,198.79554 76.5657181,197.829628 77.46,197.29 L77.55,197.29 C77.6340559,197.243741 77.7359441,197.243741 77.82,197.29 C77.900445,197.338782 77.9496973,197.42592 77.95,197.52 C77.95,197.779574 78.1604262,197.99 78.42,197.99 C78.6795738,197.99 78.89,197.779574 78.89,197.52 C78.8761594,197.102741 78.6446711,196.723252 78.28,196.52 C77.9079765,196.295249 77.4420235,196.295249 77.07,196.52 L76.98,196.57 C75.7971825,197.271772 75.0714417,198.544668 75.07,199.92 L75.07,202.19 C75.07,202.736695 75.369363,203.239495 75.85,203.5 C76.0653188,203.614646 76.3060815,203.673117 76.55,203.67 C76.8455061,203.671988 77.1347512,203.584866 77.38,203.42 C77.4701466,203.358634 77.5342929,203.265978 77.56,203.16 L76.74,202.59 Z" id="Path" fill="#FFFFFF"></path>
                <path d="M72.27,200 C72.1305591,200.065108 71.9694409,200.065108 71.83,200 C71.6528957,199.905001 71.5417085,199.720967 71.54,199.52 L71.54,197.25 C71.5464739,196.20554 72.0957181,195.239628 72.99,194.7 L73.08,194.65 C73.1640559,194.603741 73.2659441,194.603741 73.35,194.65 C73.430445,194.698782 73.4796973,194.78592 73.48,194.88 C73.48,195.139574 73.6904262,195.35 73.95,195.35 C74.2095738,195.35 74.42,195.139574 74.42,194.88 C74.4061594,194.462741 74.1746711,194.083252 73.81,193.88 C73.4379765,193.655249 72.9720235,193.655249 72.6,193.88 L72.51,193.93 C71.3271825,194.631772 70.6014417,195.904668 70.6,197.28 L70.6,199.55 C70.6,200.096695 70.899363,200.599495 71.38,200.86 C71.5953188,200.974646 71.8360815,201.033117 72.08,201.03 C72.3755061,201.031988 72.6647512,200.944866 72.91,200.78 C73.0001466,200.718634 73.0642929,200.625978 73.09,200.52 L72.27,200 Z" id="Path" fill="#FFFFFF"></path>
                <path d="M67.8,197.43 C67.6605591,197.495108 67.4994409,197.495108 67.36,197.43 C67.1828957,197.335001 67.0717085,197.150967 67.07,196.95 L67.07,194.68 C67.0764739,193.63554 67.6257181,192.669628 68.52,192.13 L68.61,192.08 C68.6940559,192.033741 68.7959441,192.033741 68.88,192.08 C68.960445,192.128782 69.0096973,192.21592 69.01,192.31 C69.01,192.569574 69.2204262,192.78 69.48,192.78 C69.7395738,192.78 69.95,192.569574 69.95,192.31 C69.9361594,191.892741 69.7046711,191.513252 69.34,191.31 C68.9679765,191.085249 68.5020235,191.085249 68.13,191.31 L68.04,191.36 C66.8571825,192.061772 66.1314417,193.334668 66.13,194.71 L66.13,196.98 C66.13,197.526695 66.429363,198.029495 66.91,198.29 C67.1253188,198.404646 67.3660815,198.463117 67.61,198.46 C67.9055061,198.461988 68.1947512,198.374866 68.44,198.21 C68.5301466,198.148634 68.5942929,198.055978 68.62,197.95 L67.8,197.43 Z" id="Path" fill="#FFFFFF"></path>
                <path d="M63.33,194.85 C63.1905591,194.915108 63.0294409,194.915108 62.89,194.85 C62.7128957,194.755001 62.6017085,194.570967 62.6,194.37 L62.6,192.1 C62.6064739,191.05554 63.1557181,190.089628 64.05,189.55 L64.14,189.55 C64.2240559,189.503741 64.3259441,189.503741 64.41,189.55 C64.490445,189.598782 64.5396973,189.68592 64.54,189.78 C64.54,190.039574 64.7504262,190.25 65.01,190.25 C65.2695738,190.25 65.48,190.039574 65.48,189.78 C65.4661594,189.362741 65.2346711,188.983252 64.87,188.78 C64.4979765,188.555249 64.0320235,188.555249 63.66,188.78 L63.57,188.83 C62.3871825,189.531772 61.6614417,190.804668 61.66,192.18 L61.66,194.45 C61.66,194.996695 61.959363,195.499495 62.44,195.76 C62.6570042,195.870153 62.8966446,195.928352 63.14,195.930033 C63.4355061,195.931988 63.7247512,195.844866 63.97,195.68 C64.0601466,195.618634 64.1242929,195.525978 64.15,195.42 L63.33,194.85 Z" id="Path" fill="#FFFFFF"></path>
                <path d="M58.86,192.27 C58.7205591,192.335108 58.5594409,192.335108 58.42,192.27 C58.2428957,192.175001 58.1317085,191.990967 58.13,191.79 L58.13,189.5 C58.1364739,188.45554 58.6857181,187.489628 59.58,186.95 L59.67,186.9 C59.7540559,186.853741 59.8559441,186.853741 59.94,186.9 C60.023613,186.945639 60.074024,187.034827 60.07,187.13 C60.07,187.389574 60.2804262,187.6 60.54,187.6 C60.7995738,187.6 61.01,187.389574 61.01,187.13 C60.9887067,186.707358 60.7499167,186.325937 60.3790352,186.122156 C60.0081537,185.918375 59.5581607,185.921344 59.19,186.13 L59.1,186.19 C57.9171825,186.891772 57.1914417,188.164668 57.19,189.54 L57.19,191.81 C57.19,192.356695 57.489363,192.859495 57.97,193.12 C58.1870042,193.230153 58.4266446,193.288352 58.67,193.290033 C58.9655061,193.291988 59.2547512,193.204866 59.5,193.04 C59.5901466,192.978634 59.6542929,192.885978 59.68,192.78 L58.86,192.27 Z" id="Path" fill="#FFFFFF"></path>
                <polygon id="Path" fill="#E6E6E6" points="111.34 182.95 85.48 197.88 51.82 178.45 77.69 163.52"></polygon>
                <polygon id="Path" fill="#FAFAFA" points="112.83 182.46 85.81 195.18 53.89 172.99 80.92 160.28"></polygon>
                <path d="M52.5,142.75 L30.55,142.75 L32.55,165.98 L32.55,165.98 C32.8135067,167.474153 33.7923425,168.744398 35.17,169.38 C39.1788386,171.419527 43.9211614,171.419527 47.93,169.38 C49.304378,168.740293 50.2816883,167.472028 50.55,165.98 L50.55,165.98 L52.5,142.75 Z" id="Path" fill="#BA68C8"></path>
                <path d="M53.9000615,141.48 L53.9000615,139.64 L53.47,139.64 C52.7603679,138.27116 51.6466119,137.153913 50.28,136.44 C45.45,133.65 37.61,133.65 32.78,136.44 C31.4110403,137.150717 30.2964285,138.268823 29.59,139.64 L29.15,139.64 L29.15,141.5 C29.15,143.32 30.36,145.15 32.78,146.55 C37.61,149.34 45.45,149.34 50.28,146.55 C52.7,145.15 53.91,143.31 53.9000615,141.48 Z" id="Path" fill="#E0E0E0"></path>
                <path d="M50.28,144.8 C45.45,147.59 37.61,147.59 32.78,144.8 C27.95,142.01 27.94,137.49 32.78,134.7 C37.62,131.91 45.45,131.9 50.28,134.7 C55.11,137.5 55.11,142 50.28,144.8 Z" id="Path" fill="#EBEBEB"></path>
                <path d="M51.45,139 L51.45,137.53 L51.1,137.53 C50.5306132,136.433431 49.6365688,135.539387 48.54,134.97 C44.1403175,132.737579 38.9396825,132.737579 34.54,134.97 C33.440273,135.535065 32.5450652,136.430273 31.98,137.53 L31.63,137.53 L31.63,139 C31.63,140.47 32.63,141.94 34.54,143.05 C38.9396825,145.282421 44.1403175,145.282421 48.54,143.05 C50.48,141.92 51.45,140.45 51.45,139 Z" id="Path" fill="#E0E0E0"></path>
                <path d="M48.54,141.64 C44.1403175,143.872421 38.9396825,143.872421 34.54,141.64 C30.66,139.41 30.66,135.78 34.54,133.55 C38.9396825,131.317579 44.1403175,131.317579 48.54,133.55 C52.41,135.78 52.41,139.41 48.54,141.64 Z" id="Path" fill="#F5F5F5"></path>
                <path d="M46.92,140.46 C43.5288293,142.179419 39.5211707,142.179419 36.13,140.46 C33.24,138.8 33.13,136.14 35.83,134.46 C35.9253507,134.389608 36.0256056,134.326113 36.13,134.27 C36.7846148,133.897425 37.4834113,133.608499 38.21,133.41 C41.1180654,132.589893 44.2284749,132.897006 46.92,134.27 C49.91,136 49.91,138.74 46.92,140.46 Z" id="Path" fill="#F0F0F0"></path>
                <path d="M36.13,135.12 C39.5223267,133.390695 43.5376733,133.390695 46.93,135.12 C48.0263638,135.632822 48.8315595,136.614499 49.12,137.79 C49.35,136.52 48.61,135.2 46.93,134.23 C43.5334292,132.518457 39.5265708,132.518457 36.13,134.23 C34.44,135.23 33.71,136.52 33.93,137.79 C34.2206242,136.612495 35.029805,135.630443 36.13,135.12 Z" id="Path" fill="#E0E0E0"></path>
                <path d="M40.21,135.41 L38,136.82 L35.84,135.27 L35.84,134.42 C35.9353507,134.349608 36.0356056,134.286113 36.14,134.23 C36.7946148,133.857425 37.4934113,133.568499 38.22,133.37 L38.22,134 L40.21,135.41 Z" id="Path" fill="#E0E0E0"></path>
            </g>
            <g id="freepik--Screen--inject-2" transform="translate(249.000000, 0.000000)" fill-rule="nonzero">
                <path d="M164.86,73 L40.38,1.08 C39.3037851,0.286496941 37.8362149,0.286496941 36.76,1.08 L32.45,4.08 L35.39,7.72 L35.39,108.07 C35.39,111.75 37.63,116.07 40.39,117.61 L163.64,188.77 L163.87,192.68 L168.41,189.57 C169.465736,188.577231 170.004455,187.152945 169.87,185.71 L169.87,82.49 C169.86,78.81 167.62,74.54 164.86,73 Z" id="Path" fill="#BA68C8"></path>
                <path d="M164.86,73 L40.38,1.08 C39.3037851,0.286496941 37.8362149,0.286496941 36.76,1.08 L32.45,4.08 L35.39,7.72 L35.39,108.07 C35.39,111.75 37.63,116.07 40.39,117.61 L163.64,188.77 L163.87,192.68 L168.41,189.57 C169.465736,188.577231 170.004455,187.152945 169.87,185.71 L169.87,82.49 C169.86,78.81 167.62,74.54 164.86,73 Z" id="Path" fill="#000000" opacity="0.3"></path>
                <path d="M160.62,192.4 L36.14,120.53 C33.39,118.94 31.14,114.67 31.14,110.99 L31.14,7.77 C31.14,4.1 33.38,2.41 36.14,4 L160.62,75.87 C163.38,77.46 165.62,81.73 165.62,85.41 L165.62,188.62 C165.62,192.3 163.38,194 160.62,192.4 Z" id="Path" fill="#BA68C8"></path>
                <path d="M160.62,192.4 L36.14,120.53 C33.39,118.94 31.14,114.67 31.14,110.99 L31.14,7.77 C31.14,4.1 33.38,2.41 36.14,4 L160.62,75.87 C163.38,77.46 165.62,81.73 165.62,85.41 L165.62,188.62 C165.62,192.3 163.38,194 160.62,192.4 Z" id="Path" fill="#BA68C8"></path>
                <path d="M160.62,75.87 L36.14,4 C33.39,2.41 31.14,4.1 31.14,7.77 L31.14,12.77 L165.610033,90.4 L165.610033,85.4 C165.62,81.73 163.38,77.46 160.62,75.87 Z" id="Path" fill="#455A64"></path>
                <path d="M34.16,4.4 L34.16,4.4 C34.6844777,4.42467653 35.19394,4.58302291 35.64,4.86 L160.12,76.73 C162.56,78.14 164.62,82.11 164.62,85.41 L164.62,188.62 C164.62,190.62 163.83,192 162.62,192 C162.091031,191.974902 161.57763,191.812957 161.13,191.53 L36.64,119.66 C34.21,118.26 32.15,114.28 32.15,110.99 L32.15,7.77 C32.15,5.72 32.94,4.4 34.15,4.4 M34.15,3.4 C32.38,3.4 31.15,5.03 31.15,7.77 L31.15,111 C31.15,114.68 33.39,118.95 36.15,120.54 L160.62,192.4 C161.221786,192.773547 161.911969,192.980602 162.62,193 C164.39,193 165.62,191.36 165.62,188.62 L165.62,85.41 C165.62,81.73 163.38,77.41 160.62,75.87 L36.14,4 C35.5394267,3.62376992 34.8484952,3.41649046 34.14,3.4 L34.15,3.4 Z" id="Shape" fill="#BA68C8"></path>
                <path d="M88.86,58 C88.6737416,58.0036121 88.4901773,57.9551234 88.33,57.86 L40.94,30.54 C40.4789243,30.2280195 40.3377561,29.6125198 40.6167903,29.1307911 C40.8958244,28.6490623 41.4999684,28.4652736 42,28.71 L89.39,56.07 C89.8305918,56.2986842 90.0534692,56.8025054 89.926311,57.2823474 C89.7991529,57.7621895 89.3560208,58.0895181 88.86,58.07 L88.86,58 Z" id="Path" fill="#FFFFFF"></path>
                <path d="M155.53,96.54 C155.342775,96.5406008 155.159141,96.488629 155,96.39 L119.9,76.13 C119.391898,75.8372891 119.217289,75.188102 119.51,74.68 C119.802711,74.171898 120.451898,73.9972891 120.96,74.29 L156.06,94.56 C156.500592,94.7886842 156.723469,95.2925054 156.596311,95.7723474 C156.469153,96.2521895 156.026021,96.5795181 155.53,96.56 L155.53,96.54 Z" id="Path" fill="#FFFFFF"></path>
                <path d="M112.82,71.88 C112.63452,71.877542 112.452498,71.8294606 112.29,71.74 L98,63.5 C97.6439595,63.325746 97.4148963,62.967399 97.4062259,62.5710984 C97.3975555,62.1747979 97.6107269,61.8067755 97.9588056,61.6171165 C98.3068842,61.4274575 98.7316975,61.4478586 99.06,61.67 L113.32,69.9 C113.760592,70.1286842 113.983469,70.6325054 113.856311,71.1123474 C113.729153,71.5921895 113.286021,71.9195181 112.79,71.9 L112.82,71.88 Z" id="Path" fill="#FFFFFF"></path>
                <path d="M88.86,124.41 C88.6743497,124.408807 88.4920216,124.360645 88.33,124.27 L40.94,96.91 C40.4789243,96.5980195 40.3377561,95.9825198 40.6167903,95.5007911 C40.8958244,95.0190623 41.4999684,94.8352736 42,95.08 L89.39,122.43 C89.8953069,122.725498 90.0654304,123.374654 89.77,123.88 C89.5917926,124.215013 89.2393222,124.420298 88.86,124.41 L88.86,124.41 Z" id="Path" fill="#FFFFFF"></path>
                <path d="M155.53,162.900188 C155.343742,162.903612 155.160177,162.855123 155,162.76 L119.9,142.5 C119.391898,142.207289 119.217289,141.558102 119.51,141.05 C119.802711,140.541898 120.451898,140.367289 120.96,140.66 L156.06,160.93 C156.562953,161.221787 156.736961,161.864278 156.45,162.37 C156.258795,162.697088 155.908872,162.898674 155.53,162.900188 L155.53,162.900188 Z" id="Path" fill="#FFFFFF"></path>
                <path d="M112.82,138.24 C112.633742,138.243612 112.450177,138.195123 112.29,138.1 L98,129.87 C97.6439595,129.695746 97.4148963,129.337399 97.4062259,128.941098 C97.3975555,128.544798 97.6107269,128.176776 97.9588056,127.987117 C98.3068842,127.797458 98.7316975,127.817859 99.06,128.04 L113.32,136.27 C113.822953,136.561787 113.996961,137.204278 113.71,137.71 C113.524317,138.028063 113.18811,138.228277 112.82,138.24 L112.82,138.24 Z" id="Path" fill="#FFFFFF"></path>
                <path d="M88.86,140 C88.6737416,140.003612 88.4901773,139.955123 88.33,139.86 L40.94,112.51 C40.4318981,112.217289 40.2572893,111.568102 40.5500002,111.06 C40.842711,110.551898 41.491898,110.377289 42,110.67 L89.39,138 C89.8305918,138.228684 90.0534692,138.732505 89.926311,139.212347 C89.7991529,139.692189 89.3560208,140.019518 88.86,140 L88.86,140 Z" id="Path" fill="#FFFFFF"></path>
                <path d="M140.59,169.88 C140.403742,169.883612 140.220177,169.835123 140.06,169.74 L119.9,158.1 C119.54396,157.925746 119.314896,157.567399 119.306226,157.171098 C119.297555,156.774798 119.510727,156.406776 119.858806,156.217117 C120.206884,156.027458 120.631698,156.047859 120.96,156.27 L141.12,167.91 C141.363676,168.048298 141.541971,168.278249 141.615215,168.548692 C141.68846,168.819134 141.650579,169.107634 141.51,169.35 C141.318795,169.677088 140.968872,169.878674 140.59,169.88 Z" id="Path" fill="#FFFFFF"></path>
                <path d="M112.82,153.85 C112.63452,153.847542 112.452498,153.799461 112.29,153.71 L98,145.48 C97.4918981,145.187289 97.3172891,144.538102 97.61,144.03 C97.902711,143.521898 98.551898,143.347289 99.06,143.64 L113.32,151.87 C113.760592,152.098684 113.983469,152.602505 113.856311,153.082347 C113.729153,153.562189 113.286021,153.889518 112.79,153.87 L112.82,153.85 Z" id="Path" fill="#FFFFFF"></path>
                <path d="M65.23,52.65 C65.0427748,52.6506008 64.8591413,52.598629 64.7,52.5 L40.94,38.79 C40.5618851,38.4526732 40.4753902,37.8949103 40.7335812,37.4589084 C40.9917722,37.0229066 41.5224355,36.8306117 42,37 L65.76,50.71 C66.2653069,51.0054979 66.4354304,51.6546537 66.14,52.16 C65.9511273,52.4795765 65.600769,52.6682309 65.23,52.65 Z" id="Path" fill="#FFFFFF"></path>
                <path d="M133.66,92.16 C133.47452,92.157542 133.292498,92.1094606 133.13,92.02 L98,71.75 C97.6439595,71.575746 97.4148963,71.217399 97.4059711,70.8210984 C97.3975555,70.4247979 97.6107269,70.0567755 97.9588056,69.8671165 C98.3068842,69.6774575 98.7316975,69.6978586 99.06,69.92 L134.16,90.18 C134.600592,90.4086842 134.823469,90.9125054 134.696311,91.3923474 C134.569153,91.8721895 134.126021,92.1995181 133.63,92.18 L133.66,92.16 Z" id="Path" fill="#FFFFFF"></path>
                <path d="M89.19,66.48 C89.0037416,66.4836121 88.8201773,66.4351234 88.66,66.34 L74.4,58.11 C73.891898,57.8172891 73.7172891,57.168102 74.01,56.66 C74.3027109,56.151898 74.951898,55.9772891 75.46,56.27 L89.72,64.5 C90.2253069,64.7954979 90.3954304,65.4446537 90.1,65.95 C89.9217926,66.2850127 89.5693222,66.4902977 89.19,66.48 Z" id="Path" fill="#FFFFFF"></path>
                <path d="M88.86,74.54 C88.6727748,74.5403701 88.4891413,74.488629 88.33,74.39 L40.94,47 C40.546821,46.6663733 40.4507695,46.0982068 40.712431,45.653876 C40.9740924,45.2095453 41.5175443,45.0179751 42,45.2 L89.39,72.56 C89.8953069,72.8554979 90.0654304,73.5046537 89.77,74.01 C89.5917926,74.3450127 89.2393222,74.5502977 88.86,74.54 L88.86,74.54 Z" id="Path" fill="#FFFFFF"></path>
                <path d="M129.78,98.16 C129.593742,98.1636121 129.410177,98.1151234 129.25,98.02 L119.9,92.62 C119.54396,92.445746 119.314896,92.087399 119.306226,91.6910984 C119.297555,91.2947979 119.510727,90.9267755 119.858806,90.7371165 C120.206884,90.5474575 120.631698,90.5678586 120.96,90.79 L130.31,96.19 C130.812953,96.4817868 130.986961,97.1242779 130.7,97.63 C130.508795,97.9570878 130.158872,98.1586735 129.78,98.16 L129.78,98.16 Z" id="Path" fill="#FFFFFF"></path>
                <path d="M69.9,71.84 C69.7145203,71.837542 69.5324979,71.7894606 69.37,71.7 L60,66.3 C59.6713157,66.1106492 59.4686162,65.7603309 59.4682561,65.3810065 C59.467897,65.0016822 59.6699319,64.6509801 59.9982566,64.4610065 C60.3265814,64.2710329 60.7313157,64.2706492 61.06,64.46 L70.41,69.86 C70.8505918,70.0886842 71.0734692,70.5925054 70.946311,71.0723474 C70.8191529,71.5521895 70.3760208,71.8795181 69.88,71.86 L69.9,71.84 Z" id="Path" fill="#FFFFFF"></path>
                <path d="M112.82,88.37 C112.63452,88.367542 112.452498,88.3194606 112.29,88.23 L98,80 C97.6713157,79.8106492 97.4686162,79.4603309 97.4682561,79.0810065 C97.467897,78.7016822 97.6699319,78.3509801 97.9982566,78.1610065 C98.3265814,77.9710329 98.7313157,77.9706492 99.06,78.16 L113.32,86.39 C113.760592,86.6186842 113.983469,87.1225054 113.856311,87.6023474 C113.729153,88.0821895 113.286021,88.4095181 112.79,88.39 L112.82,88.37 Z" id="Path" fill="#FFFFFF"></path>
                <path d="M56.66,64.19 C56.4737416,64.1936121 56.2901773,64.1451234 56.13,64.05 L40.94,55.28 C40.4789243,54.9680195 40.3377561,54.3525198 40.6167903,53.8707911 C40.8958244,53.3890623 41.4999684,53.2052736 42,53.45 L57.19,62.22 C57.6538934,62.433307 57.8970988,62.9493975 57.7663083,63.4429467 C57.6355178,63.9364959 57.1686493,64.2644168 56.66,64.22 L56.66,64.19 Z" id="Path" fill="#FFFFFF"></path>
                <path d="M89.19,83 C89.0037416,83.0036121 88.8201773,82.9551234 88.66,82.86 L74.4,74.6 C74.0439595,74.425746 73.8148963,74.067399 73.8062259,73.6710984 C73.7975555,73.2747979 74.0107269,72.9067755 74.3588056,72.7171165 C74.7068842,72.5274575 75.1316975,72.5478586 75.46,72.77 L89.72,81 C90.1605918,81.2286842 90.3834692,81.7325054 90.256311,82.2123474 C90.1291529,82.6921895 89.6860208,83.0195181 89.19,83 L89.19,83 Z" id="Path" fill="#FFFFFF"></path>
                <path d="M88.86,91.63 C88.6737416,91.6336121 88.4901773,91.5851234 88.33,91.49 L40.94,64.13 C40.4789243,63.8180195 40.3377561,63.2025198 40.6167903,62.7207911 C40.8958244,62.2390623 41.4999684,62.0552736 42,62.3 L89.39,89.65 C89.8953069,89.9454979 90.0654304,90.5946537 89.77,91.1 C89.5917926,91.4350127 89.2393222,91.6402977 88.86,91.63 Z" id="Path" fill="#FFFFFF"></path>
                <path d="M155.53,130.12 C155.345643,130.129689 155.162203,130.088155 155,130 L119.9,109.74 C119.391898,109.447289 119.217289,108.798102 119.51,108.29 C119.802711,107.781898 120.451898,107.607289 120.96,107.9 L156.06,128.17 C156.562953,128.461787 156.736961,129.104278 156.45,129.61 C156.253834,129.92941 155.904828,130.122881 155.53,130.12 L155.53,130.12 Z" id="Path" fill="#FFFFFF"></path>
                <path d="M112.82,105.46 C112.633742,105.463612 112.450177,105.415123 112.29,105.32 L98,97.09 C97.6439595,96.915746 97.4148963,96.557399 97.4062259,96.1610984 C97.3975555,95.7647979 97.6107269,95.3967755 97.9588056,95.2071165 C98.3068842,95.0174575 98.7316975,95.0378586 99.06,95.26 L113.32,103.49 C113.824238,103.78567 113.997884,104.431277 113.71,104.94 C113.519212,105.251519 113.185059,105.446754 112.82,105.46 L112.82,105.46 Z" id="Path" fill="#FFFFFF"></path>
                <path d="M65.23,86.23 C65.0437416,86.2336121 64.8601773,86.1851234 64.7,86.09 L40.94,72.38 C40.4318981,72.087289 40.2572892,71.438102 40.5500001,70.9300001 C40.842711,70.4218982 41.491898,70.2472892 42,70.54 L65.76,84.26 C66.2005918,84.4886842 66.4234692,84.9925054 66.296311,85.4723474 C66.1691529,85.9521895 65.7260208,86.2795181 65.23,86.26 L65.23,86.23 Z" id="Path" fill="#FFFFFF"></path>
                <path d="M133.66,125.75 C133.472775,125.750601 133.289141,125.698629 133.13,125.6 L98,105.34 C97.4918981,105.047289 97.3172891,104.398102 97.61,103.89 C97.902711,103.381898 98.551898,103.207289 99.06,103.5 L134.16,123.77 C134.600592,123.998684 134.823469,124.502505 134.696311,124.982347 C134.569153,125.462189 134.126021,125.789518 133.63,125.77 L133.66,125.75 Z" id="Path" fill="#FFFFFF"></path>
                <path d="M89.19,100.07 C89.0045203,100.067542 88.8224979,100.019461 88.66,99.93 L74.4,91.69 C74.0439595,91.515746 73.8148963,91.157399 73.8062259,90.7610984 C73.7975555,90.3647979 74.0107269,89.9967755 74.3588056,89.8071165 C74.7068842,89.6174575 75.1316975,89.6378586 75.46,89.86 L89.72,98.09 C90.2253069,98.3854979 90.3954304,99.0346537 90.1,99.54 C89.9217926,99.8750127 89.5693222,100.080298 89.19,100.07 Z" id="Path" fill="#FFFFFF"></path>
                <path d="M88.86,108.12 C88.6737416,108.123612 88.4901773,108.075123 88.33,107.98 L40.94,80.62 C40.4789243,80.3080195 40.3377561,79.6925198 40.6167903,79.2107911 C40.8958244,78.7290623 41.4999684,78.5452736 42,78.79 L89.39,106.15 C89.8305918,106.378684 90.0534692,106.882505 89.926311,107.362347 C89.7991529,107.842189 89.3560208,108.169518 88.86,108.15 L88.86,108.12 Z" id="Path" fill="#FFFFFF"></path>
                <path d="M129.78,131.75 C129.59452,131.747542 129.412498,131.699461 129.25,131.61 L119.9,126.21 C119.54396,126.035746 119.314896,125.677399 119.306226,125.281098 C119.297555,124.884798 119.510727,124.516776 119.858806,124.327117 C120.206884,124.137458 120.631698,124.157859 120.96,124.38 L130.31,129.77 C130.750592,129.998684 130.973469,130.502505 130.846311,130.982347 C130.719153,131.462189 130.276021,131.789518 129.78,131.77 L129.78,131.75 Z" id="Path" fill="#FFFFFF"></path>
                <path d="M69.9,105.43 C69.7127748,105.430601 69.5291413,105.378629 69.37,105.28 L60,99.89 C59.4918981,99.5972891 59.3172891,98.948102 59.61,98.44 C59.902711,97.9318981 60.551898,97.7572891 61.06,98.05 L70.41,103.45 C70.8505918,103.678684 71.0734692,104.182505 70.946311,104.662347 C70.8191529,105.142189 70.3760208,105.469518 69.88,105.45 L69.9,105.43 Z" id="Path" fill="#FFFFFF"></path>
                <path d="M112.82,122 C112.63452,121.997542 112.452498,121.949461 112.29,121.86 L98,113.59 C97.4918981,113.297289 97.3172891,112.648102 97.61,112.14 C97.902711,111.631898 98.551898,111.457289 99.06,111.75 L113.35,120 C113.790592,120.228684 114.013469,120.732505 113.886311,121.212347 C113.759153,121.692189 113.316021,122.019518 112.82,122 Z" id="Path" fill="#FFFFFF"></path>
                <path d="M56.66,97.78 C56.4737416,97.7836121 56.2901773,97.7351234 56.13,97.64 L40.94,88.87 C40.4236139,88.577289 40.2422892,87.9213863 40.5350001,87.4050001 C40.827711,86.8886139 41.4836138,86.7072892 42,87 L57.19,95.76 C57.6305918,95.9886842 57.8534692,96.4925054 57.726311,96.9723474 C57.5991529,97.4521895 57.1560208,97.7795181 56.66,97.76 L56.66,97.78 Z" id="Path" fill="#FFFFFF"></path>
                <path d="M89.19,116.56 C89.0037416,116.563612 88.8201773,116.515123 88.66,116.42 L74.4,108.19 C73.8918981,107.897289 73.7172891,107.248102 74.01,106.74 C74.302711,106.231898 74.951898,106.057289 75.46,106.35 L89.72,114.59 C90.1605918,114.818684 90.3834692,115.322505 90.256311,115.802347 C90.1291529,116.282189 89.6860208,116.609518 89.19,116.59 L89.19,116.56 Z" id="Path" fill="#FFFFFF"></path>
                <path d="M69.9,121.23 C69.7137416,121.233612 69.5301773,121.185123 69.37,121.09 L60.02,115.69 C59.6639595,115.515746 59.4348963,115.157399 59.4262259,114.761098 C59.4175555,114.364798 59.6307269,113.996776 59.9788056,113.807117 C60.3268842,113.617458 60.7516975,113.637859 61.08,113.86 L70.43,119.26 C70.8938934,119.473307 71.1370988,119.989398 71.0063083,120.482947 C70.8755178,120.976496 70.4086493,121.304417 69.9,121.26 L69.9,121.23 Z" id="Path" fill="#FFFFFF"></path>
                <path d="M56.66,113.59 C56.4745203,113.587542 56.2924979,113.539461 56.13,113.45 L40.94,104.68 C40.4318981,104.387289 40.2572891,103.738102 40.55,103.23 C40.842711,102.721898 41.491898,102.547289 42,102.84 L57.19,111.61 C57.6305918,111.838684 57.8534692,112.342505 57.726311,112.822347 C57.5991529,113.302189 57.1560208,113.629518 56.66,113.61 L56.66,113.59 Z" id="Path" fill="#FFFFFF"></path>
                <path d="M89.19,132.37 C89.0045203,132.367542 88.8224979,132.319461 88.66,132.23 L74.4,124 C73.8918981,123.707289 73.7172891,123.058102 74.01,122.55 C74.302711,122.041898 74.951898,121.867289 75.46,122.16 L89.72,130.39 C90.2253069,130.685498 90.3954304,131.334654 90.1,131.84 C89.9217926,132.175013 89.5693222,132.380298 89.19,132.37 Z" id="Path" fill="#FFFFFF"></path>
                <path d="M50.85,40.83 L50.85,79.17 C50.85,79.79 50.63,80.17 50.28,80.34 L50.28,80.34 L48.81,81.15 L48.81,79.84 L48.6,40.42 L50.52,39.42 C50.7346416,39.8592005 50.8474413,40.3411631 50.85,40.83 L50.85,40.83 Z" id="Path" fill="#263238"></path>
                <path d="M50.52,39.45 L48.6,40.45 L2.11,13.16 L1,12.52 L2.53,11.66 L2.58,11.66 L2.58,11.66 C2.87120069,11.504693 3.22597804,11.5319835 3.49,11.73 L49.49,38.22 C49.9467469,38.5198717 50.3050007,38.9476893 50.52,39.45 Z" id="Path" fill="#37474F"></path>
                <path d="M49.19,41.66 L49.19,79.75 C49.2321786,80.1636785 49.0675414,80.5715296 48.75,80.84 L48.66,80.84 C48.3781834,80.9540286 48.057658,80.9163197 47.81,80.74 L2.11,54.41 C1.25794993,53.8026602 0.745605124,52.8262349 0.73,51.78 L0.73,13.75 C0.687978958,13.3462977 0.844584882,12.9473255 1.15,12.68 C1.1905843,12.643872 1.23827001,12.616623 1.29,12.6 C1.56498718,12.5014145 1.87071699,12.5424271 2.11,12.71 L47.81,39 C48.253172,39.2896198 48.6010305,39.7035714 48.81,40.19 C49.0471686,40.6445875 49.1771536,41.1474244 49.19,41.66 L49.19,41.66 Z" id="Path" fill="#455A64"></path>
                <path d="M1.84710579,12.26 C1.99632928,12.2642939 2.14154947,12.309243 2.26710579,12.39 L48.2671058,38.88 C48.6715882,39.1480022 48.9908445,39.5262516 49.1871058,39.97 C49.3982407,40.3819371 49.5111869,40.8371446 49.5171058,41.3 L49.5171058,79.62 C49.5644131,79.9415191 49.4525317,80.2659752 49.2171058,80.49 L49.1371058,80.49 C49.0714117,80.5061046 49.0027999,80.5061046 48.9371058,80.49 C48.7891954,80.4783604 48.6457284,80.433954 48.5171058,80.36 L2.51710579,53.86 C1.74323967,53.2934994 1.27742655,52.3988424 1.25710579,51.44 L1.25710579,13.22 C1.2233301,12.8950311 1.33710799,12.5720487 1.56710579,12.34 L1.65710579,12.34 C1.71628496,12.3259644 1.77792661,12.3259644 1.83710579,12.34 M1.83710579,12.08 C1.74053915,12.079588 1.64502459,12.1000554 1.55710579,12.14 L1.41710579,12.22 C1.11652222,12.4943522 0.964313551,12.8952921 1.00710579,13.3 L1.00710579,51.53 C1.02590861,52.5809108 1.53685242,53.562071 2.38710579,54.18 L48.3871058,80.67 C48.550171,80.7692909 48.7362709,80.8244316 48.9271058,80.8300622 C49.033449,80.8313431 49.1389435,80.8109248 49.2371058,80.77 L49.3271058,80.72 C49.6462895,80.4483949 49.8109249,80.0368063 49.7671058,79.62 L49.7671058,41.3 C49.7546244,40.7993445 49.6316954,40.3076284 49.4071058,39.86 C49.1924911,39.3743916 48.8460524,38.9586651 48.4071058,38.66 L2.40710579,12.17 C2.24152321,12.0668013 2.05204106,12.0082341 1.85710579,12 L1.83710579,12.08 Z" id="Shape" fill="#37474F"></path>
                <path d="M43.46,13.63 C43.46,14.72 42.69,15.16 41.75,14.63 C40.7261018,13.9675388 40.0882844,12.848561 40.04,11.63 C40.04,10.54 40.8,10.1 41.75,10.63 C42.7664599,11.2994642 43.4018997,12.4142708 43.46,13.63 Z" id="Path" fill="#FFFFFF"></path>
                <path d="M49.82,17.55 C49.82,18.64 49.05,19.09 48.1,18.55 C47.0798535,17.8839995 46.4432415,16.7671363 46.39,15.55 C46.39,14.46 47.16,14.01 48.1,14.55 C49.123958,15.213752 49.7645096,16.3309932 49.82,17.55 Z" id="Path" fill="#FFFFFF"></path>
                <path d="M56.17,21.48 C56.17,22.57 55.41,23.01 54.46,22.48 C53.4435401,21.8105358 52.8081003,20.6957292 52.75,19.48 C52.75,18.39 53.52,17.95 54.46,18.48 C55.4838982,19.1424612 56.1217156,20.261439 56.17,21.48 L56.17,21.48 Z" id="Path" fill="#FFFFFF"></path>
            </g>
            <g id="H-patter-01" transform="translate(273.500000, 46.500000) rotate(-2.000000) translate(-273.500000, -46.500000) translate(264.000000, 38.000000)" opacity="0.1">
                <g>
                    <mask id="mask-2" fill="white">
                        <use xlink:href="#path-1"></use>
                    </mask>
                    <use id="Mask" fill="#FF0000" fill-rule="nonzero" xlink:href="#path-1"></use>
                    <g id="Group-21" mask="url(#mask-2)">
                        <g transform="translate(-7.864238, -8.251825)">
                            <mask id="mask-4" fill="white">
                                <use xlink:href="#path-3"></use>
                            </mask>
                            <use id="Mask" stroke="none" fill="#000000" fill-rule="evenodd" xlink:href="#path-3"></use>
                            <g id="Group-21" stroke="none" stroke-width="1" fill="none" fill-rule="evenodd" mask="url(#mask-4)">
                                <g transform="translate(1.361046, 0.000000)" fill="#393939">
                                    <rect id="Rectangle" x="13.6104588" y="0" width="1" height="33.7518248"></rect>
                                    <rect id="Rectangle-Copy-20" x="12.2494129" y="0" width="1" height="33.7518248"></rect>
                                    <rect id="Rectangle-Copy-21" x="10.8883671" y="0" width="1" height="33.7518248"></rect>
                                    <rect id="Rectangle-Copy-22" x="9.52732118" y="0" width="1" height="33.7518248"></rect>
                                    <rect id="Rectangle-Copy-23" x="8.1662753" y="0" width="1" height="33.7518248"></rect>
                                    <rect id="Rectangle-Copy-24" x="6.80522941" y="0" width="1" height="33.7518248"></rect>
                                    <rect id="Rectangle-Copy-25" x="5.44418353" y="0" width="1" height="33.7518248"></rect>
                                    <rect id="Rectangle-Copy-26" x="4.08313765" y="0" width="1" height="33.7518248"></rect>
                                    <rect id="Rectangle-Copy-27" x="2.72209177" y="0" width="1" height="33.7518248"></rect>
                                    <rect id="Rectangle-Copy-28" x="1.36104588" y="0" width="1" height="33.7518248"></rect>
                                    <rect id="Rectangle-Copy-29" x="0" y="0" width="1" height="33.7518248"></rect>
                                    <rect id="Rectangle-Copy-4" x="14.9715047" y="0" width="1" height="33.7518248"></rect>
                                    <rect id="Rectangle-Copy-5" x="16.3325506" y="0" width="1" height="33.7518248"></rect>
                                    <rect id="Rectangle-Copy-6" x="17.6935965" y="0" width="1" height="33.7518248"></rect>
                                    <rect id="Rectangle-Copy-7" x="19.0546424" y="0" width="1" height="33.7518248"></rect>
                                    <rect id="Rectangle-Copy-8" x="20.4156882" y="0" width="1" height="33.7518248"></rect>
                                    <rect id="Rectangle-Copy-9" x="21.7767341" y="0" width="1" height="33.7518248"></rect>
                                    <rect id="Rectangle-Copy-11" x="23.13778" y="0" width="1" height="33.7518248"></rect>
                                    <rect id="Rectangle-Copy-13" x="24.4988259" y="0" width="1" height="33.7518248"></rect>
                                    <rect id="Rectangle-Copy-15" x="25.8598718" y="0" width="1" height="33.7518248"></rect>
                                    <rect id="Rectangle-Copy-16" x="27.2209177" y="0" width="1" height="33.7518248"></rect>
                                    <rect id="Rectangle-Copy-17" x="28.5819635" y="0" width="1" height="33.7518248"></rect>
                                    <rect id="Rectangle-Copy-18" x="29.9430094" y="0" width="1" height="33.7518248"></rect>
                                    <rect id="Rectangle-Copy-19" x="31.3040553" y="0" width="1" height="33.7518248"></rect>
                                </g>
                            </g>
                        </g>
                    </g>
                </g>
            </g>
        </g>
    </g>
</svg>