<?xml version="1.0" encoding="UTF-8"?>
<svg width="800px" height="600px" viewBox="0 0 800 600" version="1.1" xmlns="http://www.w3.org/2000/svg" xmlns:xlink="http://www.w3.org/1999/xlink">
    <title>html-design</title>
    <g id="Page-1" stroke="none" stroke-width="1" fill="none" fill-rule="evenodd">
        <g id="html-design">
            <rect id="Rectangle" fill="#090909" x="0" y="0" width="800" height="600"></rect>
            <g id="undraw_static_website_0107-(1)" transform="translate(100.000000, 114.000000)" fill-rule="nonzero">
                <polygon id="Rectangle" fill="#3F3D56" transform="translate(388.809598, 158.093883) rotate(-74.209910) translate(-388.809598, -158.093883) " points="291.934234 3.19587612 502.151295 -6.09282512 485.684961 312.991889 275.4679 322.28059"></polygon>
                <ellipse id="Oval" fill="#57A386" cx="266.887057" cy="12.9179551" rx="2.50583858" ry="3.0070063"></ellipse>
                <ellipse id="Oval" fill="#57A386" cx="274.603157" cy="15.5363528" rx="2.50583858" ry="3.0070063"></ellipse>
                <ellipse id="Oval" fill="#57A386" cx="282.319258" cy="18.1547433" rx="2.50583858" ry="3.0070063"></ellipse>
                <path d="M422.234362,134.312308 C418.183962,133.393472 414.017516,133.511476 410.00775,134.658595 C411.175193,129.847752 411.469915,124.792543 410.872063,119.833498 C406.742855,121.627101 403.006223,124.520693 399.943098,128.296722 C398.981506,123.154931 397.061028,118.341644 394.326059,114.218752 C391.652571,118.067694 389.697516,122.559484 388.592593,127.391542 C385.67725,123.894457 382.179321,121.175619 378.327768,119.412992 C378.327768,119.412992 376.502876,130.550315 380.896293,139.68912 C384.806634,147.823037 392.319614,151.629413 393.925689,152.368774 L393.963313,152.42293 L393.983498,152.395413 C394.14649,152.469602 394.237754,152.507445 394.237754,152.507445 C394.237754,152.507445 394.272272,152.293521 394.319841,151.911758 C394.348713,151.868955 394.377915,151.825422 394.409835,151.777389 C394.416071,151.838334 394.421935,151.893723 394.427852,151.948332 C394.301752,152.303485 394.23776,152.507466 394.23776,152.507466 C394.23776,152.507466 394.332047,152.532553 394.503295,152.571784 L394.508474,152.607926 L394.564157,152.585433 C396.255142,152.9649 404.316567,154.443543 411.197498,149.971578 C418.928557,144.947126 422.234362,134.312308 422.234362,134.312308 Z" id="Path" fill="#57A386"></path>
                <ellipse id="Oval" fill="#57A386" cx="407.239494" cy="98.0444764" rx="6.51517913" ry="7.81821496"></ellipse>
                <polygon id="Rectangle" fill="#57A386" transform="translate(390.544960, 168.887879) rotate(15.790090) translate(-390.544960, -168.887879) " points="287.185349 160.936644 493.672738 171.592405 493.90457 176.839114 287.417182 166.183353"></polygon>
                <polygon id="Rectangle" fill="#57A386" transform="translate(317.680362, 190.775414) rotate(15.790090) translate(-317.680362, -190.775414) " points="298.961126 169.067536 334.562399 170.904736 336.399599 212.483292 300.798326 210.646092"></polygon>
                <polygon id="Rectangle" fill="#57A386" transform="translate(380.373673, 212.049861) rotate(15.790090) translate(-380.373673, -212.049861) " points="361.654437 190.341983 397.255709 192.179183 399.092909 233.75774 363.491637 231.92054"></polygon>
                <polygon id="Rectangle" fill="#57A386" transform="translate(443.066979, 233.324309) rotate(15.790090) translate(-443.066979, -233.324309) " points="424.347743 211.616431 459.949015 213.453631 461.786215 255.032188 426.184943 253.194988"></polygon>
                <polygon id="Rectangle" fill="#57A386" transform="translate(310.588888, 220.868202) rotate(15.790090) translate(-310.588888, -220.868202) " points="297.286821 218.403876 323.733481 219.768654 323.890956 223.332527 297.444295 221.96775"></polygon>
                <polygon id="Rectangle" fill="#57A386" transform="translate(373.282194, 242.142650) rotate(15.790090) translate(-373.282194, -242.142650) " points="359.980127 239.678324 386.426787 241.043101 386.584262 244.606975 360.137601 243.242198"></polygon>
                <polygon id="Rectangle" fill="#57A386" transform="translate(435.975505, 263.417097) rotate(15.790090) translate(-435.975505, -263.417097) " points="422.673437 260.952772 449.120098 262.317549 449.277572 265.881423 422.830911 264.516645"></polygon>
                <ellipse id="Oval" fill="#D0CDE1" cx="171.023728" cy="280.984252" rx="167.716535" ry="7.44094488"></ellipse>
                <ellipse id="Oval" fill="#D0CDE1" cx="468.973075" cy="365.314961" rx="130.511811" ry="7.44094488"></ellipse>
                <path d="M404.962187,307.559055 L442.61449,307.559055 L442.61449,326.454527 L420.708413,326.454527 L420.708413,345.349991 L442.616451,345.349991 L442.616451,364.244322 L404.962187,364.244322 L404.962187,307.559055 Z M450.145943,307.559055 L487.799238,307.559055 L487.799238,323.989795 L465.892152,323.989795 L465.892152,327.275709 L487.799238,327.275709 L487.799238,365.066653 L450.146917,365.066653 L450.146917,347.812384 L472.054004,347.812384 L472.054004,344.52647 L450.144969,344.52647 L450.144969,307.559055 L450.145943,307.559055 Z M495.330673,307.559055 L532.983969,307.559055 L532.983969,323.989795 L511.076882,323.989795 L511.076882,327.275709 L532.983969,327.275709 L532.983969,365.066653 L495.330673,365.066653 L495.330673,347.812384 L517.23776,347.812384 L517.23776,344.52647 L495.331654,344.52647 L495.331654,307.559055 L495.330673,307.559055 Z" id="Shape" fill="#3F3D56"></path>
                <path d="M75.8799154,221.102362 L91.412752,221.102362 L91.412752,239.517822 L105.622004,239.517822 L105.622004,221.102362 L121.155797,221.102362 L121.155797,276.868991 L105.622955,276.868991 L105.622955,258.195118 L91.4137028,258.195118 L91.4137028,276.868991 L75.880872,276.868991 L75.880872,221.102362 L75.8799154,221.102362 Z M141.581055,239.595917 L127.908709,239.595917 L127.908709,221.102362 L170.797724,221.102362 L170.797724,239.595917 L157.116768,239.595917 L157.116768,276.868991 L141.583931,276.868991 L141.583931,239.595917 L141.581055,239.595917 Z M177.604228,221.102362 L193.800301,221.102362 L203.763148,240.697283 L213.716409,221.102362 L229.919173,221.102362 L229.919173,276.868991 L214.449496,276.868991 L214.449496,249.228 L203.763112,269.056063 L203.495144,269.056063 L192.802104,249.228 L192.802104,276.868991 L177.604228,276.868991 L177.604228,221.102362 Z M237.649234,221.102362 L253.18686,221.102362 L253.18686,258.436304 L275.030463,258.436304 L275.030463,276.868991 L237.648283,276.868991 L237.648283,221.102362 L237.649234,221.102362 Z" id="Shape" fill="#3F3D56"></path>
                <polygon id="Path" fill="#FFB8B8" points="48.4452756 259.434567 47.1708661 276.773386 57.369685 275.752913 57.369685 260.964567"></polygon>
                <polygon id="Path" fill="#FFB8B8" points="39.0962598 259.434567 40.3712598 276.773386 30.1724409 275.752913 30.1724409 260.964567"></polygon>
                <path d="M65.8688799,126.337089 C65.8688799,126.337089 69.268565,150.814814 69.268565,154.384491 C69.268565,157.954167 67.9936831,180.902027 65.8688799,185.491602 C63.7440768,190.081176 63.3191161,192.120987 64.1690374,194.160798 C65.0189587,196.200609 64.593998,195.69065 64.1690374,197.220508 C63.7440768,198.750366 62.8941555,198.240413 64.1690374,200.280224 C65.2352316,202.11941 65.2352316,204.560472 64.1690374,206.399657 C63.3191161,207.929516 65.8688799,249.235682 62.4691949,252.295406 C59.0695098,255.355129 58.2195886,265.55417 58.2195886,265.55417 L47.1706181,264.024312 L47.1706181,252.805351 C47.1706181,252.805351 44.6208543,244.646114 46.3206969,239.546587 C48.0205394,234.447059 48.8704606,207.41957 48.8704606,207.41957 C48.8704606,207.41957 48.4455,204.869806 48.8704606,203.339948 C49.2954213,201.81009 48.8704606,200.790184 48.0205394,200.280231 C47.1706181,199.770279 46.7456575,197.730468 46.7456575,197.730468 L45.4707756,160.503931 L40.371248,197.220472 C40.371248,197.220472 45.4707756,247.195835 40.371248,253.825214 L40.371248,265.55417 L29.3222776,265.55417 L31.0221201,252.805309 C31.0221201,252.805309 27.622435,241.076402 29.3222776,238.526639 C31.0221201,235.976875 24.22275,195.180654 25.0726713,193.65081 C25.9225925,192.120966 25.4976319,191.610999 25.0726713,190.591094 C24.6477106,189.571188 23.3728287,188.551283 23.7977894,187.531377 C24.22275,186.511472 23.7977894,184.471661 23.7977894,184.471661 C23.7977894,184.471661 15.7235374,136.536116 19.5481831,131.946541 C23.3728287,127.356966 65.8688799,126.337089 65.8688799,126.337089 Z" id="Path" fill="#2F2E41"></path>
                <path d="M49.7203819,270.143731 C49.7203819,270.143731 50.5703031,265.253003 57.3696732,266.933438 C57.3696732,266.933438 59.0695098,271.163636 59.0695098,273.203447 C59.0695098,275.243258 60.7693524,289.011976 60.7693524,289.011976 C60.7693524,289.011976 67.5687224,302.7807 59.0695098,302.7807 C50.5702972,302.7807 47.5955787,299.211031 47.1706181,295.641361 C46.7456575,292.071692 47.5955787,291.051787 45.8957362,289.521928 C44.1958937,287.99207 43.3459724,287.99207 43.7709331,285.952259 C44.1958937,283.912448 45.045815,273.7134 45.045815,273.7134 C45.045815,273.7134 45.4707756,266.064109 47.8080591,268.10392 L50.1453425,270.143731" id="Path" fill="#2F2E41"></path>
                <path d="M37.8214843,270.143731 C37.8214843,270.143731 36.971563,265.253003 30.1721988,266.933438 C30.1721988,266.933438 28.4723563,271.163636 28.4723563,273.203447 C28.4723563,275.243258 26.7725138,289.011976 26.7725138,289.011976 C26.7725138,289.011976 19.9731437,302.7807 28.4723563,302.7807 C36.9715689,302.7807 39.9462874,299.211031 40.371248,295.641361 C40.7962087,292.071692 39.9462874,291.051787 41.6461299,289.521928 C43.3459724,287.99207 44.1958937,287.99207 43.7709331,285.952259 C43.3459724,283.912448 42.4960512,273.7134 42.4960512,273.7134 C42.4960512,273.7134 42.0710906,266.064109 39.7338071,268.10392 L37.3965236,270.143731" id="Path" fill="#2F2E41"></path>
                <ellipse id="Oval" fill="#FFB8B8" cx="50.1453425" cy="18.7370858" rx="11.473937" ry="13.7687244"></ellipse>
                <path d="M40.7962087,20.7768969 C40.7962087,20.7768969 36.1216417,42.7048583 35.2717205,43.214811 C34.4217992,43.7247638 54.8199094,45.7645748 54.8199094,45.7645748 C54.8199094,45.7645748 49.7203819,26.8963228 54.8199094,23.8366134 L40.7962087,20.7768969 Z" id="Path" fill="#FFB8B8"></path>
                <path d="M37.8108661,34.1396787 L37.8103169,34.1368441 L23.7977894,45.7645748 L26.3475531,137.046097 C26.3475531,137.046097 45.045815,134.496333 49.2954213,135.006286 C53.5450276,135.516239 67.1437618,130.416711 67.1437618,130.416711 L61.1872795,44.6433307 C60.9467882,41.1802949 58.6380527,38.4448819 55.7493602,38.2004291 L53.1971398,37.9844575 C53.1971398,37.9844575 50.647565,45.5595591 42.9765768,41.6515323 C40.3532132,40.2821291 38.4334098,37.4903966 37.8108661,34.1396787 L37.8108661,34.1396787 Z" id="Path" fill="#D0CDE1"></path>
                <path d="M38.1497126,33.3070866 L20.823065,43.214811 L17.4233799,101.859378 C17.4233799,101.859378 10.6240098,137.046111 16.148498,147.245159 C21.6729862,157.444207 31.0221201,158.46412 31.0221201,158.46412 C31.0221201,158.46412 43.3459724,99.8195528 39.9462874,79.9314165 C36.5466024,60.0432803 38.1497126,33.3070866 38.1497126,33.3070866 Z" id="Path" fill="#575A89"></path>
                <path d="M5.52448819,121.747514 L5.52448819,129.396806 C5.52448819,129.396806 2.97472441,146.225239 11.0489705,145.715287 C19.1232165,145.205334 15.2985768,127.356994 15.2985768,127.356994 L12.748813,121.747514 L5.52448819,121.747514 Z" id="Path" fill="#FFB8B8"></path>
                <path d="M80.3175413,137.046097 L79.4676201,145.715287 C79.4676201,145.715287 83.7172264,163.05368 75.6429744,163.563633 C67.5687224,164.073586 73.4295886,145.821699 73.4295886,145.821699 L76.0679114,136.026191 L80.3175413,137.046097 Z" id="Path" fill="#FFB8B8"></path>
                <path d="M52.9414252,36.2022449 L52.9414252,36.2022449 C60.6846229,38.4909443 67.8599548,42.9669351 73.8696378,49.2573189 L73.9431201,49.334237 L67.9936713,87.0707268 L67.14375,100.839451 C67.14375,100.839451 82.8672874,168.153194 64.5939862,158.464098 C64.5939862,158.464098 48.8704488,99.8195315 50.995252,72.7920567 C53.1200551,45.7645819 52.9414252,36.2022449 52.9414252,36.2022449 Z" id="Path" fill="#575A89"></path>
                <path d="M68.4186437,48.8242913 C68.8436043,48.3143386 73.9431319,49.5329528 73.9431319,49.5329528 C73.9431319,49.5329528 83.2922598,89.1105449 83.2922598,95.7399307 C83.2922598,102.369317 84.5671417,140.105806 84.5671417,140.105806 L73.3495394,141.462709 L64.2697795,89.0313732 L68.4186437,48.8242913 Z" id="Path" fill="#575A89"></path>
                <path d="M23.7977894,43.214811 L20.823065,43.214811 C20.823065,43.214811 12.3238524,47.2944331 11.8988917,51.8840079 C11.4739311,56.4735827 0,102.879283 0,102.879283 L2.97472441,126.337103 L14.0236949,124.297292 L16.148498,98.2897087 L27.1974744,69.7323614 L23.7977894,43.214811 Z" id="Path" fill="#575A89"></path>
                <path d="M47.9162539,22.5797953 L48.3561673,18.8997945 C48.4586988,18.0420591 48.8770335,16.9142669 49.5724547,17.1475299 C50.1639449,17.3459551 51.452628,17.9535472 51.6683799,17.7701386 C52.476372,17.0832827 53.6990965,18.2842866 54.5487579,17.674122 C54.9047421,17.4184866 55.1369469,16.8708047 55.5506988,16.8342449 C55.8282929,16.8555211 56.0898563,16.997718 56.2862362,17.2341142 C56.8377859,17.8096852 57.4876759,18.2333429 58.1902441,18.4753205 C58.9080403,18.7098597 59.6753751,18.4588755 60.1947106,17.8196882 C60.2847713,17.6524846 60.4061536,17.5128563 60.5491713,17.4119457 C60.7170315,17.353886 60.8961529,17.3637706 61.0588642,17.4400724 L63.2297953,18.1493575 C63.8758975,15.3382149 63.4683567,12.3287316 62.1137244,9.90773858 C61.2330227,8.47320574 60.1653424,7.21844784 58.9517835,6.19176614 C57.6073543,4.96442126 56.2199035,3.81001181 54.7894311,2.7285378 C53.2728706,1.4409223 51.5514299,0.542213288 49.7325413,0.0884976378 C47.9018327,-0.245104724 45.8519469,0.351744094 44.7004134,2.09188346 C44.158761,1.6214675 43.7516425,0.961494223 43.5348898,0.202471654 C43.2734989,0.487843367 43.1310222,0.897618768 43.1458785,1.32130194 C43.1607348,1.74498512 43.3313942,2.13894935 43.6118386,2.3969622 L41.775815,0.99002126 C41.2596732,1.64033858 42.2680866,2.81957244 41.8283268,3.54624094 C41.6953269,3.72596807 41.5246547,3.85968943 41.3340354,3.93351732 C40.3371182,4.39978752 39.4234311,5.08988332 38.6419193,5.96683701 C37.6524612,7.31956021 36.9279972,8.9210043 36.5217047,10.6536189 C35.4276437,14.4201118 34.6324783,18.7395591 36.1869272,22.2652701 C36.3631535,22.6649551 38.6893346,29.2622598 38.9992441,29.5195181 C40.0468819,30.389152 39.3649075,28.2845409 40.1155866,29.5195181 C40.704248,30.4879535 40.5940571,26.7813992 41.4689173,27.5949921 C42.1696326,28.1966424 43.0998475,28.2468421 43.8427382,27.7230969 C44.2054488,27.4212496 44.0885728,25.7450669 43.8928701,24.2058047 C43.8168602,23.6104614 43.9921307,23.0086788 44.3606327,22.5997653 C44.7291348,22.1908518 45.2427778,22.0281716 45.7314449,22.1656039 C46.821065,22.4731984 47.8975807,22.7360268 47.9162539,22.5797953 Z" id="Path" fill="#2F2E41"></path>
                <polygon id="Path" fill="#000000" opacity="0.2" points="69.4812992 94.9748031 74.1555118 141.380787 71.1809055 141.380787"></polygon>
                <polygon id="Path" fill="#000000" opacity="0.2" points="20.1856299 77.1264567 17.8222441 94.9748031 22.3104331 77.1264567 21.0354331 77.1264567"></polygon>
            </g>
        </g>
    </g>
</svg>