<?xml version="1.0" encoding="UTF-8"?>
<svg width="600px" height="500px" viewBox="0 0 600 500" version="1.1" xmlns="http://www.w3.org/2000/svg" xmlns:xlink="http://www.w3.org/1999/xlink">
    <title>web-ui-design</title>
    <defs>
        <linearGradient x1="50.0178111%" y1="100.038419%" x2="50.0178111%" y2="0.0267071872%" id="linearGradient-1">
            <stop stop-color="#808080" stop-opacity="0.25" offset="0%"></stop>
            <stop stop-color="#808080" stop-opacity="0.12" offset="54%"></stop>
            <stop stop-color="#808080" stop-opacity="0.1" offset="100%"></stop>
        </linearGradient>
    </defs>
    <g id="Page-1" stroke="none" stroke-width="1" fill="none" fill-rule="evenodd">
        <g id="web-ui-design">
            <rect id="Rectangle" fill="#090909" x="0" y="0" width="600" height="500"></rect>
            <g id="undraw_wireframing_nxyi" transform="translate(75.000000, 91.000000)">
                <path d="M441,78.0958537 C436.407544,69.2305907 430.386609,61.1716737 423.175738,54.2383902 L175.926224,52.1916585 L379.495759,28.1721951 C366.175814,23.7431643 352.23856,21.4205251 338.193409,21.2891707 C318.595865,7.99331707 293.408111,0 265.934176,0 C241.283177,0 218.488956,6.43653659 199.905284,17.3577073 C184.096837,10.5102439 166.101608,6.642 146.98118,6.642 C92.0452377,6.642 46.269924,38.6073659 36,81 L441,78.0958537 Z" id="Path" fill="#75DAB4" fill-rule="nonzero" opacity="0.1"></path>
                <path d="M450,114.704527 C449.982952,103.036492 447.345935,91.5201832 442.282301,81 L13.0858407,118.971174 C8.73014867,125.590527 5.3442663,132.795362 3.03053097,140.367913 L135.939823,157.061417 L0,169.23426 C4.08982301,217.437449 53.1358407,255.503878 113.049558,255.503878 C143.207522,255.503878 170.609735,245.855303 190.915487,230.126259 C211.284956,246.152976 238.938053,256 269.434513,256 C314.661504,256 353.7,234.301619 371.879204,202.92688 C408.349115,193.175111 436.679204,168.682573 446.376106,138.050032 L278.295133,116.093668 L450,116.093668 C450,115.637236 450,115.176835 450,114.704527 Z" id="Path" fill="#75DAB4" fill-rule="nonzero" opacity="0.1"></path>
                <path d="M112,220 C112,220 94.1067948,193.539065 97.1457749,168.566038 C98.4838079,158.100015 96.4733526,147.471535 91.4162328,138.276223 C88.9826724,133.929197 86.1654769,129.819933 83,126" id="Path" stroke="#535461" stroke-width="2"></path>
                <path d="M85.7176884,109.733023 C86.9396211,113.346576 83.7992541,126 83.7992541,126 C83.7992541,126 73.5798236,117.682839 72.3578908,114.065293 C71.1375284,110.448758 73.1389218,106.547165 76.828128,105.350841 C80.5173342,104.154518 84.497326,106.116487 85.7176884,109.733023 L85.7176884,109.733023 Z" id="Path" fill="#75DAB4" fill-rule="nonzero"></path>
                <path d="M101.746409,126.991069 C100.770431,130.786026 91.1367097,140 91.1367097,140 C91.1367097,140 87.1758638,127.20487 88.1559088,123.409913 C88.7591826,120.92223 90.6408336,118.95585 93.080036,118.264056 C95.5192384,117.572263 98.1378952,118.262291 99.9328471,120.069802 C101.727799,121.877314 102.420813,124.522129 101.746409,126.991069 L101.746409,126.991069 Z" id="Path" fill="#75DAB4" fill-rule="nonzero"></path>
                <path d="M113.045596,160.487469 C110.41164,163.12288 98,166 98,166 C98,166 100.856709,153.610449 103.471126,150.978937 C106.103172,148.345692 110.376686,148.339583 113.016287,150.965292 C115.655887,153.591 115.662011,157.854224 113.029964,160.487469 L113.045596,160.487469 Z" id="Path" fill="#75DAB4" fill-rule="nonzero"></path>
                <path d="M115.694665,188.852954 C113.421868,191.957919 101,197 101,197 C101,197 101.756222,184.022123 104.029018,180.917158 C106.300987,177.810001 110.754225,177.067641 113.975604,179.259051 C117.196983,181.450461 117.966633,185.745797 115.694665,188.852954 L115.694665,188.852954 Z" id="Path" fill="#75DAB4" fill-rule="nonzero"></path>
                <path d="M78.6770657,144.173302 C82.0929383,145.856404 95,144.448424 95,144.448424 C95,144.448424 88.0886308,133.281691 84.648871,131.594544 C81.2584981,130.076601 77.2942816,131.56156 75.6843969,134.952553 C74.0745122,138.343546 75.3979125,142.421091 78.6770657,144.173302 L78.6770657,144.173302 Z" id="Path" fill="#75DAB4" fill-rule="nonzero"></path>
                <path d="M81.9918912,176.957218 C85.8331862,177.525904 98,172.237125 98,172.237125 C98,172.237125 87.8962547,163.645905 84.063098,163.077219 C80.2235181,162.507395 76.6481791,165.152604 76.0773548,168.98546 C75.5065305,172.818316 78.1563805,176.387394 81.9959604,176.957218 L81.9918912,176.957218 Z" id="Path" fill="#75DAB4" fill-rule="nonzero"></path>
                <path d="M89.7544189,207.720085 C93.3711941,208.942806 106,205.763731 106,205.763731 C106,205.763731 97.6658654,195.574391 94.0371273,194.351671 C91.6992915,193.566822 89.1293822,194.116371 87.2954594,195.793308 C85.4615366,197.470246 84.6422168,200.019805 85.1461299,202.481591 C85.650043,204.943378 87.4006325,206.943387 89.7384684,207.728236 L89.7544189,207.720085 Z" id="Path" fill="#75DAB4" fill-rule="nonzero"></path>
                <path d="M85.7176884,109.733023 C86.9396211,113.346576 83.7992541,126 83.7992541,126 C83.7992541,126 73.5798236,117.682839 72.3578908,114.065293 C71.1375284,110.448758 73.1389218,106.547165 76.828128,105.350841 C80.5173342,104.154518 84.497326,106.116487 85.7176884,109.733023 L85.7176884,109.733023 Z" id="Path" fill="#000000" fill-rule="nonzero" opacity="0.25"></path>
                <path d="M101.746409,126.991069 C100.770431,130.786026 91.1367097,140 91.1367097,140 C91.1367097,140 87.1758638,127.20487 88.1559088,123.409913 C88.7591826,120.92223 90.6408336,118.95585 93.080036,118.264056 C95.5192384,117.572263 98.1378952,118.262291 99.9328471,120.069802 C101.727799,121.877314 102.420813,124.522129 101.746409,126.991069 L101.746409,126.991069 Z" id="Path" fill="#000000" fill-rule="nonzero" opacity="0.25"></path>
                <path d="M113.045596,160.487469 C110.41164,163.12288 98,166 98,166 C98,166 100.856709,153.610449 103.471126,150.978937 C106.103172,148.345692 110.376686,148.339583 113.016287,150.965292 C115.655887,153.591 115.662011,157.854224 113.029964,160.487469 L113.045596,160.487469 Z" id="Path" fill="#000000" fill-rule="nonzero" opacity="0.25"></path>
                <path d="M115.694665,188.852954 C113.421868,191.957919 101,197 101,197 C101,197 101.756222,184.022123 104.029018,180.917158 C106.300987,177.810001 110.754225,177.067641 113.975604,179.259051 C117.196983,181.450461 117.966633,185.745797 115.694665,188.852954 L115.694665,188.852954 Z" id="Path" fill="#000000" fill-rule="nonzero" opacity="0.25"></path>
                <path d="M78.6770657,144.173302 C82.0929383,145.856404 95,144.448424 95,144.448424 C95,144.448424 88.0886308,133.281691 84.648871,131.594544 C81.2584981,130.076601 77.2942816,131.56156 75.6843969,134.952553 C74.0745122,138.343546 75.3979125,142.421091 78.6770657,144.173302 L78.6770657,144.173302 Z" id="Path" fill="#000000" fill-rule="nonzero" opacity="0.25"></path>
                <path d="M81.9918912,176.957218 C85.8331862,177.525904 98,172.237125 98,172.237125 C98,172.237125 87.8962547,163.645905 84.063098,163.077219 C80.2235181,162.507395 76.6481791,165.152604 76.0773548,168.98546 C75.5065305,172.818316 78.1563805,176.387394 81.9959604,176.957218 L81.9918912,176.957218 Z" id="Path" fill="#000000" fill-rule="nonzero" opacity="0.25"></path>
                <path d="M89.7544189,207.720085 C93.3711941,208.942806 106,205.763731 106,205.763731 C106,205.763731 97.6658654,195.574391 94.0371273,194.351671 C91.6992915,193.566822 89.1293822,194.116371 87.2954594,195.793308 C85.4615366,197.470246 84.6422168,200.019805 85.1461299,202.481591 C85.650043,204.943378 87.4006325,206.943387 89.7384684,207.728236 L89.7544189,207.720085 Z" id="Path" fill="#000000" fill-rule="nonzero" opacity="0.25"></path>
                <path d="M113,219 C113,219 85.2020792,202.218297 77.8433339,178.078707 C74.8210141,167.94316 68.5617634,159.050879 60.0041948,152.735316 C55.9172385,149.768904 51.5643,147.179635 47,145" id="Path" stroke="#535461" stroke-width="2"></path>
                <path d="M42.3810116,130.275472 C44.8078736,133.111109 47,146 47,146 C47,146 35.1231422,142.433364 32.6962803,139.597727 C30.2696968,136.760596 30.4705632,132.373789 33.1449279,129.799519 C35.8192926,127.225249 39.9544282,127.438341 42.3810116,130.275472 L42.3810116,130.275472 Z" id="Path" fill="#75DAB4" fill-rule="nonzero"></path>
                <path d="M65.9467401,137.901683 C66.5725651,141.739854 61.4765614,154 61.4765614,154 C61.4765614,154 52.7231387,144.013421 52.0932499,140.17525 C51.4670696,136.339648 54.0606595,132.721323 57.8861952,132.093495 C61.7117308,131.465667 65.3205597,134.066082 65.9467401,137.901683 Z" id="Path" fill="#75DAB4" fill-rule="nonzero"></path>
                <path d="M89.5309058,164.479096 C88.1363065,168.077107 77.5487361,176 77.5487361,176 C77.5487361,176 75.027886,163.07785 76.4184195,159.475801 C77.8095238,155.87957 81.8725667,154.084275 85.4934798,155.465897 C89.1143929,156.847518 90.9220101,160.882865 89.5309058,164.479096 Z" id="Path" fill="#75DAB4" fill-rule="nonzero"></path>
                <path d="M101.86402,189.453153 C101.103407,193.283923 92.0085932,203 92.0085932,203 C92.0085932,203 87.3228931,190.513163 88.0835059,186.686486 C88.5746736,184.209549 90.3418069,182.184428 92.7192438,181.373964 C95.0966806,180.563501 97.7232318,181.090825 99.6095009,182.757298 C101.49577,184.423771 102.355188,186.976217 101.86402,189.453153 Z" id="Path" fill="#75DAB4" fill-rule="nonzero"></path>
                <path d="M50.73942,163.998001 C54.5939589,164.131662 66,157.517467 66,157.517467 C66,157.517467 55.0707258,150.14586 51.2161869,150.004098 C48.7247148,149.918723 46.3770639,151.172286 45.0575718,153.292582 C43.7380796,155.412879 43.6472084,158.077786 44.8191883,160.283458 C45.9911683,162.489131 48.2479479,163.900475 50.73942,163.98585 L50.73942,163.998001 Z" id="Path" fill="#75DAB4" fill-rule="nonzero"></path>
                <path d="M66.0936762,192.72481 C69.8920824,191.691642 79,181.921289 79,181.921289 C79,181.921289 66.0895475,178.134362 62.3076561,179.183801 C59.826636,179.830138 57.8895565,181.740139 57.2355784,184.184974 C56.5816003,186.629809 57.3116225,189.232279 59.1470791,190.999319 C60.9825358,192.766359 63.6402443,193.425342 66.1060623,192.72481 L66.0936762,192.72481 Z" id="Path" fill="#75DAB4" fill-rule="nonzero"></path>
                <path d="M85.6955918,218.965073 C89.5452201,218.559288 100,210.484167 100,210.484167 C100,210.484167 88.1471972,204.632748 84.3016211,205.018244 C81.813704,205.267598 79.6476184,206.827135 78.6193078,209.109394 C77.5909973,211.391653 77.8566866,214.049903 79.3162931,216.082808 C80.7758997,218.115713 83.2076746,219.214427 85.6955918,218.965073 L85.6955918,218.965073 Z" id="Path" fill="#75DAB4" fill-rule="nonzero"></path>
                <ellipse id="Oval" fill="#75DAB4" fill-rule="nonzero" opacity="0.1" cx="225" cy="292.5" rx="71" ry="4.5"></ellipse>
                <ellipse id="Oval" fill="#75DAB4" fill-rule="nonzero" opacity="0.1" cx="297.5" cy="311" rx="18.5" ry="3"></ellipse>
                <path d="M257,285.443244 L257,288 L182,288 L182,285.917899 C191.35525,282.422266 197.69907,273.58511 198.070601,263.531005 C198.442133,253.4769 192.768126,244.18811 183.696815,240 L256.50559,240 C247.653369,244.096503 242.01991,253.061975 242.126765,262.88345 C242.23362,272.704924 248.060783,281.543592 257,285.443244 L257,285.443244 Z" id="Path" fill="#C8CAD7" fill-rule="nonzero"></path>
                <path d="M257,240 C250.203149,243.044794 245.180342,248.925575 243.334311,256 L197.665689,256 C195.819658,248.925575 190.796851,243.044794 184,240 L257,240 Z" id="Path" fill="#000000" fill-rule="nonzero" opacity="0.1"></path>
                <path d="M96,227 L96,241.5 C96,249.507222 101.791974,256 108.9374,256 L331.0626,256 C338.208026,256 344,249.507222 344,241.5 L344,227 L96,227 Z" id="Path" fill="#C8CAD7" fill-rule="nonzero"></path>
                <path d="M257,285.534615 L257,288 L182,288 L182,285.992308 C184.056087,285.249977 186.000861,284.243623 187.782618,283 L252.411876,283 C253.843824,284.001707 255.381968,284.851424 257,285.534615 Z" id="Path" fill="#000000" fill-rule="nonzero" opacity="0.1"></path>
                <rect id="Rectangle" fill="#C8CAD7" fill-rule="nonzero" x="158" y="283" width="126" height="7" rx="3.5"></rect>
                <path d="M344,69.9550691 C344,62.800182 338.207729,57 331.0626,57 L108.9374,57 C101.792271,57 96,62.800182 96,69.9550691 L96,230 L344,230 L344,69.9550691 Z" id="Path" fill="#474157" fill-rule="nonzero"></path>
                <rect id="Rectangle" fill="#EDEDF4" fill-rule="nonzero" x="102" y="69" width="235" height="150" rx="16"></rect>
                <circle id="Oval" fill="#FFFFFF" fill-rule="nonzero" cx="220" cy="63" r="3"></circle>
                <circle id="Oval" fill="#FFFFFF" fill-rule="nonzero" cx="219.5" cy="241.5" r="7.5"></circle>
                <path d="M337,76 L102,76 C102,72.6862915 104.85808,70 108.383701,70 L330.616299,70 C334.14192,70 337,72.6862915 337,76 Z" id="Path" fill="#C8CAD7" fill-rule="nonzero"></path>
                <circle id="Oval" fill="#EDEDF4" fill-rule="nonzero" cx="110" cy="72" r="2"></circle>
                <circle id="Oval" fill="#EDEDF4" fill-rule="nonzero" cx="114" cy="72" r="2"></circle>
                <circle id="Oval" fill="#EDEDF4" fill-rule="nonzero" cx="119" cy="72" r="2"></circle>
                <rect id="Rectangle" fill="#75DAB4" fill-rule="nonzero" x="111" y="80" width="60" height="4"></rect>
                <rect id="Rectangle" fill="#75DAB4" fill-rule="nonzero" x="111" y="185" width="60" height="4"></rect>
                <rect id="Rectangle" fill="#75DAB4" fill-rule="nonzero" opacity="0.2" x="112" y="194" width="111" height="4"></rect>
                <rect id="Rectangle" fill="#75DAB4" fill-rule="nonzero" opacity="0.2" x="112" y="198" width="111" height="4"></rect>
                <rect id="Rectangle" fill="#75DAB4" fill-rule="nonzero" opacity="0.2" x="112" y="204" width="111" height="4"></rect>
                <rect id="Rectangle" fill="#75DAB4" fill-rule="nonzero" opacity="0.2" x="112" y="91" width="110" height="59"></rect>
                <rect id="Rectangle" fill="#75DAB4" fill-rule="nonzero" opacity="0.2" x="113" y="156" width="26" height="24"></rect>
                <rect id="Rectangle" fill="#75DAB4" fill-rule="nonzero" opacity="0.2" x="196" y="156" width="26" height="24"></rect>
                <rect id="Rectangle" fill="#75DAB4" fill-rule="nonzero" opacity="0.2" x="154" y="156" width="26" height="24"></rect>
                <rect id="Rectangle" fill="#75DAB4" fill-rule="nonzero" opacity="0.2" x="245" y="108" width="76" height="56"></rect>
                <rect id="Rectangle" fill="#EDEDF4" fill-rule="nonzero" x="254" y="119" width="60" height="4"></rect>
                <rect id="Rectangle" fill="#EDEDF4" fill-rule="nonzero" x="254" y="126" width="60" height="4"></rect>
                <rect id="Rectangle" fill="#EDEDF4" fill-rule="nonzero" x="254" y="133" width="60" height="4"></rect>
                <rect id="Rectangle" fill="#EDEDF4" fill-rule="nonzero" x="254" y="141" width="60" height="4"></rect>
                <rect id="Rectangle" fill="#EDEDF4" fill-rule="nonzero" x="254" y="148" width="60" height="4"></rect>
                <rect id="Rectangle" fill="#75DAB4" fill-rule="nonzero" x="255" y="170" width="58" height="10"></rect>
                <rect id="Rectangle" fill="#75DAB4" fill-rule="nonzero" x="252" y="204" width="39" height="6"></rect>
                <ellipse id="Oval" fill="#75DAB4" fill-rule="nonzero" opacity="0.1" cx="102.5" cy="309" rx="11.5" ry="1"></ellipse>
                <ellipse id="Oval" fill="#75DAB4" fill-rule="nonzero" opacity="0.1" cx="335" cy="292.5" rx="7" ry="1"></ellipse>
                <path d="M107.528918,290 C107.528918,290 92.431693,297.856015 100.243394,307.122607 C100.243394,307.122607 100.975994,309.161013 103.100939,308.989787 C103.100939,308.989787 102.67595,308.211116 104.315193,307.59144 C104.886614,307.364827 105.429932,307.072047 105.934198,306.719003 C106.620133,306.241144 107.133016,305.551396 107.39535,304.75398 L107.39535,304.75398 C107.39535,304.75398 110.483603,300.591556 108.091523,292.890459 C108.091523,292.890459 108.399134,290.713442 108.12795,290.362836 L106.274189,292.853768 C106.274189,292.853768 108.172473,294.133887 108.386991,296.017373 C108.386991,296.017373 106.411805,292.857845 105.982768,293.216604 C105.89777,293.289987 105.072078,294.60272 105.072078,294.60272 C105.072078,294.60272 108.358659,296.849043 108.605557,299.763963 C108.605557,299.763963 106.751796,295.687152 104.752324,295.096014 L103.623068,297.154804 C103.623068,297.154804 107.21726,299.356282 107.622011,302.666652 C107.622011,302.666652 105.537542,298.467537 103.40855,297.61956 L102.566667,299.792501 C102.566667,299.792501 106.027291,302.010286 106.347044,304.76621 C106.347044,304.76621 103.453072,300.159414 102.408814,300.281718 C102.408814,300.281718 101.757164,302.320124 101.842162,302.952029 C101.842162,302.952029 104.290908,304.582754 104.33543,306.213478 C104.33543,306.213478 102.076918,303.339326 101.728832,303.530936 C101.728832,303.530936 101.583121,306.417319 102.279293,307.921662 C102.279293,307.921662 101.089324,305.777259 101.279558,303.530936 C100.576221,304.160122 100.072281,304.983889 99.8305477,305.899564 C99.8305477,305.899564 99.1788981,304.309607 101.32408,302.850109 C101.32408,302.850109 101.526456,300.603786 101.773354,300.326563 C101.773354,300.326563 99.454129,301.463993 98.4705832,302.866416 C98.4705832,302.866416 98.8308119,300.779089 101.97573,299.743579 L102.785233,297.542101 C102.785233,297.542101 99.6443621,298.883372 98.6770064,300.065647 C98.6770064,300.065647 99.3731787,297.994627 103.032131,297.003962 L104.116865,294.965556 C104.116865,294.965556 101.32408,295.911376 99.9641157,297.003962 C99.9641157,297.003962 101.020517,295.226472 104.452808,294.407033 L105.335166,293.139145 C105.335166,293.139145 103.311409,293.868894 102.744757,294.12981 C102.178106,294.390726 102.064775,294.260268 102.064775,294.260268 C103.102588,293.377338 104.363917,292.802808 105.707537,292.601006 C105.707537,292.601006 107.670581,290.118228 107.528918,290 Z" id="Path" fill="#75DAB4" fill-rule="nonzero"></path>
                <ellipse id="Oval" fill="#75DAB4" fill-rule="nonzero" opacity="0.1" cx="67.5" cy="292" rx="8.5" ry="1"></ellipse>
                <path d="M69.945119,277 C69.945119,277 58.9501348,282.791879 64.6284401,289.619704 C64.9568772,290.489849 65.7968401,291.045716 66.709716,290.997042 C66.709716,290.997042 66.4019488,290.424132 67.5830055,289.96502 C68.0004349,289.796621 68.3979144,289.580743 68.7679093,289.321478 C69.2677245,288.96781 69.641637,288.45837 69.8335533,287.869584 L69.8335533,287.869584 C69.8335533,287.869584 72.0802541,284.800986 70.3375222,279.122904 C70.3375222,279.122904 70.5645005,277.514049 70.3644518,277.255062 L69.0295115,279.126828 C69.0295115,279.126828 70.4106169,280.072521 70.5683476,281.457707 C70.5683476,281.457707 69.1295358,279.130752 68.8179215,279.393663 C68.7563681,279.448599 68.156222,280.417837 68.156222,280.417837 C68.156222,280.417837 70.5491121,282.07378 70.7299254,284.224153 C70.7299254,284.224153 69.3795967,281.210492 67.9215495,280.782772 L67.1021192,282.297451 C67.1021192,282.297451 69.7142935,283.922002 70.0105195,286.362753 C70.0105195,286.362753 68.4909188,283.266688 66.9328472,282.642766 L66.3211599,284.243773 C66.3211599,284.243773 68.8448511,285.880097 69.0756765,287.912748 C69.0756765,287.912748 66.9674711,284.514532 66.2057472,284.620481 C66.2057472,284.620481 65.7325551,286.127311 65.7941085,286.582499 C65.7941085,286.582499 67.5791584,287.798951 67.6099351,288.991858 C67.6099351,288.991858 65.9633805,286.872878 65.7094725,287.02984 C65.7094725,287.02984 65.6056011,289.156668 66.113417,290.267171 C65.5977165,289.271331 65.345764,288.155445 65.3824698,287.02984 C64.8741515,287.490321 64.5079421,288.09152 64.3283671,288.76034 C64.3283671,288.76034 63.855175,287.583129 65.4170937,286.511867 C65.4170937,286.511867 65.5632831,284.855923 65.7440963,284.651873 C65.7440963,284.651873 64.0552237,285.491617 63.3396649,286.523639 C63.3396649,286.523639 63.601267,284.985416 65.8902858,284.220229 L66.4711964,282.595677 C66.4711964,282.595677 64.1821777,283.584535 63.4743131,284.459595 C63.4743131,284.459595 63.982129,282.929221 66.6481626,282.19935 L67.4406632,280.704291 C67.4406632,280.704291 65.4055524,281.40277 64.4130031,282.19935 C64.4130031,282.19935 65.1824212,280.884797 67.6830299,280.284419 L68.3254939,279.346574 C68.3254939,279.346574 66.8520583,279.884168 66.4404197,280.080369 C66.028781,280.276571 65.944145,280.174546 65.944145,280.174546 C66.698469,279.52469 67.6146723,279.100892 68.5909432,278.950247 C68.5909432,278.950247 70.0297549,277.078481 69.945119,277 Z" id="Path" fill="#75DAB4" fill-rule="nonzero"></path>
                <path d="M338.212431,280 C338.212431,280 329.961254,284.985647 334.221593,290.818725 C334.468333,291.564033 335.098609,292.039742 335.783225,291.997386 C335.783225,291.997386 335.550642,291.506994 336.440366,291.111239 C336.754557,290.969275 337.053212,290.784449 337.33009,290.560624 C337.704041,290.25732 337.983772,289.821222 338.127519,289.317439 L338.127519,289.317439 C338.127519,289.317439 339.814673,286.684811 338.496699,281.819611 C338.496699,281.819611 338.662831,280.443073 338.515158,280.219386 L337.51468,281.819611 C337.51468,281.819611 338.552076,282.632628 338.670214,283.824194 C338.670214,283.824194 337.588516,281.823912 337.355933,282.051901 C337.307939,282.09922 336.85754,282.912237 336.85754,282.912237 C336.85754,282.912237 338.655447,284.331792 338.788352,286.172911 C338.788352,286.172911 337.776798,283.591903 336.684025,283.22626 L336.093337,284.555479 C336.093337,284.555479 338.053683,285.944922 338.275191,288.03984 C338.275191,288.03984 337.138116,285.385703 335.971507,284.847993 L335.513724,286.224531 C335.513724,286.224531 337.403926,287.622577 337.581133,289.369059 C337.581133,289.369059 335.99735,286.45252 335.428812,286.547157 C335.26654,287.092316 335.162389,287.658648 335.118701,288.233416 C335.118701,288.233416 336.455133,289.274422 336.480976,290.298222 C336.480976,290.298222 335.244222,288.482913 335.05594,288.60336 C335.05594,288.60336 334.974721,290.427272 335.354976,291.377944 C334.970489,290.523485 334.782262,289.567655 334.80859,288.60336 C334.427216,288.998233 334.152706,289.513892 334.018544,290.08744 C334.018544,290.08744 333.649364,289.080846 334.834432,288.160287 C334.834432,288.160287 334.945186,286.740733 335.078091,286.564364 C335.078091,286.564364 333.811803,287.282744 333.276492,288.16889 C333.276492,288.16889 333.472158,286.848275 335.188845,286.194419 L335.624478,284.804977 C335.624478,284.804977 333.90779,285.665313 333.376171,286.396598 C333.376171,286.396598 333.745351,285.106094 335.761075,284.460842 L336.351763,283.170338 C335.550589,283.485302 334.787509,283.919029 334.081305,284.460842 C334.081305,284.460842 334.660918,283.338104 336.536353,282.821902 L337.016287,282.017488 C337.016287,282.017488 335.908747,282.482069 335.602327,282.645533 C335.295908,282.808997 335.233147,282.727265 335.233147,282.727265 C335.798837,282.169499 336.486534,281.806083 337.219336,281.677655 C337.219336,281.677655 338.286267,280.086034 338.212431,280 Z" id="Path" fill="#75DAB4" fill-rule="nonzero"></path>
                <ellipse id="Oval" fill="#75DAB4" fill-rule="nonzero" opacity="0.1" cx="373" cy="316.5" rx="17" ry="1.5"></ellipse>
                <path d="M386.84243,273.949988 C386.461021,274.473194 386.155228,275.047031 385.933982,275.654737 C385.8782,275.801425 385.826403,275.9719 385.770621,276.134446 C385.668152,276.087459 385.561419,276.050289 385.451867,276.023439 C384.988722,275.90715 384.509586,275.866975 384.033413,275.904503 C384.033413,275.71817 384.053335,275.527872 384.061304,275.321717 C384.117086,273.232407 383.870051,270.318475 381.865887,271.55541 C379.945396,272.74477 381.316037,274.727037 382.555192,275.995687 C382.662772,276.106694 382.770351,276.209772 382.873946,276.308885 C381.746354,277.101792 381.527211,278.977016 381.339943,280.923602 C381.152675,282.870188 379.491171,284.999143 378.391471,286.208326 L378.076701,286.545311 C377.17995,285.832926 376.020631,285.534449 374.889164,285.724652 C374.841351,285.554178 374.793538,285.375774 374.737756,285.18944 C373.849229,281.982133 371.996473,276.427821 369.629726,275.21071 C369.733321,275.087809 369.836916,274.95698 369.944496,274.814256 C370.94857,273.50596 372.076162,271.567303 370.406689,271.071737 C368.737216,270.57617 368.589792,272.752699 368.681434,274.386087 C368.681434,274.592242 368.697371,274.786505 368.729247,274.968873 C368.053495,274.999329 367.420456,275.306377 366.980085,275.817283 L366.725082,275.512014 C365.370379,273.926201 362.884099,271.400793 362.135028,273.307734 C361.43377,275.083845 363.617233,277.391203 365.15522,278.727251 L365.254831,278.810506 C364.218881,282.977231 368.725262,286.374836 371.151776,287.861536 L371.466545,288.051834 C368.11963,291.976722 366.055699,299.334896 366.055699,299.334896 L375.427061,301 C375.427061,301 381.638775,295.663738 380.845875,290.652568 L380.909626,290.652568 C387.117356,289.415633 388.531826,282.826578 387.563611,278.913584 L387.67119,278.869974 C388.802921,278.409528 389.794448,277.663446 390.547943,276.705339 C392.269214,274.294902 388.647374,271.571268 386.84243,273.949988 Z" id="Path" fill="#75DAB4" fill-rule="nonzero"></path>
                <path d="M386.84243,273.949988 C386.461021,274.473194 386.155228,275.047031 385.933982,275.654737 C385.8782,275.801425 385.826403,275.9719 385.770621,276.134446 C385.668152,276.087459 385.561419,276.050289 385.451867,276.023439 C384.988722,275.90715 384.509586,275.866975 384.033413,275.904503 C384.033413,275.71817 384.053335,275.527872 384.061304,275.321717 C384.117086,273.232407 383.870051,270.318475 381.865887,271.55541 C379.945396,272.74477 381.316037,274.727037 382.555192,275.995687 C382.662772,276.106694 382.770351,276.209772 382.873946,276.308885 C381.746354,277.101792 381.527211,278.977016 381.339943,280.923602 C381.152675,282.870188 379.491171,284.999143 378.391471,286.208326 L378.076701,286.545311 C377.17995,285.832926 376.020631,285.534449 374.889164,285.724652 C374.841351,285.554178 374.793538,285.375774 374.737756,285.18944 C373.849229,281.982133 371.996473,276.427821 369.629726,275.21071 C369.733321,275.087809 369.836916,274.95698 369.944496,274.814256 C370.94857,273.50596 372.076162,271.567303 370.406689,271.071737 C368.737216,270.57617 368.589792,272.752699 368.681434,274.386087 C368.681434,274.592242 368.697371,274.786505 368.729247,274.968873 C368.053495,274.999329 367.420456,275.306377 366.980085,275.817283 L366.725082,275.512014 C365.370379,273.926201 362.884099,271.400793 362.135028,273.307734 C361.43377,275.083845 363.617233,277.391203 365.15522,278.727251 L365.254831,278.810506 C364.218881,282.977231 368.725262,286.374836 371.151776,287.861536 L371.466545,288.051834 C368.11963,291.976722 366.055699,299.334896 366.055699,299.334896 L375.427061,301 C375.427061,301 381.638775,295.663738 380.845875,290.652568 L380.909626,290.652568 C387.117356,289.415633 388.531826,282.826578 387.563611,278.913584 L387.67119,278.869974 C388.802921,278.409528 389.794448,277.663446 390.547943,276.705339 C392.269214,274.294902 388.647374,271.571268 386.84243,273.949988 Z" id="Path" fill="#000000" fill-rule="nonzero" opacity="0.1"></path>
                <path d="M368,275.919065 L367.026785,279 C367.026785,279 366.485324,278.584074 365.802304,277.929375 C364.439804,276.631531 362.496913,274.39015 363.119771,272.664826 C363.785096,270.812414 365.993408,273.257907 367.196656,274.806077 C367.677954,275.44152 368,275.919065 368,275.919065 Z" id="Path" fill="#75DAB4" fill-rule="nonzero"></path>
                <path d="M370.486556,274.763322 C370.09923,275.19316 369.68622,275.605926 369.249142,276 C369.138049,275.450802 369.062521,274.896859 369.022899,274.34066 C368.916703,272.728282 369.115243,270.587576 371.022153,271.068941 C372.929062,271.550306 371.659328,273.471854 370.486556,274.763322 Z" id="Path" fill="#75DAB4" fill-rule="nonzero"></path>
                <path d="M383.991337,275.093988 C383.945895,276.152883 383.814616,277 383.814616,277 C383.203861,276.621683 382.625314,276.211886 382.082746,275.773279 C380.512449,274.482625 378.77553,272.4927 381.209237,271.297946 C383.748976,270.051247 384.062026,272.988184 383.991337,275.093988 Z" id="Path" fill="#75DAB4" fill-rule="nonzero"></path>
                <path d="M389.590303,276.556361 C388.916333,277.486791 388.030183,278.211977 387.018735,278.66082 C386.737254,278.791601 386.44907,278.904847 386.155601,279 L385,277.246284 C385.120266,276.6669 385.278794,276.097572 385.474367,275.542675 C385.672416,274.951863 385.946148,274.393979 386.287567,273.885317 C387.885435,271.584288 391.14537,274.232206 389.590303,276.556361 Z" id="Path" fill="#75DAB4" fill-rule="nonzero"></path>
                <path d="M366.903382,275 C367.560386,275.590406 368,276.04797 368,276.04797 L366.671498,279 C366.671498,279 365.932367,278.601476 365,277.97417 C365.209303,277.023388 365.723836,276.12705 366.497585,275.365314 C366.624862,275.238494 366.760294,275.116573 366.903382,275 Z" id="Path" fill="#000000" fill-rule="nonzero" opacity="0.1"></path>
                <path d="M370,274.509434 C369.735372,275.027518 369.453194,275.525023 369.154574,276 C369.078673,275.338052 369.027071,274.670386 369,274 C369.360462,274.011795 369.709699,274.189708 370,274.509434 Z" id="Path" fill="#000000" fill-rule="nonzero" opacity="0.1"></path>
                <path d="M375,286.786057 L372.338601,288 C372.338601,288 371.754961,287.708654 370.918411,287.166426 C368.12472,285.377883 362.498431,280.874153 366.24929,275.565174 C370.00015,270.256196 373.163479,279.777558 374.420251,284.435053 C374.78989,285.831088 375,286.786057 375,286.786057 Z" id="Path" fill="#75DAB4" fill-rule="nonzero"></path>
                <path d="M382,274.712788 C382.263548,274.281237 382.621416,274.026153 383,274 C382.97619,275.111111 382.907407,276 382.907407,276 C382.587404,275.603028 382.284277,275.173023 382,274.712788 Z" id="Path" fill="#000000" fill-rule="nonzero" opacity="0.1"></path>
                <path d="M387,278.607581 C386.721131,278.75889 386.435622,278.889911 386.144876,279 L385,276.971014 C385.11915,276.300687 385.276207,275.641996 385.469965,275 C386.194346,275.544036 386.738516,276.899666 387,278.607581 Z" id="Path" fill="#000000" fill-rule="nonzero" opacity="0.1"></path>
                <path d="M380.730274,290.655067 C380.572002,290.688698 380.409565,290.718125 380.247128,290.739144 C370.700819,292.206283 377.098345,287.006136 377.098345,287.006136 C377.098345,287.006136 377.514851,286.606771 378.114619,285.950973 C379.264174,284.689822 380.996838,282.423953 381.19676,280.347257 C381.496645,277.223806 381.842344,274.293731 385.495098,275.151314 C389.147853,276.008897 389.760116,288.826398 380.730274,290.655067 Z" id="Path" fill="#75DAB4" fill-rule="nonzero"></path>
                <rect id="Rectangle" fill="#D4DFEC" fill-rule="nonzero" x="363" y="312" width="17" height="5"></rect>
                <rect id="Rectangle" fill="#D4DFEC" fill-rule="nonzero" x="360" y="298" width="23" height="16"></rect>
                <rect id="Rectangle" fill="#000000" fill-rule="nonzero" opacity="0.1" x="363" y="312" width="17" height="5"></rect>
                <rect id="Rectangle" fill="#000000" fill-rule="nonzero" opacity="0.1" x="360" y="298" width="23" height="16"></rect>
                <rect id="Rectangle" fill="#D4DFEC" fill-rule="nonzero" x="364" y="312" width="17" height="5"></rect>
                <path d="M373.43184,284 C373.813155,285.563636 374,286.636364 374,286.636364 L371.391802,288 C371.391802,288 370.819828,287.672727 370,287.063636 C371.021926,285.522727 372.177312,284.359091 373.43184,284 Z" id="Path" fill="#000000" fill-rule="nonzero" opacity="0.1"></path>
                <path d="M380,290.658416 C379.861898,290.691721 379.720162,290.720862 379.578426,290.741677 C371.248713,292.19457 376.830929,287.044917 376.830929,287.044917 C376.830929,287.044917 377.194355,286.649431 377.717688,286 C379.273149,287.427915 379.909144,289.03484 380,290.658416 Z" id="Path" fill="#000000" fill-rule="nonzero" opacity="0.1"></path>
                <path d="M366,299.268487 C366,299.268487 371.163331,280.259039 378.401645,286.12304 C385.63996,291.987042 375.458064,301 375.458064,301 L366,299.268487 Z" id="Path" fill="#75DAB4" fill-rule="nonzero"></path>
                <circle id="Oval" fill="#000000" fill-rule="nonzero" opacity="0.1" cx="368.5" cy="278.5" r="1"></circle>
                <circle id="Oval" fill="#000000" fill-rule="nonzero" opacity="0.1" cx="368.5" cy="280.5" r="1"></circle>
                <circle id="Oval" fill="#000000" fill-rule="nonzero" opacity="0.1" cx="384.5" cy="279.5" r="1"></circle>
                <circle id="Oval" fill="#000000" fill-rule="nonzero" opacity="0.1" cx="371.5" cy="292.5" r="1"></circle>
                <circle id="Oval" fill="#000000" fill-rule="nonzero" opacity="0.1" cx="383.5" cy="283.5" r="1"></circle>
                <circle id="Oval" fill="#000000" fill-rule="nonzero" opacity="0.1" cx="378.5" cy="289.5" r="1"></circle>
                <circle id="Oval" fill="#000000" fill-rule="nonzero" opacity="0.1" cx="370.5" cy="280.5" r="1"></circle>
                <circle id="Oval" fill="#000000" fill-rule="nonzero" opacity="0.1" cx="383.5" cy="280.5" r="1"></circle>
                <circle id="Oval" fill="#000000" fill-rule="nonzero" opacity="0.1" cx="381.5" cy="284.5" r="1"></circle>
                <circle id="Oval" fill="#000000" fill-rule="nonzero" opacity="0.1" cx="375.5" cy="292.5" r="1"></circle>
                <circle id="Oval" fill="#000000" fill-rule="nonzero" opacity="0.1" cx="373.5" cy="290.5" r="1"></circle>
                <circle id="Oval" fill="#000000" fill-rule="nonzero" opacity="0.1" cx="371.5" cy="282.5" r="1"></circle>
                <rect id="Rectangle" fill="#000000" fill-rule="nonzero" opacity="0.1" x="364" y="312" width="17" height="1"></rect>
                <rect id="Rectangle" fill="#D4DFEC" fill-rule="nonzero" x="361" y="298" width="23" height="16"></rect>
                <circle id="Oval" fill="#000000" fill-rule="nonzero" opacity="0.1" cx="376.5" cy="294.5" r="1"></circle>
                <circle id="Oval" fill="#000000" fill-rule="nonzero" opacity="0.1" cx="372.5" cy="295.5" r="1"></circle>
                <path d="M333.93743,228.106911 C333.458856,227.764118 333.259451,226.939023 333.187665,226.113928 C333.187665,225.926588 333.159748,225.743233 333.151772,225.567851 C333.366605,225.436898 333.554698,225.266489 333.706119,225.065619 C334.651302,223.726335 332.39403,218.867443 332.39403,218.867443 C332.39403,218.867443 333.267427,216.332369 332.39403,214.14806 C331.520634,211.963751 331.121823,211.541239 331.121823,211.541239 C331.121823,211.541239 328.17062,205.482571 328.609313,204.765098 C329.048005,204.047624 327.879488,198.387553 327.014068,197.251553 C326.652201,196.760123 326.263432,196.28906 325.849539,195.840521 C325.849539,195.840521 325.997099,193.377195 324.756797,191.45596 C323.516494,189.534724 322.136607,184.201503 322.136607,184.201503 C322.136607,184.201503 320.609161,179.199116 319.516418,177.425362 C319.070669,176.801757 318.532795,176.249388 317.921173,175.78713 C318.092662,174.989937 318.487485,173.933656 317.354862,167.683662 C316.892241,165.116701 317.614089,163.58609 318.208318,161.04703 C318.802546,158.50797 318.674927,155.570314 316.85236,153.653064 C315.029793,151.735815 312.202221,151.377078 309.940962,150.065696 C307.946906,148.913752 306.172197,146.964615 303.84314,147 C302.13224,147.02839 302.136228,147.29545 300.560924,147.93719 C297.837043,149.045289 294.774174,148.710467 292.006424,149.627239 C289.517843,150.452334 286.35527,153.162791 287.109023,156.036672 C287.227871,156.687525 287.54881,157.28443 288.026289,157.742665 C288.564684,158.232939 289.222722,158.236925 289.960523,158.089444 C289.960523,158.137275 289.960523,158.181121 289.932606,158.228953 C289.868208,158.624283 289.836197,159.024207 289.836892,159.424742 C289.836892,163.685739 293.390299,167.145557 297.785198,167.173459 C297.809127,167.265136 297.829067,167.360799 297.852996,167.456462 C297.912818,167.711564 297.968651,167.966666 298.024485,168.22974 C297.817103,168.504771 297.601745,168.779803 297.398351,169.054834 C296.893335,169.697791 296.489845,170.414274 296.201918,171.179354 C293.896789,171.649698 290.032309,172.411017 289.422128,173.407509 C288.624506,174.746793 285.346278,181.379439 285.709196,184.396815 C285.729137,184.564225 285.745089,184.795411 285.761042,185.034569 C285.761042,185.034569 283.743057,188.621938 283.451925,189.749966 C283.160793,190.877995 282.506743,195.103118 281.26644,196.087651 C280.026137,197.072185 277.481722,200.245013 277.84464,200.87081 C278.207558,201.496606 274.42284,202.277855 274.42284,202.277855 C274.42284,202.277855 271.878425,203.262389 272.029973,204.039652 C272.073843,204.274824 271.894378,204.498038 271.631162,204.71328 C268.735793,203.760634 265.04679,203.118894 262.187314,204.569785 C258.199202,206.59067 265.19435,207.981772 269.365915,208.591624 C270.05187,208.69526 270.658063,208.774979 271.12866,208.830782 C271.160565,208.966305 271.292173,209.085884 271.627174,209.201477 C271.890389,209.293154 272.281224,209.436649 272.735869,209.600074 L272.90337,209.081898 C274.287245,209.572172 278.063986,211.098797 278.063986,211.098797 C278.063986,211.098797 281.342214,211.632916 282.287396,209.731611 C282.686208,208.962319 283.774962,207.738628 284.959431,206.542838 L284.827823,206.969337 L282.06805,216.069295 C282.06805,216.069295 277.701068,222.845436 277.920414,224.308286 C278.13976,225.771135 276.536539,229.521928 276.173621,229.888637 C275.810703,230.255346 272.18551,240.945705 270.275204,241.651221 C268.364899,242.356737 265.832448,244.820063 266.685904,245.597326 C267.53936,246.37459 271.072827,248.905678 272.668071,248.060653 C274.263316,247.215628 277.054994,248.766169 277.054994,248.766169 C277.054994,248.766169 280.109887,248.263937 282.598469,249.459727 C282.626386,249.734758 282.658291,250.033706 282.690196,250.348597 C282.949423,252.740176 283.372163,256.044542 283.822819,257.005159 C284.552644,258.5557 285.206694,261.30203 284.620442,262.358311 C284.034189,263.414591 285.13092,283.55966 286.215686,287.011506 C287.069142,289.713991 288.237659,294.062679 288.038253,296.900686 C287.91861,298.626609 287.846824,300.352532 287.83486,302.082441 C287.83486,302.178104 287.83486,302.273767 287.83486,302.36943 C287.83486,302.465094 287.767062,302.520897 287.735157,302.600616 L287.735157,302.756069 C287.482372,303.353511 287.270514,303.967436 287.101047,304.593599 C287.101047,304.593599 285.222647,309.312982 285.856756,310.544645 C285.931121,310.679857 286.033014,310.797989 286.155865,310.891424 C287.061166,311.61687 289.346354,311.772323 290.143976,311.80421 L290.108083,313 L291.180885,313 C291.180885,313 291.208802,311.80421 291.280588,310.313459 C291.59365,309.474748 291.750442,308.585841 291.743209,307.690694 C291.728201,306.128371 292.054866,304.581631 292.700356,303.158652 C292.700356,303.158652 292.724284,303.035087 292.748213,302.835788 L292.748213,302.835788 C292.802891,302.424954 292.825558,302.010496 292.816011,301.596153 C292.859874,300.871129 292.722833,300.14657 292.4172,299.487578 C292.385055,299.056794 292.41189,298.623641 292.496962,298.200111 C292.788094,297.14383 292.05827,289.749864 292.05827,289.749864 L293.294584,276.153737 C293.294584,276.153737 294.024409,265.65869 293.733277,262.91236 C293.656935,262.17706 293.674357,261.435046 293.785122,260.704135 C294.241851,257.718642 294.508263,254.707154 294.582744,251.687881 C294.582744,251.404878 294.582744,251.12586 294.582744,250.842857 C297.230851,251.751657 301.721464,251.006281 301.721464,251.006281 C301.721464,251.006281 302.766349,250.982366 304.154212,251.006281 C304.190105,251.293271 304.229986,251.576274 304.269867,251.851306 C304.481237,253.330099 304.732488,254.641482 304.991716,255.203503 C305.717552,256.754043 306.37559,259.500373 305.789338,260.556654 C305.203086,261.612935 306.295828,281.758004 307.384583,285.20985 C308.242027,287.912334 309.410543,292.257036 309.211138,295.09903 C309.091494,296.820967 309.019708,298.54689 309.007744,300.280785 L309.007744,300.599662 C308.971851,300.675395 308.935958,300.751129 308.904053,300.830848 C308.872148,300.910567 308.904053,300.938469 308.904053,300.986301 C308.662379,301.587362 308.461195,302.203905 308.301848,302.831802 C308.301848,302.831802 306.41946,307.555171 307.057558,308.786835 C307.130958,308.9216 307.233064,309.038619 307.356666,309.129628 C308.261967,309.859059 310.547155,310.010526 311.344777,310.042414 L311.308884,311.238203 L312.381686,311.238203 C312.381686,311.238203 312.409603,310.042414 312.481389,308.551663 C312.794452,307.712951 312.951243,306.824044 312.94401,305.928898 C312.925144,304.36787 313.246302,302.821427 313.885205,301.396855 C313.972636,300.883474 314.01136,300.362988 314.00086,299.842328 C314.04154,299.111562 313.897533,298.382316 313.582108,297.721795 C313.552152,297.292324 313.57897,296.860779 313.66187,296.438314 C313.953002,295.382033 313.227166,287.984082 313.227166,287.984082 L314.463481,274.39194 C314.463481,274.39194 315.193305,263.896893 314.898185,261.150563 C314.824982,260.415027 314.843738,259.673241 314.954018,258.942338 C315.392742,256.10578 315.659105,253.245259 315.751641,250.376499 C315.751641,250.089509 315.751641,249.806506 315.751641,249.519516 C316.014856,249.196653 316.549263,248.941551 318.024864,248.447292 C320.573268,247.602267 325.670074,243.373158 327.707999,243.09414 C329.745924,242.815123 331.564503,241.471852 330.982239,240.415572 C330.399975,239.359291 327.197521,238.653775 327.488653,237.035473 C327.779785,235.417171 325.522514,234.428652 324.505546,231.754069 C323.488577,229.079486 319.041833,226.970911 318.970047,224.977928 C318.898261,222.984945 314.774553,216.89439 314.774553,216.89439 C314.774553,216.89439 310.630905,210.006642 309.71364,205.797463 C309.71364,205.7018 309.677747,205.614108 309.661794,205.526417 L309.71364,205.526417 C309.642881,205.211074 309.592263,204.891552 309.562092,204.569785 C309.562092,204.478108 309.582032,204.382445 309.597985,204.29874 L309.542151,204.29874 L309.542151,204.147273 C309.542151,204.147273 309.542151,204.147273 309.542151,204.119371 C309.569869,204.098472 309.599208,204.079812 309.629889,204.063568 L309.869176,203.924059 L309.789414,203.955947 C310.266978,203.645837 310.709575,203.285001 311.109479,202.879736 C311.768943,202.29597 312.288299,201.57117 312.628949,200.759203 C312.950025,199.859618 313.149856,198.921319 313.223178,197.969027 L313.741633,197.171834 C314.244135,199.272438 314.977947,202.285827 315.209258,202.959455 C316.310123,205.804633 317.187504,208.731217 317.833435,211.712635 C318.48009,214.603819 319.555466,217.382169 321.023924,219.955612 C321.023924,219.955612 324.736856,224.814503 327.576392,225.025759 C330.415927,225.237016 328.816694,226.010293 329.251399,226.153788 L329.37503,226.181689 L329.418899,226.751682 L329.542531,228.405858 C329.542531,228.405858 332.453852,240.240189 335.73208,238.55014 C339.010308,236.86009 335.022196,228.880188 333.93743,228.106911 Z" id="Path" fill="url(#linearGradient-1)" fill-rule="nonzero"></path>
                <path d="M333.869062,239.835143 C330.932673,241.518055 328.323375,229.761602 328.323375,229.761602 L328.211866,228.114582 L328,225 L331.586856,225.490517 C331.532702,226.163227 331.532702,226.839693 331.586856,227.512403 C331.650044,228.309992 331.832174,229.143471 332.259623,229.478459 C333.214879,230.252119 336.801735,238.15622 333.869062,239.835143 Z" id="Path" fill="#A1616A" fill-rule="nonzero"></path>
                <path d="M286.165,307.755 L286.835,307.245 C286.632385,307.440623 286.407514,307.611793 286.165,307.755 L286.165,307.755 Z" id="Path" fill="#A1616A" fill-rule="nonzero"></path>
                <path d="M295,242 L295,250.110402 C295,250.462094 295,250.812444 295,251.161452 C294.915471,254.191318 294.642013,257.213228 294.181167,260.210148 C294.071511,260.942172 294.053636,261.684669 294.127943,262.420978 C294.414534,265.179481 293.718526,275.710117 293.718526,275.710117 L292.490276,289.349607 C292.490276,289.349607 293.206755,296.767363 292.899693,297.806332 C292.81836,298.232261 292.792222,298.66661 292.821904,299.099003 C292.862845,300.307106 293.075742,301.857506 293.145343,302.320612 L293.145343,302.461558 L293.100307,302.493774 L287.094166,307 C288.052201,306.142246 288.297851,304.144849 288.293756,302.292423 C288.293756,302.091072 288.293756,301.889722 288.293756,301.688371 C288.293756,299.956756 288.361992,298.225141 288.498465,296.493526 C288.694985,293.646428 287.54043,289.285174 286.697032,286.570968 C285.620266,283.111765 284.539406,262.900192 285.116684,261.841088 C285.693961,260.781984 285.042989,258.023481 284.32651,256.469054 C283.904811,255.522706 283.495394,252.212502 283.249744,249.796295 C283.094166,248.330463 283,247.219007 283,247.219007 L295,242 Z" id="Path" fill="#A1616A" fill-rule="nonzero"></path>
                <path d="M306.14,305.77 L306.86,305.23 C306.639886,305.435092 306.398521,305.616117 306.14,305.77 L306.14,305.77 Z" id="Path" fill="#A1616A" fill-rule="nonzero"></path>
                <path d="M315,241 L315,249.11191 C315,249.611352 315,250.114822 315,250.614264 C314.906747,253.493355 314.643178,256.364647 314.210634,259.213533 C314.101049,259.94569 314.083193,260.68833 314.157464,261.424774 C314.443763,264.18379 313.748466,274.716384 313.748466,274.716384 L312.521472,288.358409 C312.521472,288.358409 313.241309,295.777544 312.95501,296.816706 C312.871844,297.241121 312.845716,297.674464 312.877301,298.105589 C312.9182,299.313917 313.134969,300.888772 313.200409,301.327798 C313.200409,301.416408 313.220859,301.460714 313.220859,301.460714 L313.175869,301.492936 L313.175869,301.492936 L307.167689,306 C308.096115,305.121948 308.337423,303.148346 308.333333,301.319742 C308.333333,301.118354 308.333333,300.916966 308.333333,300.71155 C308.333333,298.979613 308.415133,297.247676 308.533742,295.515739 C308.725971,292.668113 307.576687,288.310076 306.734151,285.595365 C305.654397,282.135519 304.578732,261.920188 305.155419,260.860887 C305.732106,259.801586 305.0818,257.04257 304.366053,255.487855 C304.108384,254.940079 303.862986,253.606891 303.650307,252.124675 C303.269939,249.434131 303,246.232061 303,246.232061 L315,241 Z" id="Path" fill="#A1616A" fill-rule="nonzero"></path>
                <path d="M304,165.845387 L303.942904,165.931866 C302.752847,167.595992 300.908148,168.687929 298.861338,168.939809 C298.564992,168.98081 298.266067,169.000914 297.96683,169 C297.943991,168.90973 297.924959,168.819492 297.902121,168.733013 C297.464383,166.853048 297,165.349077 297,165.349077 C297,165.349077 297.498641,164.63845 298.225666,163.732307 C300.201196,161.265793 303.840131,157.366746 303.554649,162.578009 C303.493435,163.63355 303.622313,164.691448 303.935291,165.70251 C303.961936,165.72883 303.977162,165.781469 304,165.845387 Z" id="Path" fill="#000000" fill-rule="nonzero" opacity="0.1"></path>
                <path d="M305,159.999878 C305.001027,164.038403 301.990511,167.443733 297.982384,167.937819 C297.655204,167.979558 297.325688,168.000326 296.995856,168 L296.937825,168 C292.527804,167.96572 288.977303,164.368909 289,159.958748 C289.022916,155.548587 292.610426,151.98869 297.020566,152 C301.430705,152.011364 305,155.589657 305,159.999878 L305,159.999878 Z" id="Path" fill="#A1616A" fill-rule="nonzero"></path>
                <path d="M312,182.694708 L304.619024,189 C304.619024,189 296.57171,177.524369 297.521932,175.171707 C297.82553,174.434776 297.790044,173.126428 297.596846,171.66833 C297.490389,170.880168 297.336619,170.00925 297.163135,169.189562 C297.111878,168.933409 297.056678,168.681198 297.001479,168.432927 C296.977822,168.338348 296.958107,168.243768 296.93445,168.15313 C296.481025,166.182726 296,164.606403 296,164.606403 C296,164.606403 296.516511,163.861591 297.269591,162.911856 C299.315919,160.326686 303.085264,156.240069 302.789552,161.702028 C302.726143,162.808348 302.85964,163.917138 303.183834,164.976839 C303.183834,165.039892 303.21932,165.102945 303.242977,165.162057 C304.291769,168.385637 306.846723,170.958984 308.810251,172.555011 C309.614203,173.215975 310.464043,173.819118 311.353376,174.359901 L312,182.694708 Z" id="Path" fill="#A1616A" fill-rule="nonzero"></path>
                <path d="M283,248.142857 L295,243 L295,250.967473 C295,251.312967 295,251.657143 295,252 C294.728745,251.909077 294.468039,251.791076 294.222108,251.647912 C291.851586,250.231648 288.899693,251.331429 288.69089,251.331429 C288.482088,251.331429 286.103378,252.304615 283.58956,250.844835 C283.479017,250.781538 283.368475,250.722198 283.262027,250.670769 C283.085977,249.234725 283,248.142857 283,248.142857 Z" id="Path" fill="#000000" fill-rule="nonzero" opacity="0.1"></path>
                <path d="M315,241 L315,249.388897 C315,249.905393 315,250.426054 315,250.94255 C314.829439,251.232613 314.691896,251.54144 314.590024,251.86308 C314.155449,252.887741 311.207721,253.254287 308.616672,252.821097 C306.970604,252.602489 305.311916,252.496729 303.651862,252.504535 C303.270584,249.72212 303,246.410713 303,246.410713 L315,241 Z" id="Path" fill="#000000" fill-rule="nonzero" opacity="0.1"></path>
                <path d="M325.785265,243.657765 C323.824156,243.936219 318.929355,248.124958 316.481955,248.964297 C314.034555,249.803636 314.313574,249.938885 313.895045,250.917451 C313.476516,251.896017 310.6066,252.242095 308.087452,251.828393 C305.568304,251.41469 300.813013,251.545961 300.813013,251.545961 C300.813013,251.545961 295.515627,252.46088 293.191792,251.024855 C290.867958,249.588829 288.01,250.706622 287.806714,250.706622 C287.603429,250.706622 285.287566,251.685188 282.840166,250.217339 C280.392766,248.74949 277.104321,249.310376 277.104321,249.310376 C277.104321,249.310376 274.445663,247.774902 272.907069,248.614241 C271.368475,249.45358 268.012268,246.939541 267.171224,246.171805 C266.330179,245.404068 268.765621,242.961631 270.599178,242.261519 C272.432736,241.561407 275.916494,230.952321 276.263276,230.606243 C276.610057,230.260165 278.152637,226.55673 277.941379,225.09286 C277.730122,223.628989 281.927373,216.922232 281.927373,216.922232 L284.582045,207.908288 L285.379244,205.123751 L285.411132,203.464963 C285.411132,202.717116 285.447006,201.75844 285.466936,200.680426 C285.538684,196.225167 285.614418,189.617858 285.466936,186.630448 C285.44302,186.16901 285.419104,185.795087 285.387216,185.524589 C285.036449,182.525245 288.177412,175.977605 288.954681,174.637049 C289.528664,173.64655 293.24361,172.894725 295.455837,172.429309 C295.983316,172.334145 296.504985,172.209305 297.018347,172.055386 C297.218777,172.004906 297.426343,171.988765 297.63219,172.007651 C299.72085,172.091187 305.879211,173.38003 305.879211,173.38003 C305.321172,190.202611 306.441236,187.270891 306.441236,187.270891 C308.25885,185.874645 307.138785,173.519257 307.138785,173.519257 C308.047592,173.936937 308.976328,172.886769 308.976328,172.886769 L312.523863,174.354618 C313.604101,175.002145 314.648615,175.707256 315.652868,176.466888 C316.494954,177.058848 317.23418,177.78448 317.841179,178.614959 C318.889496,180.361262 320.360327,185.317738 320.360327,185.317738 L319.100753,187.306693 C318.000619,189.068907 316.310557,191.777863 314.57665,194.522621 L311.499463,199.411473 C310.124295,201.591367 309.00423,203.361537 308.537869,204.081539 C308.432661,204.254353 308.358472,204.444161 308.318639,204.642424 C308.292262,204.773681 308.274948,204.906591 308.266822,205.040215 C308.247286,205.596618 308.302246,206.153134 308.430247,206.695026 C309.311152,210.863876 313.29316,217.693947 313.29316,217.693947 C313.29316,217.693947 317.279154,223.764238 317.350902,225.717391 C317.42265,227.670545 321.687663,229.766904 322.668218,232.42017 C323.648772,235.073436 325.813167,236.048024 325.534147,237.655099 C325.255128,239.262175 328.324343,239.958309 328.890354,241.004499 C329.456366,242.05069 327.742388,243.379312 325.785265,243.657765 Z" id="Path" fill="#FA595F" fill-rule="nonzero"></path>
                <path d="M331.99171,227.173748 C330.868394,228.095647 328.891192,228.060383 328.236269,227.93444 L328,224 L332,224.619637 C331.93685,225.469136 331.934077,226.32367 331.99171,227.173748 L331.99171,227.173748 Z" id="Path" fill="#000000" fill-rule="nonzero" opacity="0.1"></path>
                <path d="M317.690402,183 L320.579746,185.041294 C320.579746,185.041294 321.916068,190.387158 323.111935,192.288087 C324.307802,194.189017 324.167348,196.651403 324.167348,196.651403 C324.570703,197.097966 324.947244,197.568005 325.294995,198.059054 C326.141733,199.185976 327.265367,204.83663 326.844004,205.566523 C326.422642,206.296416 329.275869,212.3441 329.275869,212.3441 C329.275869,212.3441 329.677166,212.74514 330.507853,214.94685 C331.338539,217.14856 330.507853,219.663081 330.507853,219.663081 C330.507853,219.663081 332.690913,224.519676 331.775954,225.855139 C330.860995,227.190603 327.899417,227.058259 327.478055,226.909875 C327.056692,226.76149 328.605701,225.995503 325.872864,225.782952 C323.140026,225.570401 319.532359,220.717816 319.532359,220.717816 C318.10385,218.138845 317.060148,215.365085 316.43434,212.484464 C315.809968,209.516364 314.963527,206.599291 313.902151,203.757833 C313.549009,202.703097 312,195.877396 312,195.877396 L317.690402,183 Z" id="Path" fill="#FA595F" fill-rule="nonzero"></path>
                <path d="M296,183 C296,183 295.805147,198.856704 294,202 L296,183 Z" id="Path" fill="#000000" fill-rule="nonzero" opacity="0.1"></path>
                <path d="M308,189 C308,189 305.937841,204.189797 304.30982,204.973353 C302.681799,205.756909 308,189 308,189 Z" id="Path" fill="#000000" fill-rule="nonzero" opacity="0.1"></path>
                <path d="M305,188 C305,188 304.47227,202.486074 301.719517,203.916192 C298.966763,205.34631 305,188 305,188 Z" id="Path" fill="#000000" fill-rule="nonzero" opacity="0.1"></path>
                <path d="M285,215 C285,215 281.651589,223.819992 282.029784,227.463484 C282.407979,231.106975 285,215 285,215 Z" id="Path" fill="#000000" fill-rule="nonzero" opacity="0.1"></path>
                <path d="M309,206.258905 C305.219723,207.000234 294.99308,208.329752 286,203.43629 C286,202.781972 286.035813,201.943192 286.055709,201 C289.469896,202.642755 299.059862,206.916704 303.942388,205.719441 C306.377682,205.110369 307.921626,204.724043 308.888581,204.473453 C308.791871,205.06925 308.829725,205.675854 309,206.258905 L309,206.258905 Z" id="Path" fill="#000000" fill-rule="nonzero" opacity="0.1"></path>
                <path d="M309,205.261146 C305.219723,205.999308 294.99308,207.329393 286,202.437328 C286,201.782731 286.035813,200.940112 286.055709,200 C289.469896,201.643455 299.059862,205.919224 303.942388,204.721452 C306.377682,204.115602 307.921626,203.72563 308.888581,203.478415 C308.7925,204.07333 308.83035,204.678947 309,205.261146 Z" id="Path" fill="#000000" fill-rule="nonzero" opacity="0.1"></path>
                <path d="M309,205.261146 C305.219723,205.999308 294.99308,207.329393 286,202.437328 C286,201.782731 286.035813,200.943594 286.055709,200 C289.469896,201.643455 299.059862,205.919224 303.942388,204.721452 C306.377682,204.115602 307.921626,203.72563 308.888581,203.478415 C308.7925,204.07333 308.83035,204.678947 309,205.261146 Z" id="Path" fill="#605D82" fill-rule="nonzero"></path>
                <path d="M309,205.261146 C305.219723,205.999308 294.99308,207.329393 286,202.437328 C286,201.782731 286.035813,200.943594 286.055709,200 C289.469896,201.643455 299.059862,205.919224 303.942388,204.721452 C306.377682,204.115602 307.921626,203.72563 308.888581,203.478415 C308.7925,204.07333 308.83035,204.678947 309,205.261146 Z" id="Path" fill="#000000" fill-rule="nonzero" opacity="0.1"></path>
                <path d="M292.917982,302.269665 C292.917982,302.363295 292.897894,302.424358 292.893876,302.444712 L287,307 C287.940127,306.132908 288.181186,304.113763 288.177168,302.241169 C288.177168,302.037627 288.177168,301.834084 288.177168,301.630541 C288.695954,300.33646 289.432772,299.143588 290.354728,298.10518 C291.359138,297.840574 291.989907,298.10518 292.363548,298.565186 C292.363548,298.609966 292.363548,298.654745 292.363548,298.695454 C292.443677,298.793811 292.513679,298.900206 292.572465,299.01298 C293.163058,300.042907 292.994317,301.724171 292.917982,302.269665 Z" id="Path" fill="#000000" fill-rule="nonzero" opacity="0.1"></path>
                <path d="M292,300.753258 L287,304 C287,304 287.031617,303.619789 287.076784,303.060154 C287.672127,301.607941 288.53969,300.269276 289.63776,299.108528 C290.766938,298.835118 291.476061,299.108528 291.896116,299.591267 C291.936766,300.291879 292,300.753258 292,300.753258 Z" id="Path" fill="#000000" fill-rule="nonzero" opacity="0.1"></path>
                <path d="M292.901686,303.29855 C292.357762,304.739101 292.08339,306.296104 292.096534,307.86762 C292.119641,309.159335 291.835067,310.433557 291.273879,311.55118 C291.195406,311.709488 291.105219,311.859654 291.004328,312 C291.004328,312 288.312321,311.975739 287.370643,311.074056 C287.263807,310.982458 287.175429,310.865203 287.111594,310.730365 C286.572493,309.489033 288.161792,304.733966 288.161792,304.733966 C288.994949,301.06658 290.689269,299.109562 290.689269,299.109562 C293.710339,298.195749 292.901686,303.29855 292.901686,303.29855 Z" id="Path" fill="#5A5773" fill-rule="nonzero"></path>
                <path d="M291,310.566532 C290.899477,310.719424 290.783949,310.864455 290.654709,311 C290.654709,311 287.206278,310.976569 286,310.105727 C286.591928,308.395284 288.488789,303.220999 289.372197,304.099651 C290.255605,304.978303 290.789238,308.914665 291,310.566532 Z" id="Path" fill="#000000" fill-rule="nonzero" opacity="0.1"></path>
                <path d="M290.244719,304.414218 L290,312 L291.191275,312 C291.191275,312 291.380587,305.346207 291.916199,304.414218 C292.451811,303.482228 290.244719,304.414218 290.244719,304.414218 Z" id="Path" fill="#5A5773" fill-rule="nonzero"></path>
                <path d="M312.915387,300.295522 L312.891177,300.462956 L312.891177,300.462956 L307,305 C307.915957,304.109743 308.154025,302.108706 308.14999,300.254685 C308.14999,300.050497 308.14999,299.84631 308.14999,299.638039 C308.669923,298.341446 309.408569,297.146178 310.332953,296.105596 C311.341717,295.840153 311.979255,296.105596 312.370655,296.562976 C312.370655,296.611981 312.370655,296.652819 312.370655,296.69774 C312.451979,296.794298 312.522358,296.899771 312.580478,297.012189 C313.16556,298.061712 312.992053,299.752384 312.915387,300.295522 Z" id="Path" fill="#000000" fill-rule="nonzero" opacity="0.1"></path>
                <path d="M312,298.751294 L307,302 C307,302 307.031617,301.620059 307.081301,301.060821 C307.672584,299.608698 308.538887,298.270566 309.63776,297.111999 C310.766938,296.838783 311.476061,297.090654 311.918699,297.594396 C311.936766,298.294511 312,298.751294 312,298.751294 Z" id="Path" fill="#000000" fill-rule="nonzero" opacity="0.1"></path>
                <path d="M312.902283,301.299527 C312.355048,302.739017 312.079165,304.296264 312.092916,305.868084 C312.116043,307.159654 311.831218,308.433733 311.269534,309.55123 C311.189845,309.70868 311.099642,309.858725 310.999745,310 C310.999745,310 308.305359,309.975742 307.36285,309.07416 C307.259023,308.979406 307.17316,308.861065 307.11058,308.726464 C306.574506,307.485272 308.161706,302.730738 308.161706,302.730738 C308.995599,299.063764 310.691415,297.106966 310.691415,297.106966 C313.708146,296.205383 312.902283,301.299527 312.902283,301.299527 Z" id="Path" fill="#5A5773" fill-rule="nonzero"></path>
                <path d="M311,309.566769 C310.898009,309.718768 310.782562,309.863616 310.654709,310 C310.654709,310 307.206278,309.976582 306,309.106217 C306.591928,307.396712 308.488789,302.221359 309.372197,303.09953 C310.255605,303.977701 310.789238,307.904099 311,309.566769 Z" id="Path" fill="#000000" fill-rule="nonzero" opacity="0.1"></path>
                <path d="M310.249318,303.414415 L310,311 L311.191186,311 C311.191186,311 311.380482,304.34685 311.916054,303.414415 C312.451626,302.481981 310.249318,303.414415 310.249318,303.414415 Z" id="Path" fill="#5A5773" fill-rule="nonzero"></path>
                <path d="M318.99732,189.534751 C318.950943,191.530324 317.895862,193.657604 316.044641,194.252284 C315.503574,194.423903 314.927724,194.463815 314.375063,194.579558 C314.10933,194.630281 313.850023,194.711956 313.60211,194.823018 C312.415628,195.385769 311.824319,196.78267 311.584704,198.10773 C311.499679,198.56272 311.445572,199.021702 311.391466,199.484675 C311.327446,200.365989 311.149371,201.234473 310.861993,202.066945 C310.332412,203.349376 309.419704,204.423385 308.257142,205.132144 C306.907356,205.960746 305.451586,206.589504 303.932472,207 C305.485158,204.529781 305.909061,201.48002 305.091901,198.658508 C304.844556,197.840323 304.318948,196.926351 303.480295,196.950298 C302.82715,196.970254 302.359513,197.568925 301.872553,198.023916 C299.4764,200.250975 295.727579,199.25718 292.69374,198.135668 C298.104409,192.456269 299.607802,183.232734 296.345942,176.028718 C296.049556,175.466718 295.826058,174.86689 295.681202,174.244677 C295.585189,173.625401 295.642355,172.991108 295.847387,172.400768 C296.110826,171.645133 296.480664,170.933717 296.94498,170.289452 C297.134353,170.014063 297.331456,169.742665 297.532424,169.467276 C297.791363,169.104082 298.050302,168.736897 298.282188,168.357738 C298.625791,167.826985 298.886614,167.243837 299.055141,166.629573 C299.399105,165.272584 298.916009,163.556391 297.644502,163.093419 L297.574936,163.065481 C296.168162,162.61049 295.731444,162.474791 294.772983,161.309377 C294.131432,160.535095 293.768144,159.313805 292.670552,159.086309 C291.828033,158.906708 290.885031,159.293849 290,159.529326 C290.47159,156.3805 292.770908,153.856007 295.785466,153.177284 C298.800025,152.498561 301.908229,153.805559 303.606225,156.465907 C305.30422,159.126255 305.241884,162.591397 303.449377,165.184778 C304.438756,168.53734 307.001094,171.211407 308.964394,172.859749 L312.404034,174.332482 C313.451417,174.982163 314.464163,175.68962 315.437873,176.451779 C315.968966,178.943693 316.700661,181.385447 317.625329,183.751583 C318.096728,184.917886 318.484254,186.118481 318.784758,187.343613 C318.943766,188.061989 319.015174,188.798078 318.99732,189.534751 L318.99732,189.534751 Z" id="Path" fill="#000000" fill-rule="nonzero" opacity="0.1"></path>
                <path d="M297.914067,162.333748 C299.276134,162.758231 299.801844,164.503771 299.439423,165.876399 C299.077001,167.249028 298.101252,168.359825 297.276843,169.514262 C296.452434,170.668698 295.719626,172.049261 295.970533,173.445692 C296.119808,174.064163 296.350123,174.660382 296.655549,175.219001 C300.016907,182.37968 298.447742,191.543761 292.891944,197.192961 C296.018325,198.307726 299.88548,199.295542 302.350741,197.081881 C302.852555,196.629628 303.334456,196.034558 304.007524,196.014722 C304.863794,195.986952 305.417382,196.899393 305.668289,197.712656 C306.510244,200.515902 306.073383,203.546059 304.473494,206 C307.352951,205.166902 310.515176,203.877583 311.618371,201.100589 C312.112219,199.858875 312.112219,198.478313 312.359144,197.161224 C312.606068,195.844135 313.215414,194.459605 314.438088,193.900239 C315.234618,193.543197 316.130715,193.586835 316.955123,193.332939 C318.862813,192.741836 319.950077,190.63132 319.997869,188.643785 C320.045661,186.656251 319.280992,184.748059 318.564115,182.895407 C314.581463,172.580857 318.325156,180.844399 316.142663,168.431234 C315.696606,165.896235 316.39357,164.380789 316.963089,161.87356 C317.532608,159.366331 317.409146,156.462388 315.660762,154.566098 C313.912378,152.669808 311.19621,152.316733 309.025665,151.031381 C307.102044,149.888846 305.409417,147.964786 303.171167,148 C301.530315,148.024293 301.534297,148.290091 300.02089,148.924832 C297.404288,150.019762 294.469074,149.690489 291.808663,150.594996 C289.419072,151.412226 286.384291,154.086075 287.109134,156.942412 C288.084884,160.786565 290.761225,157.957998 292.848135,158.390416 C293.979208,158.628444 294.353577,159.826519 295.014697,160.60011 C296.018325,161.742645 296.464382,161.881494 297.914067,162.333748 Z" id="Path" fill="#4A4347" fill-rule="nonzero"></path>
                <path d="M272.898425,210 C272.898425,210 271.743968,209.884693 270.191141,209.657922 C266.126151,209.073698 259.252252,207.736133 263.162773,205.814345 C266.752159,204.038612 271.699253,205.545294 274.593526,206.752177 C275.416788,207.095821 276.220086,207.480725 277,207.90525 L272.898425,210 Z" id="Path" fill="#A1616A" fill-rule="nonzero"></path>
                <path d="M294,184.716656 C294,184.716656 292.190476,193.849174 291.285714,195.862299 C290.380952,197.875423 288.904762,203.180225 288.904762,203.180225 C288.904762,203.180225 286.765873,205.117907 285,207 L285.793651,204.220538 L285.825397,202.564773 C285.825397,201.818289 285.861111,200.86136 285.880952,199.785311 C285.952381,195.338171 286.027778,188.742905 285.880952,185.760939 C286.035714,185.471081 286.134921,185.292401 286.134921,185.292401 L287.543651,183.05692 C287.543651,183.05692 289.84127,176.926221 291.162698,175.183101 C292.484127,173.439981 294,184.716656 294,184.716656 Z" id="Path" fill="#000000" fill-rule="nonzero" opacity="0.1"></path>
                <path d="M274,208.067434 C274,208.067434 273.749077,208.889803 273.325953,210 C272.789668,209.819079 272.341943,209.675164 272.0123,209.588816 C270.536285,209.177632 272.273063,208.651316 271.840098,207.569901 C271.471095,206.640625 270.787208,206.932566 270,206.67352 C270.514973,206.088014 271.071961,205.529148 271.667897,205 L274,208.067434 Z" id="Path" fill="#000000" fill-rule="nonzero" opacity="0.1"></path>
                <path d="M286.684823,183.233393 L285.300941,185.521493 C285.300941,185.521493 283.421981,189.150754 283.129612,190.276516 C282.837243,191.402278 282.252504,195.710247 281.083027,196.710021 C279.91355,197.709795 277.523918,200.916387 277.866964,201.558519 C278.210011,202.20065 274.650902,202.985025 274.650902,202.985025 C274.650902,202.985025 272.257372,203.984799 272.393811,204.769175 C272.53025,205.55355 270.409598,206.195682 271.161962,206.764659 C271.914325,207.333636 272.600419,206.764659 272.943465,207.833523 C273.286512,208.902387 271.914325,209.406338 273.079904,209.833071 C274.245483,210.259804 278.073572,211.930158 278.073572,211.930158 C278.073572,211.930158 281.149297,212.470686 282.0381,210.544292 C282.926903,208.617898 287.990739,203.842555 287.990739,203.842555 C287.990739,203.842555 289.425298,198.421016 290.329694,196.352378 C291.234089,194.28374 293,184.944388 293,184.944388 C293,184.944388 291.561543,173.390089 290.27122,175.190495 C288.980897,176.990901 286.684823,183.233393 286.684823,183.233393 Z" id="Path" fill="#FA595F" fill-rule="nonzero"></path>
                <path d="M283.266933,202 C283.266933,202 276.40967,203.160962 280.081089,205.12645 C283.752507,207.091938 285,205.12645 285,205.12645 L283.266933,202 Z" id="Path" fill="#000000" fill-rule="nonzero" opacity="0.1"></path>
                <path d="M275,206.5 C275,206.5 278.882082,205.375 279.885017,206.5 C280.887952,207.625 275,206.5 275,206.5 Z" id="Path" fill="#000000" fill-rule="nonzero" opacity="0.1"></path>
                <path d="M274,207.5 C274,207.5 274.273171,206.375 275.642928,207.5 C277.012686,208.625 274,207.5 274,207.5 Z" id="Path" fill="#000000" fill-rule="nonzero" opacity="0.1"></path>
                <path d="M319,215 C319,215 319.491063,220.807038 321.487746,220.995767 C323.484428,221.184495 319,215 319,215 Z" id="Path" fill="#000000" fill-rule="nonzero" opacity="0.1"></path>
                <path d="M323.983769,200 C323.983769,200 324.261561,201.671731 322.518698,201.972574 C320.775834,202.273417 323.983769,200 323.983769,200 Z" id="Path" fill="#000000" fill-rule="nonzero" opacity="0.1"></path>
                <path d="M303.000179,219 C303.000179,219 302.906592,238.587737 307,241 L303.000179,219 Z" id="Path" fill="#000000" fill-rule="nonzero" opacity="0.1"></path>
                <path d="M308.000089,220 C308.000089,220 307.92677,239.583769 312,242 L308.000089,220 Z" id="Path" fill="#000000" fill-rule="nonzero" opacity="0.1"></path>
                <path d="M286,262.510543 C287.187811,262.298725 288.383305,262.298725 289.571116,262.510543 C291.557386,262.820543 286,262.510543 286,262.510543 Z" id="Path" fill="#000000" fill-rule="nonzero" opacity="0.1"></path>
                <path d="M286,263.501654 C287.187811,263.289836 288.383305,263.289836 289.571116,263.501654 C291.557386,263.851654 286,263.501654 286,263.501654 Z" id="Path" fill="#000000" fill-rule="nonzero" opacity="0.1"></path>
                <path d="M307,260.499432 C308.187811,260.287614 309.383305,260.287614 310.571116,260.499432 C312.557386,260.859432 307,260.499432 307,260.499432 Z" id="Path" fill="#000000" fill-rule="nonzero" opacity="0.1"></path>
                <path d="M308,261.501654 C309.188318,261.289836 310.384322,261.289836 311.572639,261.501654 C313.554542,261.851654 308,261.501654 308,261.501654 Z" id="Path" fill="#000000" fill-rule="nonzero" opacity="0.1"></path>
                <g id="Group" opacity="0.1" transform="translate(287.000000, 152.000000)" fill="#000000" fill-rule="nonzero">
                    <path d="M7.672,46.172 C13.272,40.48 14.828,31.24 11.452,24.016 C11.145243,23.4527529 10.9139247,22.8515942 10.764,22.228 C10.512,20.82 11.244,19.428 12.076,18.264 C12.908,17.1 13.888,15.98 14.248,14.596 C14.608,13.212 14.084,11.452 12.716,11.028 C11.26,10.572 10.808,10.432 9.816,9.264 C9.152,8.488 8.776,7.264 7.64,7.04 C5.544,6.604 2.84,9.44 1.876,5.576 C1.324,3.408 2.936,1.336 4.796,0.1 C2.472,1.064 -0.216,3.624 0.472,6.332 C1.452,10.208 4.14,7.36 6.236,7.796 C7.372,8.032 7.748,9.244 8.412,10.02 C9.408,11.188 9.856,11.328 11.312,11.784 C12.68,12.208 13.208,13.968 12.844,15.352 C12.48,16.736 11.5,17.856 10.672,19.02 C9.844,20.184 9.108,21.576 9.36,22.988 C9.51065337,23.6100939 9.7419444,24.209837 10.048,24.772 C13.424,31.996 11.848,41.236 6.268,46.928 C9.292,48.012 13,48.972 15.468,47.052 C13.128,47.876 10.168,47.064 7.672,46.172 Z" id="Path"></path>
                    <path d="M29.324,42.856 C29.0267373,42.991153 28.755859,43.178059 28.524,43.408 C29.156,43.252 29.824,43.232 30.444,43.036 C30.9247762,42.8871527 31.3690003,42.6391503 31.748,42.308 C30.952,42.532 30.08,42.508 29.324,42.856 Z" id="Path"></path>
                    <path d="M22.356,53.956 C21.3708322,54.3962725 20.3547899,54.7639194 19.316,55.056 C20.9228586,52.5817291 21.3616225,49.5264702 20.516,46.7 C20.264,45.9 19.716,44.96 18.848,44.984 C18.3265445,45.0642884 17.8533803,45.3350751 17.52,45.744 C18.32,45.772 18.868,46.66 19.12,47.456 C19.9656225,50.2824702 19.5268586,53.3377291 17.92,55.812 C19.4767465,55.3995807 20.9693921,54.7750653 22.356,53.956 L22.356,53.956 Z" id="Path"></path>
                </g>
            </g>
        </g>
    </g>
</svg>