<svg width="313" height="100" viewBox="0 0 313 100" fill="none" xmlns="http://www.w3.org/2000/svg">
<path d="M18 0H72.1C73.5 0 74.9 0.7 75.7 1.8L89.2 19.8C89.8 20.6 90.1 21.5 90.1 22.5V85.6C90.1 93.1 84 99.1 76.6 99.1H13.5C6.1 99.1 0 93.1 0 85.6V22.5C0 21.5 0.3 20.6 0.9 19.8L14.4 1.8C15.3 0.7 16.6 0 18 0ZM69.9 9H20.3L9 24V85.6C9 88.1 11 90.1 13.5 90.1H76.6C79.1 90.1 81.1 88.1 81.1 85.6V24L69.9 9Z" fill="#1f548a"/>
<path d="M85.6 27H4.5C2 27 0 25 0 22.5C0 20 2 18 4.5 18H85.6C88.1 18 90.1 20 90.1 22.5C90.1 25 88.1 27 85.6 27Z" fill="#1f548a"/>
<path d="M28.5999 63C27.2999 50.6 36.2999 39.5 48.6999 38.2C51.1999 37.9 53.3999 39.7 53.6999 42.2C53.9999 44.7 52.1999 46.9 49.6999 47.2C42.2999 48 36.8999 54.6 37.6999 62.1C38.4999 69.6 45.0999 74.9 52.5999 74.1C55.0999 73.8 57.2999 75.6 57.5999 78.1C57.8999 80.6 56.0999 82.8 53.5999 83.1C40.9999 84.4 29.8999 75.4 28.5999 63Z" fill="#1f548a"/>
<path d="M48.3 42.8L58.5 54.1L37.3 63" stroke="#1f548a" stroke-width="10"/>
<path d="M119.27 26.45V31.7H126.32V35.03H119.27V40.58H127.22V44H115.07V23.03H127.22V26.45H119.27Z" fill="#1f548a"/>
<path d="M143.817 31.52V35.06H131.097V31.52H143.817Z" fill="#1f548a"/>
<path d="M147.447 35.69C147.447 33.97 147.797 32.47 148.497 31.19C149.197 29.89 150.167 28.89 151.407 28.19C152.647 27.47 154.067 27.11 155.667 27.11C157.727 27.11 159.427 27.63 160.767 28.67C162.127 29.69 163.037 31.13 163.497 32.99H158.967C158.727 32.27 158.317 31.71 157.737 31.31C157.177 30.89 156.477 30.68 155.637 30.68C154.437 30.68 153.487 31.12 152.787 32C152.087 32.86 151.737 34.09 151.737 35.69C151.737 37.27 152.087 38.5 152.787 39.38C153.487 40.24 154.437 40.67 155.637 40.67C157.337 40.67 158.447 39.91 158.967 38.39H163.497C163.037 40.19 162.127 41.62 160.767 42.68C159.407 43.74 157.707 44.27 155.667 44.27C154.067 44.27 152.647 43.92 151.407 43.22C150.167 42.5 149.197 41.5 148.497 40.22C147.797 38.92 147.447 37.41 147.447 35.69Z" fill="#1f548a"/>
<path d="M173.954 44.27C172.354 44.27 170.914 43.92 169.634 43.22C168.354 42.5 167.344 41.49 166.604 40.19C165.884 38.89 165.524 37.39 165.524 35.69C165.524 33.99 165.894 32.49 166.634 31.19C167.394 29.89 168.424 28.89 169.724 28.19C171.024 27.47 172.474 27.11 174.074 27.11C175.674 27.11 177.124 27.47 178.424 28.19C179.724 28.89 180.744 29.89 181.484 31.19C182.244 32.49 182.624 33.99 182.624 35.69C182.624 37.39 182.234 38.89 181.454 40.19C180.694 41.49 179.654 42.5 178.334 43.22C177.034 43.92 175.574 44.27 173.954 44.27ZM173.954 40.61C174.714 40.61 175.424 40.43 176.084 40.07C176.764 39.69 177.304 39.13 177.704 38.39C178.104 37.65 178.304 36.75 178.304 35.69C178.304 34.11 177.884 32.9 177.044 32.06C176.224 31.2 175.214 30.77 174.014 30.77C172.814 30.77 171.804 31.2 170.984 32.06C170.184 32.9 169.784 34.11 169.784 35.69C169.784 37.27 170.174 38.49 170.954 39.35C171.754 40.19 172.754 40.61 173.954 40.61Z" fill="#1f548a"/>
<path d="M206.345 27.14C208.385 27.14 210.025 27.77 211.265 29.03C212.525 30.27 213.155 32.01 213.155 34.25V44H208.955V34.82C208.955 33.52 208.625 32.53 207.965 31.85C207.305 31.15 206.405 30.8 205.265 30.8C204.125 30.8 203.215 31.15 202.535 31.85C201.875 32.53 201.545 33.52 201.545 34.82V44H197.345V34.82C197.345 33.52 197.015 32.53 196.355 31.85C195.695 31.15 194.795 30.8 193.655 30.8C192.495 30.8 191.575 31.15 190.895 31.85C190.235 32.53 189.905 33.52 189.905 34.82V44H185.705V27.38H189.905V29.39C190.445 28.69 191.135 28.14 191.975 27.74C192.835 27.34 193.775 27.14 194.795 27.14C196.095 27.14 197.255 27.42 198.275 27.98C199.295 28.52 200.085 29.3 200.645 30.32C201.185 29.36 201.965 28.59 202.985 28.01C204.025 27.43 205.145 27.14 206.345 27.14Z" fill="#1f548a"/>
<path d="M237.78 27.14C239.82 27.14 241.46 27.77 242.7 29.03C243.96 30.27 244.59 32.01 244.59 34.25V44H240.39V34.82C240.39 33.52 240.06 32.53 239.4 31.85C238.74 31.15 237.84 30.8 236.7 30.8C235.56 30.8 234.65 31.15 233.97 31.85C233.31 32.53 232.98 33.52 232.98 34.82V44H228.78V34.82C228.78 33.52 228.45 32.53 227.79 31.85C227.13 31.15 226.23 30.8 225.09 30.8C223.93 30.8 223.01 31.15 222.33 31.85C221.67 32.53 221.34 33.52 221.34 34.82V44H217.14V27.38H221.34V29.39C221.88 28.69 222.57 28.14 223.41 27.74C224.27 27.34 225.21 27.14 226.23 27.14C227.53 27.14 228.69 27.42 229.71 27.98C230.73 28.52 231.52 29.3 232.08 30.32C232.62 29.36 233.4 28.59 234.42 28.01C235.46 27.43 236.58 27.14 237.78 27.14Z" fill="#1f548a"/>
<path d="M264.026 35.33C264.026 35.93 263.986 36.47 263.906 36.95H251.756C251.856 38.15 252.276 39.09 253.016 39.77C253.756 40.45 254.666 40.79 255.746 40.79C257.306 40.79 258.416 40.12 259.076 38.78H263.606C263.126 40.38 262.206 41.7 260.846 42.74C259.486 43.76 257.816 44.27 255.836 44.27C254.236 44.27 252.796 43.92 251.516 43.22C250.256 42.5 249.266 41.49 248.546 40.19C247.846 38.89 247.496 37.39 247.496 35.69C247.496 33.97 247.846 32.46 248.546 31.16C249.246 29.86 250.226 28.86 251.486 28.16C252.746 27.46 254.196 27.11 255.836 27.11C257.416 27.11 258.826 27.45 260.066 28.13C261.326 28.81 262.296 29.78 262.976 31.04C263.676 32.28 264.026 33.71 264.026 35.33ZM259.676 34.13C259.656 33.05 259.266 32.19 258.506 31.55C257.746 30.89 256.816 30.56 255.716 30.56C254.676 30.56 253.796 30.88 253.076 31.52C252.376 32.14 251.946 33.01 251.786 34.13H259.676Z" fill="#1f548a"/>
<path d="M271.291 29.96C271.831 29.08 272.531 28.39 273.391 27.89C274.271 27.39 275.271 27.14 276.391 27.14V31.55H275.281C273.961 31.55 272.961 31.86 272.281 32.48C271.621 33.1 271.291 34.18 271.291 35.72V44H267.091V27.38H271.291V29.96Z" fill="#1f548a"/>
<path d="M278.14 35.69C278.14 33.97 278.49 32.47 279.19 31.19C279.89 29.89 280.86 28.89 282.1 28.19C283.34 27.47 284.76 27.11 286.36 27.11C288.42 27.11 290.12 27.63 291.46 28.67C292.82 29.69 293.73 31.13 294.19 32.99H289.66C289.42 32.27 289.01 31.71 288.43 31.31C287.87 30.89 287.17 30.68 286.33 30.68C285.13 30.68 284.18 31.12 283.48 32C282.78 32.86 282.43 34.09 282.43 35.69C282.43 37.27 282.78 38.5 283.48 39.38C284.18 40.24 285.13 40.67 286.33 40.67C288.03 40.67 289.14 39.91 289.66 38.39H294.19C293.73 40.19 292.82 41.62 291.46 42.68C290.1 43.74 288.4 44.27 286.36 44.27C284.76 44.27 283.34 43.92 282.1 43.22C280.86 42.5 279.89 41.5 279.19 40.22C278.49 38.92 278.14 37.41 278.14 35.69Z" fill="#1f548a"/>
<path d="M312.717 35.33C312.717 35.93 312.677 36.47 312.597 36.95H300.447C300.547 38.15 300.967 39.09 301.707 39.77C302.447 40.45 303.357 40.79 304.437 40.79C305.997 40.79 307.107 40.12 307.767 38.78H312.297C311.817 40.38 310.897 41.7 309.537 42.74C308.177 43.76 306.507 44.27 304.527 44.27C302.927 44.27 301.487 43.92 300.207 43.22C298.947 42.5 297.957 41.49 297.237 40.19C296.537 38.89 296.187 37.39 296.187 35.69C296.187 33.97 296.537 32.46 297.237 31.16C297.937 29.86 298.917 28.86 300.177 28.16C301.437 27.46 302.887 27.11 304.527 27.11C306.107 27.11 307.517 27.45 308.757 28.13C310.017 28.81 310.987 29.78 311.667 31.04C312.367 32.28 312.717 33.71 312.717 35.33ZM308.367 34.13C308.347 33.05 307.957 32.19 307.197 31.55C306.437 30.89 305.507 30.56 304.407 30.56C303.367 30.56 302.487 30.88 301.767 31.52C301.067 32.14 300.637 33.01 300.477 34.13H308.367Z" fill="#1f548a"/>
<path d="M121.68 84.196C120.317 84.196 119.085 83.9627 117.984 83.496C116.901 83.0294 116.043 82.3574 115.408 81.48C114.773 80.6027 114.447 79.5667 114.428 78.372H118.628C118.684 79.1747 118.964 79.8094 119.468 80.276C119.991 80.7427 120.7 80.976 121.596 80.976C122.511 80.976 123.229 80.7614 123.752 80.332C124.275 79.884 124.536 79.3054 124.536 78.596C124.536 78.0174 124.359 77.5414 124.004 77.168C123.649 76.7947 123.201 76.5054 122.66 76.3C122.137 76.076 121.409 75.8334 120.476 75.572C119.207 75.1987 118.171 74.8347 117.368 74.48C116.584 74.1067 115.903 73.556 115.324 72.828C114.764 72.0814 114.484 71.092 114.484 69.86C114.484 68.7027 114.773 67.6947 115.352 66.836C115.931 65.9774 116.743 65.324 117.788 64.876C118.833 64.4094 120.028 64.176 121.372 64.176C123.388 64.176 125.021 64.6707 126.272 65.66C127.541 66.6307 128.241 67.9934 128.372 69.748H124.06C124.023 69.076 123.733 68.5254 123.192 68.096C122.669 67.648 121.969 67.424 121.092 67.424C120.327 67.424 119.711 67.62 119.244 68.012C118.796 68.404 118.572 68.9734 118.572 69.72C118.572 70.2427 118.74 70.6814 119.076 71.036C119.431 71.372 119.86 71.652 120.364 71.876C120.887 72.0814 121.615 72.324 122.548 72.604C123.817 72.9774 124.853 73.3507 125.656 73.724C126.459 74.0974 127.149 74.6574 127.728 75.404C128.307 76.1507 128.596 77.1307 128.596 78.344C128.596 79.3894 128.325 80.36 127.784 81.256C127.243 82.152 126.449 82.8707 125.404 83.412C124.359 83.9347 123.117 84.196 121.68 84.196Z" fill="#1f548a"/>
<path d="M140.73 68.264C141.906 68.264 142.952 68.5254 143.866 69.048C144.781 69.552 145.49 70.308 145.994 71.316C146.517 72.3054 146.778 73.5 146.778 74.9V84H142.858V75.432C142.858 74.2 142.55 73.2574 141.934 72.604C141.318 71.932 140.478 71.596 139.414 71.596C138.332 71.596 137.473 71.932 136.838 72.604C136.222 73.2574 135.914 74.2 135.914 75.432V84H131.994V63.28H135.914V70.42C136.418 69.748 137.09 69.2254 137.93 68.852C138.77 68.46 139.704 68.264 140.73 68.264Z" fill="#1f548a"/>
<path d="M157.394 84.252C155.901 84.252 154.557 83.9254 153.362 83.272C152.168 82.6 151.225 81.6574 150.534 80.444C149.862 79.2307 149.526 77.8307 149.526 76.244C149.526 74.6574 149.872 73.2574 150.562 72.044C151.272 70.8307 152.233 69.8974 153.446 69.244C154.66 68.572 156.013 68.236 157.506 68.236C159 68.236 160.353 68.572 161.566 69.244C162.78 69.8974 163.732 70.8307 164.422 72.044C165.132 73.2574 165.486 74.6574 165.486 76.244C165.486 77.8307 165.122 79.2307 164.394 80.444C163.685 81.6574 162.714 82.6 161.482 83.272C160.269 83.9254 158.906 84.252 157.394 84.252ZM157.394 80.836C158.104 80.836 158.766 80.668 159.382 80.332C160.017 79.9774 160.521 79.4547 160.894 78.764C161.268 78.0734 161.454 77.2334 161.454 76.244C161.454 74.7694 161.062 73.64 160.278 72.856C159.513 72.0534 158.57 71.652 157.45 71.652C156.33 71.652 155.388 72.0534 154.622 72.856C153.876 73.64 153.502 74.7694 153.502 76.244C153.502 77.7187 153.866 78.8574 154.594 79.66C155.341 80.444 156.274 80.836 157.394 80.836Z" fill="#1f548a"/>
<path d="M172.282 70.728C172.786 70.0187 173.476 69.4307 174.354 68.964C175.25 68.4787 176.267 68.236 177.406 68.236C178.731 68.236 179.926 68.5627 180.99 69.216C182.072 69.8694 182.922 70.8027 183.538 72.016C184.172 73.2107 184.49 74.6014 184.49 76.188C184.49 77.7747 184.172 79.184 183.538 80.416C182.922 81.6294 182.072 82.572 180.99 83.244C179.926 83.916 178.731 84.252 177.406 84.252C176.267 84.252 175.259 84.0187 174.382 83.552C173.523 83.0854 172.823 82.4974 172.282 81.788V91.392H168.362V68.488H172.282V70.728ZM180.486 76.188C180.486 75.2547 180.29 74.452 179.898 73.78C179.524 73.0894 179.02 72.5667 178.386 72.212C177.77 71.8574 177.098 71.68 176.37 71.68C175.66 71.68 174.988 71.8667 174.354 72.24C173.738 72.5947 173.234 73.1174 172.842 73.808C172.468 74.4987 172.282 75.3107 172.282 76.244C172.282 77.1774 172.468 77.9894 172.842 78.68C173.234 79.3707 173.738 79.9027 174.354 80.276C174.988 80.6307 175.66 80.808 176.37 80.808C177.098 80.808 177.77 80.6214 178.386 80.248C179.02 79.8747 179.524 79.3427 179.898 78.652C180.29 77.9614 180.486 77.14 180.486 76.188Z" fill="#1f548a"/>
</svg>
